0
SECTION
2
HEADER
9
$ACADVER
1
AC1009
0
ENDSEC
0
SECTION
2
ENTITIES
0
POLYLINE
8
CORTE_EXTERNO
66
1
70
1
0
VERTEX
8
CORTE_EXTERNO
10
5.0000
20
133.9600
42
-0.414214
0
VERTEX
8
CORTE_EXTERNO
10
155.0900
20
133.9600
42
-0.414214
0
VERTEX
8
CORTE_EXTERNO
10
160.0900
20
128.9600
42
-0.414214
0
VERTEX
8
CORTE_EXTERNO
10
160.0900
20
5.0000
42
-0.414214
0
VERTEX
8
CORTE_EXTERNO
10
155.0900
20
0.0000
42
-0.414214
0
VERTEX
8
CORTE_EXTERNO
10
5.0000
20
0.0000
42
-0.414214
0
VERTEX
8
CORTE_EXTERNO
10
0.0000
20
5.0000
42
-0.414214
0
VERTEX
8
CORTE_EXTERNO
10
0.0000
20
128.9600
42
-0.414214
0
SEQEND
0
CIRCLE
8
FUROS
10
6.0000
20
127.9600
40
1.7500
0
CIRCLE
8
FUROS
10
154.0900
20
127.9600
40
1.7500
0
CIRCLE
8
FUROS
10
6.0400
20
5.0800
40
1.7500
0
CIRCLE
8
FUROS
10
155.9000
20
5.0800
40
1.7500
0
ENDSEC
0
EOF
