%TF.GenerationSoftware,KiCad,Pcbnew,7.0.11+dfsg-1build4*%
%TF.CreationDate,2026-08-12T00:55:20-03:00*%
%TF.ProjectId,MeetingHub-4,4d656574-696e-4674-9875-622d342e6b69,rev?*%
%TF.SameCoordinates,Original*%
%TF.FileFunction,Soldermask,Bot*%
%TF.FilePolarity,Negative*%
%FSLAX46Y46*%
G04 Gerber Fmt 4.6, Leading zero omitted, Abs format (unit mm)*
G04 Created by KiCad (PCBNEW 7.0.11+dfsg-1build4) date 2026-08-12 00:55:20*
%MOMM*%
%LPD*%
G01*
G04 APERTURE LIST*
G04 Aperture macros list*
%AMRoundRect*
0 Rectangle with rounded corners*
0 $1 Rounding radius*
0 $2 $3 $4 $5 $6 $7 $8 $9 X,Y pos of 4 corners*
0 Add a 4 corners polygon primitive as box body*
4,1,4,$2,$3,$4,$5,$6,$7,$8,$9,$2,$3,0*
0 Add four circle primitives for the rounded corners*
1,1,$1+$1,$2,$3*
1,1,$1+$1,$4,$5*
1,1,$1+$1,$6,$7*
1,1,$1+$1,$8,$9*
0 Add four rect primitives between the rounded corners*
20,1,$1+$1,$2,$3,$4,$5,0*
20,1,$1+$1,$4,$5,$6,$7,0*
20,1,$1+$1,$6,$7,$8,$9,0*
20,1,$1+$1,$8,$9,$2,$3,0*%
G04 Aperture macros list end*
%ADD10C,1.500000*%
%ADD11R,1.600000X1.600000*%
%ADD12C,1.600000*%
%ADD13RoundRect,0.450000X-0.450000X-0.450000X0.450000X-0.450000X0.450000X0.450000X-0.450000X0.450000X0*%
%ADD14C,1.800000*%
%ADD15RoundRect,0.500000X-0.500000X-1.000000X0.500000X-1.000000X0.500000X1.000000X-0.500000X1.000000X0*%
%ADD16R,2.000000X2.000000*%
%ADD17C,2.000000*%
%ADD18C,3.200000*%
%ADD19O,1.600000X1.600000*%
%ADD20C,0.700000*%
%ADD21O,0.900000X2.400000*%
%ADD22O,0.900000X1.700000*%
%ADD23C,2.010000*%
%ADD24RoundRect,0.450000X-0.450000X0.450000X-0.450000X-0.450000X0.450000X-0.450000X0.450000X0.450000X0*%
G04 APERTURE END LIST*
D10*
%TO.C,J3*%
X90450000Y-88955000D03*
X90450000Y-95955000D03*
%TD*%
D11*
%TO.C,C17*%
X190810000Y-170250000D03*
D12*
X194310000Y-170250000D03*
%TD*%
%TO.C,C9*%
X105950000Y-135000000D03*
X108450000Y-135000000D03*
%TD*%
D10*
%TO.C,J4*%
X103450000Y-88955000D03*
X103450000Y-95955000D03*
%TD*%
D13*
%TO.C,RV4*%
X135265000Y-162600000D03*
D14*
X135265000Y-165100000D03*
X135265000Y-167600000D03*
X137765000Y-162600000D03*
X137765000Y-165100000D03*
X137765000Y-167600000D03*
D15*
X145265000Y-160350000D03*
X145265000Y-169850000D03*
%TD*%
D16*
%TO.C,K2*%
X84300000Y-183600000D03*
D17*
X84300000Y-186140000D03*
X84300000Y-193760000D03*
X89380000Y-193760000D03*
X89380000Y-186140000D03*
X89380000Y-183600000D03*
%TD*%
D18*
%TO.C,MH1*%
X66000000Y-91000000D03*
%TD*%
D12*
%TO.C,R10*%
X73500000Y-126000000D03*
D19*
X83660000Y-126000000D03*
%TD*%
D11*
%TO.C,U2*%
X158650000Y-121850000D03*
D19*
X158650000Y-124390000D03*
X158650000Y-126930000D03*
X158650000Y-129470000D03*
X166270000Y-129470000D03*
X166270000Y-126930000D03*
X166270000Y-124390000D03*
X166270000Y-121850000D03*
%TD*%
D11*
%TO.C,C2*%
X167300000Y-113550000D03*
D12*
X169300000Y-113550000D03*
%TD*%
D11*
%TO.C,U1*%
X73550000Y-105350000D03*
D19*
X73550000Y-107890000D03*
X73550000Y-110430000D03*
X73550000Y-112970000D03*
X81170000Y-112970000D03*
X81170000Y-110430000D03*
X81170000Y-107890000D03*
X81170000Y-105350000D03*
%TD*%
D12*
%TO.C,R9*%
X132540000Y-119500000D03*
D19*
X142700000Y-119500000D03*
%TD*%
D12*
%TO.C,C11*%
X81950000Y-141500000D03*
X84450000Y-141500000D03*
%TD*%
%TO.C,C8*%
X97950000Y-135000000D03*
X100450000Y-135000000D03*
%TD*%
%TO.C,R8*%
X117780000Y-119500000D03*
D19*
X127940000Y-119500000D03*
%TD*%
D11*
%TO.C,C20*%
X176050000Y-182250000D03*
D12*
X179550000Y-182250000D03*
%TD*%
D10*
%TO.C,TP2*%
X154550000Y-101800000D03*
%TD*%
%TO.C,J2*%
X77450000Y-88955000D03*
X77450000Y-95955000D03*
%TD*%
D18*
%TO.C,MH4*%
X215900000Y-213880000D03*
%TD*%
D12*
%TO.C,C12*%
X89950000Y-141500000D03*
X92450000Y-141500000D03*
%TD*%
D20*
%TO.C,J1*%
X171040000Y-93980000D03*
X170190000Y-93980000D03*
X169340000Y-93980000D03*
X168490000Y-93980000D03*
X167640000Y-93980000D03*
X166790000Y-93980000D03*
X165940000Y-93980000D03*
X165090000Y-93980000D03*
X165090000Y-92630000D03*
X165940000Y-92630000D03*
X166790000Y-92630000D03*
X167640000Y-92630000D03*
X168490000Y-92630000D03*
X169340000Y-92630000D03*
X170190000Y-92630000D03*
X171040000Y-92630000D03*
D21*
X172390000Y-93000000D03*
D22*
X172390000Y-89620000D03*
D21*
X163740000Y-93000000D03*
D22*
X163740000Y-89620000D03*
%TD*%
D13*
%TO.C,RV3*%
X114945000Y-162600000D03*
D14*
X114945000Y-165100000D03*
X114945000Y-167600000D03*
X117445000Y-162600000D03*
X117445000Y-165100000D03*
X117445000Y-167600000D03*
D15*
X124945000Y-160350000D03*
X124945000Y-169850000D03*
%TD*%
D13*
%TO.C,RV1*%
X74305000Y-162600000D03*
D14*
X74305000Y-165100000D03*
X74305000Y-167600000D03*
X76805000Y-162600000D03*
X76805000Y-165100000D03*
X76805000Y-167600000D03*
D15*
X84305000Y-160350000D03*
X84305000Y-169850000D03*
%TD*%
D16*
%TO.C,K3*%
X94700000Y-183600000D03*
D17*
X94700000Y-186140000D03*
X94700000Y-193760000D03*
X99780000Y-193760000D03*
X99780000Y-186140000D03*
X99780000Y-183600000D03*
%TD*%
D11*
%TO.C,C16*%
X182060000Y-143750000D03*
D12*
X184060000Y-143750000D03*
%TD*%
%TO.C,R14*%
X185660000Y-121800000D03*
D19*
X195820000Y-121800000D03*
%TD*%
D12*
%TO.C,R6*%
X88260000Y-119500000D03*
D19*
X98420000Y-119500000D03*
%TD*%
D18*
%TO.C,MH2*%
X214090000Y-91000000D03*
%TD*%
D12*
%TO.C,R12*%
X103020000Y-126000000D03*
D19*
X113180000Y-126000000D03*
%TD*%
D17*
%TO.C,SW4*%
X123790000Y-214510000D03*
X128290000Y-214510000D03*
X122540000Y-212010000D03*
X129540000Y-212010000D03*
%TD*%
%TO.C,SW5*%
X135870000Y-214510000D03*
X140370000Y-214510000D03*
X134620000Y-212010000D03*
X141620000Y-212010000D03*
%TD*%
D12*
%TO.C,R13*%
X170900000Y-121800000D03*
D19*
X181060000Y-121800000D03*
%TD*%
D12*
%TO.C,R11*%
X88260000Y-126000000D03*
D19*
X98420000Y-126000000D03*
%TD*%
D13*
%TO.C,RV2*%
X94625000Y-162600000D03*
D14*
X94625000Y-165100000D03*
X94625000Y-167600000D03*
X97125000Y-162600000D03*
X97125000Y-165100000D03*
X97125000Y-167600000D03*
D15*
X104625000Y-160350000D03*
X104625000Y-169850000D03*
%TD*%
D12*
%TO.C,R18*%
X188120000Y-136000000D03*
D19*
X198280000Y-136000000D03*
%TD*%
D10*
%TO.C,J5*%
X116450000Y-88955000D03*
X116450000Y-95955000D03*
%TD*%
%TO.C,TP1*%
X215090000Y-101800000D03*
%TD*%
D12*
%TO.C,R2*%
X100560000Y-105300000D03*
D19*
X110720000Y-105300000D03*
%TD*%
D23*
%TO.C,F1*%
X160450000Y-104950000D03*
X165550000Y-106150000D03*
%TD*%
D12*
%TO.C,C6*%
X81950000Y-135000000D03*
X84450000Y-135000000D03*
%TD*%
%TO.C,R19*%
X202880000Y-136000000D03*
D19*
X213040000Y-136000000D03*
%TD*%
D17*
%TO.C,SW3*%
X109510000Y-214510000D03*
X114010000Y-214510000D03*
X108260000Y-212010000D03*
X115260000Y-212010000D03*
%TD*%
%TO.C,SW1*%
X73150000Y-214510000D03*
X77650000Y-214510000D03*
X71900000Y-212010000D03*
X78900000Y-212010000D03*
%TD*%
D12*
%TO.C,C14*%
X105950000Y-141500000D03*
X108450000Y-141500000D03*
%TD*%
D11*
%TO.C,C3*%
X118480000Y-127250000D03*
D12*
X120480000Y-127250000D03*
%TD*%
D11*
%TO.C,D2*%
X73500000Y-199800000D03*
D19*
X81120000Y-199800000D03*
%TD*%
D11*
%TO.C,D5*%
X110160000Y-199800000D03*
D19*
X117780000Y-199800000D03*
%TD*%
D12*
%TO.C,C10*%
X73950000Y-141500000D03*
X76450000Y-141500000D03*
%TD*%
D11*
%TO.C,C19*%
X167300000Y-180750000D03*
D12*
X169300000Y-180750000D03*
%TD*%
%TO.C,R4*%
X130080000Y-105300000D03*
D19*
X140240000Y-105300000D03*
%TD*%
D17*
%TO.C,SW2*%
X96810000Y-214510000D03*
X101310000Y-214510000D03*
X95560000Y-212010000D03*
X102560000Y-212010000D03*
%TD*%
D12*
%TO.C,C13*%
X97950000Y-141500000D03*
X100450000Y-141500000D03*
%TD*%
%TO.C,R5*%
X73500000Y-119500000D03*
D19*
X83660000Y-119500000D03*
%TD*%
D12*
%TO.C,R15*%
X200420000Y-121800000D03*
D19*
X210580000Y-121800000D03*
%TD*%
D16*
%TO.C,K1*%
X73900000Y-183600000D03*
D17*
X73900000Y-186140000D03*
X73900000Y-193760000D03*
X78980000Y-193760000D03*
X78980000Y-186140000D03*
X78980000Y-183600000D03*
%TD*%
D10*
%TO.C,J6*%
X201600000Y-213880000D03*
X201600000Y-206880000D03*
%TD*%
D11*
%TO.C,D4*%
X97940000Y-199800000D03*
D19*
X105560000Y-199800000D03*
%TD*%
D12*
%TO.C,R17*%
X173360000Y-136000000D03*
D19*
X183520000Y-136000000D03*
%TD*%
D12*
%TO.C,R7*%
X103020000Y-119500000D03*
D19*
X113180000Y-119500000D03*
%TD*%
D12*
%TO.C,R3*%
X115320000Y-105300000D03*
D19*
X125480000Y-105300000D03*
%TD*%
D12*
%TO.C,C18*%
X159050000Y-179500000D03*
X161550000Y-179500000D03*
%TD*%
D24*
%TO.C,RV5*%
X157520000Y-213510000D03*
D14*
X160020000Y-213510000D03*
X162520000Y-213510000D03*
X157520000Y-211010000D03*
X160020000Y-211010000D03*
X162520000Y-211010000D03*
%TD*%
D16*
%TO.C,K4*%
X105100000Y-183600000D03*
D17*
X105100000Y-186140000D03*
X105100000Y-193760000D03*
X110180000Y-193760000D03*
X110180000Y-186140000D03*
X110180000Y-183600000D03*
%TD*%
D12*
%TO.C,C15*%
X173810000Y-142500000D03*
X176310000Y-142500000D03*
%TD*%
%TO.C,R16*%
X158600000Y-136000000D03*
D19*
X168760000Y-136000000D03*
%TD*%
D12*
%TO.C,R1*%
X85800000Y-105300000D03*
D19*
X95960000Y-105300000D03*
%TD*%
D11*
%TO.C,D3*%
X85720000Y-199800000D03*
D19*
X93340000Y-199800000D03*
%TD*%
D12*
%TO.C,C7*%
X89950000Y-135000000D03*
X92450000Y-135000000D03*
%TD*%
%TO.C,C5*%
X73950000Y-135000000D03*
X76450000Y-135000000D03*
%TD*%
%TO.C,R20*%
X158600000Y-142500000D03*
D19*
X168760000Y-142500000D03*
%TD*%
D18*
%TO.C,MH3*%
X66040000Y-213880000D03*
%TD*%
M02*
