M48
; DRILL file {KiCad 7.0.11+dfsg-1build4} date Thu Aug  6 19:28:12 2026
; FORMAT={-:-/ absolute / metric / decimal}
; #@! TF.CreationDate,2026-08-06T19:28:12-03:00
; #@! TF.GenerationSoftware,Kicad,Pcbnew,7.0.11+dfsg-1build4
; #@! TF.FileFunction,MixedPlating,1,4
FMAT,2
METRIC
; #@! TA.AperFunction,Plated,PTH,ViaDrill
T1C0.300
; #@! TA.AperFunction,Plated,PTH,ComponentDrill
T2C0.400
; #@! TA.AperFunction,Plated,PTH,ComponentDrill
T3C0.600
; #@! TA.AperFunction,Plated,PTH,ComponentDrill
T4C0.700
; #@! TA.AperFunction,Plated,PTH,ComponentDrill
T5C0.800
; #@! TA.AperFunction,Plated,PTH,ComponentDrill
T6C1.000
; #@! TA.AperFunction,Plated,PTH,ComponentDrill
T7C1.010
; #@! TA.AperFunction,Plated,PTH,ComponentDrill
T8C1.100
; #@! TA.AperFunction,Plated,PTH,ComponentDrill
T9C1.200
; #@! TA.AperFunction,Plated,PTH,ComponentDrill
T10C1.300
; #@! TA.AperFunction,NonPlated,NPTH,ComponentDrill
T11C1.500
; #@! TA.AperFunction,NonPlated,NPTH,ComponentDrill
T12C3.200
%
G90
G05
T1
X71.494Y-98.655
X72.055Y-101.295
X78.995Y-97.555
X82.799Y-93.398
X89.95Y-97.895
X91.068Y-101.295
X93.582Y-98.928
X94.161Y-103.041
X95.411Y-93.555
X97.018Y-103.681
X97.672Y-97.489
X98.224Y-104.598
X110.893Y-98.508
X114.795Y-97.757
X122.0Y-203.5
X123.8Y-203.5
X128.8Y-212.7
X134.557Y-156.004
X145.8Y-212.7
X162.8Y-212.7
X164.911Y-174.609
X165.702Y-158.659
X167.18Y-146.016
X167.18Y-157.941
X170.317Y-196.7
X170.883Y-208.904
X177.315Y-128.222
X179.8Y-212.7
T2
X165.08Y-87.55
X165.08Y-88.9
X165.93Y-87.55
X165.93Y-88.9
X166.78Y-87.55
X166.78Y-88.9
X167.63Y-87.55
X167.63Y-88.9
X168.48Y-87.55
X168.48Y-88.9
X169.33Y-87.55
X169.33Y-88.9
X170.18Y-87.55
X170.18Y-88.9
X171.03Y-87.55
X171.03Y-88.9
T4
X154.55Y-101.8
X215.09Y-101.8
T5
X73.5Y-119.5
X73.5Y-126.0
X73.5Y-199.8
X73.55Y-105.35
X73.55Y-107.89
X73.55Y-110.43
X73.55Y-112.97
X73.95Y-135.0
X73.95Y-141.5
X76.45Y-135.0
X76.45Y-141.5
X81.12Y-199.8
X81.17Y-105.35
X81.17Y-107.89
X81.17Y-110.43
X81.17Y-112.97
X81.95Y-135.0
X81.95Y-141.5
X83.66Y-119.5
X83.66Y-126.0
X84.45Y-135.0
X84.45Y-141.5
X85.72Y-199.8
X85.8Y-105.3
X88.26Y-119.5
X88.26Y-126.0
X89.95Y-135.0
X89.95Y-141.5
X92.45Y-135.0
X92.45Y-141.5
X93.34Y-199.8
X95.96Y-105.3
X97.94Y-199.8
X97.95Y-135.0
X97.95Y-141.5
X98.42Y-119.5
X98.42Y-126.0
X100.45Y-135.0
X100.45Y-141.5
X100.56Y-105.3
X103.02Y-119.5
X103.02Y-126.0
X105.56Y-199.8
X105.95Y-135.0
X105.95Y-141.5
X108.45Y-135.0
X108.45Y-141.5
X110.16Y-199.8
X110.72Y-105.3
X113.18Y-119.5
X113.18Y-126.0
X115.32Y-105.3
X117.78Y-119.5
X117.78Y-199.8
X118.48Y-127.25
X120.48Y-127.25
X125.48Y-105.3
X126.23Y-126.0
X127.94Y-119.5
X128.73Y-126.0
X130.08Y-105.3
X132.54Y-119.5
X140.24Y-105.3
X142.7Y-119.5
X158.6Y-136.0
X158.6Y-142.5
X158.65Y-121.85
X158.65Y-124.39
X158.65Y-126.93
X158.65Y-129.47
X159.05Y-112.3
X159.05Y-179.5
X161.55Y-112.3
X161.55Y-179.5
X166.27Y-121.85
X166.27Y-124.39
X166.27Y-126.93
X166.27Y-129.47
X167.3Y-113.55
X167.3Y-180.75
X168.76Y-136.0
X168.76Y-142.5
X169.3Y-113.55
X169.3Y-180.75
X170.9Y-121.8
X173.36Y-136.0
X173.81Y-142.5
X176.05Y-182.25
X176.31Y-142.5
X179.55Y-182.25
X181.06Y-121.8
X182.06Y-143.75
X183.52Y-136.0
X184.06Y-143.75
X185.66Y-121.8
X186.05Y-179.5
X188.12Y-136.0
X188.55Y-179.5
X190.81Y-170.25
X194.31Y-170.25
X195.82Y-121.8
X198.28Y-136.0
X200.42Y-121.8
X202.88Y-136.0
X210.58Y-121.8
X213.04Y-136.0
T6
X73.9Y-183.6
X73.9Y-186.14
X73.9Y-193.76
X78.98Y-183.6
X78.98Y-186.14
X78.98Y-193.76
X84.3Y-183.6
X84.3Y-186.14
X84.3Y-193.76
X89.38Y-183.6
X89.38Y-186.14
X89.38Y-193.76
X90.0Y-150.0
X90.0Y-152.5
X90.0Y-155.0
X92.5Y-150.0
X92.5Y-152.5
X92.5Y-155.0
X94.7Y-183.6
X94.7Y-186.14
X94.7Y-193.76
X99.78Y-183.6
X99.78Y-186.14
X99.78Y-193.76
X105.1Y-183.6
X105.1Y-186.14
X105.1Y-193.76
X110.18Y-183.6
X110.18Y-186.14
X110.18Y-193.76
X117.5Y-167.0
X117.5Y-169.5
X117.5Y-172.0
X119.0Y-204.9
X119.0Y-207.4
X120.0Y-167.0
X120.0Y-169.5
X120.0Y-172.0
X121.5Y-204.9
X121.5Y-207.4
X122.0Y-150.0
X122.0Y-152.5
X122.0Y-155.0
X124.0Y-204.9
X124.0Y-207.4
X124.5Y-150.0
X124.5Y-152.5
X124.5Y-155.0
X149.5Y-167.0
X149.5Y-169.5
X149.5Y-172.0
X152.0Y-167.0
X152.0Y-169.5
X152.0Y-172.0
T7
X160.45Y-104.95
X165.55Y-106.15
T8
X172.3Y-105.4
X182.46Y-105.4
T9
X130.8Y-207.4
X136.1Y-207.4
X145.8Y-207.4
X151.1Y-207.4
X162.8Y-207.4
X168.1Y-207.4
X179.8Y-207.4
X185.1Y-207.4
T10
X75.4Y-207.4
X75.4Y-212.4
X87.9Y-207.4
X87.9Y-212.4
T11
X77.45Y-88.955
X77.45Y-95.955
X90.45Y-88.955
X90.45Y-95.955
X103.45Y-88.955
X103.45Y-95.955
X116.45Y-88.955
X116.45Y-95.955
X201.6Y-206.88
X201.6Y-213.88
T12
X66.0Y-91.0
X66.04Y-213.88
X214.09Y-91.0
X215.9Y-213.88
T3
X163.73Y-87.78G85X163.73Y-89.28
G05
X163.73Y-91.51G85X163.73Y-92.31
G05
X172.38Y-87.78G85X172.38Y-89.28
G05
X172.38Y-91.51G85X172.38Y-92.31
G05
M30
