%TF.GenerationSoftware,KiCad,Pcbnew,7.0.11+dfsg-1build4*%
%TF.CreationDate,2026-08-06T19:28:12-03:00*%
%TF.ProjectId,MeetingHub-4,4d656574-696e-4674-9875-622d342e6b69,rev?*%
%TF.SameCoordinates,Original*%
%TF.FileFunction,Copper,L1,Top*%
%TF.FilePolarity,Positive*%
%FSLAX46Y46*%
G04 Gerber Fmt 4.6, Leading zero omitted, Abs format (unit mm)*
G04 Created by KiCad (PCBNEW 7.0.11+dfsg-1build4) date 2026-08-06 19:28:12*
%MOMM*%
%LPD*%
G01*
G04 APERTURE LIST*
G04 Aperture macros list*
%AMRoundRect*
0 Rectangle with rounded corners*
0 $1 Rounding radius*
0 $2 $3 $4 $5 $6 $7 $8 $9 X,Y pos of 4 corners*
0 Add a 4 corners polygon primitive as box body*
4,1,4,$2,$3,$4,$5,$6,$7,$8,$9,$2,$3,0*
0 Add four circle primitives for the rounded corners*
1,1,$1+$1,$2,$3*
1,1,$1+$1,$4,$5*
1,1,$1+$1,$6,$7*
1,1,$1+$1,$8,$9*
0 Add four rect primitives between the rounded corners*
20,1,$1+$1,$2,$3,$4,$5,0*
20,1,$1+$1,$4,$5,$6,$7,0*
20,1,$1+$1,$6,$7,$8,$9,0*
20,1,$1+$1,$8,$9,$2,$3,0*%
G04 Aperture macros list end*
%TA.AperFunction,SMDPad,CuDef*%
%ADD10R,2.500000X1.200000*%
%TD*%
%TA.AperFunction,ComponentPad*%
%ADD11R,1.600000X1.600000*%
%TD*%
%TA.AperFunction,ComponentPad*%
%ADD12C,1.600000*%
%TD*%
%TA.AperFunction,ComponentPad*%
%ADD13RoundRect,0.450000X0.450000X0.450000X-0.450000X0.450000X-0.450000X-0.450000X0.450000X-0.450000X0*%
%TD*%
%TA.AperFunction,ComponentPad*%
%ADD14C,1.800000*%
%TD*%
%TA.AperFunction,ComponentPad*%
%ADD15R,2.000000X2.000000*%
%TD*%
%TA.AperFunction,ComponentPad*%
%ADD16C,2.000000*%
%TD*%
%TA.AperFunction,ComponentPad*%
%ADD17O,1.600000X1.600000*%
%TD*%
%TA.AperFunction,ComponentPad*%
%ADD18C,1.500000*%
%TD*%
%TA.AperFunction,ComponentPad*%
%ADD19C,0.700000*%
%TD*%
%TA.AperFunction,ComponentPad*%
%ADD20O,0.900000X2.400000*%
%TD*%
%TA.AperFunction,ComponentPad*%
%ADD21O,0.900000X1.700000*%
%TD*%
%TA.AperFunction,ComponentPad*%
%ADD22C,2.400000*%
%TD*%
%TA.AperFunction,ComponentPad*%
%ADD23R,2.200000X2.200000*%
%TD*%
%TA.AperFunction,ComponentPad*%
%ADD24O,2.200000X2.200000*%
%TD*%
%TA.AperFunction,ComponentPad*%
%ADD25C,2.010000*%
%TD*%
%TA.AperFunction,ComponentPad*%
%ADD26O,3.048000X1.850000*%
%TD*%
%TA.AperFunction,SMDPad,CuDef*%
%ADD27R,1.200000X2.500000*%
%TD*%
%TA.AperFunction,ComponentPad*%
%ADD28RoundRect,0.450000X-0.450000X0.450000X-0.450000X-0.450000X0.450000X-0.450000X0.450000X0.450000X0*%
%TD*%
%TA.AperFunction,ViaPad*%
%ADD29C,0.600000*%
%TD*%
%TA.AperFunction,Conductor*%
%ADD30C,0.200000*%
%TD*%
%TA.AperFunction,Conductor*%
%ADD31C,0.300000*%
%TD*%
%TA.AperFunction,Conductor*%
%ADD32C,0.250000*%
%TD*%
G04 APERTURE END LIST*
D10*
%TO.P,J3,R1*%
%TO.N,NB2_R*%
X93700000Y-93555000D03*
%TO.P,J3,R2*%
%TO.N,GND*%
X93700000Y-90555000D03*
%TO.P,J3,S*%
%TO.N,NB2_MIC*%
X87200000Y-98655000D03*
%TO.P,J3,T*%
%TO.N,NB2_L*%
X93700000Y-97555000D03*
%TD*%
D11*
%TO.P,C17,1*%
%TO.N,Net-(C17-Pad1)*%
X190810000Y-170250000D03*
D12*
%TO.P,C17,2*%
%TO.N,Net-(C17-Pad2)*%
X194310000Y-170250000D03*
%TD*%
%TO.P,C9,1*%
%TO.N,NB3_L*%
X105950000Y-135000000D03*
%TO.P,C9,2*%
%TO.N,Net-(C9-Pad2)*%
X108450000Y-135000000D03*
%TD*%
D10*
%TO.P,J4,R1*%
%TO.N,NB3_R*%
X106700000Y-93555000D03*
%TO.P,J4,R2*%
%TO.N,GND*%
X106700000Y-90555000D03*
%TO.P,J4,S*%
%TO.N,NB3_MIC*%
X100200000Y-98655000D03*
%TO.P,J4,T*%
%TO.N,NB3_L*%
X106700000Y-97555000D03*
%TD*%
D13*
%TO.P,RV4,1*%
%TO.N,Net-(C11-Pad2)*%
X149500000Y-167000000D03*
D14*
%TO.P,RV4,2*%
%TO.N,Net-(R11-Pad1)*%
X149500000Y-169500000D03*
%TO.P,RV4,3*%
%TO.N,VBIAS*%
X149500000Y-172000000D03*
%TO.P,RV4,4*%
%TO.N,Net-(C12-Pad2)*%
X152000000Y-167000000D03*
%TO.P,RV4,5*%
%TO.N,Net-(R12-Pad1)*%
X152000000Y-169500000D03*
%TO.P,RV4,6*%
%TO.N,VBIAS*%
X152000000Y-172000000D03*
%TD*%
D15*
%TO.P,K2,1*%
%TO.N,Net-(D3-A)*%
X84300000Y-183600000D03*
D16*
%TO.P,K2,2*%
%TO.N,GND*%
X84300000Y-186140000D03*
%TO.P,K2,5*%
%TO.N,Net-(SW1-B)*%
X84300000Y-193760000D03*
%TO.P,K2,6*%
X89380000Y-193760000D03*
%TO.P,K2,9*%
%TO.N,NB2_MIC*%
X89380000Y-186140000D03*
%TO.P,K2,10*%
%TO.N,unconnected-(K2-Pad10)*%
X89380000Y-183600000D03*
%TD*%
D12*
%TO.P,R10,1*%
%TO.N,Net-(R10-Pad1)*%
X73500000Y-126000000D03*
D17*
%TO.P,R10,2*%
%TO.N,Net-(U1B--)*%
X83660000Y-126000000D03*
%TD*%
D11*
%TO.P,U2,1*%
%TO.N,Net-(C17-Pad1)*%
X158650000Y-121850000D03*
D17*
%TO.P,U2,2,-*%
%TO.N,Net-(U2A--)*%
X158650000Y-124390000D03*
%TO.P,U2,3,+*%
%TO.N,Net-(U2A-+)*%
X158650000Y-126930000D03*
%TO.P,U2,4,V-*%
%TO.N,GND*%
X158650000Y-129470000D03*
%TO.P,U2,5,+*%
%TO.N,Net-(U2B-+)*%
X166270000Y-129470000D03*
%TO.P,U2,6,-*%
%TO.N,Net-(U2B--)*%
X166270000Y-126930000D03*
%TO.P,U2,7*%
%TO.N,Net-(C20-Pad1)*%
X166270000Y-124390000D03*
%TO.P,U2,8,V+*%
%TO.N,+5V_AUDIO*%
X166270000Y-121850000D03*
%TD*%
D11*
%TO.P,C2,1*%
%TO.N,+5V_AUDIO*%
X167300000Y-113550000D03*
D12*
%TO.P,C2,2*%
%TO.N,GND*%
X169300000Y-113550000D03*
%TD*%
D11*
%TO.P,U1,1*%
%TO.N,Net-(C13-Pad1)*%
X73550000Y-105350000D03*
D17*
%TO.P,U1,2,-*%
%TO.N,Net-(U1A--)*%
X73550000Y-107890000D03*
%TO.P,U1,3,+*%
%TO.N,VBIAS*%
X73550000Y-110430000D03*
%TO.P,U1,4,V-*%
%TO.N,GND*%
X73550000Y-112970000D03*
%TO.P,U1,5,+*%
%TO.N,VBIAS*%
X81170000Y-112970000D03*
%TO.P,U1,6,-*%
%TO.N,Net-(U1B--)*%
X81170000Y-110430000D03*
%TO.P,U1,7*%
%TO.N,Net-(C14-Pad1)*%
X81170000Y-107890000D03*
%TO.P,U1,8,V+*%
%TO.N,+5V_AUDIO*%
X81170000Y-105350000D03*
%TD*%
D12*
%TO.P,R9,1*%
%TO.N,Net-(R9-Pad1)*%
X132540000Y-119500000D03*
D17*
%TO.P,R9,2*%
%TO.N,Net-(U1A--)*%
X142700000Y-119500000D03*
%TD*%
D12*
%TO.P,C11,1*%
%TO.N,NB4_L*%
X81950000Y-141500000D03*
%TO.P,C11,2*%
%TO.N,Net-(C11-Pad2)*%
X84450000Y-141500000D03*
%TD*%
%TO.P,C8,1*%
%TO.N,NB2_R*%
X97950000Y-135000000D03*
%TO.P,C8,2*%
%TO.N,Net-(C8-Pad2)*%
X100450000Y-135000000D03*
%TD*%
%TO.P,R8,1*%
%TO.N,Net-(R8-Pad1)*%
X117780000Y-119500000D03*
D17*
%TO.P,R8,2*%
%TO.N,Net-(U1B--)*%
X127940000Y-119500000D03*
%TD*%
D11*
%TO.P,C20,1*%
%TO.N,Net-(C20-Pad1)*%
X176050000Y-182250000D03*
D12*
%TO.P,C20,2*%
%TO.N,Net-(C20-Pad2)*%
X179550000Y-182250000D03*
%TD*%
D18*
%TO.P,TP2,1*%
%TO.N,GND*%
X154550000Y-101800000D03*
%TD*%
D10*
%TO.P,J2,R1*%
%TO.N,NB1_R*%
X80700000Y-93555000D03*
%TO.P,J2,R2*%
%TO.N,GND*%
X80700000Y-90555000D03*
%TO.P,J2,S*%
%TO.N,NB1_MIC*%
X74200000Y-98655000D03*
%TO.P,J2,T*%
%TO.N,NB1_L*%
X80700000Y-97555000D03*
%TD*%
D12*
%TO.P,C12,1*%
%TO.N,NB4_R*%
X89950000Y-141500000D03*
%TO.P,C12,2*%
%TO.N,Net-(C12-Pad2)*%
X92450000Y-141500000D03*
%TD*%
D19*
%TO.P,J1,A1,GND*%
%TO.N,GND*%
X165080000Y-87550000D03*
%TO.P,J1,A4,VBUS*%
%TO.N,Net-(D1-K)*%
X165930000Y-87550000D03*
%TO.P,J1,A5,CC1*%
%TO.N,unconnected-(J1-CC1-PadA5)*%
X166780000Y-87550000D03*
%TO.P,J1,A6,D+*%
%TO.N,unconnected-(J1-D+-PadA6)*%
X167630000Y-87550000D03*
%TO.P,J1,A7,D-*%
%TO.N,unconnected-(J1-D--PadA7)*%
X168480000Y-87550000D03*
%TO.P,J1,A8,SBU1*%
%TO.N,unconnected-(J1-SBU1-PadA8)*%
X169330000Y-87550000D03*
%TO.P,J1,A9,VBUS*%
%TO.N,Net-(D1-K)*%
X170180000Y-87550000D03*
%TO.P,J1,A12,GND*%
%TO.N,GND*%
X171030000Y-87550000D03*
%TO.P,J1,B1,GND*%
X171030000Y-88900000D03*
%TO.P,J1,B4,VBUS*%
%TO.N,Net-(D1-K)*%
X170180000Y-88900000D03*
%TO.P,J1,B5,CC2*%
%TO.N,unconnected-(J1-CC2-PadB5)*%
X169330000Y-88900000D03*
%TO.P,J1,B6,D+*%
%TO.N,unconnected-(J1-D+-PadB6)*%
X168480000Y-88900000D03*
%TO.P,J1,B7,D-*%
%TO.N,unconnected-(J1-D--PadB7)*%
X167630000Y-88900000D03*
%TO.P,J1,B8,SBU2*%
%TO.N,unconnected-(J1-SBU2-PadB8)*%
X166780000Y-88900000D03*
%TO.P,J1,B9,VBUS*%
%TO.N,Net-(D1-K)*%
X165930000Y-88900000D03*
%TO.P,J1,B12,GND*%
%TO.N,GND*%
X165080000Y-88900000D03*
D20*
%TO.P,J1,S1,SHIELD*%
%TO.N,unconnected-(J1-SHIELD-PadS1)*%
X163730000Y-88530000D03*
D21*
X163730000Y-91910000D03*
D20*
X172380000Y-88530000D03*
D21*
X172380000Y-91910000D03*
%TD*%
D13*
%TO.P,RV3,1*%
%TO.N,Net-(C9-Pad2)*%
X117500000Y-167000000D03*
D14*
%TO.P,RV3,2*%
%TO.N,Net-(R9-Pad1)*%
X117500000Y-169500000D03*
%TO.P,RV3,3*%
%TO.N,VBIAS*%
X117500000Y-172000000D03*
%TO.P,RV3,4*%
%TO.N,Net-(C10-Pad2)*%
X120000000Y-167000000D03*
%TO.P,RV3,5*%
%TO.N,Net-(R10-Pad1)*%
X120000000Y-169500000D03*
%TO.P,RV3,6*%
%TO.N,VBIAS*%
X120000000Y-172000000D03*
%TD*%
D13*
%TO.P,RV1,1*%
%TO.N,Net-(C5-Pad2)*%
X90000000Y-150000000D03*
D14*
%TO.P,RV1,2*%
%TO.N,Net-(R5-Pad1)*%
X90000000Y-152500000D03*
%TO.P,RV1,3*%
%TO.N,VBIAS*%
X90000000Y-155000000D03*
%TO.P,RV1,4*%
%TO.N,Net-(C6-Pad2)*%
X92500000Y-150000000D03*
%TO.P,RV1,5*%
%TO.N,Net-(R6-Pad1)*%
X92500000Y-152500000D03*
%TO.P,RV1,6*%
%TO.N,VBIAS*%
X92500000Y-155000000D03*
%TD*%
D15*
%TO.P,K3,1*%
%TO.N,Net-(D4-A)*%
X94700000Y-183600000D03*
D16*
%TO.P,K3,2*%
%TO.N,GND*%
X94700000Y-186140000D03*
%TO.P,K3,5*%
%TO.N,Net-(SW1-B)*%
X94700000Y-193760000D03*
%TO.P,K3,6*%
X99780000Y-193760000D03*
%TO.P,K3,9*%
%TO.N,NB3_MIC*%
X99780000Y-186140000D03*
%TO.P,K3,10*%
%TO.N,unconnected-(K3-Pad10)*%
X99780000Y-183600000D03*
%TD*%
D11*
%TO.P,C16,1*%
%TO.N,Net-(C16-Pad1)*%
X182060000Y-143750000D03*
D12*
%TO.P,C16,2*%
%TO.N,GND*%
X184060000Y-143750000D03*
%TD*%
%TO.P,R14,1*%
%TO.N,Net-(U2A--)*%
X185660000Y-121800000D03*
D17*
%TO.P,R14,2*%
%TO.N,Net-(C16-Pad1)*%
X195820000Y-121800000D03*
%TD*%
D12*
%TO.P,R6,1*%
%TO.N,Net-(R6-Pad1)*%
X88260000Y-119500000D03*
D17*
%TO.P,R6,2*%
%TO.N,Net-(U1B--)*%
X98420000Y-119500000D03*
%TD*%
D12*
%TO.P,R12,1*%
%TO.N,Net-(R12-Pad1)*%
X103020000Y-126000000D03*
D17*
%TO.P,R12,2*%
%TO.N,Net-(U1B--)*%
X113180000Y-126000000D03*
%TD*%
D22*
%TO.P,SW4,1*%
%TO.N,+5V_AUDIO*%
X162800000Y-207400000D03*
%TO.P,SW4,2*%
%TO.N,Net-(D4-A)*%
X168100000Y-207400000D03*
%TD*%
%TO.P,SW5,1*%
%TO.N,+5V_AUDIO*%
X179800000Y-207400000D03*
%TO.P,SW5,2*%
%TO.N,Net-(D5-A)*%
X185100000Y-207400000D03*
%TD*%
D12*
%TO.P,R13,1*%
%TO.N,VBIAS*%
X170900000Y-121800000D03*
D17*
%TO.P,R13,2*%
%TO.N,Net-(U2A-+)*%
X181060000Y-121800000D03*
%TD*%
D23*
%TO.P,D1,1,K*%
%TO.N,Net-(D1-K)*%
X172300000Y-105400000D03*
D24*
%TO.P,D1,2,A*%
%TO.N,GND*%
X182460000Y-105400000D03*
%TD*%
D12*
%TO.P,R11,1*%
%TO.N,Net-(R11-Pad1)*%
X88260000Y-126000000D03*
D17*
%TO.P,R11,2*%
%TO.N,Net-(U1A--)*%
X98420000Y-126000000D03*
%TD*%
D13*
%TO.P,RV2,1*%
%TO.N,Net-(C7-Pad2)*%
X122000000Y-150000000D03*
D14*
%TO.P,RV2,2*%
%TO.N,Net-(R7-Pad1)*%
X122000000Y-152500000D03*
%TO.P,RV2,3*%
%TO.N,VBIAS*%
X122000000Y-155000000D03*
%TO.P,RV2,4*%
%TO.N,Net-(C8-Pad2)*%
X124500000Y-150000000D03*
%TO.P,RV2,5*%
%TO.N,Net-(R8-Pad1)*%
X124500000Y-152500000D03*
%TO.P,RV2,6*%
%TO.N,VBIAS*%
X124500000Y-155000000D03*
%TD*%
D12*
%TO.P,R18,1*%
%TO.N,Net-(U2B--)*%
X188120000Y-136000000D03*
D17*
%TO.P,R18,2*%
%TO.N,Net-(C19-Pad1)*%
X198280000Y-136000000D03*
%TD*%
D10*
%TO.P,J5,R1*%
%TO.N,NB4_R*%
X119700000Y-93555000D03*
%TO.P,J5,R2*%
%TO.N,GND*%
X119700000Y-90555000D03*
%TO.P,J5,S*%
%TO.N,NB4_MIC*%
X113200000Y-98655000D03*
%TO.P,J5,T*%
%TO.N,NB4_L*%
X119700000Y-97555000D03*
%TD*%
D12*
%TO.P,C1,1*%
%TO.N,+5V_AUDIO*%
X159050000Y-112300000D03*
%TO.P,C1,2*%
%TO.N,GND*%
X161550000Y-112300000D03*
%TD*%
D18*
%TO.P,TP1,1,1*%
%TO.N,+5V_AUDIO*%
X215090000Y-101800000D03*
%TD*%
D12*
%TO.P,R2,1*%
%TO.N,VBIAS*%
X100560000Y-105300000D03*
D17*
%TO.P,R2,2*%
%TO.N,GND*%
X110720000Y-105300000D03*
%TD*%
D25*
%TO.P,F1,1*%
%TO.N,Net-(D1-K)*%
X160450000Y-104950000D03*
%TO.P,F1,2*%
%TO.N,+5V_AUDIO*%
X165550000Y-106150000D03*
%TD*%
D12*
%TO.P,C6,1*%
%TO.N,NB1_R*%
X81950000Y-135000000D03*
%TO.P,C6,2*%
%TO.N,Net-(C6-Pad2)*%
X84450000Y-135000000D03*
%TD*%
%TO.P,R19,1*%
%TO.N,Net-(U2B--)*%
X202880000Y-136000000D03*
D17*
%TO.P,R19,2*%
%TO.N,Net-(C20-Pad1)*%
X213040000Y-136000000D03*
%TD*%
D22*
%TO.P,SW3,1*%
%TO.N,+5V_AUDIO*%
X145800000Y-207400000D03*
%TO.P,SW3,2*%
%TO.N,Net-(D3-A)*%
X151100000Y-207400000D03*
%TD*%
D26*
%TO.P,SW1,1*%
%TO.N,HEADSET_MIC*%
X75400000Y-207400000D03*
%TO.N,N/C*%
X87900000Y-207400000D03*
%TO.P,SW1,2*%
%TO.N,Net-(SW1-B)*%
X75400000Y-212400000D03*
%TO.N,N/C*%
X87900000Y-212400000D03*
%TD*%
D12*
%TO.P,C14,1*%
%TO.N,Net-(C14-Pad1)*%
X105950000Y-141500000D03*
%TO.P,C14,2*%
%TO.N,Net-(C14-Pad2)*%
X108450000Y-141500000D03*
%TD*%
D11*
%TO.P,C3,1*%
%TO.N,VBIAS*%
X118480000Y-127250000D03*
D12*
%TO.P,C3,2*%
%TO.N,GND*%
X120480000Y-127250000D03*
%TD*%
D11*
%TO.P,D2,1,K*%
%TO.N,GND*%
X73500000Y-199800000D03*
D17*
%TO.P,D2,2,A*%
%TO.N,Net-(D2-A)*%
X81120000Y-199800000D03*
%TD*%
D12*
%TO.P,C4,1*%
%TO.N,+5V_AUDIO*%
X126230000Y-126000000D03*
%TO.P,C4,2*%
%TO.N,GND*%
X128730000Y-126000000D03*
%TD*%
D11*
%TO.P,D5,1,K*%
%TO.N,GND*%
X110160000Y-199800000D03*
D17*
%TO.P,D5,2,A*%
%TO.N,Net-(D5-A)*%
X117780000Y-199800000D03*
%TD*%
D12*
%TO.P,C10,1*%
%TO.N,NB3_R*%
X73950000Y-141500000D03*
%TO.P,C10,2*%
%TO.N,Net-(C10-Pad2)*%
X76450000Y-141500000D03*
%TD*%
D11*
%TO.P,C19,1*%
%TO.N,Net-(C19-Pad1)*%
X167300000Y-180750000D03*
D12*
%TO.P,C19,2*%
%TO.N,GND*%
X169300000Y-180750000D03*
%TD*%
%TO.P,R4,1*%
%TO.N,Net-(U1B--)*%
X130080000Y-105300000D03*
D17*
%TO.P,R4,2*%
%TO.N,Net-(C14-Pad1)*%
X140240000Y-105300000D03*
%TD*%
D22*
%TO.P,SW2,1*%
%TO.N,+5V_AUDIO*%
X130800000Y-207400000D03*
%TO.P,SW2,2*%
%TO.N,Net-(D2-A)*%
X136100000Y-207400000D03*
%TD*%
D12*
%TO.P,C13,1*%
%TO.N,Net-(C13-Pad1)*%
X97950000Y-141500000D03*
%TO.P,C13,2*%
%TO.N,Net-(C13-Pad2)*%
X100450000Y-141500000D03*
%TD*%
%TO.P,R5,1*%
%TO.N,Net-(R5-Pad1)*%
X73500000Y-119500000D03*
D17*
%TO.P,R5,2*%
%TO.N,Net-(U1A--)*%
X83660000Y-119500000D03*
%TD*%
D12*
%TO.P,R15,1*%
%TO.N,Net-(U2A--)*%
X200420000Y-121800000D03*
D17*
%TO.P,R15,2*%
%TO.N,Net-(C17-Pad1)*%
X210580000Y-121800000D03*
%TD*%
D15*
%TO.P,K1,1*%
%TO.N,Net-(D2-A)*%
X73900000Y-183600000D03*
D16*
%TO.P,K1,2*%
%TO.N,GND*%
X73900000Y-186140000D03*
%TO.P,K1,5*%
%TO.N,Net-(SW1-B)*%
X73900000Y-193760000D03*
%TO.P,K1,6*%
X78980000Y-193760000D03*
%TO.P,K1,9*%
%TO.N,NB1_MIC*%
X78980000Y-186140000D03*
%TO.P,K1,10*%
%TO.N,unconnected-(K1-Pad10)*%
X78980000Y-183600000D03*
%TD*%
D27*
%TO.P,J6,R1*%
%TO.N,Net-(J6-PadR1)*%
X198350000Y-209280000D03*
%TO.P,J6,R2*%
%TO.N,GND*%
X198350000Y-212280000D03*
%TO.P,J6,S*%
%TO.N,HEADSET_MIC*%
X204850000Y-204180000D03*
%TO.P,J6,T*%
%TO.N,Net-(J6-PadT)*%
X198350000Y-205280000D03*
%TD*%
D11*
%TO.P,D4,1,K*%
%TO.N,GND*%
X97940000Y-199800000D03*
D17*
%TO.P,D4,2,A*%
%TO.N,Net-(D4-A)*%
X105560000Y-199800000D03*
%TD*%
D12*
%TO.P,R17,1*%
%TO.N,VBIAS*%
X173360000Y-136000000D03*
D17*
%TO.P,R17,2*%
%TO.N,Net-(U2B-+)*%
X183520000Y-136000000D03*
%TD*%
D12*
%TO.P,R7,1*%
%TO.N,Net-(R7-Pad1)*%
X103020000Y-119500000D03*
D17*
%TO.P,R7,2*%
%TO.N,Net-(U1A--)*%
X113180000Y-119500000D03*
%TD*%
D12*
%TO.P,R3,1*%
%TO.N,Net-(U1A--)*%
X115320000Y-105300000D03*
D17*
%TO.P,R3,2*%
%TO.N,Net-(C13-Pad1)*%
X125480000Y-105300000D03*
%TD*%
D12*
%TO.P,C18,1*%
%TO.N,MIX_R*%
X159050000Y-179500000D03*
%TO.P,C18,2*%
%TO.N,Net-(U2B-+)*%
X161550000Y-179500000D03*
%TD*%
D28*
%TO.P,RV5,1*%
%TO.N,Net-(C13-Pad2)*%
X119000000Y-207400000D03*
D14*
%TO.P,RV5,2*%
%TO.N,MIX_L*%
X121500000Y-207400000D03*
%TO.P,RV5,3*%
%TO.N,VBIAS*%
X124000000Y-207400000D03*
%TO.P,RV5,4*%
%TO.N,Net-(C14-Pad2)*%
X119000000Y-204900000D03*
%TO.P,RV5,5*%
%TO.N,MIX_R*%
X121500000Y-204900000D03*
%TO.P,RV5,6*%
%TO.N,VBIAS*%
X124000000Y-204900000D03*
%TD*%
D15*
%TO.P,K4,1*%
%TO.N,Net-(D5-A)*%
X105100000Y-183600000D03*
D16*
%TO.P,K4,2*%
%TO.N,GND*%
X105100000Y-186140000D03*
%TO.P,K4,5*%
%TO.N,Net-(SW1-B)*%
X105100000Y-193760000D03*
%TO.P,K4,6*%
X110180000Y-193760000D03*
%TO.P,K4,9*%
%TO.N,NB4_MIC*%
X110180000Y-186140000D03*
%TO.P,K4,10*%
%TO.N,unconnected-(K4-Pad10)*%
X110180000Y-183600000D03*
%TD*%
D12*
%TO.P,C15,1*%
%TO.N,MIX_L*%
X173810000Y-142500000D03*
%TO.P,C15,2*%
%TO.N,Net-(U2A-+)*%
X176310000Y-142500000D03*
%TD*%
%TO.P,R16,1*%
%TO.N,Net-(C17-Pad2)*%
X158600000Y-136000000D03*
D17*
%TO.P,R16,2*%
%TO.N,Net-(J6-PadT)*%
X168760000Y-136000000D03*
%TD*%
D12*
%TO.P,R1,1*%
%TO.N,+5V_AUDIO*%
X85800000Y-105300000D03*
D17*
%TO.P,R1,2*%
%TO.N,VBIAS*%
X95960000Y-105300000D03*
%TD*%
D12*
%TO.P,C21,1*%
%TO.N,+5V_AUDIO*%
X186050000Y-179500000D03*
%TO.P,C21,2*%
%TO.N,GND*%
X188550000Y-179500000D03*
%TD*%
D11*
%TO.P,D3,1,K*%
%TO.N,GND*%
X85720000Y-199800000D03*
D17*
%TO.P,D3,2,A*%
%TO.N,Net-(D3-A)*%
X93340000Y-199800000D03*
%TD*%
D12*
%TO.P,C7,1*%
%TO.N,NB2_L*%
X89950000Y-135000000D03*
%TO.P,C7,2*%
%TO.N,Net-(C7-Pad2)*%
X92450000Y-135000000D03*
%TD*%
%TO.P,C5,1*%
%TO.N,NB1_L*%
X73950000Y-135000000D03*
%TO.P,C5,2*%
%TO.N,Net-(C5-Pad2)*%
X76450000Y-135000000D03*
%TD*%
%TO.P,R20,1*%
%TO.N,Net-(C20-Pad2)*%
X158600000Y-142500000D03*
D17*
%TO.P,R20,2*%
%TO.N,Net-(J6-PadR1)*%
X168760000Y-142500000D03*
%TD*%
D29*
%TO.N,VBIAS*%
X122000000Y-203500000D03*
X123800000Y-203500000D03*
%TO.N,NB1_L*%
X78995400Y-97555000D03*
%TO.N,NB1_R*%
X82798600Y-93398100D03*
%TO.N,NB2_L*%
X89950000Y-97895400D03*
%TO.N,NB2_R*%
X95410600Y-93555000D03*
%TO.N,NB3_L*%
X97672300Y-97488800D03*
%TO.N,NB3_R*%
X72055500Y-101294700D03*
%TO.N,NB4_L*%
X114795300Y-97756700D03*
%TO.N,Net-(C11-Pad2)*%
X134556600Y-156004000D03*
%TO.N,NB4_R*%
X91068200Y-101294700D03*
%TO.N,Net-(C13-Pad1)*%
X97018500Y-103680900D03*
%TO.N,Net-(C14-Pad1)*%
X98224200Y-104597700D03*
%TO.N,MIX_L*%
X167180100Y-146015700D03*
%TO.N,Net-(U2A-+)*%
X177315100Y-128222000D03*
%TO.N,Net-(C17-Pad2)*%
X165702300Y-158659300D03*
%TO.N,Net-(C19-Pad1)*%
X167180100Y-157941300D03*
%TO.N,Net-(C20-Pad2)*%
X164911300Y-174609500D03*
%TO.N,Net-(D2-A)*%
X128800000Y-212700000D03*
%TO.N,Net-(D3-A)*%
X145800000Y-212700000D03*
%TO.N,Net-(D4-A)*%
X162800000Y-212700000D03*
%TO.N,Net-(D5-A)*%
X179800000Y-212700000D03*
%TO.N,NB1_MIC*%
X71493900Y-98655000D03*
%TO.N,NB2_MIC*%
X93582200Y-98927900D03*
%TO.N,NB3_MIC*%
X94161200Y-103041500D03*
%TO.N,NB4_MIC*%
X110893500Y-98508300D03*
%TO.N,Net-(J6-PadR1)*%
X170882600Y-208904500D03*
%TO.N,Net-(J6-PadT)*%
X170316600Y-196699500D03*
%TD*%
D30*
%TO.N,*%
X81280000Y-91440000D02*
X81280000Y-91405000D01*
X81280000Y-91405000D02*
X80700000Y-91405000D01*
D31*
%TO.N,GND*%
X188550000Y-179500000D02*
X199250000Y-190200000D01*
X110720000Y-105300000D02*
X111820000Y-104200000D01*
X199250000Y-211380000D02*
X198350000Y-212280000D01*
X80700000Y-90555000D02*
X119700000Y-90555000D01*
X199250000Y-190200000D02*
X199250000Y-211380000D01*
X121250000Y-99730000D02*
X121250000Y-92105000D01*
X111820000Y-104200000D02*
X116780000Y-104200000D01*
X116780000Y-104200000D02*
X121250000Y-99730000D01*
X121250000Y-92105000D02*
X119700000Y-90555000D01*
D32*
%TO.N,VBIAS*%
X123800000Y-203500000D02*
X122000000Y-203500000D01*
D30*
X92500000Y-155000000D02*
X122000000Y-155000000D01*
X124500000Y-155000000D02*
X122000000Y-155000000D01*
X122261800Y-128313900D02*
X119543900Y-128313900D01*
X119543900Y-128313900D02*
X118480000Y-127250000D01*
X152000000Y-172000000D02*
X149500000Y-172000000D01*
X120000000Y-172000000D02*
X149500000Y-172000000D01*
X73550000Y-110430000D02*
X77578100Y-110430000D01*
X92500000Y-155000000D02*
X90000000Y-155000000D01*
X80118100Y-112970000D02*
X87788100Y-105300000D01*
X87788100Y-105300000D02*
X94908100Y-105300000D01*
X127673800Y-122901900D02*
X122261800Y-128313900D01*
X170900000Y-121800000D02*
X169798100Y-122901900D01*
X120000000Y-172000000D02*
X117500000Y-172000000D01*
X95960000Y-105300000D02*
X94908100Y-105300000D01*
X77578100Y-110430000D02*
X80118100Y-112970000D01*
X95960000Y-105300000D02*
X100560000Y-105300000D01*
X169798100Y-122901900D02*
X127673800Y-122901900D01*
X81170000Y-112970000D02*
X80118100Y-112970000D01*
%TO.N,NB1_L*%
X80700000Y-97555000D02*
X79198100Y-97555000D01*
X79198100Y-97555000D02*
X78995400Y-97555000D01*
%TO.N,Net-(C5-Pad2)*%
X76950100Y-135000100D02*
X76450000Y-135000100D01*
X83200000Y-143200000D02*
X83200000Y-141250000D01*
X90000000Y-150000000D02*
X83200000Y-143200000D01*
X83200000Y-141250000D02*
X76950100Y-135000100D01*
X76450000Y-135000100D02*
X76450000Y-135000000D01*
%TO.N,NB1_R*%
X82798600Y-93398100D02*
X82358800Y-93398100D01*
X82358800Y-93398100D02*
X82201900Y-93555000D01*
X80700000Y-93555000D02*
X82201900Y-93555000D01*
%TO.N,NB2_L*%
X91857700Y-97895400D02*
X89950000Y-97895400D01*
X93700000Y-97555000D02*
X92198100Y-97555000D01*
X92198100Y-97555000D02*
X91857700Y-97895400D01*
%TO.N,Net-(C7-Pad2)*%
X111585800Y-150000000D02*
X99835800Y-138250000D01*
X122000000Y-150000000D02*
X111585800Y-150000000D01*
X99835800Y-138250000D02*
X95700000Y-138250000D01*
X95700000Y-138250000D02*
X92450000Y-135000000D01*
%TO.N,NB2_R*%
X93700000Y-93555000D02*
X95201900Y-93555000D01*
X95201900Y-93555000D02*
X95410600Y-93555000D01*
%TO.N,Net-(C8-Pad2)*%
X112750000Y-138250000D02*
X103700000Y-138250000D01*
X103700000Y-138250000D02*
X100450000Y-135000000D01*
X124500000Y-150000000D02*
X112750000Y-138250000D01*
%TO.N,NB3_L*%
X105198100Y-97555000D02*
X105131900Y-97488800D01*
X106700000Y-97555000D02*
X105198100Y-97555000D01*
X105131900Y-97488800D02*
X97672300Y-97488800D01*
%TO.N,NB3_R*%
X101331000Y-94774800D02*
X102550800Y-93555000D01*
X85078400Y-97292500D02*
X91112500Y-97292500D01*
X91112500Y-97292500D02*
X93630200Y-94774800D01*
X102550800Y-93555000D02*
X106700000Y-93555000D01*
X72055500Y-101294700D02*
X81076200Y-101294700D01*
X81076200Y-101294700D02*
X85078400Y-97292500D01*
X93630200Y-94774800D02*
X101331000Y-94774800D01*
%TO.N,Net-(C10-Pad2)*%
X109194800Y-156194800D02*
X89533200Y-156194800D01*
X89533200Y-156194800D02*
X76450000Y-143111600D01*
X76450000Y-143111600D02*
X76450000Y-141500000D01*
X120000000Y-167000000D02*
X109194800Y-156194800D01*
%TO.N,NB4_L*%
X118198100Y-97555000D02*
X117996400Y-97756700D01*
X119700000Y-97555000D02*
X118198100Y-97555000D01*
X117996400Y-97756700D02*
X114795300Y-97756700D01*
%TO.N,Net-(C11-Pad2)*%
X125271900Y-151321700D02*
X103759300Y-151321700D01*
X103759300Y-151321700D02*
X92875900Y-140438300D01*
X85511700Y-140438300D02*
X84450000Y-141500000D01*
X92875900Y-140438300D02*
X85511700Y-140438300D01*
X134556600Y-156004000D02*
X129954200Y-156004000D01*
X129954200Y-156004000D02*
X125271900Y-151321700D01*
%TO.N,NB4_R*%
X115049100Y-93555000D02*
X107309400Y-101294700D01*
X119700000Y-93555000D02*
X115049100Y-93555000D01*
X107309400Y-101294700D02*
X91068200Y-101294700D01*
%TO.N,Net-(C12-Pad2)*%
X153181900Y-168181900D02*
X153181900Y-170033900D01*
X104700000Y-153750000D02*
X92450000Y-141500000D01*
X126482500Y-153750000D02*
X104700000Y-153750000D01*
X152555300Y-170660500D02*
X143393000Y-170660500D01*
X152000000Y-167000000D02*
X153181900Y-168181900D01*
X143393000Y-170660500D02*
X126482500Y-153750000D01*
X153181900Y-170033900D02*
X152555300Y-170660500D01*
%TO.N,Net-(C13-Pad1)*%
X72500000Y-110864925D02*
X73115075Y-111480000D01*
X73115075Y-111480000D02*
X73984925Y-111480000D01*
X73550000Y-105350000D02*
X72500000Y-106400000D01*
X79684025Y-103680900D02*
X97018500Y-103680900D01*
X76524925Y-114020000D02*
X134900000Y-114020000D01*
X134900000Y-114020000D02*
X141290000Y-107630000D01*
X73984925Y-111480000D02*
X76524925Y-114020000D01*
X126640000Y-104140000D02*
X125480000Y-105300000D01*
X141290000Y-104865075D02*
X140564925Y-104140000D01*
X72500000Y-106400000D02*
X72500000Y-110864925D01*
X97018500Y-103895500D02*
X97018500Y-103680900D01*
X72500000Y-109995075D02*
X73115075Y-109380000D01*
X140564925Y-104140000D02*
X126640000Y-104140000D01*
X73984925Y-109380000D02*
X79684025Y-103680900D01*
X73115075Y-109380000D02*
X73984925Y-109380000D01*
X72500000Y-110864925D02*
X72500000Y-109995075D01*
X141290000Y-107630000D02*
X141290000Y-104865075D01*
%TO.N,Net-(C14-Pad1)*%
X138103200Y-106384900D02*
X139188100Y-105300000D01*
X140240000Y-105300000D02*
X139188100Y-105300000D01*
X98574500Y-104247400D02*
X101533800Y-104247400D01*
X81170000Y-107890000D02*
X82221900Y-107890000D01*
X85351600Y-104247400D02*
X97873900Y-104247400D01*
X82221900Y-107377100D02*
X85351600Y-104247400D01*
X103671300Y-106384900D02*
X138103200Y-106384900D01*
X97873900Y-104247400D02*
X98224200Y-104597700D01*
X98224200Y-104597700D02*
X98574500Y-104247400D01*
X101533800Y-104247400D02*
X103671300Y-106384900D01*
X82221900Y-107890000D02*
X82221900Y-107377100D01*
%TO.N,MIX_L*%
X170695800Y-142500000D02*
X167180100Y-146015700D01*
X173810000Y-142500000D02*
X170695800Y-142500000D01*
%TO.N,Net-(U2A-+)*%
X177315100Y-128222000D02*
X160993900Y-128222000D01*
X160993900Y-128222000D02*
X159701900Y-126930000D01*
X158650000Y-126930000D02*
X159701900Y-126930000D01*
%TO.N,Net-(C17-Pad1)*%
X208060000Y-120331900D02*
X161220000Y-120331900D01*
X161220000Y-120331900D02*
X159701900Y-121850000D01*
X210580000Y-121800000D02*
X209528100Y-121800000D01*
X158650000Y-121850000D02*
X159701900Y-121850000D01*
X209528100Y-121800000D02*
X208060000Y-120331900D01*
%TO.N,Net-(C17-Pad2)*%
X194310000Y-170250000D02*
X182719300Y-158659300D01*
X182719300Y-158659300D02*
X165702300Y-158659300D01*
%TO.N,Net-(U2B-+)*%
X183520000Y-136000000D02*
X182468100Y-136000000D01*
X166270000Y-129470000D02*
X175938100Y-129470000D01*
X175938100Y-129470000D02*
X182468100Y-136000000D01*
%TO.N,Net-(C19-Pad1)*%
X197228100Y-136000000D02*
X175286800Y-157941300D01*
X175286800Y-157941300D02*
X167180100Y-157941300D01*
X198280000Y-136000000D02*
X197228100Y-136000000D01*
%TO.N,Net-(C20-Pad1)*%
X166270000Y-124390000D02*
X200378100Y-124390000D01*
X200378100Y-124390000D02*
X211988100Y-136000000D01*
X213040000Y-136000000D02*
X211988100Y-136000000D01*
%TO.N,Net-(C20-Pad2)*%
X171909500Y-174609500D02*
X164911300Y-174609500D01*
X179550000Y-182250000D02*
X171909500Y-174609500D01*
%TO.N,Net-(D1-K)*%
X172300000Y-105400000D02*
X170948100Y-105400000D01*
X160450000Y-104950000D02*
X160506900Y-104893100D01*
X170180000Y-87550000D02*
X170180000Y-87625100D01*
X160506900Y-104893100D02*
X170441200Y-104893100D01*
X169642500Y-88162600D02*
X166436200Y-88162600D01*
X166436200Y-88162600D02*
X165930000Y-87656400D01*
X165930000Y-87656400D02*
X165930000Y-87550000D01*
X170441200Y-104893100D02*
X170948100Y-105400000D01*
X170180000Y-87625100D02*
X169642500Y-88162600D01*
D31*
%TO.N,Net-(D2-A)*%
X89204900Y-202277700D02*
X84699600Y-202277700D01*
X84699600Y-202277700D02*
X82221900Y-199800000D01*
X128800000Y-212700000D02*
X99627200Y-212700000D01*
X99627200Y-212700000D02*
X89204900Y-202277700D01*
X81120000Y-199800000D02*
X82221900Y-199800000D01*
%TO.N,Net-(D3-A)*%
X138998100Y-205898100D02*
X145800000Y-212700000D01*
X126414100Y-206149100D02*
X126665100Y-205898100D01*
X126665100Y-205898100D02*
X138998100Y-205898100D01*
X93340000Y-199800000D02*
X94441900Y-199800000D01*
X100791000Y-206149100D02*
X126414100Y-206149100D01*
X94441900Y-199800000D02*
X100791000Y-206149100D01*
%TO.N,Net-(D4-A)*%
X105560000Y-199800000D02*
X106661900Y-199800000D01*
X137178100Y-200901900D02*
X148976200Y-212700000D01*
X106661900Y-199800000D02*
X107763800Y-200901900D01*
X148976200Y-212700000D02*
X162800000Y-212700000D01*
X107763800Y-200901900D02*
X137178100Y-200901900D01*
%TO.N,Net-(D5-A)*%
X177150000Y-210050000D02*
X154840500Y-210050000D01*
X153050000Y-205440000D02*
X144590000Y-199800000D01*
X144590500Y-199800000D02*
X117780000Y-199800000D01*
X154840000Y-210050000D02*
X153050000Y-205440000D01*
X179800000Y-212700000D02*
X177150000Y-210050000D01*
D30*
%TO.N,unconnected-(J1-SHIELD-PadS1)*%
X172380000Y-91910000D02*
X172380000Y-90808100D01*
X172380000Y-90808100D02*
X163730000Y-90808100D01*
X163730000Y-91910000D02*
X163730000Y-90808100D01*
%TO.N,NB1_MIC*%
X74200000Y-98655000D02*
X72698100Y-98655000D01*
X72698100Y-98655000D02*
X71493900Y-98655000D01*
%TO.N,NB2_MIC*%
X88701900Y-98655000D02*
X88974800Y-98927900D01*
X88974800Y-98927900D02*
X93582200Y-98927900D01*
X87200000Y-98655000D02*
X88701900Y-98655000D01*
%TO.N,NB3_MIC*%
X90467800Y-101085800D02*
X90467800Y-101514200D01*
X98698100Y-98655000D02*
X97846200Y-99506900D01*
X90467800Y-101514200D02*
X91995100Y-103041500D01*
X91995100Y-103041500D02*
X94161200Y-103041500D01*
X97846200Y-99506900D02*
X92046700Y-99506900D01*
X92046700Y-99506900D02*
X90467800Y-101085800D01*
X100200000Y-98655000D02*
X98698100Y-98655000D01*
%TO.N,NB4_MIC*%
X113200000Y-98655000D02*
X111698100Y-98655000D01*
X111698100Y-98655000D02*
X111551400Y-98508300D01*
X111551400Y-98508300D02*
X110893500Y-98508300D01*
%TO.N,Net-(J6-PadR1)*%
X198350000Y-207778100D02*
X197604700Y-207778100D01*
X197604700Y-207778100D02*
X196478300Y-208904500D01*
X196478300Y-208904500D02*
X170882600Y-208904500D01*
X198350000Y-209280000D02*
X198350000Y-207778100D01*
%TO.N,HEADSET_MIC*%
X204850000Y-204180000D02*
X204850000Y-208033400D01*
X83930700Y-214154800D02*
X77175900Y-207400000D01*
X204850000Y-208033400D02*
X198728600Y-214154800D01*
X198728600Y-214154800D02*
X83930700Y-214154800D01*
X75400000Y-207400000D02*
X77175900Y-207400000D01*
%TO.N,Net-(J6-PadT)*%
X191271400Y-196699500D02*
X198350000Y-203778100D01*
X198350000Y-205280000D02*
X198350000Y-203778100D01*
X170316600Y-196699500D02*
X191271400Y-196699500D01*
%TO.N,Net-(SW1-B)*%
X78980000Y-193760000D02*
X84300000Y-193760000D01*
X78980000Y-193760000D02*
X73900000Y-193760000D01*
X110180000Y-193760000D02*
X105100000Y-193760000D01*
X99780000Y-193760000D02*
X94700000Y-193760000D01*
X94700000Y-193760000D02*
X89380000Y-193760000D01*
X89380000Y-193760000D02*
X84300000Y-193760000D01*
X105100000Y-193760000D02*
X99780000Y-193760000D01*
%TO.N,Net-(U1A--)*%
X103464300Y-118414300D02*
X85797600Y-118414300D01*
X105261000Y-120210900D02*
X99471900Y-126000000D01*
X114231900Y-119500000D02*
X115329600Y-118402300D01*
X113180000Y-119500000D02*
X105971900Y-119500000D01*
X140550400Y-118402300D02*
X141648100Y-119500000D01*
X83660000Y-119500000D02*
X84711900Y-119500000D01*
X115329600Y-118402300D02*
X140550400Y-118402300D01*
X105261000Y-120210900D02*
X103464300Y-118414300D01*
X113180000Y-119500000D02*
X114231900Y-119500000D01*
X142700000Y-119500000D02*
X141648100Y-119500000D01*
X85797600Y-118414300D02*
X84711900Y-119500000D01*
X98420000Y-126000000D02*
X99471900Y-126000000D01*
X105971900Y-119500000D02*
X105261000Y-120210900D01*
%TO.N,Net-(U1B--)*%
X113180000Y-126000000D02*
X120388100Y-126000000D01*
X83660000Y-126000000D02*
X84711900Y-126000000D01*
X120388100Y-126000000D02*
X126888100Y-119500000D01*
X91211900Y-119500000D02*
X84711900Y-126000000D01*
X127940000Y-119500000D02*
X126888100Y-119500000D01*
X98420000Y-119500000D02*
X91211900Y-119500000D01*
%TO.N,Net-(R10-Pad1)*%
X73500000Y-126000000D02*
X75200000Y-127700000D01*
X118821700Y-168321700D02*
X120000000Y-169500000D01*
X75200000Y-142359200D02*
X101162500Y-168321700D01*
X101162500Y-168321700D02*
X118821700Y-168321700D01*
X75200000Y-127700000D02*
X75200000Y-142359200D01*
%TO.N,Net-(R11-Pad1)*%
X134445700Y-155452100D02*
X112730500Y-133736900D01*
X134785200Y-155452100D02*
X134445700Y-155452100D01*
X95996900Y-133736900D02*
X88260000Y-126000000D01*
X112730500Y-133736900D02*
X95996900Y-133736900D01*
X149500000Y-169500000D02*
X148833100Y-169500000D01*
X148833100Y-169500000D02*
X134785200Y-155452100D01*
%TO.N,Net-(R12-Pad1)*%
X105491200Y-126000000D02*
X103020000Y-126000000D01*
X134112300Y-154621100D02*
X105491200Y-126000000D01*
X150653600Y-168153600D02*
X147984300Y-168153600D01*
X152000000Y-169500000D02*
X150653600Y-168153600D01*
X134451800Y-154621100D02*
X134112300Y-154621100D01*
X147984300Y-168153600D02*
X134451800Y-154621100D01*
%TO.N,Net-(U2A--)*%
X158650000Y-124390000D02*
X159701900Y-124390000D01*
X159701900Y-124390000D02*
X160753800Y-123338100D01*
X200420000Y-121800000D02*
X199303800Y-120683800D01*
X199303800Y-120683800D02*
X186776200Y-120683800D01*
X160753800Y-123338100D02*
X184121900Y-123338100D01*
X184121900Y-123338100D02*
X185660000Y-121800000D01*
X186776200Y-120683800D02*
X185660000Y-121800000D01*
%TO.N,Net-(U2B--)*%
X179050000Y-126930000D02*
X188120000Y-136000000D01*
X166270000Y-126930000D02*
X179050000Y-126930000D01*
X189175400Y-134944600D02*
X188120000Y-136000000D01*
X201824600Y-134944600D02*
X189175400Y-134944600D01*
X202880000Y-136000000D02*
X201824600Y-134944600D01*
%TD*%
M02*
