%TF.GenerationSoftware,KiCad,Pcbnew,7.0.11+dfsg-1build4*%
%TF.CreationDate,2026-08-06T19:28:12-03:00*%
%TF.ProjectId,MeetingHub-4,4d656574-696e-4674-9875-622d342e6b69,rev?*%
%TF.SameCoordinates,Original*%
%TF.FileFunction,Copper,L4,Bot*%
%TF.FilePolarity,Positive*%
%FSLAX46Y46*%
G04 Gerber Fmt 4.6, Leading zero omitted, Abs format (unit mm)*
G04 Created by KiCad (PCBNEW 7.0.11+dfsg-1build4) date 2026-08-06 19:28:12*
%MOMM*%
%LPD*%
G01*
G04 APERTURE LIST*
G04 Aperture macros list*
%AMRoundRect*
0 Rectangle with rounded corners*
0 $1 Rounding radius*
0 $2 $3 $4 $5 $6 $7 $8 $9 X,Y pos of 4 corners*
0 Add a 4 corners polygon primitive as box body*
4,1,4,$2,$3,$4,$5,$6,$7,$8,$9,$2,$3,0*
0 Add four circle primitives for the rounded corners*
1,1,$1+$1,$2,$3*
1,1,$1+$1,$4,$5*
1,1,$1+$1,$6,$7*
1,1,$1+$1,$8,$9*
0 Add four rect primitives between the rounded corners*
20,1,$1+$1,$2,$3,$4,$5,0*
20,1,$1+$1,$4,$5,$6,$7,0*
20,1,$1+$1,$6,$7,$8,$9,0*
20,1,$1+$1,$8,$9,$2,$3,0*%
G04 Aperture macros list end*
%TA.AperFunction,ComponentPad*%
%ADD10R,1.600000X1.600000*%
%TD*%
%TA.AperFunction,ComponentPad*%
%ADD11C,1.600000*%
%TD*%
%TA.AperFunction,ComponentPad*%
%ADD12RoundRect,0.450000X0.450000X0.450000X-0.450000X0.450000X-0.450000X-0.450000X0.450000X-0.450000X0*%
%TD*%
%TA.AperFunction,ComponentPad*%
%ADD13C,1.800000*%
%TD*%
%TA.AperFunction,ComponentPad*%
%ADD14R,2.000000X2.000000*%
%TD*%
%TA.AperFunction,ComponentPad*%
%ADD15C,2.000000*%
%TD*%
%TA.AperFunction,ComponentPad*%
%ADD16O,1.600000X1.600000*%
%TD*%
%TA.AperFunction,ComponentPad*%
%ADD17C,1.500000*%
%TD*%
%TA.AperFunction,ComponentPad*%
%ADD18C,0.700000*%
%TD*%
%TA.AperFunction,ComponentPad*%
%ADD19O,0.900000X2.400000*%
%TD*%
%TA.AperFunction,ComponentPad*%
%ADD20O,0.900000X1.700000*%
%TD*%
%TA.AperFunction,ComponentPad*%
%ADD21C,2.400000*%
%TD*%
%TA.AperFunction,ComponentPad*%
%ADD22R,2.200000X2.200000*%
%TD*%
%TA.AperFunction,ComponentPad*%
%ADD23O,2.200000X2.200000*%
%TD*%
%TA.AperFunction,ComponentPad*%
%ADD24C,2.010000*%
%TD*%
%TA.AperFunction,ComponentPad*%
%ADD25O,3.048000X1.850000*%
%TD*%
%TA.AperFunction,ComponentPad*%
%ADD26RoundRect,0.450000X-0.450000X0.450000X-0.450000X-0.450000X0.450000X-0.450000X0.450000X0.450000X0*%
%TD*%
%TA.AperFunction,ViaPad*%
%ADD27C,0.600000*%
%TD*%
%TA.AperFunction,Conductor*%
%ADD28C,0.250000*%
%TD*%
%TA.AperFunction,Conductor*%
%ADD29C,0.200000*%
%TD*%
%TA.AperFunction,Conductor*%
%ADD30C,0.300000*%
%TD*%
G04 APERTURE END LIST*
D10*
%TO.P,C17,1*%
%TO.N,Net-(C17-Pad1)*%
X190810000Y-170250000D03*
D11*
%TO.P,C17,2*%
%TO.N,Net-(C17-Pad2)*%
X194310000Y-170250000D03*
%TD*%
%TO.P,C9,1*%
%TO.N,NB3_L*%
X105950000Y-135000000D03*
%TO.P,C9,2*%
%TO.N,Net-(C9-Pad2)*%
X108450000Y-135000000D03*
%TD*%
D12*
%TO.P,RV4,1*%
%TO.N,Net-(C11-Pad2)*%
X149500000Y-167000000D03*
D13*
%TO.P,RV4,2*%
%TO.N,Net-(R11-Pad1)*%
X149500000Y-169500000D03*
%TO.P,RV4,3*%
%TO.N,VBIAS*%
X149500000Y-172000000D03*
%TO.P,RV4,4*%
%TO.N,Net-(C12-Pad2)*%
X152000000Y-167000000D03*
%TO.P,RV4,5*%
%TO.N,Net-(R12-Pad1)*%
X152000000Y-169500000D03*
%TO.P,RV4,6*%
%TO.N,VBIAS*%
X152000000Y-172000000D03*
%TD*%
D14*
%TO.P,K2,1*%
%TO.N,Net-(D3-A)*%
X84300000Y-183600000D03*
D15*
%TO.P,K2,2*%
%TO.N,GND*%
X84300000Y-186140000D03*
%TO.P,K2,5*%
%TO.N,Net-(SW1-B)*%
X84300000Y-193760000D03*
%TO.P,K2,6*%
X89380000Y-193760000D03*
%TO.P,K2,9*%
%TO.N,NB2_MIC*%
X89380000Y-186140000D03*
%TO.P,K2,10*%
%TO.N,unconnected-(K2-Pad10)*%
X89380000Y-183600000D03*
%TD*%
D11*
%TO.P,R10,1*%
%TO.N,Net-(R10-Pad1)*%
X73500000Y-126000000D03*
D16*
%TO.P,R10,2*%
%TO.N,Net-(U1B--)*%
X83660000Y-126000000D03*
%TD*%
D10*
%TO.P,U2,1*%
%TO.N,Net-(C17-Pad1)*%
X158650000Y-121850000D03*
D16*
%TO.P,U2,2,-*%
%TO.N,Net-(U2A--)*%
X158650000Y-124390000D03*
%TO.P,U2,3,+*%
%TO.N,Net-(U2A-+)*%
X158650000Y-126930000D03*
%TO.P,U2,4,V-*%
%TO.N,GND*%
X158650000Y-129470000D03*
%TO.P,U2,5,+*%
%TO.N,Net-(U2B-+)*%
X166270000Y-129470000D03*
%TO.P,U2,6,-*%
%TO.N,Net-(U2B--)*%
X166270000Y-126930000D03*
%TO.P,U2,7*%
%TO.N,Net-(C20-Pad1)*%
X166270000Y-124390000D03*
%TO.P,U2,8,V+*%
%TO.N,+5V_AUDIO*%
X166270000Y-121850000D03*
%TD*%
D10*
%TO.P,C2,1*%
%TO.N,+5V_AUDIO*%
X167300000Y-113550000D03*
D11*
%TO.P,C2,2*%
%TO.N,GND*%
X169300000Y-113550000D03*
%TD*%
D10*
%TO.P,U1,1*%
%TO.N,Net-(C13-Pad1)*%
X73550000Y-105350000D03*
D16*
%TO.P,U1,2,-*%
%TO.N,Net-(U1A--)*%
X73550000Y-107890000D03*
%TO.P,U1,3,+*%
%TO.N,VBIAS*%
X73550000Y-110430000D03*
%TO.P,U1,4,V-*%
%TO.N,GND*%
X73550000Y-112970000D03*
%TO.P,U1,5,+*%
%TO.N,VBIAS*%
X81170000Y-112970000D03*
%TO.P,U1,6,-*%
%TO.N,Net-(U1B--)*%
X81170000Y-110430000D03*
%TO.P,U1,7*%
%TO.N,Net-(C14-Pad1)*%
X81170000Y-107890000D03*
%TO.P,U1,8,V+*%
%TO.N,+5V_AUDIO*%
X81170000Y-105350000D03*
%TD*%
D11*
%TO.P,R9,1*%
%TO.N,Net-(R9-Pad1)*%
X132540000Y-119500000D03*
D16*
%TO.P,R9,2*%
%TO.N,Net-(U1A--)*%
X142700000Y-119500000D03*
%TD*%
D11*
%TO.P,C11,1*%
%TO.N,NB4_L*%
X81950000Y-141500000D03*
%TO.P,C11,2*%
%TO.N,Net-(C11-Pad2)*%
X84450000Y-141500000D03*
%TD*%
%TO.P,C8,1*%
%TO.N,NB2_R*%
X97950000Y-135000000D03*
%TO.P,C8,2*%
%TO.N,Net-(C8-Pad2)*%
X100450000Y-135000000D03*
%TD*%
%TO.P,R8,1*%
%TO.N,Net-(R8-Pad1)*%
X117780000Y-119500000D03*
D16*
%TO.P,R8,2*%
%TO.N,Net-(U1B--)*%
X127940000Y-119500000D03*
%TD*%
D10*
%TO.P,C20,1*%
%TO.N,Net-(C20-Pad1)*%
X176050000Y-182250000D03*
D11*
%TO.P,C20,2*%
%TO.N,Net-(C20-Pad2)*%
X179550000Y-182250000D03*
%TD*%
D17*
%TO.P,TP2,1*%
%TO.N,GND*%
X154550000Y-101800000D03*
%TD*%
D11*
%TO.P,C12,1*%
%TO.N,NB4_R*%
X89950000Y-141500000D03*
%TO.P,C12,2*%
%TO.N,Net-(C12-Pad2)*%
X92450000Y-141500000D03*
%TD*%
D18*
%TO.P,J1,A1,GND*%
%TO.N,GND*%
X165080000Y-87550000D03*
%TO.P,J1,A4,VBUS*%
%TO.N,Net-(D1-K)*%
X165930000Y-87550000D03*
%TO.P,J1,A5,CC1*%
%TO.N,unconnected-(J1-CC1-PadA5)*%
X166780000Y-87550000D03*
%TO.P,J1,A6,D+*%
%TO.N,unconnected-(J1-D+-PadA6)*%
X167630000Y-87550000D03*
%TO.P,J1,A7,D-*%
%TO.N,unconnected-(J1-D--PadA7)*%
X168480000Y-87550000D03*
%TO.P,J1,A8,SBU1*%
%TO.N,unconnected-(J1-SBU1-PadA8)*%
X169330000Y-87550000D03*
%TO.P,J1,A9,VBUS*%
%TO.N,Net-(D1-K)*%
X170180000Y-87550000D03*
%TO.P,J1,A12,GND*%
%TO.N,GND*%
X171030000Y-87550000D03*
%TO.P,J1,B1,GND*%
X171030000Y-88900000D03*
%TO.P,J1,B4,VBUS*%
%TO.N,Net-(D1-K)*%
X170180000Y-88900000D03*
%TO.P,J1,B5,CC2*%
%TO.N,unconnected-(J1-CC2-PadB5)*%
X169330000Y-88900000D03*
%TO.P,J1,B6,D+*%
%TO.N,unconnected-(J1-D+-PadB6)*%
X168480000Y-88900000D03*
%TO.P,J1,B7,D-*%
%TO.N,unconnected-(J1-D--PadB7)*%
X167630000Y-88900000D03*
%TO.P,J1,B8,SBU2*%
%TO.N,unconnected-(J1-SBU2-PadB8)*%
X166780000Y-88900000D03*
%TO.P,J1,B9,VBUS*%
%TO.N,Net-(D1-K)*%
X165930000Y-88900000D03*
%TO.P,J1,B12,GND*%
%TO.N,GND*%
X165080000Y-88900000D03*
D19*
%TO.P,J1,S1,SHIELD*%
%TO.N,unconnected-(J1-SHIELD-PadS1)*%
X163730000Y-88530000D03*
D20*
X163730000Y-91910000D03*
D19*
X172380000Y-88530000D03*
D20*
X172380000Y-91910000D03*
%TD*%
D12*
%TO.P,RV3,1*%
%TO.N,Net-(C9-Pad2)*%
X117500000Y-167000000D03*
D13*
%TO.P,RV3,2*%
%TO.N,Net-(R9-Pad1)*%
X117500000Y-169500000D03*
%TO.P,RV3,3*%
%TO.N,VBIAS*%
X117500000Y-172000000D03*
%TO.P,RV3,4*%
%TO.N,Net-(C10-Pad2)*%
X120000000Y-167000000D03*
%TO.P,RV3,5*%
%TO.N,Net-(R10-Pad1)*%
X120000000Y-169500000D03*
%TO.P,RV3,6*%
%TO.N,VBIAS*%
X120000000Y-172000000D03*
%TD*%
D12*
%TO.P,RV1,1*%
%TO.N,Net-(C5-Pad2)*%
X90000000Y-150000000D03*
D13*
%TO.P,RV1,2*%
%TO.N,Net-(R5-Pad1)*%
X90000000Y-152500000D03*
%TO.P,RV1,3*%
%TO.N,VBIAS*%
X90000000Y-155000000D03*
%TO.P,RV1,4*%
%TO.N,Net-(C6-Pad2)*%
X92500000Y-150000000D03*
%TO.P,RV1,5*%
%TO.N,Net-(R6-Pad1)*%
X92500000Y-152500000D03*
%TO.P,RV1,6*%
%TO.N,VBIAS*%
X92500000Y-155000000D03*
%TD*%
D14*
%TO.P,K3,1*%
%TO.N,Net-(D4-A)*%
X94700000Y-183600000D03*
D15*
%TO.P,K3,2*%
%TO.N,GND*%
X94700000Y-186140000D03*
%TO.P,K3,5*%
%TO.N,Net-(SW1-B)*%
X94700000Y-193760000D03*
%TO.P,K3,6*%
X99780000Y-193760000D03*
%TO.P,K3,9*%
%TO.N,NB3_MIC*%
X99780000Y-186140000D03*
%TO.P,K3,10*%
%TO.N,unconnected-(K3-Pad10)*%
X99780000Y-183600000D03*
%TD*%
D10*
%TO.P,C16,1*%
%TO.N,Net-(C16-Pad1)*%
X182060000Y-143750000D03*
D11*
%TO.P,C16,2*%
%TO.N,GND*%
X184060000Y-143750000D03*
%TD*%
%TO.P,R14,1*%
%TO.N,Net-(U2A--)*%
X185660000Y-121800000D03*
D16*
%TO.P,R14,2*%
%TO.N,Net-(C16-Pad1)*%
X195820000Y-121800000D03*
%TD*%
D11*
%TO.P,R6,1*%
%TO.N,Net-(R6-Pad1)*%
X88260000Y-119500000D03*
D16*
%TO.P,R6,2*%
%TO.N,Net-(U1B--)*%
X98420000Y-119500000D03*
%TD*%
D11*
%TO.P,R12,1*%
%TO.N,Net-(R12-Pad1)*%
X103020000Y-126000000D03*
D16*
%TO.P,R12,2*%
%TO.N,Net-(U1B--)*%
X113180000Y-126000000D03*
%TD*%
D21*
%TO.P,SW4,1*%
%TO.N,+5V_AUDIO*%
X162800000Y-207400000D03*
%TO.P,SW4,2*%
%TO.N,Net-(D4-A)*%
X168100000Y-207400000D03*
%TD*%
%TO.P,SW5,1*%
%TO.N,+5V_AUDIO*%
X179800000Y-207400000D03*
%TO.P,SW5,2*%
%TO.N,Net-(D5-A)*%
X185100000Y-207400000D03*
%TD*%
D11*
%TO.P,R13,1*%
%TO.N,VBIAS*%
X170900000Y-121800000D03*
D16*
%TO.P,R13,2*%
%TO.N,Net-(U2A-+)*%
X181060000Y-121800000D03*
%TD*%
D22*
%TO.P,D1,1,K*%
%TO.N,Net-(D1-K)*%
X172300000Y-105400000D03*
D23*
%TO.P,D1,2,A*%
%TO.N,GND*%
X182460000Y-105400000D03*
%TD*%
D11*
%TO.P,R11,1*%
%TO.N,Net-(R11-Pad1)*%
X88260000Y-126000000D03*
D16*
%TO.P,R11,2*%
%TO.N,Net-(U1A--)*%
X98420000Y-126000000D03*
%TD*%
D12*
%TO.P,RV2,1*%
%TO.N,Net-(C7-Pad2)*%
X122000000Y-150000000D03*
D13*
%TO.P,RV2,2*%
%TO.N,Net-(R7-Pad1)*%
X122000000Y-152500000D03*
%TO.P,RV2,3*%
%TO.N,VBIAS*%
X122000000Y-155000000D03*
%TO.P,RV2,4*%
%TO.N,Net-(C8-Pad2)*%
X124500000Y-150000000D03*
%TO.P,RV2,5*%
%TO.N,Net-(R8-Pad1)*%
X124500000Y-152500000D03*
%TO.P,RV2,6*%
%TO.N,VBIAS*%
X124500000Y-155000000D03*
%TD*%
D11*
%TO.P,R18,1*%
%TO.N,Net-(U2B--)*%
X188120000Y-136000000D03*
D16*
%TO.P,R18,2*%
%TO.N,Net-(C19-Pad1)*%
X198280000Y-136000000D03*
%TD*%
D11*
%TO.P,C1,1*%
%TO.N,+5V_AUDIO*%
X159050000Y-112300000D03*
%TO.P,C1,2*%
%TO.N,GND*%
X161550000Y-112300000D03*
%TD*%
D17*
%TO.P,TP1,1,1*%
%TO.N,+5V_AUDIO*%
X215090000Y-101800000D03*
%TD*%
D11*
%TO.P,R2,1*%
%TO.N,VBIAS*%
X100560000Y-105300000D03*
D16*
%TO.P,R2,2*%
%TO.N,GND*%
X110720000Y-105300000D03*
%TD*%
D24*
%TO.P,F1,1*%
%TO.N,Net-(D1-K)*%
X160450000Y-104950000D03*
%TO.P,F1,2*%
%TO.N,+5V_AUDIO*%
X165550000Y-106150000D03*
%TD*%
D11*
%TO.P,C6,1*%
%TO.N,NB1_R*%
X81950000Y-135000000D03*
%TO.P,C6,2*%
%TO.N,Net-(C6-Pad2)*%
X84450000Y-135000000D03*
%TD*%
%TO.P,R19,1*%
%TO.N,Net-(U2B--)*%
X202880000Y-136000000D03*
D16*
%TO.P,R19,2*%
%TO.N,Net-(C20-Pad1)*%
X213040000Y-136000000D03*
%TD*%
D21*
%TO.P,SW3,1*%
%TO.N,+5V_AUDIO*%
X145800000Y-207400000D03*
%TO.P,SW3,2*%
%TO.N,Net-(D3-A)*%
X151100000Y-207400000D03*
%TD*%
D25*
%TO.P,SW1,1*%
%TO.N,HEADSET_MIC*%
X75400000Y-207400000D03*
%TO.N,N/C*%
X87900000Y-207400000D03*
%TO.P,SW1,2*%
%TO.N,Net-(SW1-B)*%
X75400000Y-212400000D03*
%TO.N,N/C*%
X87900000Y-212400000D03*
%TD*%
D11*
%TO.P,C14,1*%
%TO.N,Net-(C14-Pad1)*%
X105950000Y-141500000D03*
%TO.P,C14,2*%
%TO.N,Net-(C14-Pad2)*%
X108450000Y-141500000D03*
%TD*%
D10*
%TO.P,C3,1*%
%TO.N,VBIAS*%
X118480000Y-127250000D03*
D11*
%TO.P,C3,2*%
%TO.N,GND*%
X120480000Y-127250000D03*
%TD*%
D10*
%TO.P,D2,1,K*%
%TO.N,GND*%
X73500000Y-199800000D03*
D16*
%TO.P,D2,2,A*%
%TO.N,Net-(D2-A)*%
X81120000Y-199800000D03*
%TD*%
D11*
%TO.P,C4,1*%
%TO.N,+5V_AUDIO*%
X126230000Y-126000000D03*
%TO.P,C4,2*%
%TO.N,GND*%
X128730000Y-126000000D03*
%TD*%
D10*
%TO.P,D5,1,K*%
%TO.N,GND*%
X110160000Y-199800000D03*
D16*
%TO.P,D5,2,A*%
%TO.N,Net-(D5-A)*%
X117780000Y-199800000D03*
%TD*%
D11*
%TO.P,C10,1*%
%TO.N,NB3_R*%
X73950000Y-141500000D03*
%TO.P,C10,2*%
%TO.N,Net-(C10-Pad2)*%
X76450000Y-141500000D03*
%TD*%
D10*
%TO.P,C19,1*%
%TO.N,Net-(C19-Pad1)*%
X167300000Y-180750000D03*
D11*
%TO.P,C19,2*%
%TO.N,GND*%
X169300000Y-180750000D03*
%TD*%
%TO.P,R4,1*%
%TO.N,Net-(U1B--)*%
X130080000Y-105300000D03*
D16*
%TO.P,R4,2*%
%TO.N,Net-(C14-Pad1)*%
X140240000Y-105300000D03*
%TD*%
D21*
%TO.P,SW2,1*%
%TO.N,+5V_AUDIO*%
X130800000Y-207400000D03*
%TO.P,SW2,2*%
%TO.N,Net-(D2-A)*%
X136100000Y-207400000D03*
%TD*%
D11*
%TO.P,C13,1*%
%TO.N,Net-(C13-Pad1)*%
X97950000Y-141500000D03*
%TO.P,C13,2*%
%TO.N,Net-(C13-Pad2)*%
X100450000Y-141500000D03*
%TD*%
%TO.P,R5,1*%
%TO.N,Net-(R5-Pad1)*%
X73500000Y-119500000D03*
D16*
%TO.P,R5,2*%
%TO.N,Net-(U1A--)*%
X83660000Y-119500000D03*
%TD*%
D11*
%TO.P,R15,1*%
%TO.N,Net-(U2A--)*%
X200420000Y-121800000D03*
D16*
%TO.P,R15,2*%
%TO.N,Net-(C17-Pad1)*%
X210580000Y-121800000D03*
%TD*%
D14*
%TO.P,K1,1*%
%TO.N,Net-(D2-A)*%
X73900000Y-183600000D03*
D15*
%TO.P,K1,2*%
%TO.N,GND*%
X73900000Y-186140000D03*
%TO.P,K1,5*%
%TO.N,Net-(SW1-B)*%
X73900000Y-193760000D03*
%TO.P,K1,6*%
X78980000Y-193760000D03*
%TO.P,K1,9*%
%TO.N,NB1_MIC*%
X78980000Y-186140000D03*
%TO.P,K1,10*%
%TO.N,unconnected-(K1-Pad10)*%
X78980000Y-183600000D03*
%TD*%
D10*
%TO.P,D4,1,K*%
%TO.N,GND*%
X97940000Y-199800000D03*
D16*
%TO.P,D4,2,A*%
%TO.N,Net-(D4-A)*%
X105560000Y-199800000D03*
%TD*%
D11*
%TO.P,R17,1*%
%TO.N,VBIAS*%
X173360000Y-136000000D03*
D16*
%TO.P,R17,2*%
%TO.N,Net-(U2B-+)*%
X183520000Y-136000000D03*
%TD*%
D11*
%TO.P,R7,1*%
%TO.N,Net-(R7-Pad1)*%
X103020000Y-119500000D03*
D16*
%TO.P,R7,2*%
%TO.N,Net-(U1A--)*%
X113180000Y-119500000D03*
%TD*%
D11*
%TO.P,R3,1*%
%TO.N,Net-(U1A--)*%
X115320000Y-105300000D03*
D16*
%TO.P,R3,2*%
%TO.N,Net-(C13-Pad1)*%
X125480000Y-105300000D03*
%TD*%
D11*
%TO.P,C18,1*%
%TO.N,MIX_R*%
X159050000Y-179500000D03*
%TO.P,C18,2*%
%TO.N,Net-(U2B-+)*%
X161550000Y-179500000D03*
%TD*%
D26*
%TO.P,RV5,1*%
%TO.N,Net-(C13-Pad2)*%
X119000000Y-207400000D03*
D13*
%TO.P,RV5,2*%
%TO.N,MIX_L*%
X121500000Y-207400000D03*
%TO.P,RV5,3*%
%TO.N,VBIAS*%
X124000000Y-207400000D03*
%TO.P,RV5,4*%
%TO.N,Net-(C14-Pad2)*%
X119000000Y-204900000D03*
%TO.P,RV5,5*%
%TO.N,MIX_R*%
X121500000Y-204900000D03*
%TO.P,RV5,6*%
%TO.N,VBIAS*%
X124000000Y-204900000D03*
%TD*%
D14*
%TO.P,K4,1*%
%TO.N,Net-(D5-A)*%
X105100000Y-183600000D03*
D15*
%TO.P,K4,2*%
%TO.N,GND*%
X105100000Y-186140000D03*
%TO.P,K4,5*%
%TO.N,Net-(SW1-B)*%
X105100000Y-193760000D03*
%TO.P,K4,6*%
X110180000Y-193760000D03*
%TO.P,K4,9*%
%TO.N,NB4_MIC*%
X110180000Y-186140000D03*
%TO.P,K4,10*%
%TO.N,unconnected-(K4-Pad10)*%
X110180000Y-183600000D03*
%TD*%
D11*
%TO.P,C15,1*%
%TO.N,MIX_L*%
X173810000Y-142500000D03*
%TO.P,C15,2*%
%TO.N,Net-(U2A-+)*%
X176310000Y-142500000D03*
%TD*%
%TO.P,R16,1*%
%TO.N,Net-(C17-Pad2)*%
X158600000Y-136000000D03*
D16*
%TO.P,R16,2*%
%TO.N,Net-(J6-PadT)*%
X168760000Y-136000000D03*
%TD*%
D11*
%TO.P,R1,1*%
%TO.N,+5V_AUDIO*%
X85800000Y-105300000D03*
D16*
%TO.P,R1,2*%
%TO.N,VBIAS*%
X95960000Y-105300000D03*
%TD*%
D11*
%TO.P,C21,1*%
%TO.N,+5V_AUDIO*%
X186050000Y-179500000D03*
%TO.P,C21,2*%
%TO.N,GND*%
X188550000Y-179500000D03*
%TD*%
D10*
%TO.P,D3,1,K*%
%TO.N,GND*%
X85720000Y-199800000D03*
D16*
%TO.P,D3,2,A*%
%TO.N,Net-(D3-A)*%
X93340000Y-199800000D03*
%TD*%
D11*
%TO.P,C7,1*%
%TO.N,NB2_L*%
X89950000Y-135000000D03*
%TO.P,C7,2*%
%TO.N,Net-(C7-Pad2)*%
X92450000Y-135000000D03*
%TD*%
%TO.P,C5,1*%
%TO.N,NB1_L*%
X73950000Y-135000000D03*
%TO.P,C5,2*%
%TO.N,Net-(C5-Pad2)*%
X76450000Y-135000000D03*
%TD*%
%TO.P,R20,1*%
%TO.N,Net-(C20-Pad2)*%
X158600000Y-142500000D03*
D16*
%TO.P,R20,2*%
%TO.N,Net-(J6-PadR1)*%
X168760000Y-142500000D03*
%TD*%
D27*
%TO.N,VBIAS*%
X122000000Y-203500000D03*
X123800000Y-203500000D03*
%TO.N,NB1_L*%
X78995400Y-97555000D03*
%TO.N,NB1_R*%
X82798600Y-93398100D03*
%TO.N,NB2_L*%
X89950000Y-97895400D03*
%TO.N,NB2_R*%
X95410600Y-93555000D03*
%TO.N,NB3_L*%
X97672300Y-97488800D03*
%TO.N,NB3_R*%
X72055500Y-101294700D03*
%TO.N,NB4_L*%
X114795300Y-97756700D03*
%TO.N,Net-(C11-Pad2)*%
X134556600Y-156004000D03*
%TO.N,NB4_R*%
X91068200Y-101294700D03*
%TO.N,Net-(C13-Pad1)*%
X97018500Y-103680900D03*
%TO.N,Net-(C14-Pad1)*%
X98224200Y-104597700D03*
%TO.N,MIX_L*%
X167180100Y-146015700D03*
%TO.N,Net-(U2A-+)*%
X177315100Y-128222000D03*
%TO.N,Net-(C17-Pad2)*%
X165702300Y-158659300D03*
%TO.N,Net-(C19-Pad1)*%
X167180100Y-157941300D03*
%TO.N,Net-(C20-Pad2)*%
X164911300Y-174609500D03*
%TO.N,Net-(D2-A)*%
X128800000Y-212700000D03*
%TO.N,Net-(D3-A)*%
X145800000Y-212700000D03*
%TO.N,Net-(D4-A)*%
X162800000Y-212700000D03*
%TO.N,Net-(D5-A)*%
X179800000Y-212700000D03*
%TO.N,NB1_MIC*%
X71493900Y-98655000D03*
%TO.N,NB2_MIC*%
X93582200Y-98927900D03*
%TO.N,NB3_MIC*%
X94161200Y-103041500D03*
%TO.N,NB4_MIC*%
X110893500Y-98508300D03*
%TO.N,Net-(J6-PadR1)*%
X170882600Y-208904500D03*
%TO.N,Net-(J6-PadT)*%
X170316600Y-196699500D03*
%TD*%
D28*
%TO.N,VBIAS*%
X122000000Y-203500000D02*
X120300000Y-203500000D01*
D29*
X120827200Y-150733400D02*
X120827200Y-130649100D01*
D28*
X120300000Y-209000000D02*
X124000000Y-209000000D01*
D29*
X118480000Y-127250000D02*
X118480000Y-128301900D01*
X122781400Y-208618600D02*
X124000000Y-207400000D01*
X122000000Y-170000000D02*
X120000000Y-172000000D01*
D28*
X124000000Y-209000000D02*
X124000000Y-207400000D01*
D29*
X173360000Y-124260000D02*
X170900000Y-121800000D01*
X121052800Y-208618600D02*
X122781400Y-208618600D01*
X123151900Y-153651900D02*
X123151900Y-151981600D01*
X118480000Y-127250000D02*
X118480000Y-126198100D01*
X100560000Y-105300000D02*
X100560000Y-108409600D01*
X123151900Y-151981600D02*
X122496200Y-151325900D01*
X122496200Y-151325900D02*
X121419700Y-151325900D01*
X120000000Y-172000000D02*
X120321600Y-172321600D01*
X120321600Y-207887400D02*
X121052800Y-208618600D01*
X122000000Y-155000000D02*
X122000000Y-170000000D01*
X173360000Y-136000000D02*
X173360000Y-124260000D01*
X100560000Y-108409600D02*
X118348500Y-126198100D01*
X118348500Y-126198100D02*
X118480000Y-126198100D01*
D28*
X124000000Y-203500000D02*
X123800000Y-203500000D01*
X124000000Y-204900000D02*
X124000000Y-203500000D01*
X120300000Y-203500000D02*
X120300000Y-209000000D01*
D29*
X120827200Y-130649100D02*
X118480000Y-128301900D01*
X120321600Y-172321600D02*
X120321600Y-207887400D01*
X121419700Y-151325900D02*
X120827200Y-150733400D01*
X124500000Y-155000000D02*
X123151900Y-153651900D01*
%TO.N,NB1_L*%
X74424600Y-106496000D02*
X78995400Y-101925200D01*
X72410900Y-133460900D02*
X72410900Y-107509700D01*
X73950000Y-135000000D02*
X72410900Y-133460900D01*
X78995400Y-101925200D02*
X78995400Y-97555000D01*
X73424600Y-106496000D02*
X74424600Y-106496000D01*
X72410900Y-107509700D02*
X73424600Y-106496000D01*
%TO.N,NB1_R*%
X82798600Y-104172200D02*
X84749600Y-106123200D01*
X84749600Y-106123200D02*
X84749600Y-132200400D01*
X84749600Y-132200400D02*
X81950000Y-135000000D01*
X82798600Y-93398100D02*
X82798600Y-104172200D01*
%TO.N,Net-(C6-Pad2)*%
X91158100Y-152839500D02*
X91973900Y-153655300D01*
X90448900Y-151314300D02*
X91158100Y-152023500D01*
X89419300Y-151314300D02*
X90448900Y-151314300D01*
X93693700Y-151193700D02*
X92500000Y-150000000D01*
X84450000Y-135000000D02*
X88494500Y-139044500D01*
X91973900Y-153655300D02*
X93030900Y-153655300D01*
X93030900Y-153655300D02*
X93693700Y-152992500D01*
X93693700Y-152992500D02*
X93693700Y-151193700D01*
X88494500Y-150389500D02*
X89419300Y-151314300D01*
X88494500Y-139044500D02*
X88494500Y-150389500D01*
X91158100Y-152023500D02*
X91158100Y-152839500D01*
%TO.N,NB2_L*%
X89950000Y-135000000D02*
X89950000Y-97895400D01*
%TO.N,NB2_R*%
X94880400Y-107197800D02*
X94880400Y-131930400D01*
X95410600Y-103396900D02*
X94528500Y-104279000D01*
X94528500Y-106845900D02*
X94880400Y-107197800D01*
X94528500Y-104279000D02*
X94528500Y-106845900D01*
X95410600Y-93555000D02*
X95410600Y-103396900D01*
X94880400Y-131930400D02*
X97950000Y-135000000D01*
%TO.N,NB3_L*%
X97011200Y-109485500D02*
X97672300Y-108824400D01*
X97672300Y-108824400D02*
X97672300Y-97488800D01*
X100233700Y-129283700D02*
X100233700Y-123308500D01*
X97011200Y-120086000D02*
X97011200Y-109485500D01*
X105950000Y-135000000D02*
X100233700Y-129283700D01*
X100233700Y-123308500D02*
X97011200Y-120086000D01*
%TO.N,Net-(C9-Pad2)*%
X117500000Y-167000000D02*
X117500000Y-144050000D01*
X117500000Y-144050000D02*
X108450000Y-135000000D01*
%TO.N,NB3_R*%
X73950000Y-141500000D02*
X72055500Y-139605500D01*
X72055500Y-139605500D02*
X72055500Y-101294700D01*
%TO.N,NB4_L*%
X95225600Y-92947800D02*
X92330700Y-95842700D01*
X109986400Y-92947800D02*
X95225600Y-92947800D01*
X92330700Y-95932400D02*
X91040500Y-97222600D01*
X87208100Y-130321600D02*
X83200000Y-134329700D01*
X92330700Y-95842700D02*
X92330700Y-95932400D01*
X83200000Y-134329700D02*
X83200000Y-140250000D01*
X114795300Y-97756700D02*
X109986400Y-92947800D01*
X91040500Y-97222600D02*
X89826200Y-97222600D01*
X87208100Y-99840700D02*
X87208100Y-130321600D01*
X83200000Y-140250000D02*
X81950000Y-141500000D01*
X89826200Y-97222600D02*
X87208100Y-99840700D01*
%TO.N,Net-(C11-Pad2)*%
X138504000Y-156004000D02*
X134556600Y-156004000D01*
X149500000Y-167000000D02*
X138504000Y-156004000D01*
%TO.N,NB4_R*%
X89950000Y-141500000D02*
X91068200Y-140381800D01*
X91068200Y-140381800D02*
X91068200Y-101294700D01*
%TO.N,Net-(C13-Pad1)*%
X97950000Y-141500000D02*
X99376900Y-140073100D01*
X96619400Y-130837000D02*
X96619400Y-109132100D01*
X96619400Y-109132100D02*
X97018500Y-108733000D01*
X97018500Y-108733000D02*
X97018500Y-103680900D01*
X99376900Y-133594500D02*
X96619400Y-130837000D01*
X99376900Y-140073100D02*
X99376900Y-133594500D01*
%TO.N,Net-(C13-Pad2)*%
X117820000Y-206220000D02*
X117820000Y-201911400D01*
X118846700Y-178512100D02*
X100450000Y-160115400D01*
X119000000Y-207400000D02*
X117820000Y-206220000D01*
X100450000Y-160115400D02*
X100450000Y-141500000D01*
X117820000Y-201911400D02*
X118846700Y-200884700D01*
X118846700Y-200884700D02*
X118846700Y-178512100D01*
%TO.N,Net-(C14-Pad1)*%
X100606200Y-125248800D02*
X107043700Y-131686300D01*
X98224200Y-108945100D02*
X97363100Y-109806200D01*
X100606200Y-123183400D02*
X100606200Y-125248800D01*
X97363100Y-119940300D02*
X100606200Y-123183400D01*
X107043700Y-140406300D02*
X105950000Y-141500000D01*
X98224200Y-104597700D02*
X98224200Y-108945100D01*
X107043700Y-131686300D02*
X107043700Y-140406300D01*
X97363100Y-109806200D02*
X97363100Y-119940300D01*
%TO.N,Net-(C14-Pad2)*%
X119263900Y-204636100D02*
X119263900Y-176605600D01*
X119263900Y-176605600D02*
X108450000Y-165791700D01*
X108450000Y-165791700D02*
X108450000Y-141500000D01*
X119000000Y-204900000D02*
X119263900Y-204636100D01*
%TO.N,MIX_L*%
X149377800Y-181151100D02*
X124477000Y-206051900D01*
X166625100Y-175913200D02*
X161387200Y-181151100D01*
X122848100Y-206051900D02*
X121500000Y-207400000D01*
X161387200Y-181151100D02*
X149377800Y-181151100D01*
X166625100Y-146570700D02*
X166625100Y-175913200D01*
X167180100Y-146015700D02*
X166625100Y-146570700D01*
X124477000Y-206051900D02*
X122848100Y-206051900D01*
%TO.N,Net-(U2A-+)*%
X177315100Y-126596800D02*
X177315100Y-128222000D01*
X181060000Y-121800000D02*
X181060000Y-122851900D01*
X177315100Y-128222000D02*
X176310000Y-129227100D01*
X176310000Y-129227100D02*
X176310000Y-142500000D01*
X181060000Y-122851900D02*
X177315100Y-126596800D01*
%TO.N,Net-(C16-Pad1)*%
X182060000Y-143750000D02*
X182060000Y-135945000D01*
X195820000Y-121800000D02*
X195820000Y-122851900D01*
X182060000Y-135945000D02*
X195153100Y-122851900D01*
X195153100Y-122851900D02*
X195820000Y-122851900D01*
%TO.N,Net-(C17-Pad1)*%
X209922600Y-122851900D02*
X190810000Y-141964500D01*
X210580000Y-122851900D02*
X209922600Y-122851900D01*
X190810000Y-141964500D02*
X190810000Y-170250000D01*
X210580000Y-121800000D02*
X210580000Y-122851900D01*
%TO.N,Net-(C17-Pad2)*%
X158600000Y-136000000D02*
X165702300Y-143102300D01*
X165702300Y-143102300D02*
X165702300Y-158659300D01*
%TO.N,MIX_R*%
X146900000Y-179500000D02*
X121500000Y-204900000D01*
X159050000Y-179500000D02*
X146900000Y-179500000D01*
%TO.N,Net-(U2B-+)*%
X166270000Y-174780000D02*
X161550000Y-179500000D01*
X166270000Y-129470000D02*
X166270000Y-174780000D01*
%TO.N,Net-(C19-Pad1)*%
X167300000Y-180750000D02*
X167300000Y-179698100D01*
X167300000Y-179698100D02*
X167180100Y-179578200D01*
X167180100Y-179578200D02*
X167180100Y-157941300D01*
%TO.N,Net-(C20-Pad1)*%
X171233000Y-130404900D02*
X171233000Y-145777300D01*
X166270000Y-125441900D02*
X171233000Y-130404900D01*
X171233000Y-145777300D02*
X176050000Y-150594300D01*
X176050000Y-150594300D02*
X176050000Y-182250000D01*
X166270000Y-124390000D02*
X166270000Y-125441900D01*
%TO.N,Net-(C20-Pad2)*%
X158600000Y-142500000D02*
X164911300Y-148811300D01*
X164911300Y-148811300D02*
X164911300Y-174609500D01*
%TO.N,Net-(D1-K)*%
X172300000Y-104048100D02*
X170180000Y-101928100D01*
X172300000Y-105400000D02*
X172300000Y-104048100D01*
X165930000Y-88900000D02*
X165930000Y-87550000D01*
X170180000Y-101928100D02*
X170180000Y-88900000D01*
X170180000Y-88900000D02*
X170180000Y-87550000D01*
D30*
%TO.N,Net-(D2-A)*%
X81120000Y-190820000D02*
X73900000Y-183600000D01*
X81120000Y-199800000D02*
X81120000Y-190820000D01*
X128800000Y-212700000D02*
X136100000Y-207400000D01*
%TO.N,Net-(D3-A)*%
X93340000Y-199800000D02*
X93340000Y-192640000D01*
X93340000Y-192640000D02*
X84300000Y-183600000D01*
X145800000Y-212700000D02*
X151100000Y-207400000D01*
%TO.N,Net-(D4-A)*%
X105560000Y-199800000D02*
X105560000Y-198698100D01*
X102440100Y-195578200D02*
X102440100Y-191340100D01*
X162800000Y-212700000D02*
X168100000Y-207400000D01*
X102440100Y-191340100D02*
X94700000Y-183600000D01*
X105560000Y-198698100D02*
X102440100Y-195578200D01*
%TO.N,Net-(D5-A)*%
X105100000Y-183600000D02*
X117780000Y-196280000D01*
X117780000Y-196280000D02*
X117780000Y-199800000D01*
X179800000Y-212700000D02*
X185100000Y-207400000D01*
D29*
%TO.N,unconnected-(J1-SHIELD-PadS1)*%
X172380000Y-91910000D02*
X172380000Y-88530000D01*
X163730000Y-91910000D02*
X163730000Y-88530000D01*
%TO.N,NB1_MIC*%
X71493900Y-178653900D02*
X71493900Y-98655000D01*
X78980000Y-186140000D02*
X71493900Y-178653900D01*
%TO.N,NB2_MIC*%
X93582200Y-131220000D02*
X93582200Y-98927900D01*
X94045600Y-131683400D02*
X93582200Y-131220000D01*
X94045600Y-181474400D02*
X94045600Y-131683400D01*
X89380000Y-186140000D02*
X94045600Y-181474400D01*
%TO.N,NB3_MIC*%
X94161200Y-106976300D02*
X94161200Y-103041500D01*
X99780000Y-186140000D02*
X94463000Y-180823000D01*
X94463000Y-107278100D02*
X94161200Y-106976300D01*
X94463000Y-180823000D02*
X94463000Y-107278100D01*
%TO.N,NB4_MIC*%
X99025000Y-136172500D02*
X99025000Y-133987700D01*
X110180000Y-186140000D02*
X96896300Y-172856300D01*
X96267500Y-107912400D02*
X94880400Y-106525300D01*
X97101900Y-102378500D02*
X97101900Y-97206800D01*
X94880400Y-106525300D02*
X94880400Y-104600000D01*
X96896300Y-138301200D02*
X99025000Y-136172500D01*
X100206600Y-96923800D02*
X101791100Y-98508300D01*
X97101900Y-97206800D02*
X97384900Y-96923800D01*
X101791100Y-98508300D02*
X110893500Y-98508300D01*
X96896300Y-172856300D02*
X96896300Y-138301200D01*
X99025000Y-133987700D02*
X96267500Y-131230200D01*
X94880400Y-104600000D02*
X97101900Y-102378500D01*
X96267500Y-131230200D02*
X96267500Y-107912400D01*
X97384900Y-96923800D02*
X100206600Y-96923800D01*
%TO.N,Net-(J6-PadR1)*%
X168760000Y-144049500D02*
X170882600Y-146172100D01*
X168760000Y-142500000D02*
X168760000Y-143551900D01*
X170882600Y-146172100D02*
X170882600Y-208904500D01*
X168760000Y-143551900D02*
X168760000Y-144049500D01*
%TO.N,Net-(J6-PadT)*%
X167732000Y-145787100D02*
X167697700Y-145752800D01*
X167732000Y-146244300D02*
X167732000Y-145787100D01*
X167697700Y-138114200D02*
X168760000Y-137051900D01*
X167697700Y-146278600D02*
X167732000Y-146244300D01*
X167697700Y-145752800D02*
X167697700Y-138114200D01*
X167733600Y-157714300D02*
X167733600Y-157712700D01*
X167697700Y-157676800D02*
X167697700Y-146278600D01*
X170370400Y-160351100D02*
X167733600Y-157714300D01*
X168760000Y-136000000D02*
X168760000Y-137051900D01*
X170316600Y-196699500D02*
X170370400Y-196645700D01*
X170370400Y-196645700D02*
X170370400Y-160351100D01*
X167733600Y-157712700D02*
X167697700Y-157676800D01*
%TO.N,Net-(SW1-B)*%
X74551900Y-204882600D02*
X74551900Y-194411900D01*
X73624100Y-212400000D02*
X73624100Y-205810400D01*
X73624100Y-205810400D02*
X74551900Y-204882600D01*
X75400000Y-212400000D02*
X73624100Y-212400000D01*
X74551900Y-194411900D02*
X73900000Y-193760000D01*
%TO.N,Net-(U1A--)*%
X115320000Y-116308100D02*
X113180000Y-118448100D01*
X73550000Y-107890000D02*
X74601900Y-107890000D01*
X115320000Y-105300000D02*
X115320000Y-116308100D01*
X75653800Y-108941900D02*
X81198800Y-108941900D01*
X74601900Y-107890000D02*
X75653800Y-108941900D01*
X83660000Y-111403100D02*
X83660000Y-119500000D01*
X113180000Y-119500000D02*
X113180000Y-118448100D01*
X81198800Y-108941900D02*
X83660000Y-111403100D01*
%TO.N,Net-(U1B--)*%
X127940000Y-119500000D02*
X127940000Y-118448100D01*
X82221900Y-123510000D02*
X83660000Y-124948100D01*
X130080000Y-116308100D02*
X127940000Y-118448100D01*
X130080000Y-105300000D02*
X130080000Y-116308100D01*
X81170000Y-110430000D02*
X81170000Y-111481900D01*
X82221900Y-112533800D02*
X82221900Y-123510000D01*
X81170000Y-111481900D02*
X82221900Y-112533800D01*
X104561200Y-118433100D02*
X112128100Y-126000000D01*
X83660000Y-126000000D02*
X83660000Y-124948100D01*
X99471900Y-119500000D02*
X100538800Y-118433100D01*
X98420000Y-119500000D02*
X99471900Y-119500000D01*
X100538800Y-118433100D02*
X104561200Y-118433100D01*
X113180000Y-126000000D02*
X112128100Y-126000000D01*
%TO.N,Net-(R5-Pad1)*%
X90000000Y-152500000D02*
X78326300Y-140826300D01*
X78326300Y-124326300D02*
X73500000Y-119500000D01*
X78326300Y-140826300D02*
X78326300Y-124326300D01*
%TO.N,Net-(R6-Pad1)*%
X88846400Y-141916900D02*
X91250800Y-144321300D01*
X91250800Y-151250800D02*
X92500000Y-152500000D01*
X91250800Y-144321300D02*
X91250800Y-151250800D01*
X88260000Y-119500000D02*
X89326900Y-120566900D01*
X89326900Y-133195200D02*
X88846400Y-133675700D01*
X89326900Y-120566900D02*
X89326900Y-133195200D01*
X88846400Y-133675700D02*
X88846400Y-141916900D01*
%TO.N,Net-(R7-Pad1)*%
X120300200Y-150800200D02*
X122000000Y-152500000D01*
X120300200Y-136780200D02*
X120300200Y-150800200D01*
X103020000Y-119500000D02*
X120300200Y-136780200D01*
%TO.N,Net-(R8-Pad1)*%
X123321600Y-151321600D02*
X124500000Y-152500000D01*
X123321600Y-125041600D02*
X123321600Y-151321600D01*
X117780000Y-119500000D02*
X123321600Y-125041600D01*
%TO.N,Net-(R9-Pad1)*%
X118821700Y-168178300D02*
X117500000Y-169500000D01*
X121453900Y-153845500D02*
X118821700Y-156477700D01*
X132540000Y-148611800D02*
X124971100Y-156180700D01*
X124016600Y-156180700D02*
X123151900Y-155316000D01*
X123151900Y-154514400D02*
X122483000Y-153845500D01*
X118821700Y-156477700D02*
X118821700Y-168178300D01*
X122483000Y-153845500D02*
X121453900Y-153845500D01*
X123151900Y-155316000D02*
X123151900Y-154514400D01*
X132540000Y-119500000D02*
X132540000Y-148611800D01*
X124971100Y-156180700D02*
X124016600Y-156180700D01*
%TD*%
M02*
