%TF.GenerationSoftware,KiCad,Pcbnew,7.0.11+dfsg-1build4*%
%TF.CreationDate,2026-08-12T00:55:20-03:00*%
%TF.ProjectId,MeetingHub-4,4d656574-696e-4674-9875-622d342e6b69,rev?*%
%TF.SameCoordinates,Original*%
%TF.FileFunction,Copper,L1,Top*%
%TF.FilePolarity,Positive*%
%FSLAX46Y46*%
G04 Gerber Fmt 4.6, Leading zero omitted, Abs format (unit mm)*
G04 Created by KiCad (PCBNEW 7.0.11+dfsg-1build4) date 2026-08-12 00:55:20*
%MOMM*%
%LPD*%
G01*
G04 APERTURE LIST*
G04 Aperture macros list*
%AMRoundRect*
0 Rectangle with rounded corners*
0 $1 Rounding radius*
0 $2 $3 $4 $5 $6 $7 $8 $9 X,Y pos of 4 corners*
0 Add a 4 corners polygon primitive as box body*
4,1,4,$2,$3,$4,$5,$6,$7,$8,$9,$2,$3,0*
0 Add four circle primitives for the rounded corners*
1,1,$1+$1,$2,$3*
1,1,$1+$1,$4,$5*
1,1,$1+$1,$6,$7*
1,1,$1+$1,$8,$9*
0 Add four rect primitives between the rounded corners*
20,1,$1+$1,$2,$3,$4,$5,0*
20,1,$1+$1,$4,$5,$6,$7,0*
20,1,$1+$1,$6,$7,$8,$9,0*
20,1,$1+$1,$8,$9,$2,$3,0*%
G04 Aperture macros list end*
%TA.AperFunction,SMDPad,CuDef*%
%ADD10R,3.000000X1.500000*%
%TD*%
%TA.AperFunction,ComponentPad*%
%ADD11R,1.600000X1.600000*%
%TD*%
%TA.AperFunction,ComponentPad*%
%ADD12C,1.600000*%
%TD*%
%TA.AperFunction,SMDPad,CuDef*%
%ADD13RoundRect,0.225000X-0.225000X-0.250000X0.225000X-0.250000X0.225000X0.250000X-0.225000X0.250000X0*%
%TD*%
%TA.AperFunction,ComponentPad*%
%ADD14RoundRect,0.450000X-0.450000X-0.450000X0.450000X-0.450000X0.450000X0.450000X-0.450000X0.450000X0*%
%TD*%
%TA.AperFunction,ComponentPad*%
%ADD15C,1.800000*%
%TD*%
%TA.AperFunction,ComponentPad*%
%ADD16RoundRect,0.500000X-0.500000X-1.000000X0.500000X-1.000000X0.500000X1.000000X-0.500000X1.000000X0*%
%TD*%
%TA.AperFunction,ComponentPad*%
%ADD17R,2.000000X2.000000*%
%TD*%
%TA.AperFunction,ComponentPad*%
%ADD18C,2.000000*%
%TD*%
%TA.AperFunction,ComponentPad*%
%ADD19O,1.600000X1.600000*%
%TD*%
%TA.AperFunction,ComponentPad*%
%ADD20C,1.500000*%
%TD*%
%TA.AperFunction,ComponentPad*%
%ADD21C,0.700000*%
%TD*%
%TA.AperFunction,ComponentPad*%
%ADD22O,0.900000X2.400000*%
%TD*%
%TA.AperFunction,ComponentPad*%
%ADD23O,0.900000X1.700000*%
%TD*%
%TA.AperFunction,ComponentPad*%
%ADD24C,2.010000*%
%TD*%
%TA.AperFunction,SMDPad,CuDef*%
%ADD25RoundRect,0.075000X-0.390000X-0.275000X0.390000X-0.275000X0.390000X0.275000X-0.390000X0.275000X0*%
%TD*%
%TA.AperFunction,SMDPad,CuDef*%
%ADD26RoundRect,0.075000X-0.075000X-0.275000X0.075000X-0.275000X0.075000X0.275000X-0.075000X0.275000X0*%
%TD*%
%TA.AperFunction,ComponentPad*%
%ADD27RoundRect,0.450000X-0.450000X0.450000X-0.450000X-0.450000X0.450000X-0.450000X0.450000X0.450000X0*%
%TD*%
%TA.AperFunction,ViaPad*%
%ADD28C,0.600000*%
%TD*%
%TA.AperFunction,Conductor*%
%ADD29C,0.200000*%
%TD*%
%TA.AperFunction,Conductor*%
%ADD30C,0.300000*%
%TD*%
G04 APERTURE END LIST*
D10*
%TO.P,J3,R1*%
%TO.N,NB2_R*%
X93700000Y-93555000D03*
%TO.P,J3,R2*%
%TO.N,GND*%
X93700000Y-90555000D03*
%TO.P,J3,S*%
%TO.N,NB2_MIC*%
X87600000Y-99055000D03*
%TO.P,J3,T*%
%TO.N,NB2_L*%
X93700000Y-97555000D03*
%TD*%
D11*
%TO.P,C17,1*%
%TO.N,Net-(C17-Pad1)*%
X190810000Y-170250000D03*
D12*
%TO.P,C17,2*%
%TO.N,Net-(C17-Pad2)*%
X194310000Y-170250000D03*
%TD*%
%TO.P,C9,1*%
%TO.N,NB3_L*%
X105950000Y-135000000D03*
%TO.P,C9,2*%
%TO.N,Net-(C9-Pad2)*%
X108450000Y-135000000D03*
%TD*%
D13*
%TO.P,C1,1*%
%TO.N,+5V_AUDIO*%
X158275000Y-112300000D03*
%TO.P,C1,2*%
%TO.N,GND*%
X159825000Y-112300000D03*
%TD*%
D10*
%TO.P,J4,R1*%
%TO.N,NB3_R*%
X106700000Y-93555000D03*
%TO.P,J4,R2*%
%TO.N,GND*%
X106700000Y-90555000D03*
%TO.P,J4,S*%
%TO.N,NB3_MIC*%
X100600000Y-98955000D03*
%TO.P,J4,T*%
%TO.N,NB3_L*%
X106700000Y-97555000D03*
%TD*%
D14*
%TO.P,RV4,1*%
%TO.N,Net-(C11-Pad2)*%
X135265000Y-162600000D03*
D15*
%TO.P,RV4,2*%
%TO.N,Net-(R11-Pad1)*%
X135265000Y-165100000D03*
%TO.P,RV4,3*%
%TO.N,VBIAS*%
X135265000Y-167600000D03*
%TO.P,RV4,4*%
%TO.N,Net-(C12-Pad2)*%
X137765000Y-162600000D03*
%TO.P,RV4,5*%
%TO.N,Net-(R12-Pad1)*%
X137765000Y-165100000D03*
%TO.P,RV4,6*%
%TO.N,VBIAS*%
X137765000Y-167600000D03*
D16*
%TO.P,RV4,MP*%
%TO.N,N/C*%
X145265000Y-160350000D03*
X145265000Y-169850000D03*
%TD*%
D17*
%TO.P,K2,1*%
%TO.N,Net-(D3-A)*%
X84300000Y-183600000D03*
D18*
%TO.P,K2,2*%
%TO.N,GND*%
X84300000Y-186140000D03*
%TO.P,K2,5*%
%TO.N,Net-(SW1-B)*%
X84300000Y-193760000D03*
%TO.P,K2,6*%
X89380000Y-193760000D03*
%TO.P,K2,9*%
%TO.N,NB2_MIC*%
X89380000Y-186140000D03*
%TO.P,K2,10*%
%TO.N,unconnected-(K2-Pad10)*%
X89380000Y-183600000D03*
%TD*%
D12*
%TO.P,R10,1*%
%TO.N,Net-(R10-Pad1)*%
X73500000Y-126000000D03*
D19*
%TO.P,R10,2*%
%TO.N,Net-(U1B--)*%
X83660000Y-126000000D03*
%TD*%
D11*
%TO.P,U2,1*%
%TO.N,Net-(C17-Pad1)*%
X158650000Y-121850000D03*
D19*
%TO.P,U2,2,-*%
%TO.N,Net-(U2A--)*%
X158650000Y-124390000D03*
%TO.P,U2,3,+*%
%TO.N,Net-(U2A-+)*%
X158650000Y-126930000D03*
%TO.P,U2,4,V-*%
%TO.N,GND*%
X158650000Y-129470000D03*
%TO.P,U2,5,+*%
%TO.N,Net-(U2B-+)*%
X166270000Y-129470000D03*
%TO.P,U2,6,-*%
%TO.N,Net-(U2B--)*%
X166270000Y-126930000D03*
%TO.P,U2,7*%
%TO.N,Net-(C20-Pad1)*%
X166270000Y-124390000D03*
%TO.P,U2,8,V+*%
%TO.N,+5V_AUDIO*%
X166270000Y-121850000D03*
%TD*%
D11*
%TO.P,C2,1*%
%TO.N,+5V_AUDIO*%
X167300000Y-113550000D03*
D12*
%TO.P,C2,2*%
%TO.N,GND*%
X169300000Y-113550000D03*
%TD*%
D13*
%TO.P,C21,1*%
%TO.N,+5V_AUDIO*%
X185275000Y-179500000D03*
%TO.P,C21,2*%
%TO.N,GND*%
X186825000Y-179500000D03*
%TD*%
D11*
%TO.P,U1,1*%
%TO.N,Net-(C13-Pad1)*%
X73550000Y-105350000D03*
D19*
%TO.P,U1,2,-*%
%TO.N,Net-(U1A--)*%
X73550000Y-107890000D03*
%TO.P,U1,3,+*%
%TO.N,VBIAS*%
X73550000Y-110430000D03*
%TO.P,U1,4,V-*%
%TO.N,GND*%
X73550000Y-112970000D03*
%TO.P,U1,5,+*%
%TO.N,VBIAS*%
X81170000Y-112970000D03*
%TO.P,U1,6,-*%
%TO.N,Net-(U1B--)*%
X81170000Y-110430000D03*
%TO.P,U1,7*%
%TO.N,Net-(C14-Pad1)*%
X81170000Y-107890000D03*
%TO.P,U1,8,V+*%
%TO.N,+5V_AUDIO*%
X81170000Y-105350000D03*
%TD*%
D12*
%TO.P,R9,1*%
%TO.N,Net-(R9-Pad1)*%
X132540000Y-119500000D03*
D19*
%TO.P,R9,2*%
%TO.N,Net-(U1A--)*%
X142700000Y-119500000D03*
%TD*%
D12*
%TO.P,C11,1*%
%TO.N,NB4_L*%
X81950000Y-141500000D03*
%TO.P,C11,2*%
%TO.N,Net-(C11-Pad2)*%
X84450000Y-141500000D03*
%TD*%
%TO.P,C8,1*%
%TO.N,NB2_R*%
X97950000Y-135000000D03*
%TO.P,C8,2*%
%TO.N,Net-(C8-Pad2)*%
X100450000Y-135000000D03*
%TD*%
%TO.P,R8,1*%
%TO.N,Net-(R8-Pad1)*%
X117780000Y-119500000D03*
D19*
%TO.P,R8,2*%
%TO.N,Net-(U1B--)*%
X127940000Y-119500000D03*
%TD*%
D11*
%TO.P,C20,1*%
%TO.N,Net-(C20-Pad1)*%
X176050000Y-182250000D03*
D12*
%TO.P,C20,2*%
%TO.N,Net-(C20-Pad2)*%
X179550000Y-182250000D03*
%TD*%
D20*
%TO.P,TP2,1*%
%TO.N,GND*%
X154550000Y-101800000D03*
%TD*%
D10*
%TO.P,J2,R1*%
%TO.N,NB1_R*%
X80700000Y-93555000D03*
%TO.P,J2,R2*%
%TO.N,GND*%
X80700000Y-90555000D03*
%TO.P,J2,S*%
%TO.N,NB1_MIC*%
X74200000Y-98655000D03*
%TO.P,J2,T*%
%TO.N,NB1_L*%
X80700000Y-97555000D03*
%TD*%
D12*
%TO.P,C12,1*%
%TO.N,NB4_R*%
X89950000Y-141500000D03*
%TO.P,C12,2*%
%TO.N,Net-(C12-Pad2)*%
X92450000Y-141500000D03*
%TD*%
D21*
%TO.P,J1,A1,GND*%
%TO.N,GND*%
X171040000Y-93980000D03*
%TO.P,J1,A4,VBUS*%
%TO.N,Net-(D1-K)*%
X170190000Y-93980000D03*
%TO.P,J1,A5,CC1*%
%TO.N,unconnected-(J1-CC1-PadA5)*%
X169340000Y-93980000D03*
%TO.P,J1,A6,D+*%
%TO.N,unconnected-(J1-D+-PadA6)*%
X168490000Y-93980000D03*
%TO.P,J1,A7,D-*%
%TO.N,unconnected-(J1-D--PadA7)*%
X167640000Y-93980000D03*
%TO.P,J1,A8,SBU1*%
%TO.N,unconnected-(J1-SBU1-PadA8)*%
X166790000Y-93980000D03*
%TO.P,J1,A9,VBUS*%
%TO.N,Net-(D1-K)*%
X165940000Y-93980000D03*
%TO.P,J1,A12,GND*%
%TO.N,GND*%
X165090000Y-93980000D03*
%TO.P,J1,B1,GND*%
X165090000Y-92630000D03*
%TO.P,J1,B4,VBUS*%
%TO.N,Net-(D1-K)*%
X165940000Y-92630000D03*
%TO.P,J1,B5,CC2*%
%TO.N,unconnected-(J1-CC2-PadB5)*%
X166790000Y-92630000D03*
%TO.P,J1,B6,D+*%
%TO.N,unconnected-(J1-D+-PadB6)*%
X167640000Y-92630000D03*
%TO.P,J1,B7,D-*%
%TO.N,unconnected-(J1-D--PadB7)*%
X168490000Y-92630000D03*
%TO.P,J1,B8,SBU2*%
%TO.N,unconnected-(J1-SBU2-PadB8)*%
X169340000Y-92630000D03*
%TO.P,J1,B9,VBUS*%
%TO.N,Net-(D1-K)*%
X170190000Y-92630000D03*
%TO.P,J1,B12,GND*%
%TO.N,GND*%
X171040000Y-92630000D03*
D22*
%TO.P,J1,S1,SHIELD*%
%TO.N,unconnected-(J1-SHIELD-PadS1)*%
X172390000Y-93000000D03*
D23*
X172390000Y-89620000D03*
D22*
X163740000Y-93000000D03*
D23*
X163740000Y-89620000D03*
%TD*%
D14*
%TO.P,RV3,1*%
%TO.N,Net-(C9-Pad2)*%
X114945000Y-162600000D03*
D15*
%TO.P,RV3,2*%
%TO.N,Net-(R9-Pad1)*%
X114945000Y-165100000D03*
%TO.P,RV3,3*%
%TO.N,VBIAS*%
X114945000Y-167600000D03*
%TO.P,RV3,4*%
%TO.N,Net-(C10-Pad2)*%
X117445000Y-162600000D03*
%TO.P,RV3,5*%
%TO.N,Net-(R10-Pad1)*%
X117445000Y-165100000D03*
%TO.P,RV3,6*%
%TO.N,VBIAS*%
X117445000Y-167600000D03*
D16*
%TO.P,RV3,MP*%
%TO.N,N/C*%
X124945000Y-160350000D03*
X124945000Y-169850000D03*
%TD*%
D14*
%TO.P,RV1,1*%
%TO.N,Net-(C5-Pad2)*%
X74305000Y-162600000D03*
D15*
%TO.P,RV1,2*%
%TO.N,Net-(R5-Pad1)*%
X74305000Y-165100000D03*
%TO.P,RV1,3*%
%TO.N,VBIAS*%
X74305000Y-167600000D03*
%TO.P,RV1,4*%
%TO.N,Net-(C6-Pad2)*%
X76805000Y-162600000D03*
%TO.P,RV1,5*%
%TO.N,Net-(R6-Pad1)*%
X76805000Y-165100000D03*
%TO.P,RV1,6*%
%TO.N,VBIAS*%
X76805000Y-167600000D03*
D16*
%TO.P,RV1,MP*%
%TO.N,N/C*%
X84305000Y-160350000D03*
X84305000Y-169850000D03*
%TD*%
D17*
%TO.P,K3,1*%
%TO.N,Net-(D4-A)*%
X94700000Y-183600000D03*
D18*
%TO.P,K3,2*%
%TO.N,GND*%
X94700000Y-186140000D03*
%TO.P,K3,5*%
%TO.N,Net-(SW1-B)*%
X94700000Y-193760000D03*
%TO.P,K3,6*%
X99780000Y-193760000D03*
%TO.P,K3,9*%
%TO.N,NB3_MIC*%
X99780000Y-186140000D03*
%TO.P,K3,10*%
%TO.N,unconnected-(K3-Pad10)*%
X99780000Y-183600000D03*
%TD*%
D11*
%TO.P,C16,1*%
%TO.N,Net-(C16-Pad1)*%
X182060000Y-143750000D03*
D12*
%TO.P,C16,2*%
%TO.N,GND*%
X184060000Y-143750000D03*
%TD*%
%TO.P,R14,1*%
%TO.N,Net-(U2A--)*%
X185660000Y-121800000D03*
D19*
%TO.P,R14,2*%
%TO.N,Net-(C16-Pad1)*%
X195820000Y-121800000D03*
%TD*%
D12*
%TO.P,R6,1*%
%TO.N,Net-(R6-Pad1)*%
X88260000Y-119500000D03*
D19*
%TO.P,R6,2*%
%TO.N,Net-(U1B--)*%
X98420000Y-119500000D03*
%TD*%
D12*
%TO.P,R12,1*%
%TO.N,Net-(R12-Pad1)*%
X103020000Y-126000000D03*
D19*
%TO.P,R12,2*%
%TO.N,Net-(U1B--)*%
X113180000Y-126000000D03*
%TD*%
D18*
%TO.P,SW4,1*%
%TO.N,+5V_AUDIO*%
X123790000Y-214510000D03*
%TO.N,N/C*%
X128290000Y-214510000D03*
%TO.P,SW4,2*%
%TO.N,Net-(D4-A)*%
X122540000Y-212010000D03*
%TO.N,N/C*%
X129540000Y-212010000D03*
%TD*%
%TO.P,SW5,1*%
%TO.N,+5V_AUDIO*%
X135870000Y-214510000D03*
%TO.N,N/C*%
X140370000Y-214510000D03*
%TO.P,SW5,2*%
%TO.N,Net-(D5-A)*%
X134620000Y-212010000D03*
%TO.N,N/C*%
X141620000Y-212010000D03*
%TD*%
D13*
%TO.P,C4,1*%
%TO.N,+5V_AUDIO*%
X125455000Y-126000000D03*
%TO.P,C4,2*%
%TO.N,GND*%
X127005000Y-126000000D03*
%TD*%
D12*
%TO.P,R13,1*%
%TO.N,VBIAS*%
X170900000Y-121800000D03*
D19*
%TO.P,R13,2*%
%TO.N,Net-(U2A-+)*%
X181060000Y-121800000D03*
%TD*%
D12*
%TO.P,R11,1*%
%TO.N,Net-(R11-Pad1)*%
X88260000Y-126000000D03*
D19*
%TO.P,R11,2*%
%TO.N,Net-(U1A--)*%
X98420000Y-126000000D03*
%TD*%
D14*
%TO.P,RV2,1*%
%TO.N,Net-(C7-Pad2)*%
X94625000Y-162600000D03*
D15*
%TO.P,RV2,2*%
%TO.N,Net-(R7-Pad1)*%
X94625000Y-165100000D03*
%TO.P,RV2,3*%
%TO.N,VBIAS*%
X94625000Y-167600000D03*
%TO.P,RV2,4*%
%TO.N,Net-(C8-Pad2)*%
X97125000Y-162600000D03*
%TO.P,RV2,5*%
%TO.N,Net-(R8-Pad1)*%
X97125000Y-165100000D03*
%TO.P,RV2,6*%
%TO.N,VBIAS*%
X97125000Y-167600000D03*
D16*
%TO.P,RV2,MP*%
%TO.N,N/C*%
X104625000Y-160350000D03*
X104625000Y-169850000D03*
%TD*%
D12*
%TO.P,R18,1*%
%TO.N,Net-(U2B--)*%
X188120000Y-136000000D03*
D19*
%TO.P,R18,2*%
%TO.N,Net-(C19-Pad1)*%
X198280000Y-136000000D03*
%TD*%
D10*
%TO.P,J5,R1*%
%TO.N,NB4_R*%
X119700000Y-93555000D03*
%TO.P,J5,R2*%
%TO.N,GND*%
X119700000Y-90555000D03*
%TO.P,J5,S*%
%TO.N,NB4_MIC*%
X113200000Y-98655000D03*
%TO.P,J5,T*%
%TO.N,NB4_L*%
X119700000Y-97555000D03*
%TD*%
D20*
%TO.P,TP1,1,1*%
%TO.N,+5V_AUDIO*%
X215090000Y-101800000D03*
%TD*%
D12*
%TO.P,R2,1*%
%TO.N,VBIAS*%
X100560000Y-105300000D03*
D19*
%TO.P,R2,2*%
%TO.N,GND*%
X110720000Y-105300000D03*
%TD*%
D24*
%TO.P,F1,1*%
%TO.N,Net-(D1-K)*%
X160450000Y-104950000D03*
%TO.P,F1,2*%
%TO.N,+5V_AUDIO*%
X165550000Y-106150000D03*
%TD*%
D12*
%TO.P,C6,1*%
%TO.N,NB1_R*%
X81950000Y-135000000D03*
%TO.P,C6,2*%
%TO.N,Net-(C6-Pad2)*%
X84450000Y-135000000D03*
%TD*%
%TO.P,R19,1*%
%TO.N,Net-(U2B--)*%
X202880000Y-136000000D03*
D19*
%TO.P,R19,2*%
%TO.N,Net-(C20-Pad1)*%
X213040000Y-136000000D03*
%TD*%
D18*
%TO.P,SW3,1*%
%TO.N,+5V_AUDIO*%
X109510000Y-214510000D03*
%TO.N,N/C*%
X114010000Y-214510000D03*
%TO.P,SW3,2*%
%TO.N,Net-(D3-A)*%
X108260000Y-212010000D03*
%TO.N,N/C*%
X115260000Y-212010000D03*
%TD*%
%TO.P,SW1,1*%
%TO.N,HEADSET_MIC*%
X73150000Y-214510000D03*
%TO.N,N/C*%
X77650000Y-214510000D03*
%TO.P,SW1,2*%
%TO.N,Net-(SW1-B)*%
X71900000Y-212010000D03*
%TO.N,N/C*%
X78900000Y-212010000D03*
%TD*%
D12*
%TO.P,C14,1*%
%TO.N,Net-(C14-Pad1)*%
X105950000Y-141500000D03*
%TO.P,C14,2*%
%TO.N,Net-(C14-Pad2)*%
X108450000Y-141500000D03*
%TD*%
D11*
%TO.P,C3,1*%
%TO.N,VBIAS*%
X118480000Y-127250000D03*
D12*
%TO.P,C3,2*%
%TO.N,GND*%
X120480000Y-127250000D03*
%TD*%
D11*
%TO.P,D2,1,K*%
%TO.N,GND*%
X73500000Y-199800000D03*
D19*
%TO.P,D2,2,A*%
%TO.N,Net-(D2-A)*%
X81120000Y-199800000D03*
%TD*%
D11*
%TO.P,D5,1,K*%
%TO.N,GND*%
X110160000Y-199800000D03*
D19*
%TO.P,D5,2,A*%
%TO.N,Net-(D5-A)*%
X117780000Y-199800000D03*
%TD*%
D12*
%TO.P,C10,1*%
%TO.N,NB3_R*%
X73950000Y-141500000D03*
%TO.P,C10,2*%
%TO.N,Net-(C10-Pad2)*%
X76450000Y-141500000D03*
%TD*%
D11*
%TO.P,C19,1*%
%TO.N,Net-(C19-Pad1)*%
X167300000Y-180750000D03*
D12*
%TO.P,C19,2*%
%TO.N,GND*%
X169300000Y-180750000D03*
%TD*%
%TO.P,R4,1*%
%TO.N,Net-(U1B--)*%
X130080000Y-105300000D03*
D19*
%TO.P,R4,2*%
%TO.N,Net-(C14-Pad1)*%
X140240000Y-105300000D03*
%TD*%
D18*
%TO.P,SW2,1*%
%TO.N,+5V_AUDIO*%
X96810000Y-214510000D03*
%TO.N,N/C*%
X101310000Y-214510000D03*
%TO.P,SW2,2*%
%TO.N,Net-(D2-A)*%
X95560000Y-212010000D03*
%TO.N,N/C*%
X102560000Y-212010000D03*
%TD*%
D12*
%TO.P,C13,1*%
%TO.N,Net-(C13-Pad1)*%
X97950000Y-141500000D03*
%TO.P,C13,2*%
%TO.N,Net-(C13-Pad2)*%
X100450000Y-141500000D03*
%TD*%
%TO.P,R5,1*%
%TO.N,Net-(R5-Pad1)*%
X73500000Y-119500000D03*
D19*
%TO.P,R5,2*%
%TO.N,Net-(U1A--)*%
X83660000Y-119500000D03*
%TD*%
D12*
%TO.P,R15,1*%
%TO.N,Net-(U2A--)*%
X200420000Y-121800000D03*
D19*
%TO.P,R15,2*%
%TO.N,Net-(C17-Pad1)*%
X210580000Y-121800000D03*
%TD*%
D17*
%TO.P,K1,1*%
%TO.N,Net-(D2-A)*%
X73900000Y-183600000D03*
D18*
%TO.P,K1,2*%
%TO.N,GND*%
X73900000Y-186140000D03*
%TO.P,K1,5*%
%TO.N,Net-(SW1-B)*%
X73900000Y-193760000D03*
%TO.P,K1,6*%
X78980000Y-193760000D03*
%TO.P,K1,9*%
%TO.N,NB1_MIC*%
X78980000Y-186140000D03*
%TO.P,K1,10*%
%TO.N,unconnected-(K1-Pad10)*%
X78980000Y-183600000D03*
%TD*%
D10*
%TO.P,J6,R1*%
%TO.N,Net-(J6-PadR1)*%
X198350000Y-209280000D03*
%TO.P,J6,R2*%
%TO.N,GND*%
X198350000Y-212280000D03*
%TO.P,J6,S*%
%TO.N,HEADSET_MIC*%
X204850000Y-204180000D03*
%TO.P,J6,T*%
%TO.N,Net-(J6-PadT)*%
X197950000Y-204880000D03*
%TD*%
D11*
%TO.P,D4,1,K*%
%TO.N,GND*%
X97940000Y-199800000D03*
D19*
%TO.P,D4,2,A*%
%TO.N,Net-(D4-A)*%
X105560000Y-199800000D03*
%TD*%
D12*
%TO.P,R17,1*%
%TO.N,VBIAS*%
X173360000Y-136000000D03*
D19*
%TO.P,R17,2*%
%TO.N,Net-(U2B-+)*%
X183520000Y-136000000D03*
%TD*%
D12*
%TO.P,R7,1*%
%TO.N,Net-(R7-Pad1)*%
X103020000Y-119500000D03*
D19*
%TO.P,R7,2*%
%TO.N,Net-(U1A--)*%
X113180000Y-119500000D03*
%TD*%
D25*
%TO.P,D1,1*%
%TO.N,Net-(D1-K)*%
X172015000Y-105400000D03*
D26*
%TO.P,D1,2*%
%TO.N,GND*%
X172900000Y-105400000D03*
%TD*%
D12*
%TO.P,R3,1*%
%TO.N,Net-(U1A--)*%
X115320000Y-105300000D03*
D19*
%TO.P,R3,2*%
%TO.N,Net-(C13-Pad1)*%
X125480000Y-105300000D03*
%TD*%
D12*
%TO.P,C18,1*%
%TO.N,MIX_R*%
X159050000Y-179500000D03*
%TO.P,C18,2*%
%TO.N,Net-(U2B-+)*%
X161550000Y-179500000D03*
%TD*%
D27*
%TO.P,RV5,1*%
%TO.N,Net-(C13-Pad2)*%
X157520000Y-213510000D03*
D15*
%TO.P,RV5,2*%
%TO.N,MIX_L*%
X160020000Y-213510000D03*
%TO.P,RV5,3*%
%TO.N,VBIAS*%
X162520000Y-213510000D03*
%TO.P,RV5,4*%
%TO.N,Net-(C14-Pad2)*%
X157520000Y-211010000D03*
%TO.P,RV5,5*%
%TO.N,MIX_R*%
X160020000Y-211010000D03*
%TO.P,RV5,6*%
%TO.N,VBIAS*%
X162520000Y-211010000D03*
%TD*%
D17*
%TO.P,K4,1*%
%TO.N,Net-(D5-A)*%
X105100000Y-183600000D03*
D18*
%TO.P,K4,2*%
%TO.N,GND*%
X105100000Y-186140000D03*
%TO.P,K4,5*%
%TO.N,Net-(SW1-B)*%
X105100000Y-193760000D03*
%TO.P,K4,6*%
X110180000Y-193760000D03*
%TO.P,K4,9*%
%TO.N,NB4_MIC*%
X110180000Y-186140000D03*
%TO.P,K4,10*%
%TO.N,unconnected-(K4-Pad10)*%
X110180000Y-183600000D03*
%TD*%
D12*
%TO.P,C15,1*%
%TO.N,MIX_L*%
X173810000Y-142500000D03*
%TO.P,C15,2*%
%TO.N,Net-(U2A-+)*%
X176310000Y-142500000D03*
%TD*%
%TO.P,R16,1*%
%TO.N,Net-(C17-Pad2)*%
X158600000Y-136000000D03*
D19*
%TO.P,R16,2*%
%TO.N,Net-(J6-PadT)*%
X168760000Y-136000000D03*
%TD*%
D12*
%TO.P,R1,1*%
%TO.N,+5V_AUDIO*%
X85800000Y-105300000D03*
D19*
%TO.P,R1,2*%
%TO.N,VBIAS*%
X95960000Y-105300000D03*
%TD*%
D11*
%TO.P,D3,1,K*%
%TO.N,GND*%
X85720000Y-199800000D03*
D19*
%TO.P,D3,2,A*%
%TO.N,Net-(D3-A)*%
X93340000Y-199800000D03*
%TD*%
D12*
%TO.P,C7,1*%
%TO.N,NB2_L*%
X89950000Y-135000000D03*
%TO.P,C7,2*%
%TO.N,Net-(C7-Pad2)*%
X92450000Y-135000000D03*
%TD*%
%TO.P,C5,1*%
%TO.N,NB1_L*%
X73950000Y-135000000D03*
%TO.P,C5,2*%
%TO.N,Net-(C5-Pad2)*%
X76450000Y-135000000D03*
%TD*%
%TO.P,R20,1*%
%TO.N,Net-(C20-Pad2)*%
X158600000Y-142500000D03*
D19*
%TO.P,R20,2*%
%TO.N,Net-(J6-PadR1)*%
X168760000Y-142500000D03*
%TD*%
D28*
%TO.N,+5V_AUDIO*%
X125455000Y-127000000D03*
X185275000Y-180500000D03*
X158275000Y-113300000D03*
%TO.N,GND*%
X159825000Y-113300000D03*
X127005000Y-127000000D03*
X173900000Y-105400000D03*
X186825000Y-180500000D03*
%TO.N,VBIAS*%
X115172300Y-127250000D03*
X162520000Y-204398400D03*
%TO.N,NB1_L*%
X78995400Y-97555000D03*
%TO.N,NB1_R*%
X82798600Y-93398100D03*
%TO.N,NB2_L*%
X91050700Y-98379500D03*
%TO.N,NB2_R*%
X97258500Y-94222900D03*
%TO.N,NB3_L*%
X104975200Y-97526000D03*
X101684200Y-132876000D03*
%TO.N,Net-(C9-Pad2)*%
X104879000Y-157100500D03*
%TO.N,NB3_R*%
X81375000Y-98979500D03*
%TO.N,NB4_L*%
X88775100Y-102448900D03*
%TO.N,NB4_R*%
X91942300Y-99163100D03*
%TO.N,Net-(C13-Pad1)*%
X94908100Y-103694700D03*
%TO.N,Net-(C13-Pad2)*%
X116976600Y-142575000D03*
%TO.N,Net-(C14-Pad1)*%
X85282100Y-127884200D03*
%TO.N,Net-(C14-Pad2)*%
X119040900Y-141500000D03*
%TO.N,Net-(U2A-+)*%
X177315100Y-128222000D03*
%TO.N,MIX_R*%
X160020000Y-203240000D03*
%TO.N,Net-(C19-Pad1)*%
X177665000Y-180929500D03*
%TO.N,Net-(C20-Pad2)*%
X158600000Y-172848300D03*
%TO.N,NB1_MIC*%
X79193000Y-101296300D03*
%TO.N,NB2_MIC*%
X89351500Y-98929500D03*
%TO.N,NB3_MIC*%
X94317500Y-100729400D03*
%TO.N,NB4_MIC*%
X111484500Y-98441400D03*
%TO.N,Net-(J6-PadR1)*%
X173680600Y-207844000D03*
%TO.N,Net-(J6-PadT)*%
X172903300Y-203923800D03*
%TO.N,Net-(R11-Pad1)*%
X119798100Y-138250000D03*
%TO.N,Net-(R12-Pad1)*%
X113924900Y-148100100D03*
%TD*%
D29*
%TO.N,+5V_AUDIO*%
X185275000Y-179500000D02*
X185275000Y-180500000D01*
X158275000Y-112300000D02*
X158275000Y-113300000D01*
X125455000Y-126000000D02*
X125455000Y-127000000D01*
D30*
%TO.N,GND*%
X140310735Y-106784900D02*
X112204900Y-106784900D01*
X141340000Y-105755635D02*
X140310735Y-106784900D01*
X198350000Y-213130000D02*
X198120000Y-213360000D01*
X205750000Y-205780000D02*
X205750000Y-205330000D01*
X80700000Y-90555000D02*
X119700000Y-90555000D01*
D29*
X172900000Y-105400000D02*
X173900000Y-105400000D01*
D30*
X119700000Y-90555000D02*
X127050635Y-90555000D01*
X206900000Y-205330000D02*
X206900000Y-203030000D01*
X112204900Y-106784900D02*
X110720000Y-105300000D01*
D29*
X127005000Y-126000000D02*
X127005000Y-127000000D01*
D30*
X141340000Y-104844365D02*
X141340000Y-105755635D01*
D29*
X186825000Y-179500000D02*
X186825000Y-180500000D01*
D30*
X205750000Y-203030000D02*
X205750000Y-198425000D01*
X198350000Y-212280000D02*
X199250000Y-212280000D01*
X205750000Y-198425000D02*
X186825000Y-179500000D01*
X205750000Y-205330000D02*
X206900000Y-205330000D01*
D29*
X159825000Y-112300000D02*
X159825000Y-113300000D01*
D30*
X206900000Y-203030000D02*
X205750000Y-203030000D01*
X198350000Y-212280000D02*
X198350000Y-213130000D01*
X127050635Y-90555000D02*
X141340000Y-104844365D01*
X199250000Y-212280000D02*
X205750000Y-205780000D01*
D29*
%TO.N,VBIAS*%
X76805000Y-167600000D02*
X74305000Y-167600000D01*
X137765000Y-167600000D02*
X135265000Y-167600000D01*
X117445000Y-167600000D02*
X135265000Y-167600000D01*
X81170000Y-112970000D02*
X80118100Y-112970000D01*
X80118100Y-112970000D02*
X87788100Y-105300000D01*
X162520000Y-211010000D02*
X162520000Y-204398400D01*
X87788100Y-105300000D02*
X94908100Y-105300000D01*
X117445000Y-167600000D02*
X114945000Y-167600000D01*
X97125000Y-167600000D02*
X114945000Y-167600000D01*
X95960000Y-105300000D02*
X94908100Y-105300000D01*
X95960000Y-105300000D02*
X100560000Y-105300000D01*
X77578100Y-110430000D02*
X80118100Y-112970000D01*
X118480000Y-127250000D02*
X115172300Y-127250000D01*
X162520000Y-204398400D02*
X162520000Y-213510000D01*
X97125000Y-167600000D02*
X94625000Y-167600000D01*
X118480000Y-127250000D02*
X122828100Y-122901900D01*
X169798100Y-122901900D02*
X170900000Y-121800000D01*
X73550000Y-110430000D02*
X77578100Y-110430000D01*
X122828100Y-122901900D02*
X169798100Y-122901900D01*
X94625000Y-167600000D02*
X76805000Y-167600000D01*
%TO.N,NB1_L*%
X80700000Y-97555000D02*
X79198100Y-97555000D01*
X79198100Y-97555000D02*
X78995400Y-97555000D01*
%TO.N,NB1_R*%
X82358800Y-93398100D02*
X82201900Y-93555000D01*
X80700000Y-93555000D02*
X82201900Y-93555000D01*
X82798600Y-93398100D02*
X82358800Y-93398100D01*
%TO.N,NB2_L*%
X91373600Y-98379500D02*
X91050700Y-98379500D01*
X93700000Y-97555000D02*
X92198100Y-97555000D01*
X92198100Y-97555000D02*
X91373600Y-98379500D01*
%TO.N,NB2_R*%
X95869800Y-94222900D02*
X97258500Y-94222900D01*
X93700000Y-93555000D02*
X95201900Y-93555000D01*
X95201900Y-93555000D02*
X95869800Y-94222900D01*
%TO.N,NB3_L*%
X103826000Y-132876000D02*
X101684200Y-132876000D01*
X105950000Y-135000000D02*
X103826000Y-132876000D01*
X106700000Y-97555000D02*
X105198100Y-97555000D01*
X105169100Y-97526000D02*
X105198100Y-97555000D01*
X104975200Y-97526000D02*
X105169100Y-97526000D01*
%TO.N,Net-(C9-Pad2)*%
X114945000Y-162600000D02*
X110378500Y-162600000D01*
X110378500Y-162600000D02*
X104879000Y-157100500D01*
%TO.N,NB3_R*%
X102550800Y-93555000D02*
X106700000Y-93555000D01*
X93630200Y-94774800D02*
X101331000Y-94774800D01*
X91112500Y-97292500D02*
X93630200Y-94774800D01*
X81375000Y-98979500D02*
X84669300Y-98979500D01*
X101331000Y-94774800D02*
X102550800Y-93555000D01*
X84669300Y-98979500D02*
X86356300Y-97292500D01*
X86356300Y-97292500D02*
X91112500Y-97292500D01*
%TO.N,Net-(C10-Pad2)*%
X82785800Y-147835800D02*
X76450000Y-141500000D01*
X102680800Y-147835800D02*
X82785800Y-147835800D01*
X117445000Y-162600000D02*
X102680800Y-147835800D01*
%TO.N,NB4_L*%
X88775100Y-102448900D02*
X113304200Y-102448900D01*
X119700000Y-97555000D02*
X118198100Y-97555000D01*
X113304200Y-102448900D02*
X118198100Y-97555000D01*
%TO.N,Net-(C11-Pad2)*%
X121764000Y-149099000D02*
X104580400Y-149099000D01*
X135265000Y-162600000D02*
X121764000Y-149099000D01*
X100321500Y-144840100D02*
X87790100Y-144840100D01*
X104580400Y-149099000D02*
X100321500Y-144840100D01*
X87790100Y-144840100D02*
X84450000Y-141500000D01*
%TO.N,NB4_R*%
X97485700Y-99163100D02*
X98910600Y-97738200D01*
X98910600Y-97738200D02*
X103666800Y-97738200D01*
X115550800Y-93555000D02*
X119700000Y-93555000D01*
X106700400Y-94704600D02*
X114401200Y-94704600D01*
X91942300Y-99163100D02*
X97485700Y-99163100D01*
X114401200Y-94704600D02*
X115550800Y-93555000D01*
X103666800Y-97738200D02*
X106700400Y-94704600D01*
%TO.N,Net-(C12-Pad2)*%
X118615000Y-143450000D02*
X137765000Y-162600000D01*
X94400000Y-143450000D02*
X118615000Y-143450000D01*
X92450000Y-141500000D02*
X94400000Y-143450000D01*
%TO.N,Net-(C13-Pad1)*%
X76056400Y-103895500D02*
X74601900Y-105350000D01*
X94908100Y-103895500D02*
X94908100Y-103694700D01*
X73550000Y-105350000D02*
X74601900Y-105350000D01*
X125480000Y-105300000D02*
X124428100Y-105300000D01*
X123023600Y-103895500D02*
X94908100Y-103895500D01*
X124428100Y-105300000D02*
X123023600Y-103895500D01*
X94908100Y-103895500D02*
X76056400Y-103895500D01*
%TO.N,Net-(C13-Pad2)*%
X116976600Y-142575000D02*
X101525000Y-142575000D01*
X101525000Y-142575000D02*
X100450000Y-141500000D01*
%TO.N,Net-(C14-Pad1)*%
X140240000Y-105300000D02*
X139188100Y-105300000D01*
X102952000Y-141500000D02*
X89336200Y-127884200D01*
X139188100Y-105300000D02*
X138103200Y-106384900D01*
X81170000Y-107890000D02*
X82221900Y-107890000D01*
X118427100Y-106384900D02*
X116289600Y-104247400D01*
X82221900Y-107377100D02*
X82221900Y-107890000D01*
X138103200Y-106384900D02*
X118427100Y-106384900D01*
X85351600Y-104247400D02*
X82221900Y-107377100D01*
X105950000Y-141500000D02*
X102952000Y-141500000D01*
X116289600Y-104247400D02*
X85351600Y-104247400D01*
X89336200Y-127884200D02*
X85282100Y-127884200D01*
%TO.N,Net-(C14-Pad2)*%
X108450000Y-141500000D02*
X119040900Y-141500000D01*
%TO.N,Net-(U2A-+)*%
X160993900Y-128222000D02*
X159701900Y-126930000D01*
X177315100Y-128222000D02*
X160993900Y-128222000D01*
X158650000Y-126930000D02*
X159701900Y-126930000D01*
%TO.N,Net-(C17-Pad1)*%
X161220000Y-120331900D02*
X159701900Y-121850000D01*
X210580000Y-121800000D02*
X209528100Y-121800000D01*
X209528100Y-121800000D02*
X208060000Y-120331900D01*
X158650000Y-121850000D02*
X159701900Y-121850000D01*
X208060000Y-120331900D02*
X161220000Y-120331900D01*
%TO.N,Net-(C17-Pad2)*%
X160060000Y-136000000D02*
X158600000Y-136000000D01*
X194310000Y-170250000D02*
X160060000Y-136000000D01*
%TO.N,MIX_R*%
X160020000Y-211010000D02*
X160020000Y-203240000D01*
%TO.N,Net-(U2B-+)*%
X175938100Y-129470000D02*
X182468100Y-136000000D01*
X183520000Y-136000000D02*
X182468100Y-136000000D01*
X166270000Y-129470000D02*
X175938100Y-129470000D01*
%TO.N,Net-(C19-Pad1)*%
X168373000Y-179677000D02*
X176412500Y-179677000D01*
X176412500Y-179677000D02*
X177665000Y-180929500D01*
X167300000Y-180750000D02*
X168373000Y-179677000D01*
%TO.N,Net-(C20-Pad1)*%
X213040000Y-136000000D02*
X211988100Y-136000000D01*
X166270000Y-124390000D02*
X200378100Y-124390000D01*
X200378100Y-124390000D02*
X211988100Y-136000000D01*
%TO.N,Net-(C20-Pad2)*%
X179550000Y-182250000D02*
X179550000Y-182034000D01*
X179550000Y-182034000D02*
X170364300Y-172848300D01*
X170364300Y-172848300D02*
X158600000Y-172848300D01*
%TO.N,Net-(D1-K)*%
X171288529Y-93380000D02*
X170940000Y-93380000D01*
X172015000Y-105400000D02*
X171250000Y-105400000D01*
X171250000Y-105400000D02*
X171250000Y-94580000D01*
X171640000Y-93731471D02*
X171288529Y-93380000D01*
X170190000Y-93980000D02*
X169590000Y-93380000D01*
X166540000Y-93380000D02*
X165940000Y-93980000D01*
X169795000Y-103945000D02*
X161455000Y-103945000D01*
X171640000Y-94228529D02*
X171640000Y-93731471D01*
X161455000Y-103945000D02*
X160450000Y-104950000D01*
X171250000Y-94580000D02*
X171288529Y-94580000D01*
X171288529Y-94580000D02*
X171640000Y-94228529D01*
X171250000Y-105400000D02*
X169795000Y-103945000D01*
X169590000Y-93380000D02*
X166540000Y-93380000D01*
X170190000Y-93980000D02*
X170190000Y-92630000D01*
X165940000Y-93980000D02*
X165940000Y-92630000D01*
X170940000Y-93380000D02*
X170190000Y-92630000D01*
D30*
%TO.N,Net-(D2-A)*%
X103891400Y-208797800D02*
X103891400Y-206470800D01*
X95560000Y-212010000D02*
X95508100Y-207081900D01*
X81120000Y-199800000D02*
X82221900Y-199800000D01*
X96270800Y-210831900D02*
X101857300Y-210831900D01*
X95508100Y-210069200D02*
X96270800Y-210831900D01*
X103891400Y-206470800D02*
X102796800Y-205376200D01*
X101857300Y-210831900D02*
X103891400Y-208797800D01*
X102796800Y-205376200D02*
X87798100Y-205376200D01*
X87798100Y-205376200D02*
X82221900Y-199800000D01*
X95508100Y-207081900D02*
X95508100Y-210069200D01*
%TO.N,Net-(D3-A)*%
X93340000Y-199800000D02*
X94441900Y-199800000D01*
X95543800Y-200901900D02*
X102131900Y-200901900D01*
X94441900Y-199800000D02*
X95543800Y-200901900D01*
X102131900Y-200901900D02*
X108260000Y-212010000D01*
%TO.N,Net-(D4-A)*%
X122540000Y-212010000D02*
X118259800Y-202709800D01*
X105560000Y-199800000D02*
X106661900Y-199800000D01*
X109571700Y-202709800D02*
X106661900Y-199800000D01*
X118259800Y-202709800D02*
X109571700Y-202709800D01*
%TO.N,Net-(D5-A)*%
X127430000Y-199800000D02*
X134620000Y-212010000D01*
X117780000Y-199800000D02*
X127430000Y-199800000D01*
D29*
%TO.N,unconnected-(J1-SHIELD-PadS1)*%
X163740000Y-89620000D02*
X172390000Y-89620000D01*
X172390000Y-89620000D02*
X172390000Y-93000000D01*
X163740000Y-89620000D02*
X163740000Y-93000000D01*
%TO.N,NB1_MIC*%
X74200000Y-98655000D02*
X75701900Y-98655000D01*
X75701900Y-98655000D02*
X78343200Y-101296300D01*
X78343200Y-101296300D02*
X79193000Y-101296300D01*
%TO.N,NB2_MIC*%
X88976400Y-98929500D02*
X89351500Y-98929500D01*
X88701900Y-98655000D02*
X88976400Y-98929500D01*
X87200000Y-98655000D02*
X88701900Y-98655000D01*
%TO.N,NB3_MIC*%
X100200000Y-98655000D02*
X98698100Y-98655000D01*
X96623700Y-100729400D02*
X94317500Y-100729400D01*
X98698100Y-98655000D02*
X96623700Y-100729400D01*
%TO.N,NB4_MIC*%
X111484500Y-98441400D02*
X111698100Y-98655000D01*
X113200000Y-98655000D02*
X111698100Y-98655000D01*
%TO.N,Net-(J6-PadR1)*%
X198350000Y-209280000D02*
X198350000Y-207778100D01*
X198350000Y-207778100D02*
X173746500Y-207778100D01*
X173746500Y-207778100D02*
X173680600Y-207844000D01*
%TO.N,HEADSET_MIC*%
X198599900Y-207279100D02*
X200291100Y-205587900D01*
X169422400Y-211247600D02*
X173390900Y-207279100D01*
X203904100Y-205587900D02*
X203998100Y-205681900D01*
X73150000Y-214510000D02*
X75748000Y-217000000D01*
X173390900Y-207279100D02*
X198599900Y-207279100D01*
X204850000Y-204180000D02*
X204850000Y-205681900D01*
X145000000Y-217000000D02*
X166000000Y-217000000D01*
X166000000Y-217000000D02*
X169422400Y-211247600D01*
X200291100Y-205587900D02*
X203904100Y-205587900D01*
X75748000Y-217000000D02*
X145000000Y-217000000D01*
X203998100Y-205681900D02*
X204850000Y-205681900D01*
%TO.N,Net-(J6-PadT)*%
X198350000Y-205280000D02*
X198350000Y-203923800D01*
X198350000Y-203923800D02*
X172903300Y-203923800D01*
%TO.N,Net-(SW1-B)*%
X78980000Y-193760000D02*
X73900000Y-193760000D01*
X110180000Y-193760000D02*
X105100000Y-193760000D01*
X94700000Y-193760000D02*
X89380000Y-193760000D01*
X78980000Y-193760000D02*
X84300000Y-193760000D01*
X89380000Y-193760000D02*
X84300000Y-193760000D01*
X99780000Y-193760000D02*
X94700000Y-193760000D01*
X105100000Y-193760000D02*
X99780000Y-193760000D01*
%TO.N,Net-(U1A--)*%
X140550400Y-118402300D02*
X141648100Y-119500000D01*
X142700000Y-119500000D02*
X141648100Y-119500000D01*
X105261000Y-120210900D02*
X99471900Y-126000000D01*
X105971900Y-119500000D02*
X105261000Y-120210900D01*
X105261000Y-120210900D02*
X103464300Y-118414300D01*
X103464300Y-118414300D02*
X85797600Y-118414300D01*
X98420000Y-126000000D02*
X99471900Y-126000000D01*
X73550000Y-107890000D02*
X73550000Y-108941900D01*
X73550000Y-108941900D02*
X72486700Y-110005200D01*
X72486700Y-110864100D02*
X73322600Y-111700000D01*
X74808100Y-111700000D02*
X82608100Y-119500000D01*
X83660000Y-119500000D02*
X84711900Y-119500000D01*
X73322600Y-111700000D02*
X74808100Y-111700000D01*
X113180000Y-119500000D02*
X105971900Y-119500000D01*
X72486700Y-110005200D02*
X72486700Y-110864100D01*
X83660000Y-119500000D02*
X82608100Y-119500000D01*
X113180000Y-119500000D02*
X114231900Y-119500000D01*
X115329600Y-118402300D02*
X140550400Y-118402300D01*
X114231900Y-119500000D02*
X115329600Y-118402300D01*
X85797600Y-118414300D02*
X84711900Y-119500000D01*
%TO.N,Net-(U1B--)*%
X91211900Y-119500000D02*
X84711900Y-126000000D01*
X114231900Y-126000000D02*
X120731900Y-119500000D01*
X83660000Y-126000000D02*
X84711900Y-126000000D01*
X120731900Y-119500000D02*
X127940000Y-119500000D01*
X98420000Y-119500000D02*
X91211900Y-119500000D01*
X113180000Y-126000000D02*
X114231900Y-126000000D01*
%TO.N,Net-(R10-Pad1)*%
X116266600Y-163921600D02*
X117445000Y-165100000D01*
X75200100Y-141780600D02*
X92827600Y-159408100D01*
X92827600Y-159408100D02*
X93000000Y-163850000D01*
X75200100Y-127700100D02*
X75200100Y-141780600D01*
X109480200Y-163921600D02*
X116266600Y-163921600D01*
X93000000Y-163850000D02*
X109000000Y-163850000D01*
X73500000Y-126000000D02*
X75200100Y-127700100D01*
X109000000Y-163850000D02*
X109480200Y-163921600D01*
%TO.N,Net-(R11-Pad1)*%
X106277800Y-138250000D02*
X119798100Y-138250000D01*
X94027800Y-126000000D02*
X106277800Y-138250000D01*
X88260000Y-126000000D02*
X94027800Y-126000000D01*
%TO.N,Net-(R12-Pad1)*%
X136586700Y-161989000D02*
X122697800Y-148100100D01*
X136586700Y-163921700D02*
X136586700Y-161989000D01*
X122697800Y-148100100D02*
X113924900Y-148100100D01*
X137765000Y-165100000D02*
X136586700Y-163921700D01*
%TO.N,Net-(U2A--)*%
X200420000Y-121800000D02*
X199303800Y-120683800D01*
X159701900Y-124390000D02*
X160753800Y-123338100D01*
X160753800Y-123338100D02*
X184121900Y-123338100D01*
X186776200Y-120683800D02*
X185660000Y-121800000D01*
X184121900Y-123338100D02*
X185660000Y-121800000D01*
X199303800Y-120683800D02*
X186776200Y-120683800D01*
X158650000Y-124390000D02*
X159701900Y-124390000D01*
%TO.N,Net-(U2B--)*%
X189175400Y-134944600D02*
X188120000Y-136000000D01*
X179050000Y-126930000D02*
X188120000Y-136000000D01*
X166270000Y-126930000D02*
X179050000Y-126930000D01*
X202880000Y-136000000D02*
X201824600Y-134944600D01*
X201824600Y-134944600D02*
X189175400Y-134944600D01*
%TD*%
M02*
