M48
; DRILL file {KiCad 7.0.11+dfsg-1build4} date Wed Aug 12 00:55:52 2026
; FORMAT={-:-/ absolute / metric / decimal}
; #@! TF.CreationDate,2026-08-12T00:55:52-03:00
; #@! TF.GenerationSoftware,Kicad,Pcbnew,7.0.11+dfsg-1build4
; #@! TF.FileFunction,MixedPlating,1,4
FMAT,2
METRIC
; #@! TA.AperFunction,Plated,PTH,ViaDrill
T1C0.300
; #@! TA.AperFunction,Plated,PTH,ComponentDrill
T2C0.400
; #@! TA.AperFunction,Plated,PTH,ComponentDrill
T3C0.600
; #@! TA.AperFunction,Plated,PTH,ComponentDrill
T4C0.700
; #@! TA.AperFunction,Plated,PTH,ComponentDrill
T5C0.800
; #@! TA.AperFunction,Plated,PTH,ComponentDrill
T6C1.000
; #@! TA.AperFunction,Plated,PTH,ComponentDrill
T7C1.010
; #@! TA.AperFunction,Plated,PTH,ComponentDrill
T8C1.100
; #@! TA.AperFunction,Plated,PTH,ComponentDrill
T9C1.300
; #@! TA.AperFunction,NonPlated,NPTH,ComponentDrill
T10C1.500
; #@! TA.AperFunction,NonPlated,NPTH,ComponentDrill
T11C3.200
%
G90
G05
T1
X78.995Y-97.555
X79.193Y-101.296
X81.375Y-98.98
X82.799Y-93.398
X85.282Y-127.884
X88.775Y-102.449
X89.352Y-98.929
X91.051Y-98.379
X91.942Y-99.163
X94.317Y-100.729
X94.908Y-103.695
X97.258Y-94.223
X101.684Y-132.876
X104.879Y-157.1
X104.975Y-97.526
X111.484Y-98.441
X113.925Y-148.1
X115.172Y-127.25
X116.977Y-142.575
X119.041Y-141.5
X119.798Y-138.25
X125.455Y-127.0
X127.005Y-127.0
X158.275Y-113.3
X158.6Y-172.848
X159.825Y-113.3
X160.02Y-203.24
X162.52Y-204.398
X172.903Y-203.924
X173.681Y-207.844
X173.9Y-105.4
X177.315Y-128.222
X177.665Y-180.929
X185.275Y-180.5
X186.825Y-180.5
T2
X165.09Y-92.63
X165.09Y-93.98
X165.94Y-92.63
X165.94Y-93.98
X166.79Y-92.63
X166.79Y-93.98
X167.64Y-92.63
X167.64Y-93.98
X168.49Y-92.63
X168.49Y-93.98
X169.34Y-92.63
X169.34Y-93.98
X170.19Y-92.63
X170.19Y-93.98
X171.04Y-92.63
X171.04Y-93.98
T4
X154.55Y-101.8
X215.09Y-101.8
T5
X73.5Y-119.5
X73.5Y-126.0
X73.5Y-199.8
X73.55Y-105.35
X73.55Y-107.89
X73.55Y-110.43
X73.55Y-112.97
X73.95Y-135.0
X73.95Y-141.5
X76.45Y-135.0
X76.45Y-141.5
X81.12Y-199.8
X81.17Y-105.35
X81.17Y-107.89
X81.17Y-110.43
X81.17Y-112.97
X81.95Y-135.0
X81.95Y-141.5
X83.66Y-119.5
X83.66Y-126.0
X84.45Y-135.0
X84.45Y-141.5
X85.72Y-199.8
X85.8Y-105.3
X88.26Y-119.5
X88.26Y-126.0
X89.95Y-135.0
X89.95Y-141.5
X92.45Y-135.0
X92.45Y-141.5
X93.34Y-199.8
X95.96Y-105.3
X97.94Y-199.8
X97.95Y-135.0
X97.95Y-141.5
X98.42Y-119.5
X98.42Y-126.0
X100.45Y-135.0
X100.45Y-141.5
X100.56Y-105.3
X103.02Y-119.5
X103.02Y-126.0
X105.56Y-199.8
X105.95Y-135.0
X105.95Y-141.5
X108.45Y-135.0
X108.45Y-141.5
X110.16Y-199.8
X110.72Y-105.3
X113.18Y-119.5
X113.18Y-126.0
X115.32Y-105.3
X117.78Y-119.5
X117.78Y-199.8
X118.48Y-127.25
X120.48Y-127.25
X125.48Y-105.3
X127.94Y-119.5
X130.08Y-105.3
X132.54Y-119.5
X140.24Y-105.3
X142.7Y-119.5
X158.6Y-136.0
X158.6Y-142.5
X158.65Y-121.85
X158.65Y-124.39
X158.65Y-126.93
X158.65Y-129.47
X159.05Y-179.5
X161.55Y-179.5
X166.27Y-121.85
X166.27Y-124.39
X166.27Y-126.93
X166.27Y-129.47
X167.3Y-113.55
X167.3Y-180.75
X168.76Y-136.0
X168.76Y-142.5
X169.3Y-113.55
X169.3Y-180.75
X170.9Y-121.8
X173.36Y-136.0
X173.81Y-142.5
X176.05Y-182.25
X176.31Y-142.5
X179.55Y-182.25
X181.06Y-121.8
X182.06Y-143.75
X183.52Y-136.0
X184.06Y-143.75
X185.66Y-121.8
X188.12Y-136.0
X190.81Y-170.25
X194.31Y-170.25
X195.82Y-121.8
X198.28Y-136.0
X200.42Y-121.8
X202.88Y-136.0
X210.58Y-121.8
X213.04Y-136.0
T6
X73.9Y-183.6
X73.9Y-186.14
X73.9Y-193.76
X74.305Y-162.6
X74.305Y-165.1
X74.305Y-167.6
X76.805Y-162.6
X76.805Y-165.1
X76.805Y-167.6
X78.98Y-183.6
X78.98Y-186.14
X78.98Y-193.76
X84.3Y-183.6
X84.3Y-186.14
X84.3Y-193.76
X89.38Y-183.6
X89.38Y-186.14
X89.38Y-193.76
X94.625Y-162.6
X94.625Y-165.1
X94.625Y-167.6
X94.7Y-183.6
X94.7Y-186.14
X94.7Y-193.76
X97.125Y-162.6
X97.125Y-165.1
X97.125Y-167.6
X99.78Y-183.6
X99.78Y-186.14
X99.78Y-193.76
X105.1Y-183.6
X105.1Y-186.14
X105.1Y-193.76
X110.18Y-183.6
X110.18Y-186.14
X110.18Y-193.76
X114.945Y-162.6
X114.945Y-165.1
X114.945Y-167.6
X117.445Y-162.6
X117.445Y-165.1
X117.445Y-167.6
X135.265Y-162.6
X135.265Y-165.1
X135.265Y-167.6
X137.765Y-162.6
X137.765Y-165.1
X137.765Y-167.6
X157.52Y-211.01
X157.52Y-213.51
X160.02Y-211.01
X160.02Y-213.51
X162.52Y-211.01
X162.52Y-213.51
T7
X160.45Y-104.95
X165.55Y-106.15
T9
X71.9Y-212.01
X73.15Y-214.51
X77.65Y-214.51
X78.9Y-212.01
X95.56Y-212.01
X96.81Y-214.51
X101.31Y-214.51
X102.56Y-212.01
X108.26Y-212.01
X109.51Y-214.51
X114.01Y-214.51
X115.26Y-212.01
X122.54Y-212.01
X123.79Y-214.51
X128.29Y-214.51
X129.54Y-212.01
X134.62Y-212.01
X135.87Y-214.51
X140.37Y-214.51
X141.62Y-212.01
T10
X77.45Y-88.955
X77.45Y-95.955
X90.45Y-88.955
X90.45Y-95.955
X103.45Y-88.955
X103.45Y-95.955
X116.45Y-88.955
X116.45Y-95.955
X201.6Y-206.88
X201.6Y-213.88
T11
X66.0Y-91.0
X66.04Y-213.88
X214.09Y-91.0
X215.9Y-213.88
T3
X163.74Y-90.02G85X163.74Y-89.22
G05
X163.74Y-93.75G85X163.74Y-92.25
G05
X172.39Y-90.02G85X172.39Y-89.22
G05
X172.39Y-93.75G85X172.39Y-92.25
G05
T8
X84.305Y-160.0G85X84.305Y-160.7
G05
X84.305Y-169.5G85X84.305Y-170.2
G05
X104.625Y-160.0G85X104.625Y-160.7
G05
X104.625Y-169.5G85X104.625Y-170.2
G05
X124.945Y-160.0G85X124.945Y-160.7
G05
X124.945Y-169.5G85X124.945Y-170.2
G05
X145.265Y-160.0G85X145.265Y-160.7
G05
X145.265Y-169.5G85X145.265Y-170.2
G05
M30
