%TF.GenerationSoftware,KiCad,Pcbnew,7.0.11+dfsg-1build4*%
%TF.CreationDate,2026-07-23T16:34:21-03:00*%
%TF.ProjectId,MeetingHub-4,4d656574-696e-4674-9875-622d342e6b69,rev?*%
%TF.SameCoordinates,Original*%
%TF.FileFunction,Legend,Top*%
%TF.FilePolarity,Positive*%
%FSLAX46Y46*%
G04 Gerber Fmt 4.6, Leading zero omitted, Abs format (unit mm)*
G04 Created by KiCad (PCBNEW 7.0.11+dfsg-1build4) date 2026-07-23 16:34:21*
%MOMM*%
%LPD*%
G01*
G04 APERTURE LIST*
%ADD10C,0.150000*%
%ADD11C,0.120000*%
G04 APERTURE END LIST*
D10*
X149716666Y-94104819D02*
X149716666Y-94819104D01*
X149716666Y-94819104D02*
X149669047Y-94961961D01*
X149669047Y-94961961D02*
X149573809Y-95057200D01*
X149573809Y-95057200D02*
X149430952Y-95104819D01*
X149430952Y-95104819D02*
X149335714Y-95104819D01*
X150097619Y-94104819D02*
X150716666Y-94104819D01*
X150716666Y-94104819D02*
X150383333Y-94485771D01*
X150383333Y-94485771D02*
X150526190Y-94485771D01*
X150526190Y-94485771D02*
X150621428Y-94533390D01*
X150621428Y-94533390D02*
X150669047Y-94581009D01*
X150669047Y-94581009D02*
X150716666Y-94676247D01*
X150716666Y-94676247D02*
X150716666Y-94914342D01*
X150716666Y-94914342D02*
X150669047Y-95009580D01*
X150669047Y-95009580D02*
X150621428Y-95057200D01*
X150621428Y-95057200D02*
X150526190Y-95104819D01*
X150526190Y-95104819D02*
X150240476Y-95104819D01*
X150240476Y-95104819D02*
X150145238Y-95057200D01*
X150145238Y-95057200D02*
X150097619Y-95009580D01*
X229404761Y-178954819D02*
X229071428Y-178478628D01*
X228833333Y-178954819D02*
X228833333Y-177954819D01*
X228833333Y-177954819D02*
X229214285Y-177954819D01*
X229214285Y-177954819D02*
X229309523Y-178002438D01*
X229309523Y-178002438D02*
X229357142Y-178050057D01*
X229357142Y-178050057D02*
X229404761Y-178145295D01*
X229404761Y-178145295D02*
X229404761Y-178288152D01*
X229404761Y-178288152D02*
X229357142Y-178383390D01*
X229357142Y-178383390D02*
X229309523Y-178431009D01*
X229309523Y-178431009D02*
X229214285Y-178478628D01*
X229214285Y-178478628D02*
X228833333Y-178478628D01*
X229690476Y-177954819D02*
X230023809Y-178954819D01*
X230023809Y-178954819D02*
X230357142Y-177954819D01*
X231119047Y-178288152D02*
X231119047Y-178954819D01*
X230880952Y-177907200D02*
X230642857Y-178621485D01*
X230642857Y-178621485D02*
X231261904Y-178621485D01*
X269404761Y-178954819D02*
X269071428Y-178478628D01*
X268833333Y-178954819D02*
X268833333Y-177954819D01*
X268833333Y-177954819D02*
X269214285Y-177954819D01*
X269214285Y-177954819D02*
X269309523Y-178002438D01*
X269309523Y-178002438D02*
X269357142Y-178050057D01*
X269357142Y-178050057D02*
X269404761Y-178145295D01*
X269404761Y-178145295D02*
X269404761Y-178288152D01*
X269404761Y-178288152D02*
X269357142Y-178383390D01*
X269357142Y-178383390D02*
X269309523Y-178431009D01*
X269309523Y-178431009D02*
X269214285Y-178478628D01*
X269214285Y-178478628D02*
X268833333Y-178478628D01*
X269690476Y-177954819D02*
X270023809Y-178954819D01*
X270023809Y-178954819D02*
X270357142Y-177954819D01*
X271166666Y-177954819D02*
X270690476Y-177954819D01*
X270690476Y-177954819D02*
X270642857Y-178431009D01*
X270642857Y-178431009D02*
X270690476Y-178383390D01*
X270690476Y-178383390D02*
X270785714Y-178335771D01*
X270785714Y-178335771D02*
X271023809Y-178335771D01*
X271023809Y-178335771D02*
X271119047Y-178383390D01*
X271119047Y-178383390D02*
X271166666Y-178431009D01*
X271166666Y-178431009D02*
X271214285Y-178526247D01*
X271214285Y-178526247D02*
X271214285Y-178764342D01*
X271214285Y-178764342D02*
X271166666Y-178859580D01*
X271166666Y-178859580D02*
X271119047Y-178907200D01*
X271119047Y-178907200D02*
X271023809Y-178954819D01*
X271023809Y-178954819D02*
X270785714Y-178954819D01*
X270785714Y-178954819D02*
X270690476Y-178907200D01*
X270690476Y-178907200D02*
X270642857Y-178859580D01*
X261107142Y-201109580D02*
X261059523Y-201157200D01*
X261059523Y-201157200D02*
X260916666Y-201204819D01*
X260916666Y-201204819D02*
X260821428Y-201204819D01*
X260821428Y-201204819D02*
X260678571Y-201157200D01*
X260678571Y-201157200D02*
X260583333Y-201061961D01*
X260583333Y-201061961D02*
X260535714Y-200966723D01*
X260535714Y-200966723D02*
X260488095Y-200776247D01*
X260488095Y-200776247D02*
X260488095Y-200633390D01*
X260488095Y-200633390D02*
X260535714Y-200442914D01*
X260535714Y-200442914D02*
X260583333Y-200347676D01*
X260583333Y-200347676D02*
X260678571Y-200252438D01*
X260678571Y-200252438D02*
X260821428Y-200204819D01*
X260821428Y-200204819D02*
X260916666Y-200204819D01*
X260916666Y-200204819D02*
X261059523Y-200252438D01*
X261059523Y-200252438D02*
X261107142Y-200300057D01*
X262059523Y-201204819D02*
X261488095Y-201204819D01*
X261773809Y-201204819D02*
X261773809Y-200204819D01*
X261773809Y-200204819D02*
X261678571Y-200347676D01*
X261678571Y-200347676D02*
X261583333Y-200442914D01*
X261583333Y-200442914D02*
X261488095Y-200490533D01*
X262392857Y-200204819D02*
X263059523Y-200204819D01*
X263059523Y-200204819D02*
X262630952Y-201204819D01*
X136083333Y-148859580D02*
X136035714Y-148907200D01*
X136035714Y-148907200D02*
X135892857Y-148954819D01*
X135892857Y-148954819D02*
X135797619Y-148954819D01*
X135797619Y-148954819D02*
X135654762Y-148907200D01*
X135654762Y-148907200D02*
X135559524Y-148811961D01*
X135559524Y-148811961D02*
X135511905Y-148716723D01*
X135511905Y-148716723D02*
X135464286Y-148526247D01*
X135464286Y-148526247D02*
X135464286Y-148383390D01*
X135464286Y-148383390D02*
X135511905Y-148192914D01*
X135511905Y-148192914D02*
X135559524Y-148097676D01*
X135559524Y-148097676D02*
X135654762Y-148002438D01*
X135654762Y-148002438D02*
X135797619Y-147954819D01*
X135797619Y-147954819D02*
X135892857Y-147954819D01*
X135892857Y-147954819D02*
X136035714Y-148002438D01*
X136035714Y-148002438D02*
X136083333Y-148050057D01*
X136559524Y-148954819D02*
X136750000Y-148954819D01*
X136750000Y-148954819D02*
X136845238Y-148907200D01*
X136845238Y-148907200D02*
X136892857Y-148859580D01*
X136892857Y-148859580D02*
X136988095Y-148716723D01*
X136988095Y-148716723D02*
X137035714Y-148526247D01*
X137035714Y-148526247D02*
X137035714Y-148145295D01*
X137035714Y-148145295D02*
X136988095Y-148050057D01*
X136988095Y-148050057D02*
X136940476Y-148002438D01*
X136940476Y-148002438D02*
X136845238Y-147954819D01*
X136845238Y-147954819D02*
X136654762Y-147954819D01*
X136654762Y-147954819D02*
X136559524Y-148002438D01*
X136559524Y-148002438D02*
X136511905Y-148050057D01*
X136511905Y-148050057D02*
X136464286Y-148145295D01*
X136464286Y-148145295D02*
X136464286Y-148383390D01*
X136464286Y-148383390D02*
X136511905Y-148478628D01*
X136511905Y-148478628D02*
X136559524Y-148526247D01*
X136559524Y-148526247D02*
X136654762Y-148573866D01*
X136654762Y-148573866D02*
X136845238Y-148573866D01*
X136845238Y-148573866D02*
X136940476Y-148526247D01*
X136940476Y-148526247D02*
X136988095Y-148478628D01*
X136988095Y-148478628D02*
X137035714Y-148383390D01*
X189716666Y-94104819D02*
X189716666Y-94819104D01*
X189716666Y-94819104D02*
X189669047Y-94961961D01*
X189669047Y-94961961D02*
X189573809Y-95057200D01*
X189573809Y-95057200D02*
X189430952Y-95104819D01*
X189430952Y-95104819D02*
X189335714Y-95104819D01*
X190621428Y-94438152D02*
X190621428Y-95104819D01*
X190383333Y-94057200D02*
X190145238Y-94771485D01*
X190145238Y-94771485D02*
X190764285Y-94771485D01*
X101761905Y-188254819D02*
X101761905Y-187254819D01*
X102333333Y-188254819D02*
X101904762Y-187683390D01*
X102333333Y-187254819D02*
X101761905Y-187826247D01*
X102714286Y-187350057D02*
X102761905Y-187302438D01*
X102761905Y-187302438D02*
X102857143Y-187254819D01*
X102857143Y-187254819D02*
X103095238Y-187254819D01*
X103095238Y-187254819D02*
X103190476Y-187302438D01*
X103190476Y-187302438D02*
X103238095Y-187350057D01*
X103238095Y-187350057D02*
X103285714Y-187445295D01*
X103285714Y-187445295D02*
X103285714Y-187540533D01*
X103285714Y-187540533D02*
X103238095Y-187683390D01*
X103238095Y-187683390D02*
X102666667Y-188254819D01*
X102666667Y-188254819D02*
X103285714Y-188254819D01*
X64666667Y-87254819D02*
X64666667Y-86254819D01*
X64666667Y-86254819D02*
X65000000Y-86969104D01*
X65000000Y-86969104D02*
X65333333Y-86254819D01*
X65333333Y-86254819D02*
X65333333Y-87254819D01*
X65809524Y-87254819D02*
X65809524Y-86254819D01*
X65809524Y-86731009D02*
X66380952Y-86731009D01*
X66380952Y-87254819D02*
X66380952Y-86254819D01*
X67380952Y-87254819D02*
X66809524Y-87254819D01*
X67095238Y-87254819D02*
X67095238Y-86254819D01*
X67095238Y-86254819D02*
X67000000Y-86397676D01*
X67000000Y-86397676D02*
X66904762Y-86492914D01*
X66904762Y-86492914D02*
X66809524Y-86540533D01*
X79437142Y-138084819D02*
X79103809Y-137608628D01*
X78865714Y-138084819D02*
X78865714Y-137084819D01*
X78865714Y-137084819D02*
X79246666Y-137084819D01*
X79246666Y-137084819D02*
X79341904Y-137132438D01*
X79341904Y-137132438D02*
X79389523Y-137180057D01*
X79389523Y-137180057D02*
X79437142Y-137275295D01*
X79437142Y-137275295D02*
X79437142Y-137418152D01*
X79437142Y-137418152D02*
X79389523Y-137513390D01*
X79389523Y-137513390D02*
X79341904Y-137561009D01*
X79341904Y-137561009D02*
X79246666Y-137608628D01*
X79246666Y-137608628D02*
X78865714Y-137608628D01*
X80389523Y-138084819D02*
X79818095Y-138084819D01*
X80103809Y-138084819D02*
X80103809Y-137084819D01*
X80103809Y-137084819D02*
X80008571Y-137227676D01*
X80008571Y-137227676D02*
X79913333Y-137322914D01*
X79913333Y-137322914D02*
X79818095Y-137370533D01*
X81008571Y-137084819D02*
X81103809Y-137084819D01*
X81103809Y-137084819D02*
X81199047Y-137132438D01*
X81199047Y-137132438D02*
X81246666Y-137180057D01*
X81246666Y-137180057D02*
X81294285Y-137275295D01*
X81294285Y-137275295D02*
X81341904Y-137465771D01*
X81341904Y-137465771D02*
X81341904Y-137703866D01*
X81341904Y-137703866D02*
X81294285Y-137894342D01*
X81294285Y-137894342D02*
X81246666Y-137989580D01*
X81246666Y-137989580D02*
X81199047Y-138037200D01*
X81199047Y-138037200D02*
X81103809Y-138084819D01*
X81103809Y-138084819D02*
X81008571Y-138084819D01*
X81008571Y-138084819D02*
X80913333Y-138037200D01*
X80913333Y-138037200D02*
X80865714Y-137989580D01*
X80865714Y-137989580D02*
X80818095Y-137894342D01*
X80818095Y-137894342D02*
X80770476Y-137703866D01*
X80770476Y-137703866D02*
X80770476Y-137465771D01*
X80770476Y-137465771D02*
X80818095Y-137275295D01*
X80818095Y-137275295D02*
X80865714Y-137180057D01*
X80865714Y-137180057D02*
X80913333Y-137132438D01*
X80913333Y-137132438D02*
X81008571Y-137084819D01*
X218048095Y-179124819D02*
X218048095Y-179934342D01*
X218048095Y-179934342D02*
X218095714Y-180029580D01*
X218095714Y-180029580D02*
X218143333Y-180077200D01*
X218143333Y-180077200D02*
X218238571Y-180124819D01*
X218238571Y-180124819D02*
X218429047Y-180124819D01*
X218429047Y-180124819D02*
X218524285Y-180077200D01*
X218524285Y-180077200D02*
X218571904Y-180029580D01*
X218571904Y-180029580D02*
X218619523Y-179934342D01*
X218619523Y-179934342D02*
X218619523Y-179124819D01*
X219048095Y-179220057D02*
X219095714Y-179172438D01*
X219095714Y-179172438D02*
X219190952Y-179124819D01*
X219190952Y-179124819D02*
X219429047Y-179124819D01*
X219429047Y-179124819D02*
X219524285Y-179172438D01*
X219524285Y-179172438D02*
X219571904Y-179220057D01*
X219571904Y-179220057D02*
X219619523Y-179315295D01*
X219619523Y-179315295D02*
X219619523Y-179410533D01*
X219619523Y-179410533D02*
X219571904Y-179553390D01*
X219571904Y-179553390D02*
X219000476Y-180124819D01*
X219000476Y-180124819D02*
X219619523Y-180124819D01*
X149404761Y-178954819D02*
X149071428Y-178478628D01*
X148833333Y-178954819D02*
X148833333Y-177954819D01*
X148833333Y-177954819D02*
X149214285Y-177954819D01*
X149214285Y-177954819D02*
X149309523Y-178002438D01*
X149309523Y-178002438D02*
X149357142Y-178050057D01*
X149357142Y-178050057D02*
X149404761Y-178145295D01*
X149404761Y-178145295D02*
X149404761Y-178288152D01*
X149404761Y-178288152D02*
X149357142Y-178383390D01*
X149357142Y-178383390D02*
X149309523Y-178431009D01*
X149309523Y-178431009D02*
X149214285Y-178478628D01*
X149214285Y-178478628D02*
X148833333Y-178478628D01*
X149690476Y-177954819D02*
X150023809Y-178954819D01*
X150023809Y-178954819D02*
X150357142Y-177954819D01*
X150642857Y-178050057D02*
X150690476Y-178002438D01*
X150690476Y-178002438D02*
X150785714Y-177954819D01*
X150785714Y-177954819D02*
X151023809Y-177954819D01*
X151023809Y-177954819D02*
X151119047Y-178002438D01*
X151119047Y-178002438D02*
X151166666Y-178050057D01*
X151166666Y-178050057D02*
X151214285Y-178145295D01*
X151214285Y-178145295D02*
X151214285Y-178240533D01*
X151214285Y-178240533D02*
X151166666Y-178383390D01*
X151166666Y-178383390D02*
X150595238Y-178954819D01*
X150595238Y-178954819D02*
X151214285Y-178954819D01*
X290833333Y-131609580D02*
X290785714Y-131657200D01*
X290785714Y-131657200D02*
X290642857Y-131704819D01*
X290642857Y-131704819D02*
X290547619Y-131704819D01*
X290547619Y-131704819D02*
X290404762Y-131657200D01*
X290404762Y-131657200D02*
X290309524Y-131561961D01*
X290309524Y-131561961D02*
X290261905Y-131466723D01*
X290261905Y-131466723D02*
X290214286Y-131276247D01*
X290214286Y-131276247D02*
X290214286Y-131133390D01*
X290214286Y-131133390D02*
X290261905Y-130942914D01*
X290261905Y-130942914D02*
X290309524Y-130847676D01*
X290309524Y-130847676D02*
X290404762Y-130752438D01*
X290404762Y-130752438D02*
X290547619Y-130704819D01*
X290547619Y-130704819D02*
X290642857Y-130704819D01*
X290642857Y-130704819D02*
X290785714Y-130752438D01*
X290785714Y-130752438D02*
X290833333Y-130800057D01*
X291214286Y-130800057D02*
X291261905Y-130752438D01*
X291261905Y-130752438D02*
X291357143Y-130704819D01*
X291357143Y-130704819D02*
X291595238Y-130704819D01*
X291595238Y-130704819D02*
X291690476Y-130752438D01*
X291690476Y-130752438D02*
X291738095Y-130800057D01*
X291738095Y-130800057D02*
X291785714Y-130895295D01*
X291785714Y-130895295D02*
X291785714Y-130990533D01*
X291785714Y-130990533D02*
X291738095Y-131133390D01*
X291738095Y-131133390D02*
X291166667Y-131704819D01*
X291166667Y-131704819D02*
X291785714Y-131704819D01*
X78048095Y-115124819D02*
X78048095Y-115934342D01*
X78048095Y-115934342D02*
X78095714Y-116029580D01*
X78095714Y-116029580D02*
X78143333Y-116077200D01*
X78143333Y-116077200D02*
X78238571Y-116124819D01*
X78238571Y-116124819D02*
X78429047Y-116124819D01*
X78429047Y-116124819D02*
X78524285Y-116077200D01*
X78524285Y-116077200D02*
X78571904Y-116029580D01*
X78571904Y-116029580D02*
X78619523Y-115934342D01*
X78619523Y-115934342D02*
X78619523Y-115124819D01*
X79619523Y-116124819D02*
X79048095Y-116124819D01*
X79333809Y-116124819D02*
X79333809Y-115124819D01*
X79333809Y-115124819D02*
X79238571Y-115267676D01*
X79238571Y-115267676D02*
X79143333Y-115362914D01*
X79143333Y-115362914D02*
X79048095Y-115410533D01*
X139913333Y-127084819D02*
X139580000Y-126608628D01*
X139341905Y-127084819D02*
X139341905Y-126084819D01*
X139341905Y-126084819D02*
X139722857Y-126084819D01*
X139722857Y-126084819D02*
X139818095Y-126132438D01*
X139818095Y-126132438D02*
X139865714Y-126180057D01*
X139865714Y-126180057D02*
X139913333Y-126275295D01*
X139913333Y-126275295D02*
X139913333Y-126418152D01*
X139913333Y-126418152D02*
X139865714Y-126513390D01*
X139865714Y-126513390D02*
X139818095Y-126561009D01*
X139818095Y-126561009D02*
X139722857Y-126608628D01*
X139722857Y-126608628D02*
X139341905Y-126608628D01*
X140389524Y-127084819D02*
X140580000Y-127084819D01*
X140580000Y-127084819D02*
X140675238Y-127037200D01*
X140675238Y-127037200D02*
X140722857Y-126989580D01*
X140722857Y-126989580D02*
X140818095Y-126846723D01*
X140818095Y-126846723D02*
X140865714Y-126656247D01*
X140865714Y-126656247D02*
X140865714Y-126275295D01*
X140865714Y-126275295D02*
X140818095Y-126180057D01*
X140818095Y-126180057D02*
X140770476Y-126132438D01*
X140770476Y-126132438D02*
X140675238Y-126084819D01*
X140675238Y-126084819D02*
X140484762Y-126084819D01*
X140484762Y-126084819D02*
X140389524Y-126132438D01*
X140389524Y-126132438D02*
X140341905Y-126180057D01*
X140341905Y-126180057D02*
X140294286Y-126275295D01*
X140294286Y-126275295D02*
X140294286Y-126513390D01*
X140294286Y-126513390D02*
X140341905Y-126608628D01*
X140341905Y-126608628D02*
X140389524Y-126656247D01*
X140389524Y-126656247D02*
X140484762Y-126703866D01*
X140484762Y-126703866D02*
X140675238Y-126703866D01*
X140675238Y-126703866D02*
X140770476Y-126656247D01*
X140770476Y-126656247D02*
X140818095Y-126608628D01*
X140818095Y-126608628D02*
X140865714Y-126513390D01*
X90607142Y-159859580D02*
X90559523Y-159907200D01*
X90559523Y-159907200D02*
X90416666Y-159954819D01*
X90416666Y-159954819D02*
X90321428Y-159954819D01*
X90321428Y-159954819D02*
X90178571Y-159907200D01*
X90178571Y-159907200D02*
X90083333Y-159811961D01*
X90083333Y-159811961D02*
X90035714Y-159716723D01*
X90035714Y-159716723D02*
X89988095Y-159526247D01*
X89988095Y-159526247D02*
X89988095Y-159383390D01*
X89988095Y-159383390D02*
X90035714Y-159192914D01*
X90035714Y-159192914D02*
X90083333Y-159097676D01*
X90083333Y-159097676D02*
X90178571Y-159002438D01*
X90178571Y-159002438D02*
X90321428Y-158954819D01*
X90321428Y-158954819D02*
X90416666Y-158954819D01*
X90416666Y-158954819D02*
X90559523Y-159002438D01*
X90559523Y-159002438D02*
X90607142Y-159050057D01*
X91559523Y-159954819D02*
X90988095Y-159954819D01*
X91273809Y-159954819D02*
X91273809Y-158954819D01*
X91273809Y-158954819D02*
X91178571Y-159097676D01*
X91178571Y-159097676D02*
X91083333Y-159192914D01*
X91083333Y-159192914D02*
X90988095Y-159240533D01*
X92511904Y-159954819D02*
X91940476Y-159954819D01*
X92226190Y-159954819D02*
X92226190Y-158954819D01*
X92226190Y-158954819D02*
X92130952Y-159097676D01*
X92130952Y-159097676D02*
X92035714Y-159192914D01*
X92035714Y-159192914D02*
X91940476Y-159240533D01*
X121083333Y-148859580D02*
X121035714Y-148907200D01*
X121035714Y-148907200D02*
X120892857Y-148954819D01*
X120892857Y-148954819D02*
X120797619Y-148954819D01*
X120797619Y-148954819D02*
X120654762Y-148907200D01*
X120654762Y-148907200D02*
X120559524Y-148811961D01*
X120559524Y-148811961D02*
X120511905Y-148716723D01*
X120511905Y-148716723D02*
X120464286Y-148526247D01*
X120464286Y-148526247D02*
X120464286Y-148383390D01*
X120464286Y-148383390D02*
X120511905Y-148192914D01*
X120511905Y-148192914D02*
X120559524Y-148097676D01*
X120559524Y-148097676D02*
X120654762Y-148002438D01*
X120654762Y-148002438D02*
X120797619Y-147954819D01*
X120797619Y-147954819D02*
X120892857Y-147954819D01*
X120892857Y-147954819D02*
X121035714Y-148002438D01*
X121035714Y-148002438D02*
X121083333Y-148050057D01*
X121654762Y-148383390D02*
X121559524Y-148335771D01*
X121559524Y-148335771D02*
X121511905Y-148288152D01*
X121511905Y-148288152D02*
X121464286Y-148192914D01*
X121464286Y-148192914D02*
X121464286Y-148145295D01*
X121464286Y-148145295D02*
X121511905Y-148050057D01*
X121511905Y-148050057D02*
X121559524Y-148002438D01*
X121559524Y-148002438D02*
X121654762Y-147954819D01*
X121654762Y-147954819D02*
X121845238Y-147954819D01*
X121845238Y-147954819D02*
X121940476Y-148002438D01*
X121940476Y-148002438D02*
X121988095Y-148050057D01*
X121988095Y-148050057D02*
X122035714Y-148145295D01*
X122035714Y-148145295D02*
X122035714Y-148192914D01*
X122035714Y-148192914D02*
X121988095Y-148288152D01*
X121988095Y-148288152D02*
X121940476Y-148335771D01*
X121940476Y-148335771D02*
X121845238Y-148383390D01*
X121845238Y-148383390D02*
X121654762Y-148383390D01*
X121654762Y-148383390D02*
X121559524Y-148431009D01*
X121559524Y-148431009D02*
X121511905Y-148478628D01*
X121511905Y-148478628D02*
X121464286Y-148573866D01*
X121464286Y-148573866D02*
X121464286Y-148764342D01*
X121464286Y-148764342D02*
X121511905Y-148859580D01*
X121511905Y-148859580D02*
X121559524Y-148907200D01*
X121559524Y-148907200D02*
X121654762Y-148954819D01*
X121654762Y-148954819D02*
X121845238Y-148954819D01*
X121845238Y-148954819D02*
X121940476Y-148907200D01*
X121940476Y-148907200D02*
X121988095Y-148859580D01*
X121988095Y-148859580D02*
X122035714Y-148764342D01*
X122035714Y-148764342D02*
X122035714Y-148573866D01*
X122035714Y-148573866D02*
X121988095Y-148478628D01*
X121988095Y-148478628D02*
X121940476Y-148431009D01*
X121940476Y-148431009D02*
X121845238Y-148383390D01*
X124913333Y-127084819D02*
X124580000Y-126608628D01*
X124341905Y-127084819D02*
X124341905Y-126084819D01*
X124341905Y-126084819D02*
X124722857Y-126084819D01*
X124722857Y-126084819D02*
X124818095Y-126132438D01*
X124818095Y-126132438D02*
X124865714Y-126180057D01*
X124865714Y-126180057D02*
X124913333Y-126275295D01*
X124913333Y-126275295D02*
X124913333Y-126418152D01*
X124913333Y-126418152D02*
X124865714Y-126513390D01*
X124865714Y-126513390D02*
X124818095Y-126561009D01*
X124818095Y-126561009D02*
X124722857Y-126608628D01*
X124722857Y-126608628D02*
X124341905Y-126608628D01*
X125484762Y-126513390D02*
X125389524Y-126465771D01*
X125389524Y-126465771D02*
X125341905Y-126418152D01*
X125341905Y-126418152D02*
X125294286Y-126322914D01*
X125294286Y-126322914D02*
X125294286Y-126275295D01*
X125294286Y-126275295D02*
X125341905Y-126180057D01*
X125341905Y-126180057D02*
X125389524Y-126132438D01*
X125389524Y-126132438D02*
X125484762Y-126084819D01*
X125484762Y-126084819D02*
X125675238Y-126084819D01*
X125675238Y-126084819D02*
X125770476Y-126132438D01*
X125770476Y-126132438D02*
X125818095Y-126180057D01*
X125818095Y-126180057D02*
X125865714Y-126275295D01*
X125865714Y-126275295D02*
X125865714Y-126322914D01*
X125865714Y-126322914D02*
X125818095Y-126418152D01*
X125818095Y-126418152D02*
X125770476Y-126465771D01*
X125770476Y-126465771D02*
X125675238Y-126513390D01*
X125675238Y-126513390D02*
X125484762Y-126513390D01*
X125484762Y-126513390D02*
X125389524Y-126561009D01*
X125389524Y-126561009D02*
X125341905Y-126608628D01*
X125341905Y-126608628D02*
X125294286Y-126703866D01*
X125294286Y-126703866D02*
X125294286Y-126894342D01*
X125294286Y-126894342D02*
X125341905Y-126989580D01*
X125341905Y-126989580D02*
X125389524Y-127037200D01*
X125389524Y-127037200D02*
X125484762Y-127084819D01*
X125484762Y-127084819D02*
X125675238Y-127084819D01*
X125675238Y-127084819D02*
X125770476Y-127037200D01*
X125770476Y-127037200D02*
X125818095Y-126989580D01*
X125818095Y-126989580D02*
X125865714Y-126894342D01*
X125865714Y-126894342D02*
X125865714Y-126703866D01*
X125865714Y-126703866D02*
X125818095Y-126608628D01*
X125818095Y-126608628D02*
X125770476Y-126561009D01*
X125770476Y-126561009D02*
X125675238Y-126513390D01*
X246107142Y-213109580D02*
X246059523Y-213157200D01*
X246059523Y-213157200D02*
X245916666Y-213204819D01*
X245916666Y-213204819D02*
X245821428Y-213204819D01*
X245821428Y-213204819D02*
X245678571Y-213157200D01*
X245678571Y-213157200D02*
X245583333Y-213061961D01*
X245583333Y-213061961D02*
X245535714Y-212966723D01*
X245535714Y-212966723D02*
X245488095Y-212776247D01*
X245488095Y-212776247D02*
X245488095Y-212633390D01*
X245488095Y-212633390D02*
X245535714Y-212442914D01*
X245535714Y-212442914D02*
X245583333Y-212347676D01*
X245583333Y-212347676D02*
X245678571Y-212252438D01*
X245678571Y-212252438D02*
X245821428Y-212204819D01*
X245821428Y-212204819D02*
X245916666Y-212204819D01*
X245916666Y-212204819D02*
X246059523Y-212252438D01*
X246059523Y-212252438D02*
X246107142Y-212300057D01*
X246488095Y-212300057D02*
X246535714Y-212252438D01*
X246535714Y-212252438D02*
X246630952Y-212204819D01*
X246630952Y-212204819D02*
X246869047Y-212204819D01*
X246869047Y-212204819D02*
X246964285Y-212252438D01*
X246964285Y-212252438D02*
X247011904Y-212300057D01*
X247011904Y-212300057D02*
X247059523Y-212395295D01*
X247059523Y-212395295D02*
X247059523Y-212490533D01*
X247059523Y-212490533D02*
X247011904Y-212633390D01*
X247011904Y-212633390D02*
X246440476Y-213204819D01*
X246440476Y-213204819D02*
X247059523Y-213204819D01*
X247678571Y-212204819D02*
X247773809Y-212204819D01*
X247773809Y-212204819D02*
X247869047Y-212252438D01*
X247869047Y-212252438D02*
X247916666Y-212300057D01*
X247916666Y-212300057D02*
X247964285Y-212395295D01*
X247964285Y-212395295D02*
X248011904Y-212585771D01*
X248011904Y-212585771D02*
X248011904Y-212823866D01*
X248011904Y-212823866D02*
X247964285Y-213014342D01*
X247964285Y-213014342D02*
X247916666Y-213109580D01*
X247916666Y-213109580D02*
X247869047Y-213157200D01*
X247869047Y-213157200D02*
X247773809Y-213204819D01*
X247773809Y-213204819D02*
X247678571Y-213204819D01*
X247678571Y-213204819D02*
X247583333Y-213157200D01*
X247583333Y-213157200D02*
X247535714Y-213109580D01*
X247535714Y-213109580D02*
X247488095Y-213014342D01*
X247488095Y-213014342D02*
X247440476Y-212823866D01*
X247440476Y-212823866D02*
X247440476Y-212585771D01*
X247440476Y-212585771D02*
X247488095Y-212395295D01*
X247488095Y-212395295D02*
X247535714Y-212300057D01*
X247535714Y-212300057D02*
X247583333Y-212252438D01*
X247583333Y-212252438D02*
X247678571Y-212204819D01*
X65738095Y-123426819D02*
X66309523Y-123426819D01*
X66023809Y-124426819D02*
X66023809Y-123426819D01*
X66642857Y-124426819D02*
X66642857Y-123426819D01*
X66642857Y-123426819D02*
X67023809Y-123426819D01*
X67023809Y-123426819D02*
X67119047Y-123474438D01*
X67119047Y-123474438D02*
X67166666Y-123522057D01*
X67166666Y-123522057D02*
X67214285Y-123617295D01*
X67214285Y-123617295D02*
X67214285Y-123760152D01*
X67214285Y-123760152D02*
X67166666Y-123855390D01*
X67166666Y-123855390D02*
X67119047Y-123903009D01*
X67119047Y-123903009D02*
X67023809Y-123950628D01*
X67023809Y-123950628D02*
X66642857Y-123950628D01*
X67595238Y-123522057D02*
X67642857Y-123474438D01*
X67642857Y-123474438D02*
X67738095Y-123426819D01*
X67738095Y-123426819D02*
X67976190Y-123426819D01*
X67976190Y-123426819D02*
X68071428Y-123474438D01*
X68071428Y-123474438D02*
X68119047Y-123522057D01*
X68119047Y-123522057D02*
X68166666Y-123617295D01*
X68166666Y-123617295D02*
X68166666Y-123712533D01*
X68166666Y-123712533D02*
X68119047Y-123855390D01*
X68119047Y-123855390D02*
X67547619Y-124426819D01*
X67547619Y-124426819D02*
X68166666Y-124426819D01*
X109716666Y-94104819D02*
X109716666Y-94819104D01*
X109716666Y-94819104D02*
X109669047Y-94961961D01*
X109669047Y-94961961D02*
X109573809Y-95057200D01*
X109573809Y-95057200D02*
X109430952Y-95104819D01*
X109430952Y-95104819D02*
X109335714Y-95104819D01*
X110145238Y-94200057D02*
X110192857Y-94152438D01*
X110192857Y-94152438D02*
X110288095Y-94104819D01*
X110288095Y-94104819D02*
X110526190Y-94104819D01*
X110526190Y-94104819D02*
X110621428Y-94152438D01*
X110621428Y-94152438D02*
X110669047Y-94200057D01*
X110669047Y-94200057D02*
X110716666Y-94295295D01*
X110716666Y-94295295D02*
X110716666Y-94390533D01*
X110716666Y-94390533D02*
X110669047Y-94533390D01*
X110669047Y-94533390D02*
X110097619Y-95104819D01*
X110097619Y-95104819D02*
X110716666Y-95104819D01*
X317666667Y-235254819D02*
X317666667Y-234254819D01*
X317666667Y-234254819D02*
X318000000Y-234969104D01*
X318000000Y-234969104D02*
X318333333Y-234254819D01*
X318333333Y-234254819D02*
X318333333Y-235254819D01*
X318809524Y-235254819D02*
X318809524Y-234254819D01*
X318809524Y-234731009D02*
X319380952Y-234731009D01*
X319380952Y-235254819D02*
X319380952Y-234254819D01*
X320285714Y-234588152D02*
X320285714Y-235254819D01*
X320047619Y-234207200D02*
X319809524Y-234921485D01*
X319809524Y-234921485D02*
X320428571Y-234921485D01*
X105607142Y-159859580D02*
X105559523Y-159907200D01*
X105559523Y-159907200D02*
X105416666Y-159954819D01*
X105416666Y-159954819D02*
X105321428Y-159954819D01*
X105321428Y-159954819D02*
X105178571Y-159907200D01*
X105178571Y-159907200D02*
X105083333Y-159811961D01*
X105083333Y-159811961D02*
X105035714Y-159716723D01*
X105035714Y-159716723D02*
X104988095Y-159526247D01*
X104988095Y-159526247D02*
X104988095Y-159383390D01*
X104988095Y-159383390D02*
X105035714Y-159192914D01*
X105035714Y-159192914D02*
X105083333Y-159097676D01*
X105083333Y-159097676D02*
X105178571Y-159002438D01*
X105178571Y-159002438D02*
X105321428Y-158954819D01*
X105321428Y-158954819D02*
X105416666Y-158954819D01*
X105416666Y-158954819D02*
X105559523Y-159002438D01*
X105559523Y-159002438D02*
X105607142Y-159050057D01*
X106559523Y-159954819D02*
X105988095Y-159954819D01*
X106273809Y-159954819D02*
X106273809Y-158954819D01*
X106273809Y-158954819D02*
X106178571Y-159097676D01*
X106178571Y-159097676D02*
X106083333Y-159192914D01*
X106083333Y-159192914D02*
X105988095Y-159240533D01*
X106940476Y-159050057D02*
X106988095Y-159002438D01*
X106988095Y-159002438D02*
X107083333Y-158954819D01*
X107083333Y-158954819D02*
X107321428Y-158954819D01*
X107321428Y-158954819D02*
X107416666Y-159002438D01*
X107416666Y-159002438D02*
X107464285Y-159050057D01*
X107464285Y-159050057D02*
X107511904Y-159145295D01*
X107511904Y-159145295D02*
X107511904Y-159240533D01*
X107511904Y-159240533D02*
X107464285Y-159383390D01*
X107464285Y-159383390D02*
X106892857Y-159954819D01*
X106892857Y-159954819D02*
X107511904Y-159954819D01*
X272641666Y-97654819D02*
X272641666Y-98369104D01*
X272641666Y-98369104D02*
X272594047Y-98511961D01*
X272594047Y-98511961D02*
X272498809Y-98607200D01*
X272498809Y-98607200D02*
X272355952Y-98654819D01*
X272355952Y-98654819D02*
X272260714Y-98654819D01*
X273641666Y-98654819D02*
X273070238Y-98654819D01*
X273355952Y-98654819D02*
X273355952Y-97654819D01*
X273355952Y-97654819D02*
X273260714Y-97797676D01*
X273260714Y-97797676D02*
X273165476Y-97892914D01*
X273165476Y-97892914D02*
X273070238Y-97940533D01*
X126761905Y-188254819D02*
X126761905Y-187254819D01*
X127333333Y-188254819D02*
X126904762Y-187683390D01*
X127333333Y-187254819D02*
X126761905Y-187826247D01*
X127666667Y-187254819D02*
X128285714Y-187254819D01*
X128285714Y-187254819D02*
X127952381Y-187635771D01*
X127952381Y-187635771D02*
X128095238Y-187635771D01*
X128095238Y-187635771D02*
X128190476Y-187683390D01*
X128190476Y-187683390D02*
X128238095Y-187731009D01*
X128238095Y-187731009D02*
X128285714Y-187826247D01*
X128285714Y-187826247D02*
X128285714Y-188064342D01*
X128285714Y-188064342D02*
X128238095Y-188159580D01*
X128238095Y-188159580D02*
X128190476Y-188207200D01*
X128190476Y-188207200D02*
X128095238Y-188254819D01*
X128095238Y-188254819D02*
X127809524Y-188254819D01*
X127809524Y-188254819D02*
X127714286Y-188207200D01*
X127714286Y-188207200D02*
X127666667Y-188159580D01*
X245357142Y-202609580D02*
X245309523Y-202657200D01*
X245309523Y-202657200D02*
X245166666Y-202704819D01*
X245166666Y-202704819D02*
X245071428Y-202704819D01*
X245071428Y-202704819D02*
X244928571Y-202657200D01*
X244928571Y-202657200D02*
X244833333Y-202561961D01*
X244833333Y-202561961D02*
X244785714Y-202466723D01*
X244785714Y-202466723D02*
X244738095Y-202276247D01*
X244738095Y-202276247D02*
X244738095Y-202133390D01*
X244738095Y-202133390D02*
X244785714Y-201942914D01*
X244785714Y-201942914D02*
X244833333Y-201847676D01*
X244833333Y-201847676D02*
X244928571Y-201752438D01*
X244928571Y-201752438D02*
X245071428Y-201704819D01*
X245071428Y-201704819D02*
X245166666Y-201704819D01*
X245166666Y-201704819D02*
X245309523Y-201752438D01*
X245309523Y-201752438D02*
X245357142Y-201800057D01*
X246309523Y-202704819D02*
X245738095Y-202704819D01*
X246023809Y-202704819D02*
X246023809Y-201704819D01*
X246023809Y-201704819D02*
X245928571Y-201847676D01*
X245928571Y-201847676D02*
X245833333Y-201942914D01*
X245833333Y-201942914D02*
X245738095Y-201990533D01*
X247166666Y-201704819D02*
X246976190Y-201704819D01*
X246976190Y-201704819D02*
X246880952Y-201752438D01*
X246880952Y-201752438D02*
X246833333Y-201800057D01*
X246833333Y-201800057D02*
X246738095Y-201942914D01*
X246738095Y-201942914D02*
X246690476Y-202133390D01*
X246690476Y-202133390D02*
X246690476Y-202514342D01*
X246690476Y-202514342D02*
X246738095Y-202609580D01*
X246738095Y-202609580D02*
X246785714Y-202657200D01*
X246785714Y-202657200D02*
X246880952Y-202704819D01*
X246880952Y-202704819D02*
X247071428Y-202704819D01*
X247071428Y-202704819D02*
X247166666Y-202657200D01*
X247166666Y-202657200D02*
X247214285Y-202609580D01*
X247214285Y-202609580D02*
X247261904Y-202514342D01*
X247261904Y-202514342D02*
X247261904Y-202276247D01*
X247261904Y-202276247D02*
X247214285Y-202181009D01*
X247214285Y-202181009D02*
X247166666Y-202133390D01*
X247166666Y-202133390D02*
X247071428Y-202085771D01*
X247071428Y-202085771D02*
X246880952Y-202085771D01*
X246880952Y-202085771D02*
X246785714Y-202133390D01*
X246785714Y-202133390D02*
X246738095Y-202181009D01*
X246738095Y-202181009D02*
X246690476Y-202276247D01*
X193916667Y-228857200D02*
X194059524Y-228904819D01*
X194059524Y-228904819D02*
X194297619Y-228904819D01*
X194297619Y-228904819D02*
X194392857Y-228857200D01*
X194392857Y-228857200D02*
X194440476Y-228809580D01*
X194440476Y-228809580D02*
X194488095Y-228714342D01*
X194488095Y-228714342D02*
X194488095Y-228619104D01*
X194488095Y-228619104D02*
X194440476Y-228523866D01*
X194440476Y-228523866D02*
X194392857Y-228476247D01*
X194392857Y-228476247D02*
X194297619Y-228428628D01*
X194297619Y-228428628D02*
X194107143Y-228381009D01*
X194107143Y-228381009D02*
X194011905Y-228333390D01*
X194011905Y-228333390D02*
X193964286Y-228285771D01*
X193964286Y-228285771D02*
X193916667Y-228190533D01*
X193916667Y-228190533D02*
X193916667Y-228095295D01*
X193916667Y-228095295D02*
X193964286Y-228000057D01*
X193964286Y-228000057D02*
X194011905Y-227952438D01*
X194011905Y-227952438D02*
X194107143Y-227904819D01*
X194107143Y-227904819D02*
X194345238Y-227904819D01*
X194345238Y-227904819D02*
X194488095Y-227952438D01*
X194821429Y-227904819D02*
X195059524Y-228904819D01*
X195059524Y-228904819D02*
X195250000Y-228190533D01*
X195250000Y-228190533D02*
X195440476Y-228904819D01*
X195440476Y-228904819D02*
X195678572Y-227904819D01*
X196488095Y-228238152D02*
X196488095Y-228904819D01*
X196250000Y-227857200D02*
X196011905Y-228571485D01*
X196011905Y-228571485D02*
X196630952Y-228571485D01*
X249437142Y-180084819D02*
X249103809Y-179608628D01*
X248865714Y-180084819D02*
X248865714Y-179084819D01*
X248865714Y-179084819D02*
X249246666Y-179084819D01*
X249246666Y-179084819D02*
X249341904Y-179132438D01*
X249341904Y-179132438D02*
X249389523Y-179180057D01*
X249389523Y-179180057D02*
X249437142Y-179275295D01*
X249437142Y-179275295D02*
X249437142Y-179418152D01*
X249437142Y-179418152D02*
X249389523Y-179513390D01*
X249389523Y-179513390D02*
X249341904Y-179561009D01*
X249341904Y-179561009D02*
X249246666Y-179608628D01*
X249246666Y-179608628D02*
X248865714Y-179608628D01*
X250389523Y-180084819D02*
X249818095Y-180084819D01*
X250103809Y-180084819D02*
X250103809Y-179084819D01*
X250103809Y-179084819D02*
X250008571Y-179227676D01*
X250008571Y-179227676D02*
X249913333Y-179322914D01*
X249913333Y-179322914D02*
X249818095Y-179370533D01*
X251246666Y-179418152D02*
X251246666Y-180084819D01*
X251008571Y-179037200D02*
X250770476Y-179751485D01*
X250770476Y-179751485D02*
X251389523Y-179751485D01*
X94913333Y-127084819D02*
X94580000Y-126608628D01*
X94341905Y-127084819D02*
X94341905Y-126084819D01*
X94341905Y-126084819D02*
X94722857Y-126084819D01*
X94722857Y-126084819D02*
X94818095Y-126132438D01*
X94818095Y-126132438D02*
X94865714Y-126180057D01*
X94865714Y-126180057D02*
X94913333Y-126275295D01*
X94913333Y-126275295D02*
X94913333Y-126418152D01*
X94913333Y-126418152D02*
X94865714Y-126513390D01*
X94865714Y-126513390D02*
X94818095Y-126561009D01*
X94818095Y-126561009D02*
X94722857Y-126608628D01*
X94722857Y-126608628D02*
X94341905Y-126608628D01*
X95770476Y-126084819D02*
X95580000Y-126084819D01*
X95580000Y-126084819D02*
X95484762Y-126132438D01*
X95484762Y-126132438D02*
X95437143Y-126180057D01*
X95437143Y-126180057D02*
X95341905Y-126322914D01*
X95341905Y-126322914D02*
X95294286Y-126513390D01*
X95294286Y-126513390D02*
X95294286Y-126894342D01*
X95294286Y-126894342D02*
X95341905Y-126989580D01*
X95341905Y-126989580D02*
X95389524Y-127037200D01*
X95389524Y-127037200D02*
X95484762Y-127084819D01*
X95484762Y-127084819D02*
X95675238Y-127084819D01*
X95675238Y-127084819D02*
X95770476Y-127037200D01*
X95770476Y-127037200D02*
X95818095Y-126989580D01*
X95818095Y-126989580D02*
X95865714Y-126894342D01*
X95865714Y-126894342D02*
X95865714Y-126656247D01*
X95865714Y-126656247D02*
X95818095Y-126561009D01*
X95818095Y-126561009D02*
X95770476Y-126513390D01*
X95770476Y-126513390D02*
X95675238Y-126465771D01*
X95675238Y-126465771D02*
X95484762Y-126465771D01*
X95484762Y-126465771D02*
X95389524Y-126513390D01*
X95389524Y-126513390D02*
X95341905Y-126561009D01*
X95341905Y-126561009D02*
X95294286Y-126656247D01*
X317666667Y-87254819D02*
X317666667Y-86254819D01*
X317666667Y-86254819D02*
X318000000Y-86969104D01*
X318000000Y-86969104D02*
X318333333Y-86254819D01*
X318333333Y-86254819D02*
X318333333Y-87254819D01*
X318809524Y-87254819D02*
X318809524Y-86254819D01*
X318809524Y-86731009D02*
X319380952Y-86731009D01*
X319380952Y-87254819D02*
X319380952Y-86254819D01*
X319809524Y-86350057D02*
X319857143Y-86302438D01*
X319857143Y-86302438D02*
X319952381Y-86254819D01*
X319952381Y-86254819D02*
X320190476Y-86254819D01*
X320190476Y-86254819D02*
X320285714Y-86302438D01*
X320285714Y-86302438D02*
X320333333Y-86350057D01*
X320333333Y-86350057D02*
X320380952Y-86445295D01*
X320380952Y-86445295D02*
X320380952Y-86540533D01*
X320380952Y-86540533D02*
X320333333Y-86683390D01*
X320333333Y-86683390D02*
X319761905Y-87254819D01*
X319761905Y-87254819D02*
X320380952Y-87254819D01*
X109437142Y-138084819D02*
X109103809Y-137608628D01*
X108865714Y-138084819D02*
X108865714Y-137084819D01*
X108865714Y-137084819D02*
X109246666Y-137084819D01*
X109246666Y-137084819D02*
X109341904Y-137132438D01*
X109341904Y-137132438D02*
X109389523Y-137180057D01*
X109389523Y-137180057D02*
X109437142Y-137275295D01*
X109437142Y-137275295D02*
X109437142Y-137418152D01*
X109437142Y-137418152D02*
X109389523Y-137513390D01*
X109389523Y-137513390D02*
X109341904Y-137561009D01*
X109341904Y-137561009D02*
X109246666Y-137608628D01*
X109246666Y-137608628D02*
X108865714Y-137608628D01*
X110389523Y-138084819D02*
X109818095Y-138084819D01*
X110103809Y-138084819D02*
X110103809Y-137084819D01*
X110103809Y-137084819D02*
X110008571Y-137227676D01*
X110008571Y-137227676D02*
X109913333Y-137322914D01*
X109913333Y-137322914D02*
X109818095Y-137370533D01*
X110770476Y-137180057D02*
X110818095Y-137132438D01*
X110818095Y-137132438D02*
X110913333Y-137084819D01*
X110913333Y-137084819D02*
X111151428Y-137084819D01*
X111151428Y-137084819D02*
X111246666Y-137132438D01*
X111246666Y-137132438D02*
X111294285Y-137180057D01*
X111294285Y-137180057D02*
X111341904Y-137275295D01*
X111341904Y-137275295D02*
X111341904Y-137370533D01*
X111341904Y-137370533D02*
X111294285Y-137513390D01*
X111294285Y-137513390D02*
X110722857Y-138084819D01*
X110722857Y-138084819D02*
X111341904Y-138084819D01*
X234437142Y-180084819D02*
X234103809Y-179608628D01*
X233865714Y-180084819D02*
X233865714Y-179084819D01*
X233865714Y-179084819D02*
X234246666Y-179084819D01*
X234246666Y-179084819D02*
X234341904Y-179132438D01*
X234341904Y-179132438D02*
X234389523Y-179180057D01*
X234389523Y-179180057D02*
X234437142Y-179275295D01*
X234437142Y-179275295D02*
X234437142Y-179418152D01*
X234437142Y-179418152D02*
X234389523Y-179513390D01*
X234389523Y-179513390D02*
X234341904Y-179561009D01*
X234341904Y-179561009D02*
X234246666Y-179608628D01*
X234246666Y-179608628D02*
X233865714Y-179608628D01*
X235389523Y-180084819D02*
X234818095Y-180084819D01*
X235103809Y-180084819D02*
X235103809Y-179084819D01*
X235103809Y-179084819D02*
X235008571Y-179227676D01*
X235008571Y-179227676D02*
X234913333Y-179322914D01*
X234913333Y-179322914D02*
X234818095Y-179370533D01*
X235722857Y-179084819D02*
X236341904Y-179084819D01*
X236341904Y-179084819D02*
X236008571Y-179465771D01*
X236008571Y-179465771D02*
X236151428Y-179465771D01*
X236151428Y-179465771D02*
X236246666Y-179513390D01*
X236246666Y-179513390D02*
X236294285Y-179561009D01*
X236294285Y-179561009D02*
X236341904Y-179656247D01*
X236341904Y-179656247D02*
X236341904Y-179894342D01*
X236341904Y-179894342D02*
X236294285Y-179989580D01*
X236294285Y-179989580D02*
X236246666Y-180037200D01*
X236246666Y-180037200D02*
X236151428Y-180084819D01*
X236151428Y-180084819D02*
X235865714Y-180084819D01*
X235865714Y-180084819D02*
X235770476Y-180037200D01*
X235770476Y-180037200D02*
X235722857Y-179989580D01*
X294341905Y-117984819D02*
X294341905Y-116984819D01*
X294341905Y-116984819D02*
X294580000Y-116984819D01*
X294580000Y-116984819D02*
X294722857Y-117032438D01*
X294722857Y-117032438D02*
X294818095Y-117127676D01*
X294818095Y-117127676D02*
X294865714Y-117222914D01*
X294865714Y-117222914D02*
X294913333Y-117413390D01*
X294913333Y-117413390D02*
X294913333Y-117556247D01*
X294913333Y-117556247D02*
X294865714Y-117746723D01*
X294865714Y-117746723D02*
X294818095Y-117841961D01*
X294818095Y-117841961D02*
X294722857Y-117937200D01*
X294722857Y-117937200D02*
X294580000Y-117984819D01*
X294580000Y-117984819D02*
X294341905Y-117984819D01*
X295865714Y-117984819D02*
X295294286Y-117984819D01*
X295580000Y-117984819D02*
X295580000Y-116984819D01*
X295580000Y-116984819D02*
X295484762Y-117127676D01*
X295484762Y-117127676D02*
X295389524Y-117222914D01*
X295389524Y-117222914D02*
X295294286Y-117270533D01*
X289738095Y-118354819D02*
X289738095Y-117354819D01*
X290309523Y-118354819D02*
X289880952Y-117783390D01*
X290309523Y-117354819D02*
X289738095Y-117926247D01*
X94437142Y-138084819D02*
X94103809Y-137608628D01*
X93865714Y-138084819D02*
X93865714Y-137084819D01*
X93865714Y-137084819D02*
X94246666Y-137084819D01*
X94246666Y-137084819D02*
X94341904Y-137132438D01*
X94341904Y-137132438D02*
X94389523Y-137180057D01*
X94389523Y-137180057D02*
X94437142Y-137275295D01*
X94437142Y-137275295D02*
X94437142Y-137418152D01*
X94437142Y-137418152D02*
X94389523Y-137513390D01*
X94389523Y-137513390D02*
X94341904Y-137561009D01*
X94341904Y-137561009D02*
X94246666Y-137608628D01*
X94246666Y-137608628D02*
X93865714Y-137608628D01*
X95389523Y-138084819D02*
X94818095Y-138084819D01*
X95103809Y-138084819D02*
X95103809Y-137084819D01*
X95103809Y-137084819D02*
X95008571Y-137227676D01*
X95008571Y-137227676D02*
X94913333Y-137322914D01*
X94913333Y-137322914D02*
X94818095Y-137370533D01*
X96341904Y-138084819D02*
X95770476Y-138084819D01*
X96056190Y-138084819D02*
X96056190Y-137084819D01*
X96056190Y-137084819D02*
X95960952Y-137227676D01*
X95960952Y-137227676D02*
X95865714Y-137322914D01*
X95865714Y-137322914D02*
X95770476Y-137370533D01*
X249437142Y-192084819D02*
X249103809Y-191608628D01*
X248865714Y-192084819D02*
X248865714Y-191084819D01*
X248865714Y-191084819D02*
X249246666Y-191084819D01*
X249246666Y-191084819D02*
X249341904Y-191132438D01*
X249341904Y-191132438D02*
X249389523Y-191180057D01*
X249389523Y-191180057D02*
X249437142Y-191275295D01*
X249437142Y-191275295D02*
X249437142Y-191418152D01*
X249437142Y-191418152D02*
X249389523Y-191513390D01*
X249389523Y-191513390D02*
X249341904Y-191561009D01*
X249341904Y-191561009D02*
X249246666Y-191608628D01*
X249246666Y-191608628D02*
X248865714Y-191608628D01*
X250389523Y-192084819D02*
X249818095Y-192084819D01*
X250103809Y-192084819D02*
X250103809Y-191084819D01*
X250103809Y-191084819D02*
X250008571Y-191227676D01*
X250008571Y-191227676D02*
X249913333Y-191322914D01*
X249913333Y-191322914D02*
X249818095Y-191370533D01*
X250960952Y-191513390D02*
X250865714Y-191465771D01*
X250865714Y-191465771D02*
X250818095Y-191418152D01*
X250818095Y-191418152D02*
X250770476Y-191322914D01*
X250770476Y-191322914D02*
X250770476Y-191275295D01*
X250770476Y-191275295D02*
X250818095Y-191180057D01*
X250818095Y-191180057D02*
X250865714Y-191132438D01*
X250865714Y-191132438D02*
X250960952Y-191084819D01*
X250960952Y-191084819D02*
X251151428Y-191084819D01*
X251151428Y-191084819D02*
X251246666Y-191132438D01*
X251246666Y-191132438D02*
X251294285Y-191180057D01*
X251294285Y-191180057D02*
X251341904Y-191275295D01*
X251341904Y-191275295D02*
X251341904Y-191322914D01*
X251341904Y-191322914D02*
X251294285Y-191418152D01*
X251294285Y-191418152D02*
X251246666Y-191465771D01*
X251246666Y-191465771D02*
X251151428Y-191513390D01*
X251151428Y-191513390D02*
X250960952Y-191513390D01*
X250960952Y-191513390D02*
X250865714Y-191561009D01*
X250865714Y-191561009D02*
X250818095Y-191608628D01*
X250818095Y-191608628D02*
X250770476Y-191703866D01*
X250770476Y-191703866D02*
X250770476Y-191894342D01*
X250770476Y-191894342D02*
X250818095Y-191989580D01*
X250818095Y-191989580D02*
X250865714Y-192037200D01*
X250865714Y-192037200D02*
X250960952Y-192084819D01*
X250960952Y-192084819D02*
X251151428Y-192084819D01*
X251151428Y-192084819D02*
X251246666Y-192037200D01*
X251246666Y-192037200D02*
X251294285Y-191989580D01*
X251294285Y-191989580D02*
X251341904Y-191894342D01*
X251341904Y-191894342D02*
X251341904Y-191703866D01*
X251341904Y-191703866D02*
X251294285Y-191608628D01*
X251294285Y-191608628D02*
X251246666Y-191561009D01*
X251246666Y-191561009D02*
X251151428Y-191513390D01*
X229716666Y-94104819D02*
X229716666Y-94819104D01*
X229716666Y-94819104D02*
X229669047Y-94961961D01*
X229669047Y-94961961D02*
X229573809Y-95057200D01*
X229573809Y-95057200D02*
X229430952Y-95104819D01*
X229430952Y-95104819D02*
X229335714Y-95104819D01*
X230669047Y-94104819D02*
X230192857Y-94104819D01*
X230192857Y-94104819D02*
X230145238Y-94581009D01*
X230145238Y-94581009D02*
X230192857Y-94533390D01*
X230192857Y-94533390D02*
X230288095Y-94485771D01*
X230288095Y-94485771D02*
X230526190Y-94485771D01*
X230526190Y-94485771D02*
X230621428Y-94533390D01*
X230621428Y-94533390D02*
X230669047Y-94581009D01*
X230669047Y-94581009D02*
X230716666Y-94676247D01*
X230716666Y-94676247D02*
X230716666Y-94914342D01*
X230716666Y-94914342D02*
X230669047Y-95009580D01*
X230669047Y-95009580D02*
X230621428Y-95057200D01*
X230621428Y-95057200D02*
X230526190Y-95104819D01*
X230526190Y-95104819D02*
X230288095Y-95104819D01*
X230288095Y-95104819D02*
X230192857Y-95057200D01*
X230192857Y-95057200D02*
X230145238Y-95009580D01*
X271083333Y-132859580D02*
X271035714Y-132907200D01*
X271035714Y-132907200D02*
X270892857Y-132954819D01*
X270892857Y-132954819D02*
X270797619Y-132954819D01*
X270797619Y-132954819D02*
X270654762Y-132907200D01*
X270654762Y-132907200D02*
X270559524Y-132811961D01*
X270559524Y-132811961D02*
X270511905Y-132716723D01*
X270511905Y-132716723D02*
X270464286Y-132526247D01*
X270464286Y-132526247D02*
X270464286Y-132383390D01*
X270464286Y-132383390D02*
X270511905Y-132192914D01*
X270511905Y-132192914D02*
X270559524Y-132097676D01*
X270559524Y-132097676D02*
X270654762Y-132002438D01*
X270654762Y-132002438D02*
X270797619Y-131954819D01*
X270797619Y-131954819D02*
X270892857Y-131954819D01*
X270892857Y-131954819D02*
X271035714Y-132002438D01*
X271035714Y-132002438D02*
X271083333Y-132050057D01*
X272035714Y-132954819D02*
X271464286Y-132954819D01*
X271750000Y-132954819D02*
X271750000Y-131954819D01*
X271750000Y-131954819D02*
X271654762Y-132097676D01*
X271654762Y-132097676D02*
X271559524Y-132192914D01*
X271559524Y-132192914D02*
X271464286Y-132240533D01*
X248738095Y-117806819D02*
X249309523Y-117806819D01*
X249023809Y-118806819D02*
X249023809Y-117806819D01*
X249642857Y-118806819D02*
X249642857Y-117806819D01*
X249642857Y-117806819D02*
X250023809Y-117806819D01*
X250023809Y-117806819D02*
X250119047Y-117854438D01*
X250119047Y-117854438D02*
X250166666Y-117902057D01*
X250166666Y-117902057D02*
X250214285Y-117997295D01*
X250214285Y-117997295D02*
X250214285Y-118140152D01*
X250214285Y-118140152D02*
X250166666Y-118235390D01*
X250166666Y-118235390D02*
X250119047Y-118283009D01*
X250119047Y-118283009D02*
X250023809Y-118330628D01*
X250023809Y-118330628D02*
X249642857Y-118330628D01*
X251166666Y-118806819D02*
X250595238Y-118806819D01*
X250880952Y-118806819D02*
X250880952Y-117806819D01*
X250880952Y-117806819D02*
X250785714Y-117949676D01*
X250785714Y-117949676D02*
X250690476Y-118044914D01*
X250690476Y-118044914D02*
X250595238Y-118092533D01*
X109913333Y-116084819D02*
X109580000Y-115608628D01*
X109341905Y-116084819D02*
X109341905Y-115084819D01*
X109341905Y-115084819D02*
X109722857Y-115084819D01*
X109722857Y-115084819D02*
X109818095Y-115132438D01*
X109818095Y-115132438D02*
X109865714Y-115180057D01*
X109865714Y-115180057D02*
X109913333Y-115275295D01*
X109913333Y-115275295D02*
X109913333Y-115418152D01*
X109913333Y-115418152D02*
X109865714Y-115513390D01*
X109865714Y-115513390D02*
X109818095Y-115561009D01*
X109818095Y-115561009D02*
X109722857Y-115608628D01*
X109722857Y-115608628D02*
X109341905Y-115608628D01*
X110294286Y-115180057D02*
X110341905Y-115132438D01*
X110341905Y-115132438D02*
X110437143Y-115084819D01*
X110437143Y-115084819D02*
X110675238Y-115084819D01*
X110675238Y-115084819D02*
X110770476Y-115132438D01*
X110770476Y-115132438D02*
X110818095Y-115180057D01*
X110818095Y-115180057D02*
X110865714Y-115275295D01*
X110865714Y-115275295D02*
X110865714Y-115370533D01*
X110865714Y-115370533D02*
X110818095Y-115513390D01*
X110818095Y-115513390D02*
X110246667Y-116084819D01*
X110246667Y-116084819D02*
X110865714Y-116084819D01*
X272216666Y-118031009D02*
X271883333Y-118031009D01*
X271883333Y-118554819D02*
X271883333Y-117554819D01*
X271883333Y-117554819D02*
X272359523Y-117554819D01*
X273264285Y-118554819D02*
X272692857Y-118554819D01*
X272978571Y-118554819D02*
X272978571Y-117554819D01*
X272978571Y-117554819D02*
X272883333Y-117697676D01*
X272883333Y-117697676D02*
X272788095Y-117792914D01*
X272788095Y-117792914D02*
X272692857Y-117840533D01*
X91083333Y-148859580D02*
X91035714Y-148907200D01*
X91035714Y-148907200D02*
X90892857Y-148954819D01*
X90892857Y-148954819D02*
X90797619Y-148954819D01*
X90797619Y-148954819D02*
X90654762Y-148907200D01*
X90654762Y-148907200D02*
X90559524Y-148811961D01*
X90559524Y-148811961D02*
X90511905Y-148716723D01*
X90511905Y-148716723D02*
X90464286Y-148526247D01*
X90464286Y-148526247D02*
X90464286Y-148383390D01*
X90464286Y-148383390D02*
X90511905Y-148192914D01*
X90511905Y-148192914D02*
X90559524Y-148097676D01*
X90559524Y-148097676D02*
X90654762Y-148002438D01*
X90654762Y-148002438D02*
X90797619Y-147954819D01*
X90797619Y-147954819D02*
X90892857Y-147954819D01*
X90892857Y-147954819D02*
X91035714Y-148002438D01*
X91035714Y-148002438D02*
X91083333Y-148050057D01*
X91940476Y-147954819D02*
X91750000Y-147954819D01*
X91750000Y-147954819D02*
X91654762Y-148002438D01*
X91654762Y-148002438D02*
X91607143Y-148050057D01*
X91607143Y-148050057D02*
X91511905Y-148192914D01*
X91511905Y-148192914D02*
X91464286Y-148383390D01*
X91464286Y-148383390D02*
X91464286Y-148764342D01*
X91464286Y-148764342D02*
X91511905Y-148859580D01*
X91511905Y-148859580D02*
X91559524Y-148907200D01*
X91559524Y-148907200D02*
X91654762Y-148954819D01*
X91654762Y-148954819D02*
X91845238Y-148954819D01*
X91845238Y-148954819D02*
X91940476Y-148907200D01*
X91940476Y-148907200D02*
X91988095Y-148859580D01*
X91988095Y-148859580D02*
X92035714Y-148764342D01*
X92035714Y-148764342D02*
X92035714Y-148526247D01*
X92035714Y-148526247D02*
X91988095Y-148431009D01*
X91988095Y-148431009D02*
X91940476Y-148383390D01*
X91940476Y-148383390D02*
X91845238Y-148335771D01*
X91845238Y-148335771D02*
X91654762Y-148335771D01*
X91654762Y-148335771D02*
X91559524Y-148383390D01*
X91559524Y-148383390D02*
X91511905Y-148431009D01*
X91511905Y-148431009D02*
X91464286Y-148526247D01*
X264437142Y-192084819D02*
X264103809Y-191608628D01*
X263865714Y-192084819D02*
X263865714Y-191084819D01*
X263865714Y-191084819D02*
X264246666Y-191084819D01*
X264246666Y-191084819D02*
X264341904Y-191132438D01*
X264341904Y-191132438D02*
X264389523Y-191180057D01*
X264389523Y-191180057D02*
X264437142Y-191275295D01*
X264437142Y-191275295D02*
X264437142Y-191418152D01*
X264437142Y-191418152D02*
X264389523Y-191513390D01*
X264389523Y-191513390D02*
X264341904Y-191561009D01*
X264341904Y-191561009D02*
X264246666Y-191608628D01*
X264246666Y-191608628D02*
X263865714Y-191608628D01*
X265389523Y-192084819D02*
X264818095Y-192084819D01*
X265103809Y-192084819D02*
X265103809Y-191084819D01*
X265103809Y-191084819D02*
X265008571Y-191227676D01*
X265008571Y-191227676D02*
X264913333Y-191322914D01*
X264913333Y-191322914D02*
X264818095Y-191370533D01*
X265865714Y-192084819D02*
X266056190Y-192084819D01*
X266056190Y-192084819D02*
X266151428Y-192037200D01*
X266151428Y-192037200D02*
X266199047Y-191989580D01*
X266199047Y-191989580D02*
X266294285Y-191846723D01*
X266294285Y-191846723D02*
X266341904Y-191656247D01*
X266341904Y-191656247D02*
X266341904Y-191275295D01*
X266341904Y-191275295D02*
X266294285Y-191180057D01*
X266294285Y-191180057D02*
X266246666Y-191132438D01*
X266246666Y-191132438D02*
X266151428Y-191084819D01*
X266151428Y-191084819D02*
X265960952Y-191084819D01*
X265960952Y-191084819D02*
X265865714Y-191132438D01*
X265865714Y-191132438D02*
X265818095Y-191180057D01*
X265818095Y-191180057D02*
X265770476Y-191275295D01*
X265770476Y-191275295D02*
X265770476Y-191513390D01*
X265770476Y-191513390D02*
X265818095Y-191608628D01*
X265818095Y-191608628D02*
X265865714Y-191656247D01*
X265865714Y-191656247D02*
X265960952Y-191703866D01*
X265960952Y-191703866D02*
X266151428Y-191703866D01*
X266151428Y-191703866D02*
X266246666Y-191656247D01*
X266246666Y-191656247D02*
X266294285Y-191608628D01*
X266294285Y-191608628D02*
X266341904Y-191513390D01*
X139916667Y-228857200D02*
X140059524Y-228904819D01*
X140059524Y-228904819D02*
X140297619Y-228904819D01*
X140297619Y-228904819D02*
X140392857Y-228857200D01*
X140392857Y-228857200D02*
X140440476Y-228809580D01*
X140440476Y-228809580D02*
X140488095Y-228714342D01*
X140488095Y-228714342D02*
X140488095Y-228619104D01*
X140488095Y-228619104D02*
X140440476Y-228523866D01*
X140440476Y-228523866D02*
X140392857Y-228476247D01*
X140392857Y-228476247D02*
X140297619Y-228428628D01*
X140297619Y-228428628D02*
X140107143Y-228381009D01*
X140107143Y-228381009D02*
X140011905Y-228333390D01*
X140011905Y-228333390D02*
X139964286Y-228285771D01*
X139964286Y-228285771D02*
X139916667Y-228190533D01*
X139916667Y-228190533D02*
X139916667Y-228095295D01*
X139916667Y-228095295D02*
X139964286Y-228000057D01*
X139964286Y-228000057D02*
X140011905Y-227952438D01*
X140011905Y-227952438D02*
X140107143Y-227904819D01*
X140107143Y-227904819D02*
X140345238Y-227904819D01*
X140345238Y-227904819D02*
X140488095Y-227952438D01*
X140821429Y-227904819D02*
X141059524Y-228904819D01*
X141059524Y-228904819D02*
X141250000Y-228190533D01*
X141250000Y-228190533D02*
X141440476Y-228904819D01*
X141440476Y-228904819D02*
X141678572Y-227904819D01*
X142583333Y-228904819D02*
X142011905Y-228904819D01*
X142297619Y-228904819D02*
X142297619Y-227904819D01*
X142297619Y-227904819D02*
X142202381Y-228047676D01*
X142202381Y-228047676D02*
X142107143Y-228142914D01*
X142107143Y-228142914D02*
X142011905Y-228190533D01*
X135607142Y-159859580D02*
X135559523Y-159907200D01*
X135559523Y-159907200D02*
X135416666Y-159954819D01*
X135416666Y-159954819D02*
X135321428Y-159954819D01*
X135321428Y-159954819D02*
X135178571Y-159907200D01*
X135178571Y-159907200D02*
X135083333Y-159811961D01*
X135083333Y-159811961D02*
X135035714Y-159716723D01*
X135035714Y-159716723D02*
X134988095Y-159526247D01*
X134988095Y-159526247D02*
X134988095Y-159383390D01*
X134988095Y-159383390D02*
X135035714Y-159192914D01*
X135035714Y-159192914D02*
X135083333Y-159097676D01*
X135083333Y-159097676D02*
X135178571Y-159002438D01*
X135178571Y-159002438D02*
X135321428Y-158954819D01*
X135321428Y-158954819D02*
X135416666Y-158954819D01*
X135416666Y-158954819D02*
X135559523Y-159002438D01*
X135559523Y-159002438D02*
X135607142Y-159050057D01*
X136559523Y-159954819D02*
X135988095Y-159954819D01*
X136273809Y-159954819D02*
X136273809Y-158954819D01*
X136273809Y-158954819D02*
X136178571Y-159097676D01*
X136178571Y-159097676D02*
X136083333Y-159192914D01*
X136083333Y-159192914D02*
X135988095Y-159240533D01*
X137416666Y-159288152D02*
X137416666Y-159954819D01*
X137178571Y-158907200D02*
X136940476Y-159621485D01*
X136940476Y-159621485D02*
X137559523Y-159621485D01*
X120833333Y-136609580D02*
X120785714Y-136657200D01*
X120785714Y-136657200D02*
X120642857Y-136704819D01*
X120642857Y-136704819D02*
X120547619Y-136704819D01*
X120547619Y-136704819D02*
X120404762Y-136657200D01*
X120404762Y-136657200D02*
X120309524Y-136561961D01*
X120309524Y-136561961D02*
X120261905Y-136466723D01*
X120261905Y-136466723D02*
X120214286Y-136276247D01*
X120214286Y-136276247D02*
X120214286Y-136133390D01*
X120214286Y-136133390D02*
X120261905Y-135942914D01*
X120261905Y-135942914D02*
X120309524Y-135847676D01*
X120309524Y-135847676D02*
X120404762Y-135752438D01*
X120404762Y-135752438D02*
X120547619Y-135704819D01*
X120547619Y-135704819D02*
X120642857Y-135704819D01*
X120642857Y-135704819D02*
X120785714Y-135752438D01*
X120785714Y-135752438D02*
X120833333Y-135800057D01*
X121166667Y-135704819D02*
X121785714Y-135704819D01*
X121785714Y-135704819D02*
X121452381Y-136085771D01*
X121452381Y-136085771D02*
X121595238Y-136085771D01*
X121595238Y-136085771D02*
X121690476Y-136133390D01*
X121690476Y-136133390D02*
X121738095Y-136181009D01*
X121738095Y-136181009D02*
X121785714Y-136276247D01*
X121785714Y-136276247D02*
X121785714Y-136514342D01*
X121785714Y-136514342D02*
X121738095Y-136609580D01*
X121738095Y-136609580D02*
X121690476Y-136657200D01*
X121690476Y-136657200D02*
X121595238Y-136704819D01*
X121595238Y-136704819D02*
X121309524Y-136704819D01*
X121309524Y-136704819D02*
X121214286Y-136657200D01*
X121214286Y-136657200D02*
X121166667Y-136609580D01*
X83761905Y-205574819D02*
X83761905Y-204574819D01*
X83761905Y-204574819D02*
X84000000Y-204574819D01*
X84000000Y-204574819D02*
X84142857Y-204622438D01*
X84142857Y-204622438D02*
X84238095Y-204717676D01*
X84238095Y-204717676D02*
X84285714Y-204812914D01*
X84285714Y-204812914D02*
X84333333Y-205003390D01*
X84333333Y-205003390D02*
X84333333Y-205146247D01*
X84333333Y-205146247D02*
X84285714Y-205336723D01*
X84285714Y-205336723D02*
X84238095Y-205431961D01*
X84238095Y-205431961D02*
X84142857Y-205527200D01*
X84142857Y-205527200D02*
X84000000Y-205574819D01*
X84000000Y-205574819D02*
X83761905Y-205574819D01*
X84714286Y-204670057D02*
X84761905Y-204622438D01*
X84761905Y-204622438D02*
X84857143Y-204574819D01*
X84857143Y-204574819D02*
X85095238Y-204574819D01*
X85095238Y-204574819D02*
X85190476Y-204622438D01*
X85190476Y-204622438D02*
X85238095Y-204670057D01*
X85238095Y-204670057D02*
X85285714Y-204765295D01*
X85285714Y-204765295D02*
X85285714Y-204860533D01*
X85285714Y-204860533D02*
X85238095Y-205003390D01*
X85238095Y-205003390D02*
X84666667Y-205574819D01*
X84666667Y-205574819D02*
X85285714Y-205574819D01*
X71238095Y-203454819D02*
X71238095Y-202454819D01*
X71809523Y-203454819D02*
X71380952Y-202883390D01*
X71809523Y-202454819D02*
X71238095Y-203026247D01*
X175916667Y-228857200D02*
X176059524Y-228904819D01*
X176059524Y-228904819D02*
X176297619Y-228904819D01*
X176297619Y-228904819D02*
X176392857Y-228857200D01*
X176392857Y-228857200D02*
X176440476Y-228809580D01*
X176440476Y-228809580D02*
X176488095Y-228714342D01*
X176488095Y-228714342D02*
X176488095Y-228619104D01*
X176488095Y-228619104D02*
X176440476Y-228523866D01*
X176440476Y-228523866D02*
X176392857Y-228476247D01*
X176392857Y-228476247D02*
X176297619Y-228428628D01*
X176297619Y-228428628D02*
X176107143Y-228381009D01*
X176107143Y-228381009D02*
X176011905Y-228333390D01*
X176011905Y-228333390D02*
X175964286Y-228285771D01*
X175964286Y-228285771D02*
X175916667Y-228190533D01*
X175916667Y-228190533D02*
X175916667Y-228095295D01*
X175916667Y-228095295D02*
X175964286Y-228000057D01*
X175964286Y-228000057D02*
X176011905Y-227952438D01*
X176011905Y-227952438D02*
X176107143Y-227904819D01*
X176107143Y-227904819D02*
X176345238Y-227904819D01*
X176345238Y-227904819D02*
X176488095Y-227952438D01*
X176821429Y-227904819D02*
X177059524Y-228904819D01*
X177059524Y-228904819D02*
X177250000Y-228190533D01*
X177250000Y-228190533D02*
X177440476Y-228904819D01*
X177440476Y-228904819D02*
X177678572Y-227904819D01*
X177964286Y-227904819D02*
X178583333Y-227904819D01*
X178583333Y-227904819D02*
X178250000Y-228285771D01*
X178250000Y-228285771D02*
X178392857Y-228285771D01*
X178392857Y-228285771D02*
X178488095Y-228333390D01*
X178488095Y-228333390D02*
X178535714Y-228381009D01*
X178535714Y-228381009D02*
X178583333Y-228476247D01*
X178583333Y-228476247D02*
X178583333Y-228714342D01*
X178583333Y-228714342D02*
X178535714Y-228809580D01*
X178535714Y-228809580D02*
X178488095Y-228857200D01*
X178488095Y-228857200D02*
X178392857Y-228904819D01*
X178392857Y-228904819D02*
X178107143Y-228904819D01*
X178107143Y-228904819D02*
X178011905Y-228857200D01*
X178011905Y-228857200D02*
X177964286Y-228809580D01*
X136083333Y-137859580D02*
X136035714Y-137907200D01*
X136035714Y-137907200D02*
X135892857Y-137954819D01*
X135892857Y-137954819D02*
X135797619Y-137954819D01*
X135797619Y-137954819D02*
X135654762Y-137907200D01*
X135654762Y-137907200D02*
X135559524Y-137811961D01*
X135559524Y-137811961D02*
X135511905Y-137716723D01*
X135511905Y-137716723D02*
X135464286Y-137526247D01*
X135464286Y-137526247D02*
X135464286Y-137383390D01*
X135464286Y-137383390D02*
X135511905Y-137192914D01*
X135511905Y-137192914D02*
X135559524Y-137097676D01*
X135559524Y-137097676D02*
X135654762Y-137002438D01*
X135654762Y-137002438D02*
X135797619Y-136954819D01*
X135797619Y-136954819D02*
X135892857Y-136954819D01*
X135892857Y-136954819D02*
X136035714Y-137002438D01*
X136035714Y-137002438D02*
X136083333Y-137050057D01*
X136940476Y-137288152D02*
X136940476Y-137954819D01*
X136702381Y-136907200D02*
X136464286Y-137621485D01*
X136464286Y-137621485D02*
X137083333Y-137621485D01*
X158761905Y-205574819D02*
X158761905Y-204574819D01*
X158761905Y-204574819D02*
X159000000Y-204574819D01*
X159000000Y-204574819D02*
X159142857Y-204622438D01*
X159142857Y-204622438D02*
X159238095Y-204717676D01*
X159238095Y-204717676D02*
X159285714Y-204812914D01*
X159285714Y-204812914D02*
X159333333Y-205003390D01*
X159333333Y-205003390D02*
X159333333Y-205146247D01*
X159333333Y-205146247D02*
X159285714Y-205336723D01*
X159285714Y-205336723D02*
X159238095Y-205431961D01*
X159238095Y-205431961D02*
X159142857Y-205527200D01*
X159142857Y-205527200D02*
X159000000Y-205574819D01*
X159000000Y-205574819D02*
X158761905Y-205574819D01*
X160238095Y-204574819D02*
X159761905Y-204574819D01*
X159761905Y-204574819D02*
X159714286Y-205051009D01*
X159714286Y-205051009D02*
X159761905Y-205003390D01*
X159761905Y-205003390D02*
X159857143Y-204955771D01*
X159857143Y-204955771D02*
X160095238Y-204955771D01*
X160095238Y-204955771D02*
X160190476Y-205003390D01*
X160190476Y-205003390D02*
X160238095Y-205051009D01*
X160238095Y-205051009D02*
X160285714Y-205146247D01*
X160285714Y-205146247D02*
X160285714Y-205384342D01*
X160285714Y-205384342D02*
X160238095Y-205479580D01*
X160238095Y-205479580D02*
X160190476Y-205527200D01*
X160190476Y-205527200D02*
X160095238Y-205574819D01*
X160095238Y-205574819D02*
X159857143Y-205574819D01*
X159857143Y-205574819D02*
X159761905Y-205527200D01*
X159761905Y-205527200D02*
X159714286Y-205479580D01*
X146238095Y-203454819D02*
X146238095Y-202454819D01*
X146809523Y-203454819D02*
X146380952Y-202883390D01*
X146809523Y-202454819D02*
X146238095Y-203026247D01*
X75607142Y-159859580D02*
X75559523Y-159907200D01*
X75559523Y-159907200D02*
X75416666Y-159954819D01*
X75416666Y-159954819D02*
X75321428Y-159954819D01*
X75321428Y-159954819D02*
X75178571Y-159907200D01*
X75178571Y-159907200D02*
X75083333Y-159811961D01*
X75083333Y-159811961D02*
X75035714Y-159716723D01*
X75035714Y-159716723D02*
X74988095Y-159526247D01*
X74988095Y-159526247D02*
X74988095Y-159383390D01*
X74988095Y-159383390D02*
X75035714Y-159192914D01*
X75035714Y-159192914D02*
X75083333Y-159097676D01*
X75083333Y-159097676D02*
X75178571Y-159002438D01*
X75178571Y-159002438D02*
X75321428Y-158954819D01*
X75321428Y-158954819D02*
X75416666Y-158954819D01*
X75416666Y-158954819D02*
X75559523Y-159002438D01*
X75559523Y-159002438D02*
X75607142Y-159050057D01*
X76559523Y-159954819D02*
X75988095Y-159954819D01*
X76273809Y-159954819D02*
X76273809Y-158954819D01*
X76273809Y-158954819D02*
X76178571Y-159097676D01*
X76178571Y-159097676D02*
X76083333Y-159192914D01*
X76083333Y-159192914D02*
X75988095Y-159240533D01*
X77178571Y-158954819D02*
X77273809Y-158954819D01*
X77273809Y-158954819D02*
X77369047Y-159002438D01*
X77369047Y-159002438D02*
X77416666Y-159050057D01*
X77416666Y-159050057D02*
X77464285Y-159145295D01*
X77464285Y-159145295D02*
X77511904Y-159335771D01*
X77511904Y-159335771D02*
X77511904Y-159573866D01*
X77511904Y-159573866D02*
X77464285Y-159764342D01*
X77464285Y-159764342D02*
X77416666Y-159859580D01*
X77416666Y-159859580D02*
X77369047Y-159907200D01*
X77369047Y-159907200D02*
X77273809Y-159954819D01*
X77273809Y-159954819D02*
X77178571Y-159954819D01*
X77178571Y-159954819D02*
X77083333Y-159907200D01*
X77083333Y-159907200D02*
X77035714Y-159859580D01*
X77035714Y-159859580D02*
X76988095Y-159764342D01*
X76988095Y-159764342D02*
X76940476Y-159573866D01*
X76940476Y-159573866D02*
X76940476Y-159335771D01*
X76940476Y-159335771D02*
X76988095Y-159145295D01*
X76988095Y-159145295D02*
X77035714Y-159050057D01*
X77035714Y-159050057D02*
X77083333Y-159002438D01*
X77083333Y-159002438D02*
X77178571Y-158954819D01*
X230357142Y-214609580D02*
X230309523Y-214657200D01*
X230309523Y-214657200D02*
X230166666Y-214704819D01*
X230166666Y-214704819D02*
X230071428Y-214704819D01*
X230071428Y-214704819D02*
X229928571Y-214657200D01*
X229928571Y-214657200D02*
X229833333Y-214561961D01*
X229833333Y-214561961D02*
X229785714Y-214466723D01*
X229785714Y-214466723D02*
X229738095Y-214276247D01*
X229738095Y-214276247D02*
X229738095Y-214133390D01*
X229738095Y-214133390D02*
X229785714Y-213942914D01*
X229785714Y-213942914D02*
X229833333Y-213847676D01*
X229833333Y-213847676D02*
X229928571Y-213752438D01*
X229928571Y-213752438D02*
X230071428Y-213704819D01*
X230071428Y-213704819D02*
X230166666Y-213704819D01*
X230166666Y-213704819D02*
X230309523Y-213752438D01*
X230309523Y-213752438D02*
X230357142Y-213800057D01*
X231309523Y-214704819D02*
X230738095Y-214704819D01*
X231023809Y-214704819D02*
X231023809Y-213704819D01*
X231023809Y-213704819D02*
X230928571Y-213847676D01*
X230928571Y-213847676D02*
X230833333Y-213942914D01*
X230833333Y-213942914D02*
X230738095Y-213990533D01*
X231785714Y-214704819D02*
X231976190Y-214704819D01*
X231976190Y-214704819D02*
X232071428Y-214657200D01*
X232071428Y-214657200D02*
X232119047Y-214609580D01*
X232119047Y-214609580D02*
X232214285Y-214466723D01*
X232214285Y-214466723D02*
X232261904Y-214276247D01*
X232261904Y-214276247D02*
X232261904Y-213895295D01*
X232261904Y-213895295D02*
X232214285Y-213800057D01*
X232214285Y-213800057D02*
X232166666Y-213752438D01*
X232166666Y-213752438D02*
X232071428Y-213704819D01*
X232071428Y-213704819D02*
X231880952Y-213704819D01*
X231880952Y-213704819D02*
X231785714Y-213752438D01*
X231785714Y-213752438D02*
X231738095Y-213800057D01*
X231738095Y-213800057D02*
X231690476Y-213895295D01*
X231690476Y-213895295D02*
X231690476Y-214133390D01*
X231690476Y-214133390D02*
X231738095Y-214228628D01*
X231738095Y-214228628D02*
X231785714Y-214276247D01*
X231785714Y-214276247D02*
X231880952Y-214323866D01*
X231880952Y-214323866D02*
X232071428Y-214323866D01*
X232071428Y-214323866D02*
X232166666Y-214276247D01*
X232166666Y-214276247D02*
X232214285Y-214228628D01*
X232214285Y-214228628D02*
X232261904Y-214133390D01*
X109404761Y-178954819D02*
X109071428Y-178478628D01*
X108833333Y-178954819D02*
X108833333Y-177954819D01*
X108833333Y-177954819D02*
X109214285Y-177954819D01*
X109214285Y-177954819D02*
X109309523Y-178002438D01*
X109309523Y-178002438D02*
X109357142Y-178050057D01*
X109357142Y-178050057D02*
X109404761Y-178145295D01*
X109404761Y-178145295D02*
X109404761Y-178288152D01*
X109404761Y-178288152D02*
X109357142Y-178383390D01*
X109357142Y-178383390D02*
X109309523Y-178431009D01*
X109309523Y-178431009D02*
X109214285Y-178478628D01*
X109214285Y-178478628D02*
X108833333Y-178478628D01*
X109690476Y-177954819D02*
X110023809Y-178954819D01*
X110023809Y-178954819D02*
X110357142Y-177954819D01*
X111214285Y-178954819D02*
X110642857Y-178954819D01*
X110928571Y-178954819D02*
X110928571Y-177954819D01*
X110928571Y-177954819D02*
X110833333Y-178097676D01*
X110833333Y-178097676D02*
X110738095Y-178192914D01*
X110738095Y-178192914D02*
X110642857Y-178240533D01*
X139913333Y-116084819D02*
X139580000Y-115608628D01*
X139341905Y-116084819D02*
X139341905Y-115084819D01*
X139341905Y-115084819D02*
X139722857Y-115084819D01*
X139722857Y-115084819D02*
X139818095Y-115132438D01*
X139818095Y-115132438D02*
X139865714Y-115180057D01*
X139865714Y-115180057D02*
X139913333Y-115275295D01*
X139913333Y-115275295D02*
X139913333Y-115418152D01*
X139913333Y-115418152D02*
X139865714Y-115513390D01*
X139865714Y-115513390D02*
X139818095Y-115561009D01*
X139818095Y-115561009D02*
X139722857Y-115608628D01*
X139722857Y-115608628D02*
X139341905Y-115608628D01*
X140770476Y-115418152D02*
X140770476Y-116084819D01*
X140532381Y-115037200D02*
X140294286Y-115751485D01*
X140294286Y-115751485D02*
X140913333Y-115751485D01*
X120607142Y-159859580D02*
X120559523Y-159907200D01*
X120559523Y-159907200D02*
X120416666Y-159954819D01*
X120416666Y-159954819D02*
X120321428Y-159954819D01*
X120321428Y-159954819D02*
X120178571Y-159907200D01*
X120178571Y-159907200D02*
X120083333Y-159811961D01*
X120083333Y-159811961D02*
X120035714Y-159716723D01*
X120035714Y-159716723D02*
X119988095Y-159526247D01*
X119988095Y-159526247D02*
X119988095Y-159383390D01*
X119988095Y-159383390D02*
X120035714Y-159192914D01*
X120035714Y-159192914D02*
X120083333Y-159097676D01*
X120083333Y-159097676D02*
X120178571Y-159002438D01*
X120178571Y-159002438D02*
X120321428Y-158954819D01*
X120321428Y-158954819D02*
X120416666Y-158954819D01*
X120416666Y-158954819D02*
X120559523Y-159002438D01*
X120559523Y-159002438D02*
X120607142Y-159050057D01*
X121559523Y-159954819D02*
X120988095Y-159954819D01*
X121273809Y-159954819D02*
X121273809Y-158954819D01*
X121273809Y-158954819D02*
X121178571Y-159097676D01*
X121178571Y-159097676D02*
X121083333Y-159192914D01*
X121083333Y-159192914D02*
X120988095Y-159240533D01*
X121892857Y-158954819D02*
X122511904Y-158954819D01*
X122511904Y-158954819D02*
X122178571Y-159335771D01*
X122178571Y-159335771D02*
X122321428Y-159335771D01*
X122321428Y-159335771D02*
X122416666Y-159383390D01*
X122416666Y-159383390D02*
X122464285Y-159431009D01*
X122464285Y-159431009D02*
X122511904Y-159526247D01*
X122511904Y-159526247D02*
X122511904Y-159764342D01*
X122511904Y-159764342D02*
X122464285Y-159859580D01*
X122464285Y-159859580D02*
X122416666Y-159907200D01*
X122416666Y-159907200D02*
X122321428Y-159954819D01*
X122321428Y-159954819D02*
X122035714Y-159954819D01*
X122035714Y-159954819D02*
X121940476Y-159907200D01*
X121940476Y-159907200D02*
X121892857Y-159859580D01*
X79913333Y-133824819D02*
X79580000Y-133348628D01*
X79341905Y-133824819D02*
X79341905Y-132824819D01*
X79341905Y-132824819D02*
X79722857Y-132824819D01*
X79722857Y-132824819D02*
X79818095Y-132872438D01*
X79818095Y-132872438D02*
X79865714Y-132920057D01*
X79865714Y-132920057D02*
X79913333Y-133015295D01*
X79913333Y-133015295D02*
X79913333Y-133158152D01*
X79913333Y-133158152D02*
X79865714Y-133253390D01*
X79865714Y-133253390D02*
X79818095Y-133301009D01*
X79818095Y-133301009D02*
X79722857Y-133348628D01*
X79722857Y-133348628D02*
X79341905Y-133348628D01*
X80818095Y-132824819D02*
X80341905Y-132824819D01*
X80341905Y-132824819D02*
X80294286Y-133301009D01*
X80294286Y-133301009D02*
X80341905Y-133253390D01*
X80341905Y-133253390D02*
X80437143Y-133205771D01*
X80437143Y-133205771D02*
X80675238Y-133205771D01*
X80675238Y-133205771D02*
X80770476Y-133253390D01*
X80770476Y-133253390D02*
X80818095Y-133301009D01*
X80818095Y-133301009D02*
X80865714Y-133396247D01*
X80865714Y-133396247D02*
X80865714Y-133634342D01*
X80865714Y-133634342D02*
X80818095Y-133729580D01*
X80818095Y-133729580D02*
X80770476Y-133777200D01*
X80770476Y-133777200D02*
X80675238Y-133824819D01*
X80675238Y-133824819D02*
X80437143Y-133824819D01*
X80437143Y-133824819D02*
X80341905Y-133777200D01*
X80341905Y-133777200D02*
X80294286Y-133729580D01*
X264437142Y-180084819D02*
X264103809Y-179608628D01*
X263865714Y-180084819D02*
X263865714Y-179084819D01*
X263865714Y-179084819D02*
X264246666Y-179084819D01*
X264246666Y-179084819D02*
X264341904Y-179132438D01*
X264341904Y-179132438D02*
X264389523Y-179180057D01*
X264389523Y-179180057D02*
X264437142Y-179275295D01*
X264437142Y-179275295D02*
X264437142Y-179418152D01*
X264437142Y-179418152D02*
X264389523Y-179513390D01*
X264389523Y-179513390D02*
X264341904Y-179561009D01*
X264341904Y-179561009D02*
X264246666Y-179608628D01*
X264246666Y-179608628D02*
X263865714Y-179608628D01*
X265389523Y-180084819D02*
X264818095Y-180084819D01*
X265103809Y-180084819D02*
X265103809Y-179084819D01*
X265103809Y-179084819D02*
X265008571Y-179227676D01*
X265008571Y-179227676D02*
X264913333Y-179322914D01*
X264913333Y-179322914D02*
X264818095Y-179370533D01*
X266294285Y-179084819D02*
X265818095Y-179084819D01*
X265818095Y-179084819D02*
X265770476Y-179561009D01*
X265770476Y-179561009D02*
X265818095Y-179513390D01*
X265818095Y-179513390D02*
X265913333Y-179465771D01*
X265913333Y-179465771D02*
X266151428Y-179465771D01*
X266151428Y-179465771D02*
X266246666Y-179513390D01*
X266246666Y-179513390D02*
X266294285Y-179561009D01*
X266294285Y-179561009D02*
X266341904Y-179656247D01*
X266341904Y-179656247D02*
X266341904Y-179894342D01*
X266341904Y-179894342D02*
X266294285Y-179989580D01*
X266294285Y-179989580D02*
X266246666Y-180037200D01*
X266246666Y-180037200D02*
X266151428Y-180084819D01*
X266151428Y-180084819D02*
X265913333Y-180084819D01*
X265913333Y-180084819D02*
X265818095Y-180037200D01*
X265818095Y-180037200D02*
X265770476Y-179989580D01*
X76761905Y-188254819D02*
X76761905Y-187254819D01*
X77333333Y-188254819D02*
X76904762Y-187683390D01*
X77333333Y-187254819D02*
X76761905Y-187826247D01*
X78285714Y-188254819D02*
X77714286Y-188254819D01*
X78000000Y-188254819D02*
X78000000Y-187254819D01*
X78000000Y-187254819D02*
X77904762Y-187397676D01*
X77904762Y-187397676D02*
X77809524Y-187492914D01*
X77809524Y-187492914D02*
X77714286Y-187540533D01*
X229716666Y-226104819D02*
X229716666Y-226819104D01*
X229716666Y-226819104D02*
X229669047Y-226961961D01*
X229669047Y-226961961D02*
X229573809Y-227057200D01*
X229573809Y-227057200D02*
X229430952Y-227104819D01*
X229430952Y-227104819D02*
X229335714Y-227104819D01*
X230621428Y-226104819D02*
X230430952Y-226104819D01*
X230430952Y-226104819D02*
X230335714Y-226152438D01*
X230335714Y-226152438D02*
X230288095Y-226200057D01*
X230288095Y-226200057D02*
X230192857Y-226342914D01*
X230192857Y-226342914D02*
X230145238Y-226533390D01*
X230145238Y-226533390D02*
X230145238Y-226914342D01*
X230145238Y-226914342D02*
X230192857Y-227009580D01*
X230192857Y-227009580D02*
X230240476Y-227057200D01*
X230240476Y-227057200D02*
X230335714Y-227104819D01*
X230335714Y-227104819D02*
X230526190Y-227104819D01*
X230526190Y-227104819D02*
X230621428Y-227057200D01*
X230621428Y-227057200D02*
X230669047Y-227009580D01*
X230669047Y-227009580D02*
X230716666Y-226914342D01*
X230716666Y-226914342D02*
X230716666Y-226676247D01*
X230716666Y-226676247D02*
X230669047Y-226581009D01*
X230669047Y-226581009D02*
X230621428Y-226533390D01*
X230621428Y-226533390D02*
X230526190Y-226485771D01*
X230526190Y-226485771D02*
X230335714Y-226485771D01*
X230335714Y-226485771D02*
X230240476Y-226533390D01*
X230240476Y-226533390D02*
X230192857Y-226581009D01*
X230192857Y-226581009D02*
X230145238Y-226676247D01*
X133761905Y-205574819D02*
X133761905Y-204574819D01*
X133761905Y-204574819D02*
X134000000Y-204574819D01*
X134000000Y-204574819D02*
X134142857Y-204622438D01*
X134142857Y-204622438D02*
X134238095Y-204717676D01*
X134238095Y-204717676D02*
X134285714Y-204812914D01*
X134285714Y-204812914D02*
X134333333Y-205003390D01*
X134333333Y-205003390D02*
X134333333Y-205146247D01*
X134333333Y-205146247D02*
X134285714Y-205336723D01*
X134285714Y-205336723D02*
X134238095Y-205431961D01*
X134238095Y-205431961D02*
X134142857Y-205527200D01*
X134142857Y-205527200D02*
X134000000Y-205574819D01*
X134000000Y-205574819D02*
X133761905Y-205574819D01*
X135190476Y-204908152D02*
X135190476Y-205574819D01*
X134952381Y-204527200D02*
X134714286Y-205241485D01*
X134714286Y-205241485D02*
X135333333Y-205241485D01*
X121238095Y-203454819D02*
X121238095Y-202454819D01*
X121809523Y-203454819D02*
X121380952Y-202883390D01*
X121809523Y-202454819D02*
X121238095Y-203026247D01*
X157916667Y-228857200D02*
X158059524Y-228904819D01*
X158059524Y-228904819D02*
X158297619Y-228904819D01*
X158297619Y-228904819D02*
X158392857Y-228857200D01*
X158392857Y-228857200D02*
X158440476Y-228809580D01*
X158440476Y-228809580D02*
X158488095Y-228714342D01*
X158488095Y-228714342D02*
X158488095Y-228619104D01*
X158488095Y-228619104D02*
X158440476Y-228523866D01*
X158440476Y-228523866D02*
X158392857Y-228476247D01*
X158392857Y-228476247D02*
X158297619Y-228428628D01*
X158297619Y-228428628D02*
X158107143Y-228381009D01*
X158107143Y-228381009D02*
X158011905Y-228333390D01*
X158011905Y-228333390D02*
X157964286Y-228285771D01*
X157964286Y-228285771D02*
X157916667Y-228190533D01*
X157916667Y-228190533D02*
X157916667Y-228095295D01*
X157916667Y-228095295D02*
X157964286Y-228000057D01*
X157964286Y-228000057D02*
X158011905Y-227952438D01*
X158011905Y-227952438D02*
X158107143Y-227904819D01*
X158107143Y-227904819D02*
X158345238Y-227904819D01*
X158345238Y-227904819D02*
X158488095Y-227952438D01*
X158821429Y-227904819D02*
X159059524Y-228904819D01*
X159059524Y-228904819D02*
X159250000Y-228190533D01*
X159250000Y-228190533D02*
X159440476Y-228904819D01*
X159440476Y-228904819D02*
X159678572Y-227904819D01*
X160011905Y-228000057D02*
X160059524Y-227952438D01*
X160059524Y-227952438D02*
X160154762Y-227904819D01*
X160154762Y-227904819D02*
X160392857Y-227904819D01*
X160392857Y-227904819D02*
X160488095Y-227952438D01*
X160488095Y-227952438D02*
X160535714Y-228000057D01*
X160535714Y-228000057D02*
X160583333Y-228095295D01*
X160583333Y-228095295D02*
X160583333Y-228190533D01*
X160583333Y-228190533D02*
X160535714Y-228333390D01*
X160535714Y-228333390D02*
X159964286Y-228904819D01*
X159964286Y-228904819D02*
X160583333Y-228904819D01*
X189404761Y-178954819D02*
X189071428Y-178478628D01*
X188833333Y-178954819D02*
X188833333Y-177954819D01*
X188833333Y-177954819D02*
X189214285Y-177954819D01*
X189214285Y-177954819D02*
X189309523Y-178002438D01*
X189309523Y-178002438D02*
X189357142Y-178050057D01*
X189357142Y-178050057D02*
X189404761Y-178145295D01*
X189404761Y-178145295D02*
X189404761Y-178288152D01*
X189404761Y-178288152D02*
X189357142Y-178383390D01*
X189357142Y-178383390D02*
X189309523Y-178431009D01*
X189309523Y-178431009D02*
X189214285Y-178478628D01*
X189214285Y-178478628D02*
X188833333Y-178478628D01*
X189690476Y-177954819D02*
X190023809Y-178954819D01*
X190023809Y-178954819D02*
X190357142Y-177954819D01*
X190595238Y-177954819D02*
X191214285Y-177954819D01*
X191214285Y-177954819D02*
X190880952Y-178335771D01*
X190880952Y-178335771D02*
X191023809Y-178335771D01*
X191023809Y-178335771D02*
X191119047Y-178383390D01*
X191119047Y-178383390D02*
X191166666Y-178431009D01*
X191166666Y-178431009D02*
X191214285Y-178526247D01*
X191214285Y-178526247D02*
X191214285Y-178764342D01*
X191214285Y-178764342D02*
X191166666Y-178859580D01*
X191166666Y-178859580D02*
X191119047Y-178907200D01*
X191119047Y-178907200D02*
X191023809Y-178954819D01*
X191023809Y-178954819D02*
X190738095Y-178954819D01*
X190738095Y-178954819D02*
X190642857Y-178907200D01*
X190642857Y-178907200D02*
X190595238Y-178859580D01*
X234437142Y-192084819D02*
X234103809Y-191608628D01*
X233865714Y-192084819D02*
X233865714Y-191084819D01*
X233865714Y-191084819D02*
X234246666Y-191084819D01*
X234246666Y-191084819D02*
X234341904Y-191132438D01*
X234341904Y-191132438D02*
X234389523Y-191180057D01*
X234389523Y-191180057D02*
X234437142Y-191275295D01*
X234437142Y-191275295D02*
X234437142Y-191418152D01*
X234437142Y-191418152D02*
X234389523Y-191513390D01*
X234389523Y-191513390D02*
X234341904Y-191561009D01*
X234341904Y-191561009D02*
X234246666Y-191608628D01*
X234246666Y-191608628D02*
X233865714Y-191608628D01*
X235389523Y-192084819D02*
X234818095Y-192084819D01*
X235103809Y-192084819D02*
X235103809Y-191084819D01*
X235103809Y-191084819D02*
X235008571Y-191227676D01*
X235008571Y-191227676D02*
X234913333Y-191322914D01*
X234913333Y-191322914D02*
X234818095Y-191370533D01*
X235722857Y-191084819D02*
X236389523Y-191084819D01*
X236389523Y-191084819D02*
X235960952Y-192084819D01*
X109913333Y-127084819D02*
X109580000Y-126608628D01*
X109341905Y-127084819D02*
X109341905Y-126084819D01*
X109341905Y-126084819D02*
X109722857Y-126084819D01*
X109722857Y-126084819D02*
X109818095Y-126132438D01*
X109818095Y-126132438D02*
X109865714Y-126180057D01*
X109865714Y-126180057D02*
X109913333Y-126275295D01*
X109913333Y-126275295D02*
X109913333Y-126418152D01*
X109913333Y-126418152D02*
X109865714Y-126513390D01*
X109865714Y-126513390D02*
X109818095Y-126561009D01*
X109818095Y-126561009D02*
X109722857Y-126608628D01*
X109722857Y-126608628D02*
X109341905Y-126608628D01*
X110246667Y-126084819D02*
X110913333Y-126084819D01*
X110913333Y-126084819D02*
X110484762Y-127084819D01*
X124913333Y-116084819D02*
X124580000Y-115608628D01*
X124341905Y-116084819D02*
X124341905Y-115084819D01*
X124341905Y-115084819D02*
X124722857Y-115084819D01*
X124722857Y-115084819D02*
X124818095Y-115132438D01*
X124818095Y-115132438D02*
X124865714Y-115180057D01*
X124865714Y-115180057D02*
X124913333Y-115275295D01*
X124913333Y-115275295D02*
X124913333Y-115418152D01*
X124913333Y-115418152D02*
X124865714Y-115513390D01*
X124865714Y-115513390D02*
X124818095Y-115561009D01*
X124818095Y-115561009D02*
X124722857Y-115608628D01*
X124722857Y-115608628D02*
X124341905Y-115608628D01*
X125246667Y-115084819D02*
X125865714Y-115084819D01*
X125865714Y-115084819D02*
X125532381Y-115465771D01*
X125532381Y-115465771D02*
X125675238Y-115465771D01*
X125675238Y-115465771D02*
X125770476Y-115513390D01*
X125770476Y-115513390D02*
X125818095Y-115561009D01*
X125818095Y-115561009D02*
X125865714Y-115656247D01*
X125865714Y-115656247D02*
X125865714Y-115894342D01*
X125865714Y-115894342D02*
X125818095Y-115989580D01*
X125818095Y-115989580D02*
X125770476Y-116037200D01*
X125770476Y-116037200D02*
X125675238Y-116084819D01*
X125675238Y-116084819D02*
X125389524Y-116084819D01*
X125389524Y-116084819D02*
X125294286Y-116037200D01*
X125294286Y-116037200D02*
X125246667Y-115989580D01*
X215607142Y-215859580D02*
X215559523Y-215907200D01*
X215559523Y-215907200D02*
X215416666Y-215954819D01*
X215416666Y-215954819D02*
X215321428Y-215954819D01*
X215321428Y-215954819D02*
X215178571Y-215907200D01*
X215178571Y-215907200D02*
X215083333Y-215811961D01*
X215083333Y-215811961D02*
X215035714Y-215716723D01*
X215035714Y-215716723D02*
X214988095Y-215526247D01*
X214988095Y-215526247D02*
X214988095Y-215383390D01*
X214988095Y-215383390D02*
X215035714Y-215192914D01*
X215035714Y-215192914D02*
X215083333Y-215097676D01*
X215083333Y-215097676D02*
X215178571Y-215002438D01*
X215178571Y-215002438D02*
X215321428Y-214954819D01*
X215321428Y-214954819D02*
X215416666Y-214954819D01*
X215416666Y-214954819D02*
X215559523Y-215002438D01*
X215559523Y-215002438D02*
X215607142Y-215050057D01*
X216559523Y-215954819D02*
X215988095Y-215954819D01*
X216273809Y-215954819D02*
X216273809Y-214954819D01*
X216273809Y-214954819D02*
X216178571Y-215097676D01*
X216178571Y-215097676D02*
X216083333Y-215192914D01*
X216083333Y-215192914D02*
X215988095Y-215240533D01*
X217130952Y-215383390D02*
X217035714Y-215335771D01*
X217035714Y-215335771D02*
X216988095Y-215288152D01*
X216988095Y-215288152D02*
X216940476Y-215192914D01*
X216940476Y-215192914D02*
X216940476Y-215145295D01*
X216940476Y-215145295D02*
X216988095Y-215050057D01*
X216988095Y-215050057D02*
X217035714Y-215002438D01*
X217035714Y-215002438D02*
X217130952Y-214954819D01*
X217130952Y-214954819D02*
X217321428Y-214954819D01*
X217321428Y-214954819D02*
X217416666Y-215002438D01*
X217416666Y-215002438D02*
X217464285Y-215050057D01*
X217464285Y-215050057D02*
X217511904Y-215145295D01*
X217511904Y-215145295D02*
X217511904Y-215192914D01*
X217511904Y-215192914D02*
X217464285Y-215288152D01*
X217464285Y-215288152D02*
X217416666Y-215335771D01*
X217416666Y-215335771D02*
X217321428Y-215383390D01*
X217321428Y-215383390D02*
X217130952Y-215383390D01*
X217130952Y-215383390D02*
X217035714Y-215431009D01*
X217035714Y-215431009D02*
X216988095Y-215478628D01*
X216988095Y-215478628D02*
X216940476Y-215573866D01*
X216940476Y-215573866D02*
X216940476Y-215764342D01*
X216940476Y-215764342D02*
X216988095Y-215859580D01*
X216988095Y-215859580D02*
X217035714Y-215907200D01*
X217035714Y-215907200D02*
X217130952Y-215954819D01*
X217130952Y-215954819D02*
X217321428Y-215954819D01*
X217321428Y-215954819D02*
X217416666Y-215907200D01*
X217416666Y-215907200D02*
X217464285Y-215859580D01*
X217464285Y-215859580D02*
X217511904Y-215764342D01*
X217511904Y-215764342D02*
X217511904Y-215573866D01*
X217511904Y-215573866D02*
X217464285Y-215478628D01*
X217464285Y-215478628D02*
X217416666Y-215431009D01*
X217416666Y-215431009D02*
X217321428Y-215383390D01*
X211916667Y-228857200D02*
X212059524Y-228904819D01*
X212059524Y-228904819D02*
X212297619Y-228904819D01*
X212297619Y-228904819D02*
X212392857Y-228857200D01*
X212392857Y-228857200D02*
X212440476Y-228809580D01*
X212440476Y-228809580D02*
X212488095Y-228714342D01*
X212488095Y-228714342D02*
X212488095Y-228619104D01*
X212488095Y-228619104D02*
X212440476Y-228523866D01*
X212440476Y-228523866D02*
X212392857Y-228476247D01*
X212392857Y-228476247D02*
X212297619Y-228428628D01*
X212297619Y-228428628D02*
X212107143Y-228381009D01*
X212107143Y-228381009D02*
X212011905Y-228333390D01*
X212011905Y-228333390D02*
X211964286Y-228285771D01*
X211964286Y-228285771D02*
X211916667Y-228190533D01*
X211916667Y-228190533D02*
X211916667Y-228095295D01*
X211916667Y-228095295D02*
X211964286Y-228000057D01*
X211964286Y-228000057D02*
X212011905Y-227952438D01*
X212011905Y-227952438D02*
X212107143Y-227904819D01*
X212107143Y-227904819D02*
X212345238Y-227904819D01*
X212345238Y-227904819D02*
X212488095Y-227952438D01*
X212821429Y-227904819D02*
X213059524Y-228904819D01*
X213059524Y-228904819D02*
X213250000Y-228190533D01*
X213250000Y-228190533D02*
X213440476Y-228904819D01*
X213440476Y-228904819D02*
X213678572Y-227904819D01*
X214535714Y-227904819D02*
X214059524Y-227904819D01*
X214059524Y-227904819D02*
X214011905Y-228381009D01*
X214011905Y-228381009D02*
X214059524Y-228333390D01*
X214059524Y-228333390D02*
X214154762Y-228285771D01*
X214154762Y-228285771D02*
X214392857Y-228285771D01*
X214392857Y-228285771D02*
X214488095Y-228333390D01*
X214488095Y-228333390D02*
X214535714Y-228381009D01*
X214535714Y-228381009D02*
X214583333Y-228476247D01*
X214583333Y-228476247D02*
X214583333Y-228714342D01*
X214583333Y-228714342D02*
X214535714Y-228809580D01*
X214535714Y-228809580D02*
X214488095Y-228857200D01*
X214488095Y-228857200D02*
X214392857Y-228904819D01*
X214392857Y-228904819D02*
X214154762Y-228904819D01*
X214154762Y-228904819D02*
X214059524Y-228857200D01*
X214059524Y-228857200D02*
X214011905Y-228809580D01*
X151761905Y-188254819D02*
X151761905Y-187254819D01*
X152333333Y-188254819D02*
X151904762Y-187683390D01*
X152333333Y-187254819D02*
X151761905Y-187826247D01*
X153190476Y-187588152D02*
X153190476Y-188254819D01*
X152952381Y-187207200D02*
X152714286Y-187921485D01*
X152714286Y-187921485D02*
X153333333Y-187921485D01*
X230607142Y-203859580D02*
X230559523Y-203907200D01*
X230559523Y-203907200D02*
X230416666Y-203954819D01*
X230416666Y-203954819D02*
X230321428Y-203954819D01*
X230321428Y-203954819D02*
X230178571Y-203907200D01*
X230178571Y-203907200D02*
X230083333Y-203811961D01*
X230083333Y-203811961D02*
X230035714Y-203716723D01*
X230035714Y-203716723D02*
X229988095Y-203526247D01*
X229988095Y-203526247D02*
X229988095Y-203383390D01*
X229988095Y-203383390D02*
X230035714Y-203192914D01*
X230035714Y-203192914D02*
X230083333Y-203097676D01*
X230083333Y-203097676D02*
X230178571Y-203002438D01*
X230178571Y-203002438D02*
X230321428Y-202954819D01*
X230321428Y-202954819D02*
X230416666Y-202954819D01*
X230416666Y-202954819D02*
X230559523Y-203002438D01*
X230559523Y-203002438D02*
X230607142Y-203050057D01*
X231559523Y-203954819D02*
X230988095Y-203954819D01*
X231273809Y-203954819D02*
X231273809Y-202954819D01*
X231273809Y-202954819D02*
X231178571Y-203097676D01*
X231178571Y-203097676D02*
X231083333Y-203192914D01*
X231083333Y-203192914D02*
X230988095Y-203240533D01*
X232464285Y-202954819D02*
X231988095Y-202954819D01*
X231988095Y-202954819D02*
X231940476Y-203431009D01*
X231940476Y-203431009D02*
X231988095Y-203383390D01*
X231988095Y-203383390D02*
X232083333Y-203335771D01*
X232083333Y-203335771D02*
X232321428Y-203335771D01*
X232321428Y-203335771D02*
X232416666Y-203383390D01*
X232416666Y-203383390D02*
X232464285Y-203431009D01*
X232464285Y-203431009D02*
X232511904Y-203526247D01*
X232511904Y-203526247D02*
X232511904Y-203764342D01*
X232511904Y-203764342D02*
X232464285Y-203859580D01*
X232464285Y-203859580D02*
X232416666Y-203907200D01*
X232416666Y-203907200D02*
X232321428Y-203954819D01*
X232321428Y-203954819D02*
X232083333Y-203954819D01*
X232083333Y-203954819D02*
X231988095Y-203907200D01*
X231988095Y-203907200D02*
X231940476Y-203859580D01*
X219437142Y-198824819D02*
X219103809Y-198348628D01*
X218865714Y-198824819D02*
X218865714Y-197824819D01*
X218865714Y-197824819D02*
X219246666Y-197824819D01*
X219246666Y-197824819D02*
X219341904Y-197872438D01*
X219341904Y-197872438D02*
X219389523Y-197920057D01*
X219389523Y-197920057D02*
X219437142Y-198015295D01*
X219437142Y-198015295D02*
X219437142Y-198158152D01*
X219437142Y-198158152D02*
X219389523Y-198253390D01*
X219389523Y-198253390D02*
X219341904Y-198301009D01*
X219341904Y-198301009D02*
X219246666Y-198348628D01*
X219246666Y-198348628D02*
X218865714Y-198348628D01*
X220389523Y-198824819D02*
X219818095Y-198824819D01*
X220103809Y-198824819D02*
X220103809Y-197824819D01*
X220103809Y-197824819D02*
X220008571Y-197967676D01*
X220008571Y-197967676D02*
X219913333Y-198062914D01*
X219913333Y-198062914D02*
X219818095Y-198110533D01*
X221246666Y-197824819D02*
X221056190Y-197824819D01*
X221056190Y-197824819D02*
X220960952Y-197872438D01*
X220960952Y-197872438D02*
X220913333Y-197920057D01*
X220913333Y-197920057D02*
X220818095Y-198062914D01*
X220818095Y-198062914D02*
X220770476Y-198253390D01*
X220770476Y-198253390D02*
X220770476Y-198634342D01*
X220770476Y-198634342D02*
X220818095Y-198729580D01*
X220818095Y-198729580D02*
X220865714Y-198777200D01*
X220865714Y-198777200D02*
X220960952Y-198824819D01*
X220960952Y-198824819D02*
X221151428Y-198824819D01*
X221151428Y-198824819D02*
X221246666Y-198777200D01*
X221246666Y-198777200D02*
X221294285Y-198729580D01*
X221294285Y-198729580D02*
X221341904Y-198634342D01*
X221341904Y-198634342D02*
X221341904Y-198396247D01*
X221341904Y-198396247D02*
X221294285Y-198301009D01*
X221294285Y-198301009D02*
X221246666Y-198253390D01*
X221246666Y-198253390D02*
X221151428Y-198205771D01*
X221151428Y-198205771D02*
X220960952Y-198205771D01*
X220960952Y-198205771D02*
X220865714Y-198253390D01*
X220865714Y-198253390D02*
X220818095Y-198301009D01*
X220818095Y-198301009D02*
X220770476Y-198396247D01*
X94913333Y-116084819D02*
X94580000Y-115608628D01*
X94341905Y-116084819D02*
X94341905Y-115084819D01*
X94341905Y-115084819D02*
X94722857Y-115084819D01*
X94722857Y-115084819D02*
X94818095Y-115132438D01*
X94818095Y-115132438D02*
X94865714Y-115180057D01*
X94865714Y-115180057D02*
X94913333Y-115275295D01*
X94913333Y-115275295D02*
X94913333Y-115418152D01*
X94913333Y-115418152D02*
X94865714Y-115513390D01*
X94865714Y-115513390D02*
X94818095Y-115561009D01*
X94818095Y-115561009D02*
X94722857Y-115608628D01*
X94722857Y-115608628D02*
X94341905Y-115608628D01*
X95865714Y-116084819D02*
X95294286Y-116084819D01*
X95580000Y-116084819D02*
X95580000Y-115084819D01*
X95580000Y-115084819D02*
X95484762Y-115227676D01*
X95484762Y-115227676D02*
X95389524Y-115322914D01*
X95389524Y-115322914D02*
X95294286Y-115370533D01*
X260607142Y-215859580D02*
X260559523Y-215907200D01*
X260559523Y-215907200D02*
X260416666Y-215954819D01*
X260416666Y-215954819D02*
X260321428Y-215954819D01*
X260321428Y-215954819D02*
X260178571Y-215907200D01*
X260178571Y-215907200D02*
X260083333Y-215811961D01*
X260083333Y-215811961D02*
X260035714Y-215716723D01*
X260035714Y-215716723D02*
X259988095Y-215526247D01*
X259988095Y-215526247D02*
X259988095Y-215383390D01*
X259988095Y-215383390D02*
X260035714Y-215192914D01*
X260035714Y-215192914D02*
X260083333Y-215097676D01*
X260083333Y-215097676D02*
X260178571Y-215002438D01*
X260178571Y-215002438D02*
X260321428Y-214954819D01*
X260321428Y-214954819D02*
X260416666Y-214954819D01*
X260416666Y-214954819D02*
X260559523Y-215002438D01*
X260559523Y-215002438D02*
X260607142Y-215050057D01*
X260988095Y-215050057D02*
X261035714Y-215002438D01*
X261035714Y-215002438D02*
X261130952Y-214954819D01*
X261130952Y-214954819D02*
X261369047Y-214954819D01*
X261369047Y-214954819D02*
X261464285Y-215002438D01*
X261464285Y-215002438D02*
X261511904Y-215050057D01*
X261511904Y-215050057D02*
X261559523Y-215145295D01*
X261559523Y-215145295D02*
X261559523Y-215240533D01*
X261559523Y-215240533D02*
X261511904Y-215383390D01*
X261511904Y-215383390D02*
X260940476Y-215954819D01*
X260940476Y-215954819D02*
X261559523Y-215954819D01*
X262511904Y-215954819D02*
X261940476Y-215954819D01*
X262226190Y-215954819D02*
X262226190Y-214954819D01*
X262226190Y-214954819D02*
X262130952Y-215097676D01*
X262130952Y-215097676D02*
X262035714Y-215192914D01*
X262035714Y-215192914D02*
X261940476Y-215240533D01*
X108761905Y-205574819D02*
X108761905Y-204574819D01*
X108761905Y-204574819D02*
X109000000Y-204574819D01*
X109000000Y-204574819D02*
X109142857Y-204622438D01*
X109142857Y-204622438D02*
X109238095Y-204717676D01*
X109238095Y-204717676D02*
X109285714Y-204812914D01*
X109285714Y-204812914D02*
X109333333Y-205003390D01*
X109333333Y-205003390D02*
X109333333Y-205146247D01*
X109333333Y-205146247D02*
X109285714Y-205336723D01*
X109285714Y-205336723D02*
X109238095Y-205431961D01*
X109238095Y-205431961D02*
X109142857Y-205527200D01*
X109142857Y-205527200D02*
X109000000Y-205574819D01*
X109000000Y-205574819D02*
X108761905Y-205574819D01*
X109666667Y-204574819D02*
X110285714Y-204574819D01*
X110285714Y-204574819D02*
X109952381Y-204955771D01*
X109952381Y-204955771D02*
X110095238Y-204955771D01*
X110095238Y-204955771D02*
X110190476Y-205003390D01*
X110190476Y-205003390D02*
X110238095Y-205051009D01*
X110238095Y-205051009D02*
X110285714Y-205146247D01*
X110285714Y-205146247D02*
X110285714Y-205384342D01*
X110285714Y-205384342D02*
X110238095Y-205479580D01*
X110238095Y-205479580D02*
X110190476Y-205527200D01*
X110190476Y-205527200D02*
X110095238Y-205574819D01*
X110095238Y-205574819D02*
X109809524Y-205574819D01*
X109809524Y-205574819D02*
X109714286Y-205527200D01*
X109714286Y-205527200D02*
X109666667Y-205479580D01*
X96238095Y-203454819D02*
X96238095Y-202454819D01*
X96809523Y-203454819D02*
X96380952Y-202883390D01*
X96809523Y-202454819D02*
X96238095Y-203026247D01*
X106083333Y-148859580D02*
X106035714Y-148907200D01*
X106035714Y-148907200D02*
X105892857Y-148954819D01*
X105892857Y-148954819D02*
X105797619Y-148954819D01*
X105797619Y-148954819D02*
X105654762Y-148907200D01*
X105654762Y-148907200D02*
X105559524Y-148811961D01*
X105559524Y-148811961D02*
X105511905Y-148716723D01*
X105511905Y-148716723D02*
X105464286Y-148526247D01*
X105464286Y-148526247D02*
X105464286Y-148383390D01*
X105464286Y-148383390D02*
X105511905Y-148192914D01*
X105511905Y-148192914D02*
X105559524Y-148097676D01*
X105559524Y-148097676D02*
X105654762Y-148002438D01*
X105654762Y-148002438D02*
X105797619Y-147954819D01*
X105797619Y-147954819D02*
X105892857Y-147954819D01*
X105892857Y-147954819D02*
X106035714Y-148002438D01*
X106035714Y-148002438D02*
X106083333Y-148050057D01*
X106416667Y-147954819D02*
X107083333Y-147954819D01*
X107083333Y-147954819D02*
X106654762Y-148954819D01*
X76083333Y-148859580D02*
X76035714Y-148907200D01*
X76035714Y-148907200D02*
X75892857Y-148954819D01*
X75892857Y-148954819D02*
X75797619Y-148954819D01*
X75797619Y-148954819D02*
X75654762Y-148907200D01*
X75654762Y-148907200D02*
X75559524Y-148811961D01*
X75559524Y-148811961D02*
X75511905Y-148716723D01*
X75511905Y-148716723D02*
X75464286Y-148526247D01*
X75464286Y-148526247D02*
X75464286Y-148383390D01*
X75464286Y-148383390D02*
X75511905Y-148192914D01*
X75511905Y-148192914D02*
X75559524Y-148097676D01*
X75559524Y-148097676D02*
X75654762Y-148002438D01*
X75654762Y-148002438D02*
X75797619Y-147954819D01*
X75797619Y-147954819D02*
X75892857Y-147954819D01*
X75892857Y-147954819D02*
X76035714Y-148002438D01*
X76035714Y-148002438D02*
X76083333Y-148050057D01*
X76988095Y-147954819D02*
X76511905Y-147954819D01*
X76511905Y-147954819D02*
X76464286Y-148431009D01*
X76464286Y-148431009D02*
X76511905Y-148383390D01*
X76511905Y-148383390D02*
X76607143Y-148335771D01*
X76607143Y-148335771D02*
X76845238Y-148335771D01*
X76845238Y-148335771D02*
X76940476Y-148383390D01*
X76940476Y-148383390D02*
X76988095Y-148431009D01*
X76988095Y-148431009D02*
X77035714Y-148526247D01*
X77035714Y-148526247D02*
X77035714Y-148764342D01*
X77035714Y-148764342D02*
X76988095Y-148859580D01*
X76988095Y-148859580D02*
X76940476Y-148907200D01*
X76940476Y-148907200D02*
X76845238Y-148954819D01*
X76845238Y-148954819D02*
X76607143Y-148954819D01*
X76607143Y-148954819D02*
X76511905Y-148907200D01*
X76511905Y-148907200D02*
X76464286Y-148859580D01*
X219437142Y-204084819D02*
X219103809Y-203608628D01*
X218865714Y-204084819D02*
X218865714Y-203084819D01*
X218865714Y-203084819D02*
X219246666Y-203084819D01*
X219246666Y-203084819D02*
X219341904Y-203132438D01*
X219341904Y-203132438D02*
X219389523Y-203180057D01*
X219389523Y-203180057D02*
X219437142Y-203275295D01*
X219437142Y-203275295D02*
X219437142Y-203418152D01*
X219437142Y-203418152D02*
X219389523Y-203513390D01*
X219389523Y-203513390D02*
X219341904Y-203561009D01*
X219341904Y-203561009D02*
X219246666Y-203608628D01*
X219246666Y-203608628D02*
X218865714Y-203608628D01*
X219818095Y-203180057D02*
X219865714Y-203132438D01*
X219865714Y-203132438D02*
X219960952Y-203084819D01*
X219960952Y-203084819D02*
X220199047Y-203084819D01*
X220199047Y-203084819D02*
X220294285Y-203132438D01*
X220294285Y-203132438D02*
X220341904Y-203180057D01*
X220341904Y-203180057D02*
X220389523Y-203275295D01*
X220389523Y-203275295D02*
X220389523Y-203370533D01*
X220389523Y-203370533D02*
X220341904Y-203513390D01*
X220341904Y-203513390D02*
X219770476Y-204084819D01*
X219770476Y-204084819D02*
X220389523Y-204084819D01*
X221008571Y-203084819D02*
X221103809Y-203084819D01*
X221103809Y-203084819D02*
X221199047Y-203132438D01*
X221199047Y-203132438D02*
X221246666Y-203180057D01*
X221246666Y-203180057D02*
X221294285Y-203275295D01*
X221294285Y-203275295D02*
X221341904Y-203465771D01*
X221341904Y-203465771D02*
X221341904Y-203703866D01*
X221341904Y-203703866D02*
X221294285Y-203894342D01*
X221294285Y-203894342D02*
X221246666Y-203989580D01*
X221246666Y-203989580D02*
X221199047Y-204037200D01*
X221199047Y-204037200D02*
X221103809Y-204084819D01*
X221103809Y-204084819D02*
X221008571Y-204084819D01*
X221008571Y-204084819D02*
X220913333Y-204037200D01*
X220913333Y-204037200D02*
X220865714Y-203989580D01*
X220865714Y-203989580D02*
X220818095Y-203894342D01*
X220818095Y-203894342D02*
X220770476Y-203703866D01*
X220770476Y-203703866D02*
X220770476Y-203465771D01*
X220770476Y-203465771D02*
X220818095Y-203275295D01*
X220818095Y-203275295D02*
X220865714Y-203180057D01*
X220865714Y-203180057D02*
X220913333Y-203132438D01*
X220913333Y-203132438D02*
X221008571Y-203084819D01*
X64666667Y-235254819D02*
X64666667Y-234254819D01*
X64666667Y-234254819D02*
X65000000Y-234969104D01*
X65000000Y-234969104D02*
X65333333Y-234254819D01*
X65333333Y-234254819D02*
X65333333Y-235254819D01*
X65809524Y-235254819D02*
X65809524Y-234254819D01*
X65809524Y-234731009D02*
X66380952Y-234731009D01*
X66380952Y-235254819D02*
X66380952Y-234254819D01*
X66761905Y-234254819D02*
X67380952Y-234254819D01*
X67380952Y-234254819D02*
X67047619Y-234635771D01*
X67047619Y-234635771D02*
X67190476Y-234635771D01*
X67190476Y-234635771D02*
X67285714Y-234683390D01*
X67285714Y-234683390D02*
X67333333Y-234731009D01*
X67333333Y-234731009D02*
X67380952Y-234826247D01*
X67380952Y-234826247D02*
X67380952Y-235064342D01*
X67380952Y-235064342D02*
X67333333Y-235159580D01*
X67333333Y-235159580D02*
X67285714Y-235207200D01*
X67285714Y-235207200D02*
X67190476Y-235254819D01*
X67190476Y-235254819D02*
X66904762Y-235254819D01*
X66904762Y-235254819D02*
X66809524Y-235207200D01*
X66809524Y-235207200D02*
X66761905Y-235159580D01*
D11*
%TO.C,J3*%
X141625000Y-97500000D02*
X141625000Y-102500000D01*
X143625000Y-96900000D02*
X143625000Y-97500000D01*
X143625000Y-96900000D02*
X146000000Y-96900000D01*
X143625000Y-97500000D02*
X141625000Y-97500000D01*
X143625000Y-102500000D02*
X141625000Y-102500000D01*
X143625000Y-102500000D02*
X143625000Y-103100000D01*
X147650000Y-96900000D02*
X149000000Y-96900000D01*
X150650000Y-96900000D02*
X153050000Y-96900000D01*
X153050000Y-96900000D02*
X153050000Y-95500000D01*
X154150000Y-103100000D02*
X143625000Y-103100000D01*
X154600000Y-96900000D02*
X154600000Y-95500000D01*
X154600000Y-96900000D02*
X155725000Y-96900000D01*
X155725000Y-103100000D02*
X155725000Y-96900000D01*
%TO.C,RV4*%
X204900000Y-175620000D02*
X204900000Y-169400000D01*
X217880000Y-169380000D02*
X204900000Y-169380000D01*
X217880000Y-175620000D02*
X204900000Y-175620000D01*
X217880000Y-176120000D02*
X217880000Y-168880000D01*
X224880000Y-168880000D02*
X217880000Y-168880000D01*
X224880000Y-176120000D02*
X217880000Y-176120000D01*
X224880000Y-177370000D02*
X224880000Y-167630000D01*
X234671000Y-167630000D02*
X224880000Y-167630000D01*
X234671000Y-177370000D02*
X224880000Y-177370000D01*
X234671000Y-177370000D02*
X234671000Y-167630000D01*
%TO.C,RV5*%
X244900000Y-175620000D02*
X244900000Y-169400000D01*
X257880000Y-169380000D02*
X244900000Y-169380000D01*
X257880000Y-175620000D02*
X244900000Y-175620000D01*
X257880000Y-176120000D02*
X257880000Y-168880000D01*
X264880000Y-168880000D02*
X257880000Y-168880000D01*
X264880000Y-176120000D02*
X257880000Y-176120000D01*
X264880000Y-177370000D02*
X264880000Y-167630000D01*
X274671000Y-167630000D02*
X264880000Y-167630000D01*
X274671000Y-177370000D02*
X264880000Y-177370000D01*
X274671000Y-177370000D02*
X274671000Y-167630000D01*
%TO.C,C17*%
X257340302Y-203685000D02*
X258140302Y-203685000D01*
X257740302Y-203285000D02*
X257740302Y-204085000D01*
X261750000Y-201920000D02*
X261750000Y-210080000D01*
X261790000Y-201920000D02*
X261790000Y-210080000D01*
X261830000Y-201920000D02*
X261830000Y-210080000D01*
X261870000Y-201921000D02*
X261870000Y-210079000D01*
X261910000Y-201923000D02*
X261910000Y-210077000D01*
X261950000Y-201924000D02*
X261950000Y-210076000D01*
X261990000Y-201926000D02*
X261990000Y-210074000D01*
X262030000Y-201929000D02*
X262030000Y-210071000D01*
X262070000Y-201932000D02*
X262070000Y-210068000D01*
X262110000Y-201935000D02*
X262110000Y-210065000D01*
X262150000Y-201939000D02*
X262150000Y-210061000D01*
X262190000Y-201943000D02*
X262190000Y-210057000D01*
X262230000Y-201948000D02*
X262230000Y-210052000D01*
X262270000Y-201952000D02*
X262270000Y-210048000D01*
X262310000Y-201958000D02*
X262310000Y-210042000D01*
X262350000Y-201963000D02*
X262350000Y-210037000D01*
X262390000Y-201970000D02*
X262390000Y-210030000D01*
X262430000Y-201976000D02*
X262430000Y-210024000D01*
X262471000Y-201983000D02*
X262471000Y-204960000D01*
X262471000Y-207040000D02*
X262471000Y-210017000D01*
X262511000Y-201990000D02*
X262511000Y-204960000D01*
X262511000Y-207040000D02*
X262511000Y-210010000D01*
X262551000Y-201998000D02*
X262551000Y-204960000D01*
X262551000Y-207040000D02*
X262551000Y-210002000D01*
X262591000Y-202006000D02*
X262591000Y-204960000D01*
X262591000Y-207040000D02*
X262591000Y-209994000D01*
X262631000Y-202015000D02*
X262631000Y-204960000D01*
X262631000Y-207040000D02*
X262631000Y-209985000D01*
X262671000Y-202024000D02*
X262671000Y-204960000D01*
X262671000Y-207040000D02*
X262671000Y-209976000D01*
X262711000Y-202033000D02*
X262711000Y-204960000D01*
X262711000Y-207040000D02*
X262711000Y-209967000D01*
X262751000Y-202043000D02*
X262751000Y-204960000D01*
X262751000Y-207040000D02*
X262751000Y-209957000D01*
X262791000Y-202053000D02*
X262791000Y-204960000D01*
X262791000Y-207040000D02*
X262791000Y-209947000D01*
X262831000Y-202064000D02*
X262831000Y-204960000D01*
X262831000Y-207040000D02*
X262831000Y-209936000D01*
X262871000Y-202075000D02*
X262871000Y-204960000D01*
X262871000Y-207040000D02*
X262871000Y-209925000D01*
X262911000Y-202086000D02*
X262911000Y-204960000D01*
X262911000Y-207040000D02*
X262911000Y-209914000D01*
X262951000Y-202098000D02*
X262951000Y-204960000D01*
X262951000Y-207040000D02*
X262951000Y-209902000D01*
X262991000Y-202111000D02*
X262991000Y-204960000D01*
X262991000Y-207040000D02*
X262991000Y-209889000D01*
X263031000Y-202123000D02*
X263031000Y-204960000D01*
X263031000Y-207040000D02*
X263031000Y-209877000D01*
X263071000Y-202137000D02*
X263071000Y-204960000D01*
X263071000Y-207040000D02*
X263071000Y-209863000D01*
X263111000Y-202150000D02*
X263111000Y-204960000D01*
X263111000Y-207040000D02*
X263111000Y-209850000D01*
X263151000Y-202165000D02*
X263151000Y-204960000D01*
X263151000Y-207040000D02*
X263151000Y-209835000D01*
X263191000Y-202179000D02*
X263191000Y-204960000D01*
X263191000Y-207040000D02*
X263191000Y-209821000D01*
X263231000Y-202195000D02*
X263231000Y-204960000D01*
X263231000Y-207040000D02*
X263231000Y-209805000D01*
X263271000Y-202210000D02*
X263271000Y-204960000D01*
X263271000Y-207040000D02*
X263271000Y-209790000D01*
X263311000Y-202226000D02*
X263311000Y-204960000D01*
X263311000Y-207040000D02*
X263311000Y-209774000D01*
X263351000Y-202243000D02*
X263351000Y-204960000D01*
X263351000Y-207040000D02*
X263351000Y-209757000D01*
X263391000Y-202260000D02*
X263391000Y-204960000D01*
X263391000Y-207040000D02*
X263391000Y-209740000D01*
X263431000Y-202278000D02*
X263431000Y-204960000D01*
X263431000Y-207040000D02*
X263431000Y-209722000D01*
X263471000Y-202296000D02*
X263471000Y-204960000D01*
X263471000Y-207040000D02*
X263471000Y-209704000D01*
X263511000Y-202314000D02*
X263511000Y-204960000D01*
X263511000Y-207040000D02*
X263511000Y-209686000D01*
X263551000Y-202334000D02*
X263551000Y-204960000D01*
X263551000Y-207040000D02*
X263551000Y-209666000D01*
X263591000Y-202353000D02*
X263591000Y-204960000D01*
X263591000Y-207040000D02*
X263591000Y-209647000D01*
X263631000Y-202373000D02*
X263631000Y-204960000D01*
X263631000Y-207040000D02*
X263631000Y-209627000D01*
X263671000Y-202394000D02*
X263671000Y-204960000D01*
X263671000Y-207040000D02*
X263671000Y-209606000D01*
X263711000Y-202416000D02*
X263711000Y-204960000D01*
X263711000Y-207040000D02*
X263711000Y-209584000D01*
X263751000Y-202438000D02*
X263751000Y-204960000D01*
X263751000Y-207040000D02*
X263751000Y-209562000D01*
X263791000Y-202460000D02*
X263791000Y-204960000D01*
X263791000Y-207040000D02*
X263791000Y-209540000D01*
X263831000Y-202483000D02*
X263831000Y-204960000D01*
X263831000Y-207040000D02*
X263831000Y-209517000D01*
X263871000Y-202507000D02*
X263871000Y-204960000D01*
X263871000Y-207040000D02*
X263871000Y-209493000D01*
X263911000Y-202531000D02*
X263911000Y-204960000D01*
X263911000Y-207040000D02*
X263911000Y-209469000D01*
X263951000Y-202556000D02*
X263951000Y-204960000D01*
X263951000Y-207040000D02*
X263951000Y-209444000D01*
X263991000Y-202582000D02*
X263991000Y-204960000D01*
X263991000Y-207040000D02*
X263991000Y-209418000D01*
X264031000Y-202608000D02*
X264031000Y-204960000D01*
X264031000Y-207040000D02*
X264031000Y-209392000D01*
X264071000Y-202635000D02*
X264071000Y-204960000D01*
X264071000Y-207040000D02*
X264071000Y-209365000D01*
X264111000Y-202662000D02*
X264111000Y-204960000D01*
X264111000Y-207040000D02*
X264111000Y-209338000D01*
X264151000Y-202691000D02*
X264151000Y-204960000D01*
X264151000Y-207040000D02*
X264151000Y-209309000D01*
X264191000Y-202720000D02*
X264191000Y-204960000D01*
X264191000Y-207040000D02*
X264191000Y-209280000D01*
X264231000Y-202750000D02*
X264231000Y-204960000D01*
X264231000Y-207040000D02*
X264231000Y-209250000D01*
X264271000Y-202780000D02*
X264271000Y-204960000D01*
X264271000Y-207040000D02*
X264271000Y-209220000D01*
X264311000Y-202811000D02*
X264311000Y-204960000D01*
X264311000Y-207040000D02*
X264311000Y-209189000D01*
X264351000Y-202844000D02*
X264351000Y-204960000D01*
X264351000Y-207040000D02*
X264351000Y-209156000D01*
X264391000Y-202876000D02*
X264391000Y-204960000D01*
X264391000Y-207040000D02*
X264391000Y-209124000D01*
X264431000Y-202910000D02*
X264431000Y-204960000D01*
X264431000Y-207040000D02*
X264431000Y-209090000D01*
X264471000Y-202945000D02*
X264471000Y-204960000D01*
X264471000Y-207040000D02*
X264471000Y-209055000D01*
X264511000Y-202981000D02*
X264511000Y-204960000D01*
X264511000Y-207040000D02*
X264511000Y-209019000D01*
X264551000Y-203017000D02*
X264551000Y-208983000D01*
X264591000Y-203055000D02*
X264591000Y-208945000D01*
X264631000Y-203093000D02*
X264631000Y-208907000D01*
X264671000Y-203133000D02*
X264671000Y-208867000D01*
X264711000Y-203174000D02*
X264711000Y-208826000D01*
X264751000Y-203216000D02*
X264751000Y-208784000D01*
X264791000Y-203259000D02*
X264791000Y-208741000D01*
X264831000Y-203303000D02*
X264831000Y-208697000D01*
X264871000Y-203349000D02*
X264871000Y-208651000D01*
X264911000Y-203396000D02*
X264911000Y-208604000D01*
X264951000Y-203444000D02*
X264951000Y-208556000D01*
X264991000Y-203495000D02*
X264991000Y-208505000D01*
X265031000Y-203546000D02*
X265031000Y-208454000D01*
X265071000Y-203600000D02*
X265071000Y-208400000D01*
X265111000Y-203655000D02*
X265111000Y-208345000D01*
X265151000Y-203713000D02*
X265151000Y-208287000D01*
X265191000Y-203772000D02*
X265191000Y-208228000D01*
X265231000Y-203834000D02*
X265231000Y-208166000D01*
X265271000Y-203898000D02*
X265271000Y-208102000D01*
X265311000Y-203966000D02*
X265311000Y-208034000D01*
X265351000Y-204036000D02*
X265351000Y-207964000D01*
X265391000Y-204110000D02*
X265391000Y-207890000D01*
X265431000Y-204187000D02*
X265431000Y-207813000D01*
X265471000Y-204269000D02*
X265471000Y-207731000D01*
X265511000Y-204355000D02*
X265511000Y-207645000D01*
X265551000Y-204448000D02*
X265551000Y-207552000D01*
X265591000Y-204547000D02*
X265591000Y-207453000D01*
X265631000Y-204654000D02*
X265631000Y-207346000D01*
X265671000Y-204771000D02*
X265671000Y-207229000D01*
X265711000Y-204902000D02*
X265711000Y-207098000D01*
X265751000Y-205052000D02*
X265751000Y-206948000D01*
X265791000Y-205232000D02*
X265791000Y-206768000D01*
X265831000Y-205467000D02*
X265831000Y-206533000D01*
X265870000Y-206000000D02*
G75*
G03*
X257630000Y-206000000I-4120000J0D01*
G01*
X257630000Y-206000000D02*
G75*
G03*
X265870000Y-206000000I4120000J0D01*
G01*
%TO.C,C9*%
X133630000Y-149630000D02*
X133630000Y-152370000D01*
X133630000Y-149630000D02*
X138870000Y-149630000D01*
X133630000Y-152370000D02*
X138870000Y-152370000D01*
X138870000Y-149630000D02*
X138870000Y-152370000D01*
%TO.C,J4*%
X181625000Y-97500000D02*
X181625000Y-102500000D01*
X183625000Y-96900000D02*
X183625000Y-97500000D01*
X183625000Y-96900000D02*
X186000000Y-96900000D01*
X183625000Y-97500000D02*
X181625000Y-97500000D01*
X183625000Y-102500000D02*
X181625000Y-102500000D01*
X183625000Y-102500000D02*
X183625000Y-103100000D01*
X187650000Y-96900000D02*
X189000000Y-96900000D01*
X190650000Y-96900000D02*
X193050000Y-96900000D01*
X193050000Y-96900000D02*
X193050000Y-95500000D01*
X194150000Y-103100000D02*
X183625000Y-103100000D01*
X194600000Y-96900000D02*
X194600000Y-95500000D01*
X194600000Y-96900000D02*
X195725000Y-96900000D01*
X195725000Y-103100000D02*
X195725000Y-96900000D01*
%TO.C,K2*%
X98400000Y-188500000D02*
X100600000Y-188500000D01*
X98400000Y-190600000D02*
X98400000Y-188500000D01*
X98600000Y-188700000D02*
X106400000Y-188700000D01*
X98600000Y-201400000D02*
X98600000Y-188700000D01*
X100762000Y-193683000D02*
X100762000Y-194318000D01*
X100762000Y-194318000D02*
X101422000Y-194318000D01*
X101422000Y-193810000D02*
X101422000Y-194826000D01*
X101422000Y-194826000D02*
X103327000Y-194826000D01*
X102946000Y-193810000D02*
X102311000Y-194826000D01*
X103327000Y-193810000D02*
X101422000Y-193810000D01*
X103327000Y-193810000D02*
X103327000Y-194826000D01*
X103962000Y-193683000D02*
X103962000Y-194318000D01*
X103962000Y-194318000D02*
X103327000Y-194318000D01*
X106400000Y-188700000D02*
X106400000Y-201400000D01*
X106400000Y-201400000D02*
X98600000Y-201400000D01*
%TO.C,R10*%
X76040000Y-140000000D02*
X76810000Y-140000000D01*
X76810000Y-138630000D02*
X76810000Y-141370000D01*
X76810000Y-141370000D02*
X83350000Y-141370000D01*
X83350000Y-138630000D02*
X76810000Y-138630000D01*
X83350000Y-141370000D02*
X83350000Y-138630000D01*
X84120000Y-140000000D02*
X83350000Y-140000000D01*
%TO.C,U2*%
X216160000Y-180670000D02*
X216160000Y-190950000D01*
X216160000Y-190950000D02*
X221460000Y-190950000D01*
X217810000Y-180670000D02*
X216160000Y-180670000D01*
X221460000Y-180670000D02*
X219810000Y-180670000D01*
X221460000Y-190950000D02*
X221460000Y-180670000D01*
X217810000Y-180670000D02*
G75*
G03*
X219810000Y-180670000I1000000J0D01*
G01*
%TO.C,RV2*%
X124900000Y-175620000D02*
X124900000Y-169400000D01*
X137880000Y-169380000D02*
X124900000Y-169380000D01*
X137880000Y-175620000D02*
X124900000Y-175620000D01*
X137880000Y-176120000D02*
X137880000Y-168880000D01*
X144880000Y-168880000D02*
X137880000Y-168880000D01*
X144880000Y-176120000D02*
X137880000Y-176120000D01*
X144880000Y-177370000D02*
X144880000Y-167630000D01*
X154671000Y-167630000D02*
X144880000Y-167630000D01*
X154671000Y-177370000D02*
X144880000Y-177370000D01*
X154671000Y-177370000D02*
X154671000Y-167630000D01*
%TO.C,C2*%
X288195225Y-133525000D02*
X288695225Y-133525000D01*
X288445225Y-133275000D02*
X288445225Y-133775000D01*
X291000000Y-132420000D02*
X291000000Y-133960000D01*
X291000000Y-136040000D02*
X291000000Y-137580000D01*
X291040000Y-132420000D02*
X291040000Y-133960000D01*
X291040000Y-136040000D02*
X291040000Y-137580000D01*
X291080000Y-132421000D02*
X291080000Y-133960000D01*
X291080000Y-136040000D02*
X291080000Y-137579000D01*
X291120000Y-132422000D02*
X291120000Y-133960000D01*
X291120000Y-136040000D02*
X291120000Y-137578000D01*
X291160000Y-132424000D02*
X291160000Y-133960000D01*
X291160000Y-136040000D02*
X291160000Y-137576000D01*
X291200000Y-132427000D02*
X291200000Y-133960000D01*
X291200000Y-136040000D02*
X291200000Y-137573000D01*
X291240000Y-132431000D02*
X291240000Y-133960000D01*
X291240000Y-136040000D02*
X291240000Y-137569000D01*
X291280000Y-132435000D02*
X291280000Y-133960000D01*
X291280000Y-136040000D02*
X291280000Y-137565000D01*
X291320000Y-132439000D02*
X291320000Y-133960000D01*
X291320000Y-136040000D02*
X291320000Y-137561000D01*
X291360000Y-132444000D02*
X291360000Y-133960000D01*
X291360000Y-136040000D02*
X291360000Y-137556000D01*
X291400000Y-132450000D02*
X291400000Y-133960000D01*
X291400000Y-136040000D02*
X291400000Y-137550000D01*
X291440000Y-132457000D02*
X291440000Y-133960000D01*
X291440000Y-136040000D02*
X291440000Y-137543000D01*
X291480000Y-132464000D02*
X291480000Y-133960000D01*
X291480000Y-136040000D02*
X291480000Y-137536000D01*
X291520000Y-132472000D02*
X291520000Y-133960000D01*
X291520000Y-136040000D02*
X291520000Y-137528000D01*
X291560000Y-132480000D02*
X291560000Y-133960000D01*
X291560000Y-136040000D02*
X291560000Y-137520000D01*
X291600000Y-132489000D02*
X291600000Y-133960000D01*
X291600000Y-136040000D02*
X291600000Y-137511000D01*
X291640000Y-132499000D02*
X291640000Y-133960000D01*
X291640000Y-136040000D02*
X291640000Y-137501000D01*
X291680000Y-132509000D02*
X291680000Y-133960000D01*
X291680000Y-136040000D02*
X291680000Y-137491000D01*
X291721000Y-132520000D02*
X291721000Y-133960000D01*
X291721000Y-136040000D02*
X291721000Y-137480000D01*
X291761000Y-132532000D02*
X291761000Y-133960000D01*
X291761000Y-136040000D02*
X291761000Y-137468000D01*
X291801000Y-132545000D02*
X291801000Y-133960000D01*
X291801000Y-136040000D02*
X291801000Y-137455000D01*
X291841000Y-132558000D02*
X291841000Y-133960000D01*
X291841000Y-136040000D02*
X291841000Y-137442000D01*
X291881000Y-132572000D02*
X291881000Y-133960000D01*
X291881000Y-136040000D02*
X291881000Y-137428000D01*
X291921000Y-132586000D02*
X291921000Y-133960000D01*
X291921000Y-136040000D02*
X291921000Y-137414000D01*
X291961000Y-132602000D02*
X291961000Y-133960000D01*
X291961000Y-136040000D02*
X291961000Y-137398000D01*
X292001000Y-132618000D02*
X292001000Y-133960000D01*
X292001000Y-136040000D02*
X292001000Y-137382000D01*
X292041000Y-132635000D02*
X292041000Y-133960000D01*
X292041000Y-136040000D02*
X292041000Y-137365000D01*
X292081000Y-132652000D02*
X292081000Y-133960000D01*
X292081000Y-136040000D02*
X292081000Y-137348000D01*
X292121000Y-132671000D02*
X292121000Y-133960000D01*
X292121000Y-136040000D02*
X292121000Y-137329000D01*
X292161000Y-132690000D02*
X292161000Y-133960000D01*
X292161000Y-136040000D02*
X292161000Y-137310000D01*
X292201000Y-132710000D02*
X292201000Y-133960000D01*
X292201000Y-136040000D02*
X292201000Y-137290000D01*
X292241000Y-132732000D02*
X292241000Y-133960000D01*
X292241000Y-136040000D02*
X292241000Y-137268000D01*
X292281000Y-132753000D02*
X292281000Y-133960000D01*
X292281000Y-136040000D02*
X292281000Y-137247000D01*
X292321000Y-132776000D02*
X292321000Y-133960000D01*
X292321000Y-136040000D02*
X292321000Y-137224000D01*
X292361000Y-132800000D02*
X292361000Y-133960000D01*
X292361000Y-136040000D02*
X292361000Y-137200000D01*
X292401000Y-132825000D02*
X292401000Y-133960000D01*
X292401000Y-136040000D02*
X292401000Y-137175000D01*
X292441000Y-132851000D02*
X292441000Y-133960000D01*
X292441000Y-136040000D02*
X292441000Y-137149000D01*
X292481000Y-132878000D02*
X292481000Y-133960000D01*
X292481000Y-136040000D02*
X292481000Y-137122000D01*
X292521000Y-132905000D02*
X292521000Y-133960000D01*
X292521000Y-136040000D02*
X292521000Y-137095000D01*
X292561000Y-132935000D02*
X292561000Y-133960000D01*
X292561000Y-136040000D02*
X292561000Y-137065000D01*
X292601000Y-132965000D02*
X292601000Y-133960000D01*
X292601000Y-136040000D02*
X292601000Y-137035000D01*
X292641000Y-132996000D02*
X292641000Y-133960000D01*
X292641000Y-136040000D02*
X292641000Y-137004000D01*
X292681000Y-133029000D02*
X292681000Y-133960000D01*
X292681000Y-136040000D02*
X292681000Y-136971000D01*
X292721000Y-133063000D02*
X292721000Y-133960000D01*
X292721000Y-136040000D02*
X292721000Y-136937000D01*
X292761000Y-133099000D02*
X292761000Y-133960000D01*
X292761000Y-136040000D02*
X292761000Y-136901000D01*
X292801000Y-133136000D02*
X292801000Y-133960000D01*
X292801000Y-136040000D02*
X292801000Y-136864000D01*
X292841000Y-133174000D02*
X292841000Y-133960000D01*
X292841000Y-136040000D02*
X292841000Y-136826000D01*
X292881000Y-133215000D02*
X292881000Y-133960000D01*
X292881000Y-136040000D02*
X292881000Y-136785000D01*
X292921000Y-133257000D02*
X292921000Y-133960000D01*
X292921000Y-136040000D02*
X292921000Y-136743000D01*
X292961000Y-133301000D02*
X292961000Y-133960000D01*
X292961000Y-136040000D02*
X292961000Y-136699000D01*
X293001000Y-133347000D02*
X293001000Y-133960000D01*
X293001000Y-136040000D02*
X293001000Y-136653000D01*
X293041000Y-133395000D02*
X293041000Y-136605000D01*
X293081000Y-133446000D02*
X293081000Y-136554000D01*
X293121000Y-133500000D02*
X293121000Y-136500000D01*
X293161000Y-133557000D02*
X293161000Y-136443000D01*
X293201000Y-133617000D02*
X293201000Y-136383000D01*
X293241000Y-133681000D02*
X293241000Y-136319000D01*
X293281000Y-133749000D02*
X293281000Y-136251000D01*
X293321000Y-133822000D02*
X293321000Y-136178000D01*
X293361000Y-133902000D02*
X293361000Y-136098000D01*
X293401000Y-133989000D02*
X293401000Y-136011000D01*
X293441000Y-134085000D02*
X293441000Y-135915000D01*
X293481000Y-134195000D02*
X293481000Y-135805000D01*
X293521000Y-134323000D02*
X293521000Y-135677000D01*
X293561000Y-134482000D02*
X293561000Y-135518000D01*
X293601000Y-134716000D02*
X293601000Y-135284000D01*
X293620000Y-135000000D02*
G75*
G03*
X288380000Y-135000000I-2620000J0D01*
G01*
X288380000Y-135000000D02*
G75*
G03*
X293620000Y-135000000I2620000J0D01*
G01*
%TO.C,U1*%
X76160000Y-116670000D02*
X76160000Y-126950000D01*
X76160000Y-126950000D02*
X81460000Y-126950000D01*
X77810000Y-116670000D02*
X76160000Y-116670000D01*
X81460000Y-116670000D02*
X79810000Y-116670000D01*
X81460000Y-126950000D02*
X81460000Y-116670000D01*
X77810000Y-116670000D02*
G75*
G03*
X79810000Y-116670000I1000000J0D01*
G01*
%TO.C,R9*%
X136040000Y-129000000D02*
X136810000Y-129000000D01*
X136810000Y-127630000D02*
X136810000Y-130370000D01*
X136810000Y-130370000D02*
X143350000Y-130370000D01*
X143350000Y-127630000D02*
X136810000Y-127630000D01*
X143350000Y-130370000D02*
X143350000Y-127630000D01*
X144120000Y-129000000D02*
X143350000Y-129000000D01*
%TO.C,C11*%
X88630000Y-160630000D02*
X88630000Y-163370000D01*
X88630000Y-160630000D02*
X93870000Y-160630000D01*
X88630000Y-163370000D02*
X93870000Y-163370000D01*
X93870000Y-160630000D02*
X93870000Y-163370000D01*
%TO.C,C8*%
X118630000Y-149630000D02*
X118630000Y-152370000D01*
X118630000Y-149630000D02*
X123870000Y-149630000D01*
X118630000Y-152370000D02*
X123870000Y-152370000D01*
X123870000Y-149630000D02*
X123870000Y-152370000D01*
%TO.C,R8*%
X121040000Y-129000000D02*
X121810000Y-129000000D01*
X121810000Y-127630000D02*
X121810000Y-130370000D01*
X121810000Y-130370000D02*
X128350000Y-130370000D01*
X128350000Y-127630000D02*
X121810000Y-127630000D01*
X128350000Y-130370000D02*
X128350000Y-127630000D01*
X129120000Y-129000000D02*
X128350000Y-129000000D01*
%TO.C,C20*%
X242340302Y-215685000D02*
X243140302Y-215685000D01*
X242740302Y-215285000D02*
X242740302Y-216085000D01*
X246750000Y-213920000D02*
X246750000Y-222080000D01*
X246790000Y-213920000D02*
X246790000Y-222080000D01*
X246830000Y-213920000D02*
X246830000Y-222080000D01*
X246870000Y-213921000D02*
X246870000Y-222079000D01*
X246910000Y-213923000D02*
X246910000Y-222077000D01*
X246950000Y-213924000D02*
X246950000Y-222076000D01*
X246990000Y-213926000D02*
X246990000Y-222074000D01*
X247030000Y-213929000D02*
X247030000Y-222071000D01*
X247070000Y-213932000D02*
X247070000Y-222068000D01*
X247110000Y-213935000D02*
X247110000Y-222065000D01*
X247150000Y-213939000D02*
X247150000Y-222061000D01*
X247190000Y-213943000D02*
X247190000Y-222057000D01*
X247230000Y-213948000D02*
X247230000Y-222052000D01*
X247270000Y-213952000D02*
X247270000Y-222048000D01*
X247310000Y-213958000D02*
X247310000Y-222042000D01*
X247350000Y-213963000D02*
X247350000Y-222037000D01*
X247390000Y-213970000D02*
X247390000Y-222030000D01*
X247430000Y-213976000D02*
X247430000Y-222024000D01*
X247471000Y-213983000D02*
X247471000Y-216960000D01*
X247471000Y-219040000D02*
X247471000Y-222017000D01*
X247511000Y-213990000D02*
X247511000Y-216960000D01*
X247511000Y-219040000D02*
X247511000Y-222010000D01*
X247551000Y-213998000D02*
X247551000Y-216960000D01*
X247551000Y-219040000D02*
X247551000Y-222002000D01*
X247591000Y-214006000D02*
X247591000Y-216960000D01*
X247591000Y-219040000D02*
X247591000Y-221994000D01*
X247631000Y-214015000D02*
X247631000Y-216960000D01*
X247631000Y-219040000D02*
X247631000Y-221985000D01*
X247671000Y-214024000D02*
X247671000Y-216960000D01*
X247671000Y-219040000D02*
X247671000Y-221976000D01*
X247711000Y-214033000D02*
X247711000Y-216960000D01*
X247711000Y-219040000D02*
X247711000Y-221967000D01*
X247751000Y-214043000D02*
X247751000Y-216960000D01*
X247751000Y-219040000D02*
X247751000Y-221957000D01*
X247791000Y-214053000D02*
X247791000Y-216960000D01*
X247791000Y-219040000D02*
X247791000Y-221947000D01*
X247831000Y-214064000D02*
X247831000Y-216960000D01*
X247831000Y-219040000D02*
X247831000Y-221936000D01*
X247871000Y-214075000D02*
X247871000Y-216960000D01*
X247871000Y-219040000D02*
X247871000Y-221925000D01*
X247911000Y-214086000D02*
X247911000Y-216960000D01*
X247911000Y-219040000D02*
X247911000Y-221914000D01*
X247951000Y-214098000D02*
X247951000Y-216960000D01*
X247951000Y-219040000D02*
X247951000Y-221902000D01*
X247991000Y-214111000D02*
X247991000Y-216960000D01*
X247991000Y-219040000D02*
X247991000Y-221889000D01*
X248031000Y-214123000D02*
X248031000Y-216960000D01*
X248031000Y-219040000D02*
X248031000Y-221877000D01*
X248071000Y-214137000D02*
X248071000Y-216960000D01*
X248071000Y-219040000D02*
X248071000Y-221863000D01*
X248111000Y-214150000D02*
X248111000Y-216960000D01*
X248111000Y-219040000D02*
X248111000Y-221850000D01*
X248151000Y-214165000D02*
X248151000Y-216960000D01*
X248151000Y-219040000D02*
X248151000Y-221835000D01*
X248191000Y-214179000D02*
X248191000Y-216960000D01*
X248191000Y-219040000D02*
X248191000Y-221821000D01*
X248231000Y-214195000D02*
X248231000Y-216960000D01*
X248231000Y-219040000D02*
X248231000Y-221805000D01*
X248271000Y-214210000D02*
X248271000Y-216960000D01*
X248271000Y-219040000D02*
X248271000Y-221790000D01*
X248311000Y-214226000D02*
X248311000Y-216960000D01*
X248311000Y-219040000D02*
X248311000Y-221774000D01*
X248351000Y-214243000D02*
X248351000Y-216960000D01*
X248351000Y-219040000D02*
X248351000Y-221757000D01*
X248391000Y-214260000D02*
X248391000Y-216960000D01*
X248391000Y-219040000D02*
X248391000Y-221740000D01*
X248431000Y-214278000D02*
X248431000Y-216960000D01*
X248431000Y-219040000D02*
X248431000Y-221722000D01*
X248471000Y-214296000D02*
X248471000Y-216960000D01*
X248471000Y-219040000D02*
X248471000Y-221704000D01*
X248511000Y-214314000D02*
X248511000Y-216960000D01*
X248511000Y-219040000D02*
X248511000Y-221686000D01*
X248551000Y-214334000D02*
X248551000Y-216960000D01*
X248551000Y-219040000D02*
X248551000Y-221666000D01*
X248591000Y-214353000D02*
X248591000Y-216960000D01*
X248591000Y-219040000D02*
X248591000Y-221647000D01*
X248631000Y-214373000D02*
X248631000Y-216960000D01*
X248631000Y-219040000D02*
X248631000Y-221627000D01*
X248671000Y-214394000D02*
X248671000Y-216960000D01*
X248671000Y-219040000D02*
X248671000Y-221606000D01*
X248711000Y-214416000D02*
X248711000Y-216960000D01*
X248711000Y-219040000D02*
X248711000Y-221584000D01*
X248751000Y-214438000D02*
X248751000Y-216960000D01*
X248751000Y-219040000D02*
X248751000Y-221562000D01*
X248791000Y-214460000D02*
X248791000Y-216960000D01*
X248791000Y-219040000D02*
X248791000Y-221540000D01*
X248831000Y-214483000D02*
X248831000Y-216960000D01*
X248831000Y-219040000D02*
X248831000Y-221517000D01*
X248871000Y-214507000D02*
X248871000Y-216960000D01*
X248871000Y-219040000D02*
X248871000Y-221493000D01*
X248911000Y-214531000D02*
X248911000Y-216960000D01*
X248911000Y-219040000D02*
X248911000Y-221469000D01*
X248951000Y-214556000D02*
X248951000Y-216960000D01*
X248951000Y-219040000D02*
X248951000Y-221444000D01*
X248991000Y-214582000D02*
X248991000Y-216960000D01*
X248991000Y-219040000D02*
X248991000Y-221418000D01*
X249031000Y-214608000D02*
X249031000Y-216960000D01*
X249031000Y-219040000D02*
X249031000Y-221392000D01*
X249071000Y-214635000D02*
X249071000Y-216960000D01*
X249071000Y-219040000D02*
X249071000Y-221365000D01*
X249111000Y-214662000D02*
X249111000Y-216960000D01*
X249111000Y-219040000D02*
X249111000Y-221338000D01*
X249151000Y-214691000D02*
X249151000Y-216960000D01*
X249151000Y-219040000D02*
X249151000Y-221309000D01*
X249191000Y-214720000D02*
X249191000Y-216960000D01*
X249191000Y-219040000D02*
X249191000Y-221280000D01*
X249231000Y-214750000D02*
X249231000Y-216960000D01*
X249231000Y-219040000D02*
X249231000Y-221250000D01*
X249271000Y-214780000D02*
X249271000Y-216960000D01*
X249271000Y-219040000D02*
X249271000Y-221220000D01*
X249311000Y-214811000D02*
X249311000Y-216960000D01*
X249311000Y-219040000D02*
X249311000Y-221189000D01*
X249351000Y-214844000D02*
X249351000Y-216960000D01*
X249351000Y-219040000D02*
X249351000Y-221156000D01*
X249391000Y-214876000D02*
X249391000Y-216960000D01*
X249391000Y-219040000D02*
X249391000Y-221124000D01*
X249431000Y-214910000D02*
X249431000Y-216960000D01*
X249431000Y-219040000D02*
X249431000Y-221090000D01*
X249471000Y-214945000D02*
X249471000Y-216960000D01*
X249471000Y-219040000D02*
X249471000Y-221055000D01*
X249511000Y-214981000D02*
X249511000Y-216960000D01*
X249511000Y-219040000D02*
X249511000Y-221019000D01*
X249551000Y-215017000D02*
X249551000Y-220983000D01*
X249591000Y-215055000D02*
X249591000Y-220945000D01*
X249631000Y-215093000D02*
X249631000Y-220907000D01*
X249671000Y-215133000D02*
X249671000Y-220867000D01*
X249711000Y-215174000D02*
X249711000Y-220826000D01*
X249751000Y-215216000D02*
X249751000Y-220784000D01*
X249791000Y-215259000D02*
X249791000Y-220741000D01*
X249831000Y-215303000D02*
X249831000Y-220697000D01*
X249871000Y-215349000D02*
X249871000Y-220651000D01*
X249911000Y-215396000D02*
X249911000Y-220604000D01*
X249951000Y-215444000D02*
X249951000Y-220556000D01*
X249991000Y-215495000D02*
X249991000Y-220505000D01*
X250031000Y-215546000D02*
X250031000Y-220454000D01*
X250071000Y-215600000D02*
X250071000Y-220400000D01*
X250111000Y-215655000D02*
X250111000Y-220345000D01*
X250151000Y-215713000D02*
X250151000Y-220287000D01*
X250191000Y-215772000D02*
X250191000Y-220228000D01*
X250231000Y-215834000D02*
X250231000Y-220166000D01*
X250271000Y-215898000D02*
X250271000Y-220102000D01*
X250311000Y-215966000D02*
X250311000Y-220034000D01*
X250351000Y-216036000D02*
X250351000Y-219964000D01*
X250391000Y-216110000D02*
X250391000Y-219890000D01*
X250431000Y-216187000D02*
X250431000Y-219813000D01*
X250471000Y-216269000D02*
X250471000Y-219731000D01*
X250511000Y-216355000D02*
X250511000Y-219645000D01*
X250551000Y-216448000D02*
X250551000Y-219552000D01*
X250591000Y-216547000D02*
X250591000Y-219453000D01*
X250631000Y-216654000D02*
X250631000Y-219346000D01*
X250671000Y-216771000D02*
X250671000Y-219229000D01*
X250711000Y-216902000D02*
X250711000Y-219098000D01*
X250751000Y-217052000D02*
X250751000Y-218948000D01*
X250791000Y-217232000D02*
X250791000Y-218768000D01*
X250831000Y-217467000D02*
X250831000Y-218533000D01*
X250870000Y-218000000D02*
G75*
G03*
X242630000Y-218000000I-4120000J0D01*
G01*
X242630000Y-218000000D02*
G75*
G03*
X250870000Y-218000000I4120000J0D01*
G01*
%TO.C,TP2*%
X67950000Y-125620000D02*
G75*
G03*
X66050000Y-125620000I-950000J0D01*
G01*
X66050000Y-125620000D02*
G75*
G03*
X67950000Y-125620000I950000J0D01*
G01*
%TO.C,J2*%
X101625000Y-97500000D02*
X101625000Y-102500000D01*
X103625000Y-96900000D02*
X103625000Y-97500000D01*
X103625000Y-96900000D02*
X106000000Y-96900000D01*
X103625000Y-97500000D02*
X101625000Y-97500000D01*
X103625000Y-102500000D02*
X101625000Y-102500000D01*
X103625000Y-102500000D02*
X103625000Y-103100000D01*
X107650000Y-96900000D02*
X109000000Y-96900000D01*
X110650000Y-96900000D02*
X113050000Y-96900000D01*
X113050000Y-96900000D02*
X113050000Y-95500000D01*
X114150000Y-103100000D02*
X103625000Y-103100000D01*
X114600000Y-96900000D02*
X114600000Y-95500000D01*
X114600000Y-96900000D02*
X115725000Y-96900000D01*
X115725000Y-103100000D02*
X115725000Y-96900000D01*
%TO.C,C12*%
X103630000Y-160630000D02*
X103630000Y-163370000D01*
X103630000Y-160630000D02*
X108870000Y-160630000D01*
X103630000Y-163370000D02*
X108870000Y-163370000D01*
X108870000Y-160630000D02*
X108870000Y-163370000D01*
%TO.C,J1*%
X268380000Y-102400000D02*
X268380000Y-103300000D01*
X268380000Y-106000000D02*
X268380000Y-108730000D01*
X268380000Y-108730000D02*
X277570000Y-108730000D01*
X268500000Y-99320000D02*
X277450000Y-99320000D01*
X277570000Y-102400000D02*
X277570000Y-103300000D01*
X277570000Y-106000000D02*
X277570000Y-108730000D01*
%TO.C,K3*%
X123400000Y-188500000D02*
X125600000Y-188500000D01*
X123400000Y-190600000D02*
X123400000Y-188500000D01*
X123600000Y-188700000D02*
X131400000Y-188700000D01*
X123600000Y-201400000D02*
X123600000Y-188700000D01*
X125762000Y-193683000D02*
X125762000Y-194318000D01*
X125762000Y-194318000D02*
X126422000Y-194318000D01*
X126422000Y-193810000D02*
X126422000Y-194826000D01*
X126422000Y-194826000D02*
X128327000Y-194826000D01*
X127946000Y-193810000D02*
X127311000Y-194826000D01*
X128327000Y-193810000D02*
X126422000Y-193810000D01*
X128327000Y-193810000D02*
X128327000Y-194826000D01*
X128962000Y-193683000D02*
X128962000Y-194318000D01*
X128962000Y-194318000D02*
X128327000Y-194318000D01*
X131400000Y-188700000D02*
X131400000Y-201400000D01*
X131400000Y-201400000D02*
X123600000Y-201400000D01*
%TO.C,C16*%
X243195225Y-204525000D02*
X243695225Y-204525000D01*
X243445225Y-204275000D02*
X243445225Y-204775000D01*
X246000000Y-203420000D02*
X246000000Y-204960000D01*
X246000000Y-207040000D02*
X246000000Y-208580000D01*
X246040000Y-203420000D02*
X246040000Y-204960000D01*
X246040000Y-207040000D02*
X246040000Y-208580000D01*
X246080000Y-203421000D02*
X246080000Y-204960000D01*
X246080000Y-207040000D02*
X246080000Y-208579000D01*
X246120000Y-203422000D02*
X246120000Y-204960000D01*
X246120000Y-207040000D02*
X246120000Y-208578000D01*
X246160000Y-203424000D02*
X246160000Y-204960000D01*
X246160000Y-207040000D02*
X246160000Y-208576000D01*
X246200000Y-203427000D02*
X246200000Y-204960000D01*
X246200000Y-207040000D02*
X246200000Y-208573000D01*
X246240000Y-203431000D02*
X246240000Y-204960000D01*
X246240000Y-207040000D02*
X246240000Y-208569000D01*
X246280000Y-203435000D02*
X246280000Y-204960000D01*
X246280000Y-207040000D02*
X246280000Y-208565000D01*
X246320000Y-203439000D02*
X246320000Y-204960000D01*
X246320000Y-207040000D02*
X246320000Y-208561000D01*
X246360000Y-203444000D02*
X246360000Y-204960000D01*
X246360000Y-207040000D02*
X246360000Y-208556000D01*
X246400000Y-203450000D02*
X246400000Y-204960000D01*
X246400000Y-207040000D02*
X246400000Y-208550000D01*
X246440000Y-203457000D02*
X246440000Y-204960000D01*
X246440000Y-207040000D02*
X246440000Y-208543000D01*
X246480000Y-203464000D02*
X246480000Y-204960000D01*
X246480000Y-207040000D02*
X246480000Y-208536000D01*
X246520000Y-203472000D02*
X246520000Y-204960000D01*
X246520000Y-207040000D02*
X246520000Y-208528000D01*
X246560000Y-203480000D02*
X246560000Y-204960000D01*
X246560000Y-207040000D02*
X246560000Y-208520000D01*
X246600000Y-203489000D02*
X246600000Y-204960000D01*
X246600000Y-207040000D02*
X246600000Y-208511000D01*
X246640000Y-203499000D02*
X246640000Y-204960000D01*
X246640000Y-207040000D02*
X246640000Y-208501000D01*
X246680000Y-203509000D02*
X246680000Y-204960000D01*
X246680000Y-207040000D02*
X246680000Y-208491000D01*
X246721000Y-203520000D02*
X246721000Y-204960000D01*
X246721000Y-207040000D02*
X246721000Y-208480000D01*
X246761000Y-203532000D02*
X246761000Y-204960000D01*
X246761000Y-207040000D02*
X246761000Y-208468000D01*
X246801000Y-203545000D02*
X246801000Y-204960000D01*
X246801000Y-207040000D02*
X246801000Y-208455000D01*
X246841000Y-203558000D02*
X246841000Y-204960000D01*
X246841000Y-207040000D02*
X246841000Y-208442000D01*
X246881000Y-203572000D02*
X246881000Y-204960000D01*
X246881000Y-207040000D02*
X246881000Y-208428000D01*
X246921000Y-203586000D02*
X246921000Y-204960000D01*
X246921000Y-207040000D02*
X246921000Y-208414000D01*
X246961000Y-203602000D02*
X246961000Y-204960000D01*
X246961000Y-207040000D02*
X246961000Y-208398000D01*
X247001000Y-203618000D02*
X247001000Y-204960000D01*
X247001000Y-207040000D02*
X247001000Y-208382000D01*
X247041000Y-203635000D02*
X247041000Y-204960000D01*
X247041000Y-207040000D02*
X247041000Y-208365000D01*
X247081000Y-203652000D02*
X247081000Y-204960000D01*
X247081000Y-207040000D02*
X247081000Y-208348000D01*
X247121000Y-203671000D02*
X247121000Y-204960000D01*
X247121000Y-207040000D02*
X247121000Y-208329000D01*
X247161000Y-203690000D02*
X247161000Y-204960000D01*
X247161000Y-207040000D02*
X247161000Y-208310000D01*
X247201000Y-203710000D02*
X247201000Y-204960000D01*
X247201000Y-207040000D02*
X247201000Y-208290000D01*
X247241000Y-203732000D02*
X247241000Y-204960000D01*
X247241000Y-207040000D02*
X247241000Y-208268000D01*
X247281000Y-203753000D02*
X247281000Y-204960000D01*
X247281000Y-207040000D02*
X247281000Y-208247000D01*
X247321000Y-203776000D02*
X247321000Y-204960000D01*
X247321000Y-207040000D02*
X247321000Y-208224000D01*
X247361000Y-203800000D02*
X247361000Y-204960000D01*
X247361000Y-207040000D02*
X247361000Y-208200000D01*
X247401000Y-203825000D02*
X247401000Y-204960000D01*
X247401000Y-207040000D02*
X247401000Y-208175000D01*
X247441000Y-203851000D02*
X247441000Y-204960000D01*
X247441000Y-207040000D02*
X247441000Y-208149000D01*
X247481000Y-203878000D02*
X247481000Y-204960000D01*
X247481000Y-207040000D02*
X247481000Y-208122000D01*
X247521000Y-203905000D02*
X247521000Y-204960000D01*
X247521000Y-207040000D02*
X247521000Y-208095000D01*
X247561000Y-203935000D02*
X247561000Y-204960000D01*
X247561000Y-207040000D02*
X247561000Y-208065000D01*
X247601000Y-203965000D02*
X247601000Y-204960000D01*
X247601000Y-207040000D02*
X247601000Y-208035000D01*
X247641000Y-203996000D02*
X247641000Y-204960000D01*
X247641000Y-207040000D02*
X247641000Y-208004000D01*
X247681000Y-204029000D02*
X247681000Y-204960000D01*
X247681000Y-207040000D02*
X247681000Y-207971000D01*
X247721000Y-204063000D02*
X247721000Y-204960000D01*
X247721000Y-207040000D02*
X247721000Y-207937000D01*
X247761000Y-204099000D02*
X247761000Y-204960000D01*
X247761000Y-207040000D02*
X247761000Y-207901000D01*
X247801000Y-204136000D02*
X247801000Y-204960000D01*
X247801000Y-207040000D02*
X247801000Y-207864000D01*
X247841000Y-204174000D02*
X247841000Y-204960000D01*
X247841000Y-207040000D02*
X247841000Y-207826000D01*
X247881000Y-204215000D02*
X247881000Y-204960000D01*
X247881000Y-207040000D02*
X247881000Y-207785000D01*
X247921000Y-204257000D02*
X247921000Y-204960000D01*
X247921000Y-207040000D02*
X247921000Y-207743000D01*
X247961000Y-204301000D02*
X247961000Y-204960000D01*
X247961000Y-207040000D02*
X247961000Y-207699000D01*
X248001000Y-204347000D02*
X248001000Y-204960000D01*
X248001000Y-207040000D02*
X248001000Y-207653000D01*
X248041000Y-204395000D02*
X248041000Y-207605000D01*
X248081000Y-204446000D02*
X248081000Y-207554000D01*
X248121000Y-204500000D02*
X248121000Y-207500000D01*
X248161000Y-204557000D02*
X248161000Y-207443000D01*
X248201000Y-204617000D02*
X248201000Y-207383000D01*
X248241000Y-204681000D02*
X248241000Y-207319000D01*
X248281000Y-204749000D02*
X248281000Y-207251000D01*
X248321000Y-204822000D02*
X248321000Y-207178000D01*
X248361000Y-204902000D02*
X248361000Y-207098000D01*
X248401000Y-204989000D02*
X248401000Y-207011000D01*
X248441000Y-205085000D02*
X248441000Y-206915000D01*
X248481000Y-205195000D02*
X248481000Y-206805000D01*
X248521000Y-205323000D02*
X248521000Y-206677000D01*
X248561000Y-205482000D02*
X248561000Y-206518000D01*
X248601000Y-205716000D02*
X248601000Y-206284000D01*
X248620000Y-206000000D02*
G75*
G03*
X243380000Y-206000000I-2620000J0D01*
G01*
X243380000Y-206000000D02*
G75*
G03*
X248620000Y-206000000I2620000J0D01*
G01*
%TO.C,SW4*%
X191150000Y-229250000D02*
X191150000Y-230500000D01*
X191440000Y-229540000D02*
X191440000Y-235510000D01*
X191440000Y-235510000D02*
X199060000Y-235510000D01*
X191450000Y-229550000D02*
X191450000Y-230300000D01*
X191450000Y-230300000D02*
X193250000Y-230300000D01*
X191450000Y-231800000D02*
X192200000Y-231800000D01*
X192200000Y-231800000D02*
X192200000Y-234750000D01*
X192200000Y-234750000D02*
X195250000Y-234750000D01*
X192400000Y-229250000D02*
X191150000Y-229250000D01*
X193250000Y-229550000D02*
X191450000Y-229550000D01*
X193250000Y-230300000D02*
X193250000Y-229550000D01*
X194750000Y-229550000D02*
X194750000Y-230300000D01*
X194750000Y-230300000D02*
X195750000Y-230300000D01*
X195750000Y-229550000D02*
X194750000Y-229550000D01*
X195750000Y-230300000D02*
X195750000Y-229550000D01*
X197250000Y-229550000D02*
X197250000Y-230300000D01*
X197250000Y-230300000D02*
X199050000Y-230300000D01*
X198300000Y-231800000D02*
X198300000Y-234750000D01*
X198300000Y-234750000D02*
X195250000Y-234750000D01*
X199050000Y-229550000D02*
X197250000Y-229550000D01*
X199050000Y-230300000D02*
X199050000Y-229550000D01*
X199050000Y-231800000D02*
X198300000Y-231800000D01*
X199060000Y-229540000D02*
X191440000Y-229540000D01*
X199060000Y-235510000D02*
X199060000Y-229540000D01*
%TO.C,R14*%
X246040000Y-182000000D02*
X246810000Y-182000000D01*
X246810000Y-180630000D02*
X246810000Y-183370000D01*
X246810000Y-183370000D02*
X253350000Y-183370000D01*
X253350000Y-180630000D02*
X246810000Y-180630000D01*
X253350000Y-183370000D02*
X253350000Y-180630000D01*
X254120000Y-182000000D02*
X253350000Y-182000000D01*
%TO.C,R6*%
X91040000Y-129000000D02*
X91810000Y-129000000D01*
X91810000Y-127630000D02*
X91810000Y-130370000D01*
X91810000Y-130370000D02*
X98350000Y-130370000D01*
X98350000Y-127630000D02*
X91810000Y-127630000D01*
X98350000Y-130370000D02*
X98350000Y-127630000D01*
X99120000Y-129000000D02*
X98350000Y-129000000D01*
%TO.C,R12*%
X106040000Y-140000000D02*
X106810000Y-140000000D01*
X106810000Y-138630000D02*
X106810000Y-141370000D01*
X106810000Y-141370000D02*
X113350000Y-141370000D01*
X113350000Y-138630000D02*
X106810000Y-138630000D01*
X113350000Y-141370000D02*
X113350000Y-138630000D01*
X114120000Y-140000000D02*
X113350000Y-140000000D01*
%TO.C,R13*%
X231040000Y-182000000D02*
X231810000Y-182000000D01*
X231810000Y-180630000D02*
X231810000Y-183370000D01*
X231810000Y-183370000D02*
X238350000Y-183370000D01*
X238350000Y-180630000D02*
X231810000Y-180630000D01*
X238350000Y-183370000D02*
X238350000Y-180630000D01*
X239120000Y-182000000D02*
X238350000Y-182000000D01*
%TO.C,D1*%
X291340000Y-120000000D02*
X292360000Y-120000000D01*
X292360000Y-118530000D02*
X292360000Y-121470000D01*
X292360000Y-121470000D02*
X297800000Y-121470000D01*
X293140000Y-118530000D02*
X293140000Y-121470000D01*
X293260000Y-118530000D02*
X293260000Y-121470000D01*
X293380000Y-118530000D02*
X293380000Y-121470000D01*
X297800000Y-118530000D02*
X292360000Y-118530000D01*
X297800000Y-121470000D02*
X297800000Y-118530000D01*
X298820000Y-120000000D02*
X297800000Y-120000000D01*
%TO.C,R11*%
X91040000Y-140000000D02*
X91810000Y-140000000D01*
X91810000Y-138630000D02*
X91810000Y-141370000D01*
X91810000Y-141370000D02*
X98350000Y-141370000D01*
X98350000Y-138630000D02*
X91810000Y-138630000D01*
X98350000Y-141370000D02*
X98350000Y-138630000D01*
X99120000Y-140000000D02*
X98350000Y-140000000D01*
%TO.C,R18*%
X246040000Y-194000000D02*
X246810000Y-194000000D01*
X246810000Y-192630000D02*
X246810000Y-195370000D01*
X246810000Y-195370000D02*
X253350000Y-195370000D01*
X253350000Y-192630000D02*
X246810000Y-192630000D01*
X253350000Y-195370000D02*
X253350000Y-192630000D01*
X254120000Y-194000000D02*
X253350000Y-194000000D01*
%TO.C,J5*%
X221625000Y-97500000D02*
X221625000Y-102500000D01*
X223625000Y-96900000D02*
X223625000Y-97500000D01*
X223625000Y-96900000D02*
X226000000Y-96900000D01*
X223625000Y-97500000D02*
X221625000Y-97500000D01*
X223625000Y-102500000D02*
X221625000Y-102500000D01*
X223625000Y-102500000D02*
X223625000Y-103100000D01*
X227650000Y-96900000D02*
X229000000Y-96900000D01*
X230650000Y-96900000D02*
X233050000Y-96900000D01*
X233050000Y-96900000D02*
X233050000Y-95500000D01*
X234150000Y-103100000D02*
X223625000Y-103100000D01*
X234600000Y-96900000D02*
X234600000Y-95500000D01*
X234600000Y-96900000D02*
X235725000Y-96900000D01*
X235725000Y-103100000D02*
X235725000Y-96900000D01*
%TO.C,C1*%
X268630000Y-133630000D02*
X268630000Y-136370000D01*
X268630000Y-133630000D02*
X273870000Y-133630000D01*
X268630000Y-136370000D02*
X273870000Y-136370000D01*
X273870000Y-133630000D02*
X273870000Y-136370000D01*
%TO.C,TP1*%
X250950000Y-120000000D02*
G75*
G03*
X249050000Y-120000000I-950000J0D01*
G01*
X249050000Y-120000000D02*
G75*
G03*
X250950000Y-120000000I950000J0D01*
G01*
%TO.C,R2*%
X106040000Y-118000000D02*
X106810000Y-118000000D01*
X106810000Y-116630000D02*
X106810000Y-119370000D01*
X106810000Y-119370000D02*
X113350000Y-119370000D01*
X113350000Y-116630000D02*
X106810000Y-116630000D01*
X113350000Y-119370000D02*
X113350000Y-116630000D01*
X114120000Y-118000000D02*
X113350000Y-118000000D01*
%TO.C,F1*%
X267249000Y-119000000D02*
X267249000Y-122200000D01*
X267249000Y-119000000D02*
X269121000Y-119000000D01*
X267249000Y-122200000D02*
X274222000Y-122200000D01*
X270879000Y-119000000D02*
X277850000Y-119000000D01*
X275979000Y-122200000D02*
X277850000Y-122200000D01*
X277850000Y-119000000D02*
X277850000Y-122200000D01*
%TO.C,C6*%
X88630000Y-149630000D02*
X88630000Y-152370000D01*
X88630000Y-149630000D02*
X93870000Y-149630000D01*
X88630000Y-152370000D02*
X93870000Y-152370000D01*
X93870000Y-149630000D02*
X93870000Y-152370000D01*
%TO.C,R19*%
X261040000Y-194000000D02*
X261810000Y-194000000D01*
X261810000Y-192630000D02*
X261810000Y-195370000D01*
X261810000Y-195370000D02*
X268350000Y-195370000D01*
X268350000Y-192630000D02*
X261810000Y-192630000D01*
X268350000Y-195370000D02*
X268350000Y-192630000D01*
X269120000Y-194000000D02*
X268350000Y-194000000D01*
%TO.C,SW1*%
X137150000Y-229250000D02*
X137150000Y-230500000D01*
X137440000Y-229540000D02*
X137440000Y-235510000D01*
X137440000Y-235510000D02*
X145060000Y-235510000D01*
X137450000Y-229550000D02*
X137450000Y-230300000D01*
X137450000Y-230300000D02*
X139250000Y-230300000D01*
X137450000Y-231800000D02*
X138200000Y-231800000D01*
X138200000Y-231800000D02*
X138200000Y-234750000D01*
X138200000Y-234750000D02*
X141250000Y-234750000D01*
X138400000Y-229250000D02*
X137150000Y-229250000D01*
X139250000Y-229550000D02*
X137450000Y-229550000D01*
X139250000Y-230300000D02*
X139250000Y-229550000D01*
X140750000Y-229550000D02*
X140750000Y-230300000D01*
X140750000Y-230300000D02*
X141750000Y-230300000D01*
X141750000Y-229550000D02*
X140750000Y-229550000D01*
X141750000Y-230300000D02*
X141750000Y-229550000D01*
X143250000Y-229550000D02*
X143250000Y-230300000D01*
X143250000Y-230300000D02*
X145050000Y-230300000D01*
X144300000Y-231800000D02*
X144300000Y-234750000D01*
X144300000Y-234750000D02*
X141250000Y-234750000D01*
X145050000Y-229550000D02*
X143250000Y-229550000D01*
X145050000Y-230300000D02*
X145050000Y-229550000D01*
X145050000Y-231800000D02*
X144300000Y-231800000D01*
X145060000Y-229540000D02*
X137440000Y-229540000D01*
X145060000Y-235510000D02*
X145060000Y-229540000D01*
%TO.C,C14*%
X133630000Y-160630000D02*
X133630000Y-163370000D01*
X133630000Y-160630000D02*
X138870000Y-160630000D01*
X133630000Y-163370000D02*
X138870000Y-163370000D01*
X138870000Y-160630000D02*
X138870000Y-163370000D01*
%TO.C,C3*%
X118195225Y-138525000D02*
X118695225Y-138525000D01*
X118445225Y-138275000D02*
X118445225Y-138775000D01*
X121000000Y-137420000D02*
X121000000Y-138960000D01*
X121000000Y-141040000D02*
X121000000Y-142580000D01*
X121040000Y-137420000D02*
X121040000Y-138960000D01*
X121040000Y-141040000D02*
X121040000Y-142580000D01*
X121080000Y-137421000D02*
X121080000Y-138960000D01*
X121080000Y-141040000D02*
X121080000Y-142579000D01*
X121120000Y-137422000D02*
X121120000Y-138960000D01*
X121120000Y-141040000D02*
X121120000Y-142578000D01*
X121160000Y-137424000D02*
X121160000Y-138960000D01*
X121160000Y-141040000D02*
X121160000Y-142576000D01*
X121200000Y-137427000D02*
X121200000Y-138960000D01*
X121200000Y-141040000D02*
X121200000Y-142573000D01*
X121240000Y-137431000D02*
X121240000Y-138960000D01*
X121240000Y-141040000D02*
X121240000Y-142569000D01*
X121280000Y-137435000D02*
X121280000Y-138960000D01*
X121280000Y-141040000D02*
X121280000Y-142565000D01*
X121320000Y-137439000D02*
X121320000Y-138960000D01*
X121320000Y-141040000D02*
X121320000Y-142561000D01*
X121360000Y-137444000D02*
X121360000Y-138960000D01*
X121360000Y-141040000D02*
X121360000Y-142556000D01*
X121400000Y-137450000D02*
X121400000Y-138960000D01*
X121400000Y-141040000D02*
X121400000Y-142550000D01*
X121440000Y-137457000D02*
X121440000Y-138960000D01*
X121440000Y-141040000D02*
X121440000Y-142543000D01*
X121480000Y-137464000D02*
X121480000Y-138960000D01*
X121480000Y-141040000D02*
X121480000Y-142536000D01*
X121520000Y-137472000D02*
X121520000Y-138960000D01*
X121520000Y-141040000D02*
X121520000Y-142528000D01*
X121560000Y-137480000D02*
X121560000Y-138960000D01*
X121560000Y-141040000D02*
X121560000Y-142520000D01*
X121600000Y-137489000D02*
X121600000Y-138960000D01*
X121600000Y-141040000D02*
X121600000Y-142511000D01*
X121640000Y-137499000D02*
X121640000Y-138960000D01*
X121640000Y-141040000D02*
X121640000Y-142501000D01*
X121680000Y-137509000D02*
X121680000Y-138960000D01*
X121680000Y-141040000D02*
X121680000Y-142491000D01*
X121721000Y-137520000D02*
X121721000Y-138960000D01*
X121721000Y-141040000D02*
X121721000Y-142480000D01*
X121761000Y-137532000D02*
X121761000Y-138960000D01*
X121761000Y-141040000D02*
X121761000Y-142468000D01*
X121801000Y-137545000D02*
X121801000Y-138960000D01*
X121801000Y-141040000D02*
X121801000Y-142455000D01*
X121841000Y-137558000D02*
X121841000Y-138960000D01*
X121841000Y-141040000D02*
X121841000Y-142442000D01*
X121881000Y-137572000D02*
X121881000Y-138960000D01*
X121881000Y-141040000D02*
X121881000Y-142428000D01*
X121921000Y-137586000D02*
X121921000Y-138960000D01*
X121921000Y-141040000D02*
X121921000Y-142414000D01*
X121961000Y-137602000D02*
X121961000Y-138960000D01*
X121961000Y-141040000D02*
X121961000Y-142398000D01*
X122001000Y-137618000D02*
X122001000Y-138960000D01*
X122001000Y-141040000D02*
X122001000Y-142382000D01*
X122041000Y-137635000D02*
X122041000Y-138960000D01*
X122041000Y-141040000D02*
X122041000Y-142365000D01*
X122081000Y-137652000D02*
X122081000Y-138960000D01*
X122081000Y-141040000D02*
X122081000Y-142348000D01*
X122121000Y-137671000D02*
X122121000Y-138960000D01*
X122121000Y-141040000D02*
X122121000Y-142329000D01*
X122161000Y-137690000D02*
X122161000Y-138960000D01*
X122161000Y-141040000D02*
X122161000Y-142310000D01*
X122201000Y-137710000D02*
X122201000Y-138960000D01*
X122201000Y-141040000D02*
X122201000Y-142290000D01*
X122241000Y-137732000D02*
X122241000Y-138960000D01*
X122241000Y-141040000D02*
X122241000Y-142268000D01*
X122281000Y-137753000D02*
X122281000Y-138960000D01*
X122281000Y-141040000D02*
X122281000Y-142247000D01*
X122321000Y-137776000D02*
X122321000Y-138960000D01*
X122321000Y-141040000D02*
X122321000Y-142224000D01*
X122361000Y-137800000D02*
X122361000Y-138960000D01*
X122361000Y-141040000D02*
X122361000Y-142200000D01*
X122401000Y-137825000D02*
X122401000Y-138960000D01*
X122401000Y-141040000D02*
X122401000Y-142175000D01*
X122441000Y-137851000D02*
X122441000Y-138960000D01*
X122441000Y-141040000D02*
X122441000Y-142149000D01*
X122481000Y-137878000D02*
X122481000Y-138960000D01*
X122481000Y-141040000D02*
X122481000Y-142122000D01*
X122521000Y-137905000D02*
X122521000Y-138960000D01*
X122521000Y-141040000D02*
X122521000Y-142095000D01*
X122561000Y-137935000D02*
X122561000Y-138960000D01*
X122561000Y-141040000D02*
X122561000Y-142065000D01*
X122601000Y-137965000D02*
X122601000Y-138960000D01*
X122601000Y-141040000D02*
X122601000Y-142035000D01*
X122641000Y-137996000D02*
X122641000Y-138960000D01*
X122641000Y-141040000D02*
X122641000Y-142004000D01*
X122681000Y-138029000D02*
X122681000Y-138960000D01*
X122681000Y-141040000D02*
X122681000Y-141971000D01*
X122721000Y-138063000D02*
X122721000Y-138960000D01*
X122721000Y-141040000D02*
X122721000Y-141937000D01*
X122761000Y-138099000D02*
X122761000Y-138960000D01*
X122761000Y-141040000D02*
X122761000Y-141901000D01*
X122801000Y-138136000D02*
X122801000Y-138960000D01*
X122801000Y-141040000D02*
X122801000Y-141864000D01*
X122841000Y-138174000D02*
X122841000Y-138960000D01*
X122841000Y-141040000D02*
X122841000Y-141826000D01*
X122881000Y-138215000D02*
X122881000Y-138960000D01*
X122881000Y-141040000D02*
X122881000Y-141785000D01*
X122921000Y-138257000D02*
X122921000Y-138960000D01*
X122921000Y-141040000D02*
X122921000Y-141743000D01*
X122961000Y-138301000D02*
X122961000Y-138960000D01*
X122961000Y-141040000D02*
X122961000Y-141699000D01*
X123001000Y-138347000D02*
X123001000Y-138960000D01*
X123001000Y-141040000D02*
X123001000Y-141653000D01*
X123041000Y-138395000D02*
X123041000Y-141605000D01*
X123081000Y-138446000D02*
X123081000Y-141554000D01*
X123121000Y-138500000D02*
X123121000Y-141500000D01*
X123161000Y-138557000D02*
X123161000Y-141443000D01*
X123201000Y-138617000D02*
X123201000Y-141383000D01*
X123241000Y-138681000D02*
X123241000Y-141319000D01*
X123281000Y-138749000D02*
X123281000Y-141251000D01*
X123321000Y-138822000D02*
X123321000Y-141178000D01*
X123361000Y-138902000D02*
X123361000Y-141098000D01*
X123401000Y-138989000D02*
X123401000Y-141011000D01*
X123441000Y-139085000D02*
X123441000Y-140915000D01*
X123481000Y-139195000D02*
X123481000Y-140805000D01*
X123521000Y-139323000D02*
X123521000Y-140677000D01*
X123561000Y-139482000D02*
X123561000Y-140518000D01*
X123601000Y-139716000D02*
X123601000Y-140284000D01*
X123620000Y-140000000D02*
G75*
G03*
X118380000Y-140000000I-2620000J0D01*
G01*
X118380000Y-140000000D02*
G75*
G03*
X123620000Y-140000000I2620000J0D01*
G01*
%TO.C,D2*%
X76040000Y-203000000D02*
X76690000Y-203000000D01*
X76690000Y-201880000D02*
X76690000Y-204120000D01*
X76690000Y-204120000D02*
X80930000Y-204120000D01*
X77290000Y-201880000D02*
X77290000Y-204120000D01*
X77410000Y-201880000D02*
X77410000Y-204120000D01*
X77530000Y-201880000D02*
X77530000Y-204120000D01*
X80930000Y-201880000D02*
X76690000Y-201880000D01*
X80930000Y-204120000D02*
X80930000Y-201880000D01*
X81580000Y-203000000D02*
X80930000Y-203000000D01*
%TO.C,SW3*%
X173150000Y-229250000D02*
X173150000Y-230500000D01*
X173440000Y-229540000D02*
X173440000Y-235510000D01*
X173440000Y-235510000D02*
X181060000Y-235510000D01*
X173450000Y-229550000D02*
X173450000Y-230300000D01*
X173450000Y-230300000D02*
X175250000Y-230300000D01*
X173450000Y-231800000D02*
X174200000Y-231800000D01*
X174200000Y-231800000D02*
X174200000Y-234750000D01*
X174200000Y-234750000D02*
X177250000Y-234750000D01*
X174400000Y-229250000D02*
X173150000Y-229250000D01*
X175250000Y-229550000D02*
X173450000Y-229550000D01*
X175250000Y-230300000D02*
X175250000Y-229550000D01*
X176750000Y-229550000D02*
X176750000Y-230300000D01*
X176750000Y-230300000D02*
X177750000Y-230300000D01*
X177750000Y-229550000D02*
X176750000Y-229550000D01*
X177750000Y-230300000D02*
X177750000Y-229550000D01*
X179250000Y-229550000D02*
X179250000Y-230300000D01*
X179250000Y-230300000D02*
X181050000Y-230300000D01*
X180300000Y-231800000D02*
X180300000Y-234750000D01*
X180300000Y-234750000D02*
X177250000Y-234750000D01*
X181050000Y-229550000D02*
X179250000Y-229550000D01*
X181050000Y-230300000D02*
X181050000Y-229550000D01*
X181050000Y-231800000D02*
X180300000Y-231800000D01*
X181060000Y-229540000D02*
X173440000Y-229540000D01*
X181060000Y-235510000D02*
X181060000Y-229540000D01*
%TO.C,C4*%
X133630000Y-138630000D02*
X133630000Y-141370000D01*
X133630000Y-138630000D02*
X138870000Y-138630000D01*
X133630000Y-141370000D02*
X138870000Y-141370000D01*
X138870000Y-138630000D02*
X138870000Y-141370000D01*
%TO.C,D5*%
X151040000Y-203000000D02*
X151690000Y-203000000D01*
X151690000Y-201880000D02*
X151690000Y-204120000D01*
X151690000Y-204120000D02*
X155930000Y-204120000D01*
X152290000Y-201880000D02*
X152290000Y-204120000D01*
X152410000Y-201880000D02*
X152410000Y-204120000D01*
X152530000Y-201880000D02*
X152530000Y-204120000D01*
X155930000Y-201880000D02*
X151690000Y-201880000D01*
X155930000Y-204120000D02*
X155930000Y-201880000D01*
X156580000Y-203000000D02*
X155930000Y-203000000D01*
%TO.C,C10*%
X73630000Y-160630000D02*
X73630000Y-163370000D01*
X73630000Y-160630000D02*
X78870000Y-160630000D01*
X73630000Y-163370000D02*
X78870000Y-163370000D01*
X78870000Y-160630000D02*
X78870000Y-163370000D01*
%TO.C,C19*%
X228195225Y-216525000D02*
X228695225Y-216525000D01*
X228445225Y-216275000D02*
X228445225Y-216775000D01*
X231000000Y-215420000D02*
X231000000Y-216960000D01*
X231000000Y-219040000D02*
X231000000Y-220580000D01*
X231040000Y-215420000D02*
X231040000Y-216960000D01*
X231040000Y-219040000D02*
X231040000Y-220580000D01*
X231080000Y-215421000D02*
X231080000Y-216960000D01*
X231080000Y-219040000D02*
X231080000Y-220579000D01*
X231120000Y-215422000D02*
X231120000Y-216960000D01*
X231120000Y-219040000D02*
X231120000Y-220578000D01*
X231160000Y-215424000D02*
X231160000Y-216960000D01*
X231160000Y-219040000D02*
X231160000Y-220576000D01*
X231200000Y-215427000D02*
X231200000Y-216960000D01*
X231200000Y-219040000D02*
X231200000Y-220573000D01*
X231240000Y-215431000D02*
X231240000Y-216960000D01*
X231240000Y-219040000D02*
X231240000Y-220569000D01*
X231280000Y-215435000D02*
X231280000Y-216960000D01*
X231280000Y-219040000D02*
X231280000Y-220565000D01*
X231320000Y-215439000D02*
X231320000Y-216960000D01*
X231320000Y-219040000D02*
X231320000Y-220561000D01*
X231360000Y-215444000D02*
X231360000Y-216960000D01*
X231360000Y-219040000D02*
X231360000Y-220556000D01*
X231400000Y-215450000D02*
X231400000Y-216960000D01*
X231400000Y-219040000D02*
X231400000Y-220550000D01*
X231440000Y-215457000D02*
X231440000Y-216960000D01*
X231440000Y-219040000D02*
X231440000Y-220543000D01*
X231480000Y-215464000D02*
X231480000Y-216960000D01*
X231480000Y-219040000D02*
X231480000Y-220536000D01*
X231520000Y-215472000D02*
X231520000Y-216960000D01*
X231520000Y-219040000D02*
X231520000Y-220528000D01*
X231560000Y-215480000D02*
X231560000Y-216960000D01*
X231560000Y-219040000D02*
X231560000Y-220520000D01*
X231600000Y-215489000D02*
X231600000Y-216960000D01*
X231600000Y-219040000D02*
X231600000Y-220511000D01*
X231640000Y-215499000D02*
X231640000Y-216960000D01*
X231640000Y-219040000D02*
X231640000Y-220501000D01*
X231680000Y-215509000D02*
X231680000Y-216960000D01*
X231680000Y-219040000D02*
X231680000Y-220491000D01*
X231721000Y-215520000D02*
X231721000Y-216960000D01*
X231721000Y-219040000D02*
X231721000Y-220480000D01*
X231761000Y-215532000D02*
X231761000Y-216960000D01*
X231761000Y-219040000D02*
X231761000Y-220468000D01*
X231801000Y-215545000D02*
X231801000Y-216960000D01*
X231801000Y-219040000D02*
X231801000Y-220455000D01*
X231841000Y-215558000D02*
X231841000Y-216960000D01*
X231841000Y-219040000D02*
X231841000Y-220442000D01*
X231881000Y-215572000D02*
X231881000Y-216960000D01*
X231881000Y-219040000D02*
X231881000Y-220428000D01*
X231921000Y-215586000D02*
X231921000Y-216960000D01*
X231921000Y-219040000D02*
X231921000Y-220414000D01*
X231961000Y-215602000D02*
X231961000Y-216960000D01*
X231961000Y-219040000D02*
X231961000Y-220398000D01*
X232001000Y-215618000D02*
X232001000Y-216960000D01*
X232001000Y-219040000D02*
X232001000Y-220382000D01*
X232041000Y-215635000D02*
X232041000Y-216960000D01*
X232041000Y-219040000D02*
X232041000Y-220365000D01*
X232081000Y-215652000D02*
X232081000Y-216960000D01*
X232081000Y-219040000D02*
X232081000Y-220348000D01*
X232121000Y-215671000D02*
X232121000Y-216960000D01*
X232121000Y-219040000D02*
X232121000Y-220329000D01*
X232161000Y-215690000D02*
X232161000Y-216960000D01*
X232161000Y-219040000D02*
X232161000Y-220310000D01*
X232201000Y-215710000D02*
X232201000Y-216960000D01*
X232201000Y-219040000D02*
X232201000Y-220290000D01*
X232241000Y-215732000D02*
X232241000Y-216960000D01*
X232241000Y-219040000D02*
X232241000Y-220268000D01*
X232281000Y-215753000D02*
X232281000Y-216960000D01*
X232281000Y-219040000D02*
X232281000Y-220247000D01*
X232321000Y-215776000D02*
X232321000Y-216960000D01*
X232321000Y-219040000D02*
X232321000Y-220224000D01*
X232361000Y-215800000D02*
X232361000Y-216960000D01*
X232361000Y-219040000D02*
X232361000Y-220200000D01*
X232401000Y-215825000D02*
X232401000Y-216960000D01*
X232401000Y-219040000D02*
X232401000Y-220175000D01*
X232441000Y-215851000D02*
X232441000Y-216960000D01*
X232441000Y-219040000D02*
X232441000Y-220149000D01*
X232481000Y-215878000D02*
X232481000Y-216960000D01*
X232481000Y-219040000D02*
X232481000Y-220122000D01*
X232521000Y-215905000D02*
X232521000Y-216960000D01*
X232521000Y-219040000D02*
X232521000Y-220095000D01*
X232561000Y-215935000D02*
X232561000Y-216960000D01*
X232561000Y-219040000D02*
X232561000Y-220065000D01*
X232601000Y-215965000D02*
X232601000Y-216960000D01*
X232601000Y-219040000D02*
X232601000Y-220035000D01*
X232641000Y-215996000D02*
X232641000Y-216960000D01*
X232641000Y-219040000D02*
X232641000Y-220004000D01*
X232681000Y-216029000D02*
X232681000Y-216960000D01*
X232681000Y-219040000D02*
X232681000Y-219971000D01*
X232721000Y-216063000D02*
X232721000Y-216960000D01*
X232721000Y-219040000D02*
X232721000Y-219937000D01*
X232761000Y-216099000D02*
X232761000Y-216960000D01*
X232761000Y-219040000D02*
X232761000Y-219901000D01*
X232801000Y-216136000D02*
X232801000Y-216960000D01*
X232801000Y-219040000D02*
X232801000Y-219864000D01*
X232841000Y-216174000D02*
X232841000Y-216960000D01*
X232841000Y-219040000D02*
X232841000Y-219826000D01*
X232881000Y-216215000D02*
X232881000Y-216960000D01*
X232881000Y-219040000D02*
X232881000Y-219785000D01*
X232921000Y-216257000D02*
X232921000Y-216960000D01*
X232921000Y-219040000D02*
X232921000Y-219743000D01*
X232961000Y-216301000D02*
X232961000Y-216960000D01*
X232961000Y-219040000D02*
X232961000Y-219699000D01*
X233001000Y-216347000D02*
X233001000Y-216960000D01*
X233001000Y-219040000D02*
X233001000Y-219653000D01*
X233041000Y-216395000D02*
X233041000Y-219605000D01*
X233081000Y-216446000D02*
X233081000Y-219554000D01*
X233121000Y-216500000D02*
X233121000Y-219500000D01*
X233161000Y-216557000D02*
X233161000Y-219443000D01*
X233201000Y-216617000D02*
X233201000Y-219383000D01*
X233241000Y-216681000D02*
X233241000Y-219319000D01*
X233281000Y-216749000D02*
X233281000Y-219251000D01*
X233321000Y-216822000D02*
X233321000Y-219178000D01*
X233361000Y-216902000D02*
X233361000Y-219098000D01*
X233401000Y-216989000D02*
X233401000Y-219011000D01*
X233441000Y-217085000D02*
X233441000Y-218915000D01*
X233481000Y-217195000D02*
X233481000Y-218805000D01*
X233521000Y-217323000D02*
X233521000Y-218677000D01*
X233561000Y-217482000D02*
X233561000Y-218518000D01*
X233601000Y-217716000D02*
X233601000Y-218284000D01*
X233620000Y-218000000D02*
G75*
G03*
X228380000Y-218000000I-2620000J0D01*
G01*
X228380000Y-218000000D02*
G75*
G03*
X233620000Y-218000000I2620000J0D01*
G01*
%TO.C,RV1*%
X84900000Y-175620000D02*
X84900000Y-169400000D01*
X97880000Y-169380000D02*
X84900000Y-169380000D01*
X97880000Y-175620000D02*
X84900000Y-175620000D01*
X97880000Y-176120000D02*
X97880000Y-168880000D01*
X104880000Y-168880000D02*
X97880000Y-168880000D01*
X104880000Y-176120000D02*
X97880000Y-176120000D01*
X104880000Y-177370000D02*
X104880000Y-167630000D01*
X114671000Y-167630000D02*
X104880000Y-167630000D01*
X114671000Y-177370000D02*
X104880000Y-177370000D01*
X114671000Y-177370000D02*
X114671000Y-167630000D01*
%TO.C,R4*%
X136040000Y-118000000D02*
X136810000Y-118000000D01*
X136810000Y-116630000D02*
X136810000Y-119370000D01*
X136810000Y-119370000D02*
X143350000Y-119370000D01*
X143350000Y-116630000D02*
X136810000Y-116630000D01*
X143350000Y-119370000D02*
X143350000Y-116630000D01*
X144120000Y-118000000D02*
X143350000Y-118000000D01*
%TO.C,C13*%
X118630000Y-160630000D02*
X118630000Y-163370000D01*
X118630000Y-160630000D02*
X123870000Y-160630000D01*
X118630000Y-163370000D02*
X123870000Y-163370000D01*
X123870000Y-160630000D02*
X123870000Y-163370000D01*
%TO.C,R5*%
X76040000Y-129000000D02*
X76810000Y-129000000D01*
X76810000Y-127630000D02*
X76810000Y-130370000D01*
X76810000Y-130370000D02*
X83350000Y-130370000D01*
X83350000Y-127630000D02*
X76810000Y-127630000D01*
X83350000Y-130370000D02*
X83350000Y-127630000D01*
X84120000Y-129000000D02*
X83350000Y-129000000D01*
%TO.C,R15*%
X261040000Y-182000000D02*
X261810000Y-182000000D01*
X261810000Y-180630000D02*
X261810000Y-183370000D01*
X261810000Y-183370000D02*
X268350000Y-183370000D01*
X268350000Y-180630000D02*
X261810000Y-180630000D01*
X268350000Y-183370000D02*
X268350000Y-180630000D01*
X269120000Y-182000000D02*
X268350000Y-182000000D01*
%TO.C,K1*%
X73400000Y-188500000D02*
X75600000Y-188500000D01*
X73400000Y-190600000D02*
X73400000Y-188500000D01*
X73600000Y-188700000D02*
X81400000Y-188700000D01*
X73600000Y-201400000D02*
X73600000Y-188700000D01*
X75762000Y-193683000D02*
X75762000Y-194318000D01*
X75762000Y-194318000D02*
X76422000Y-194318000D01*
X76422000Y-193810000D02*
X76422000Y-194826000D01*
X76422000Y-194826000D02*
X78327000Y-194826000D01*
X77946000Y-193810000D02*
X77311000Y-194826000D01*
X78327000Y-193810000D02*
X76422000Y-193810000D01*
X78327000Y-193810000D02*
X78327000Y-194826000D01*
X78962000Y-193683000D02*
X78962000Y-194318000D01*
X78962000Y-194318000D02*
X78327000Y-194318000D01*
X81400000Y-188700000D02*
X81400000Y-201400000D01*
X81400000Y-201400000D02*
X73600000Y-201400000D01*
%TO.C,J6*%
X221625000Y-229500000D02*
X221625000Y-234500000D01*
X223625000Y-228900000D02*
X223625000Y-229500000D01*
X223625000Y-228900000D02*
X226000000Y-228900000D01*
X223625000Y-229500000D02*
X221625000Y-229500000D01*
X223625000Y-234500000D02*
X221625000Y-234500000D01*
X223625000Y-234500000D02*
X223625000Y-235100000D01*
X227650000Y-228900000D02*
X229000000Y-228900000D01*
X230650000Y-228900000D02*
X233050000Y-228900000D01*
X233050000Y-228900000D02*
X233050000Y-227500000D01*
X234150000Y-235100000D02*
X223625000Y-235100000D01*
X234600000Y-228900000D02*
X234600000Y-227500000D01*
X234600000Y-228900000D02*
X235725000Y-228900000D01*
X235725000Y-235100000D02*
X235725000Y-228900000D01*
%TO.C,D4*%
X126040000Y-203000000D02*
X126690000Y-203000000D01*
X126690000Y-201880000D02*
X126690000Y-204120000D01*
X126690000Y-204120000D02*
X130930000Y-204120000D01*
X127290000Y-201880000D02*
X127290000Y-204120000D01*
X127410000Y-201880000D02*
X127410000Y-204120000D01*
X127530000Y-201880000D02*
X127530000Y-204120000D01*
X130930000Y-201880000D02*
X126690000Y-201880000D01*
X130930000Y-204120000D02*
X130930000Y-201880000D01*
X131580000Y-203000000D02*
X130930000Y-203000000D01*
%TO.C,SW2*%
X155150000Y-229250000D02*
X155150000Y-230500000D01*
X155440000Y-229540000D02*
X155440000Y-235510000D01*
X155440000Y-235510000D02*
X163060000Y-235510000D01*
X155450000Y-229550000D02*
X155450000Y-230300000D01*
X155450000Y-230300000D02*
X157250000Y-230300000D01*
X155450000Y-231800000D02*
X156200000Y-231800000D01*
X156200000Y-231800000D02*
X156200000Y-234750000D01*
X156200000Y-234750000D02*
X159250000Y-234750000D01*
X156400000Y-229250000D02*
X155150000Y-229250000D01*
X157250000Y-229550000D02*
X155450000Y-229550000D01*
X157250000Y-230300000D02*
X157250000Y-229550000D01*
X158750000Y-229550000D02*
X158750000Y-230300000D01*
X158750000Y-230300000D02*
X159750000Y-230300000D01*
X159750000Y-229550000D02*
X158750000Y-229550000D01*
X159750000Y-230300000D02*
X159750000Y-229550000D01*
X161250000Y-229550000D02*
X161250000Y-230300000D01*
X161250000Y-230300000D02*
X163050000Y-230300000D01*
X162300000Y-231800000D02*
X162300000Y-234750000D01*
X162300000Y-234750000D02*
X159250000Y-234750000D01*
X163050000Y-229550000D02*
X161250000Y-229550000D01*
X163050000Y-230300000D02*
X163050000Y-229550000D01*
X163050000Y-231800000D02*
X162300000Y-231800000D01*
X163060000Y-229540000D02*
X155440000Y-229540000D01*
X163060000Y-235510000D02*
X163060000Y-229540000D01*
%TO.C,RV3*%
X164900000Y-175620000D02*
X164900000Y-169400000D01*
X177880000Y-169380000D02*
X164900000Y-169380000D01*
X177880000Y-175620000D02*
X164900000Y-175620000D01*
X177880000Y-176120000D02*
X177880000Y-168880000D01*
X184880000Y-168880000D02*
X177880000Y-168880000D01*
X184880000Y-176120000D02*
X177880000Y-176120000D01*
X184880000Y-177370000D02*
X184880000Y-167630000D01*
X194671000Y-167630000D02*
X184880000Y-167630000D01*
X194671000Y-177370000D02*
X184880000Y-177370000D01*
X194671000Y-177370000D02*
X194671000Y-167630000D01*
%TO.C,R17*%
X231040000Y-194000000D02*
X231810000Y-194000000D01*
X231810000Y-192630000D02*
X231810000Y-195370000D01*
X231810000Y-195370000D02*
X238350000Y-195370000D01*
X238350000Y-192630000D02*
X231810000Y-192630000D01*
X238350000Y-195370000D02*
X238350000Y-192630000D01*
X239120000Y-194000000D02*
X238350000Y-194000000D01*
%TO.C,R7*%
X106040000Y-129000000D02*
X106810000Y-129000000D01*
X106810000Y-127630000D02*
X106810000Y-130370000D01*
X106810000Y-130370000D02*
X113350000Y-130370000D01*
X113350000Y-127630000D02*
X106810000Y-127630000D01*
X113350000Y-130370000D02*
X113350000Y-127630000D01*
X114120000Y-129000000D02*
X113350000Y-129000000D01*
%TO.C,R3*%
X121040000Y-118000000D02*
X121810000Y-118000000D01*
X121810000Y-116630000D02*
X121810000Y-119370000D01*
X121810000Y-119370000D02*
X128350000Y-119370000D01*
X128350000Y-116630000D02*
X121810000Y-116630000D01*
X128350000Y-119370000D02*
X128350000Y-116630000D01*
X129120000Y-118000000D02*
X128350000Y-118000000D01*
%TO.C,C18*%
X213630000Y-216630000D02*
X213630000Y-219370000D01*
X213630000Y-216630000D02*
X218870000Y-216630000D01*
X213630000Y-219370000D02*
X218870000Y-219370000D01*
X218870000Y-216630000D02*
X218870000Y-219370000D01*
%TO.C,SW5*%
X209150000Y-229250000D02*
X209150000Y-230500000D01*
X209440000Y-229540000D02*
X209440000Y-235510000D01*
X209440000Y-235510000D02*
X217060000Y-235510000D01*
X209450000Y-229550000D02*
X209450000Y-230300000D01*
X209450000Y-230300000D02*
X211250000Y-230300000D01*
X209450000Y-231800000D02*
X210200000Y-231800000D01*
X210200000Y-231800000D02*
X210200000Y-234750000D01*
X210200000Y-234750000D02*
X213250000Y-234750000D01*
X210400000Y-229250000D02*
X209150000Y-229250000D01*
X211250000Y-229550000D02*
X209450000Y-229550000D01*
X211250000Y-230300000D02*
X211250000Y-229550000D01*
X212750000Y-229550000D02*
X212750000Y-230300000D01*
X212750000Y-230300000D02*
X213750000Y-230300000D01*
X213750000Y-229550000D02*
X212750000Y-229550000D01*
X213750000Y-230300000D02*
X213750000Y-229550000D01*
X215250000Y-229550000D02*
X215250000Y-230300000D01*
X215250000Y-230300000D02*
X217050000Y-230300000D01*
X216300000Y-231800000D02*
X216300000Y-234750000D01*
X216300000Y-234750000D02*
X213250000Y-234750000D01*
X217050000Y-229550000D02*
X215250000Y-229550000D01*
X217050000Y-230300000D02*
X217050000Y-229550000D01*
X217050000Y-231800000D02*
X216300000Y-231800000D01*
X217060000Y-229540000D02*
X209440000Y-229540000D01*
X217060000Y-235510000D02*
X217060000Y-229540000D01*
%TO.C,K4*%
X148400000Y-188500000D02*
X150600000Y-188500000D01*
X148400000Y-190600000D02*
X148400000Y-188500000D01*
X148600000Y-188700000D02*
X156400000Y-188700000D01*
X148600000Y-201400000D02*
X148600000Y-188700000D01*
X150762000Y-193683000D02*
X150762000Y-194318000D01*
X150762000Y-194318000D02*
X151422000Y-194318000D01*
X151422000Y-193810000D02*
X151422000Y-194826000D01*
X151422000Y-194826000D02*
X153327000Y-194826000D01*
X152946000Y-193810000D02*
X152311000Y-194826000D01*
X153327000Y-193810000D02*
X151422000Y-193810000D01*
X153327000Y-193810000D02*
X153327000Y-194826000D01*
X153962000Y-193683000D02*
X153962000Y-194318000D01*
X153962000Y-194318000D02*
X153327000Y-194318000D01*
X156400000Y-188700000D02*
X156400000Y-201400000D01*
X156400000Y-201400000D02*
X148600000Y-201400000D01*
%TO.C,C15*%
X228630000Y-204630000D02*
X228630000Y-207370000D01*
X228630000Y-204630000D02*
X233870000Y-204630000D01*
X228630000Y-207370000D02*
X233870000Y-207370000D01*
X233870000Y-204630000D02*
X233870000Y-207370000D01*
%TO.C,R16*%
X216040000Y-194000000D02*
X216810000Y-194000000D01*
X216810000Y-192630000D02*
X216810000Y-195370000D01*
X216810000Y-195370000D02*
X223350000Y-195370000D01*
X223350000Y-192630000D02*
X216810000Y-192630000D01*
X223350000Y-195370000D02*
X223350000Y-192630000D01*
X224120000Y-194000000D02*
X223350000Y-194000000D01*
%TO.C,R1*%
X91040000Y-118000000D02*
X91810000Y-118000000D01*
X91810000Y-116630000D02*
X91810000Y-119370000D01*
X91810000Y-119370000D02*
X98350000Y-119370000D01*
X98350000Y-116630000D02*
X91810000Y-116630000D01*
X98350000Y-119370000D02*
X98350000Y-116630000D01*
X99120000Y-118000000D02*
X98350000Y-118000000D01*
%TO.C,C21*%
X258630000Y-216630000D02*
X258630000Y-219370000D01*
X258630000Y-216630000D02*
X263870000Y-216630000D01*
X258630000Y-219370000D02*
X263870000Y-219370000D01*
X263870000Y-216630000D02*
X263870000Y-219370000D01*
%TO.C,D3*%
X101040000Y-203000000D02*
X101690000Y-203000000D01*
X101690000Y-201880000D02*
X101690000Y-204120000D01*
X101690000Y-204120000D02*
X105930000Y-204120000D01*
X102290000Y-201880000D02*
X102290000Y-204120000D01*
X102410000Y-201880000D02*
X102410000Y-204120000D01*
X102530000Y-201880000D02*
X102530000Y-204120000D01*
X105930000Y-201880000D02*
X101690000Y-201880000D01*
X105930000Y-204120000D02*
X105930000Y-201880000D01*
X106580000Y-203000000D02*
X105930000Y-203000000D01*
%TO.C,C7*%
X103630000Y-149630000D02*
X103630000Y-152370000D01*
X103630000Y-149630000D02*
X108870000Y-149630000D01*
X103630000Y-152370000D02*
X108870000Y-152370000D01*
X108870000Y-149630000D02*
X108870000Y-152370000D01*
%TO.C,C5*%
X73630000Y-149630000D02*
X73630000Y-152370000D01*
X73630000Y-149630000D02*
X78870000Y-149630000D01*
X73630000Y-152370000D02*
X78870000Y-152370000D01*
X78870000Y-149630000D02*
X78870000Y-152370000D01*
%TO.C,R20*%
X216040000Y-206000000D02*
X216810000Y-206000000D01*
X216810000Y-204630000D02*
X216810000Y-207370000D01*
X216810000Y-207370000D02*
X223350000Y-207370000D01*
X223350000Y-204630000D02*
X216810000Y-204630000D01*
X223350000Y-207370000D02*
X223350000Y-204630000D01*
X224120000Y-206000000D02*
X223350000Y-206000000D01*
%TD*%
M02*
