M48
; DRILL file {KiCad 7.0.11+dfsg-1build4} date Thu Jul 23 16:34:22 2026
; FORMAT={-:-/ absolute / metric / decimal}
; #@! TF.CreationDate,2026-07-23T16:34:22-03:00
; #@! TF.GenerationSoftware,Kicad,Pcbnew,7.0.11+dfsg-1build4
; #@! TF.FileFunction,MixedPlating,1,4
FMAT,2
METRIC
; #@! TA.AperFunction,Plated,PTH,ViaDrill
T1C0.300
; #@! TA.AperFunction,Plated,PTH,ViaDrill
T2C0.350
; #@! TA.AperFunction,Plated,PTH,ComponentDrill
T3C0.400
; #@! TA.AperFunction,Plated,PTH,ComponentDrill
T4C0.600
; #@! TA.AperFunction,Plated,PTH,ComponentDrill
T5C0.700
; #@! TA.AperFunction,Plated,PTH,ComponentDrill
T6C0.800
; #@! TA.AperFunction,Plated,PTH,ComponentDrill
T7C1.000
; #@! TA.AperFunction,Plated,PTH,ComponentDrill
T8C1.010
; #@! TA.AperFunction,Plated,PTH,ComponentDrill
T9C1.100
; #@! TA.AperFunction,NonPlated,NPTH,ComponentDrill
T10C1.500
; #@! TA.AperFunction,NonPlated,NPTH,ComponentDrill
T11C3.200
%
G90
G05
T1
X87.658Y-104.752
X88.189Y-95.248
X91.188Y-98.248
X95.267Y-173.677
X105.641Y-167.428
X108.807Y-148.293
X108.856Y-98.281
X113.009Y-168.136
X116.903Y-170.08
X124.137Y-101.748
X126.486Y-98.252
X129.027Y-160.549
X129.581Y-143.5
X135.998Y-130.71
X138.255Y-104.752
X138.896Y-158.896
X140.714Y-158.208
X151.719Y-98.252
X157.099Y-98.604
X226.355Y-225.471
X228.761Y-230.252
X228.829Y-104.752
T2
X106.825Y-96.75
X146.825Y-96.75
X186.825Y-96.75
X226.825Y-96.75
X227.525Y-227.95
T3
X270.0Y-100.0
X270.0Y-101.35
X270.85Y-100.0
X270.85Y-101.35
X271.7Y-100.0
X271.7Y-101.35
X272.55Y-100.0
X272.55Y-101.35
X273.4Y-100.0
X273.4Y-101.35
X274.25Y-100.0
X274.25Y-101.35
X275.1Y-100.0
X275.1Y-101.35
X275.95Y-100.0
X275.95Y-101.35
T5
X67.0Y-125.62
X250.0Y-120.0
T6
X75.0Y-118.0
X75.0Y-120.54
X75.0Y-123.08
X75.0Y-125.62
X75.0Y-129.0
X75.0Y-140.0
X75.0Y-151.0
X75.0Y-162.0
X75.0Y-203.0
X77.5Y-151.0
X77.5Y-162.0
X82.62Y-118.0
X82.62Y-120.54
X82.62Y-123.08
X82.62Y-125.62
X82.62Y-203.0
X85.16Y-129.0
X85.16Y-140.0
X90.0Y-118.0
X90.0Y-129.0
X90.0Y-140.0
X90.0Y-151.0
X90.0Y-162.0
X92.5Y-151.0
X92.5Y-162.0
X100.0Y-203.0
X100.16Y-118.0
X100.16Y-129.0
X100.16Y-140.0
X105.0Y-118.0
X105.0Y-129.0
X105.0Y-140.0
X105.0Y-151.0
X105.0Y-162.0
X107.5Y-151.0
X107.5Y-162.0
X107.62Y-203.0
X115.16Y-118.0
X115.16Y-129.0
X115.16Y-140.0
X120.0Y-118.0
X120.0Y-129.0
X120.0Y-140.0
X120.0Y-151.0
X120.0Y-162.0
X122.0Y-140.0
X122.5Y-151.0
X122.5Y-162.0
X125.0Y-203.0
X130.16Y-118.0
X130.16Y-129.0
X132.62Y-203.0
X135.0Y-118.0
X135.0Y-129.0
X135.0Y-140.0
X135.0Y-151.0
X135.0Y-162.0
X137.5Y-140.0
X137.5Y-151.0
X137.5Y-162.0
X145.16Y-118.0
X145.16Y-129.0
X150.0Y-203.0
X157.62Y-203.0
X215.0Y-182.0
X215.0Y-184.54
X215.0Y-187.08
X215.0Y-189.62
X215.0Y-194.0
X215.0Y-206.0
X215.0Y-218.0
X217.5Y-218.0
X222.62Y-182.0
X222.62Y-184.54
X222.62Y-187.08
X222.62Y-189.62
X225.16Y-194.0
X225.16Y-206.0
X230.0Y-182.0
X230.0Y-194.0
X230.0Y-206.0
X230.0Y-218.0
X232.0Y-218.0
X232.5Y-206.0
X240.16Y-182.0
X240.16Y-194.0
X245.0Y-182.0
X245.0Y-194.0
X245.0Y-206.0
X245.0Y-218.0
X247.0Y-206.0
X248.5Y-218.0
X255.16Y-182.0
X255.16Y-194.0
X260.0Y-182.0
X260.0Y-194.0
X260.0Y-206.0
X260.0Y-218.0
X262.5Y-218.0
X263.5Y-206.0
X270.0Y-135.0
X270.16Y-182.0
X270.16Y-194.0
X272.5Y-135.0
X290.0Y-135.0
X292.0Y-135.0
T7
X75.0Y-190.0
X75.0Y-192.54
X75.0Y-200.16
X80.08Y-190.0
X80.08Y-192.54
X80.08Y-200.16
X100.0Y-190.0
X100.0Y-192.54
X100.0Y-200.16
X105.08Y-190.0
X105.08Y-192.54
X105.08Y-200.16
X110.0Y-170.0
X110.0Y-172.5
X110.0Y-175.0
X112.5Y-170.0
X112.5Y-172.5
X112.5Y-175.0
X125.0Y-190.0
X125.0Y-192.54
X125.0Y-200.16
X130.08Y-190.0
X130.08Y-192.54
X130.08Y-200.16
X140.0Y-232.0
X142.5Y-232.0
X150.0Y-170.0
X150.0Y-172.5
X150.0Y-175.0
X150.0Y-190.0
X150.0Y-192.54
X150.0Y-200.16
X152.5Y-170.0
X152.5Y-172.5
X152.5Y-175.0
X155.08Y-190.0
X155.08Y-192.54
X155.08Y-200.16
X158.0Y-232.0
X160.5Y-232.0
X176.0Y-232.0
X178.5Y-232.0
X190.0Y-170.0
X190.0Y-172.5
X190.0Y-175.0
X192.5Y-170.0
X192.5Y-172.5
X192.5Y-175.0
X194.0Y-232.0
X196.5Y-232.0
X212.0Y-232.0
X214.5Y-232.0
X230.0Y-170.0
X230.0Y-172.5
X230.0Y-175.0
X232.5Y-170.0
X232.5Y-172.5
X232.5Y-175.0
X270.0Y-170.0
X270.0Y-172.5
X270.0Y-175.0
X272.5Y-170.0
X272.5Y-172.5
X272.5Y-175.0
T8
X270.0Y-120.0
X275.1Y-121.2
T9
X290.0Y-120.0
X300.16Y-120.0
T10
X105.225Y-100.0
X112.225Y-100.0
X145.225Y-100.0
X152.225Y-100.0
X185.225Y-100.0
X192.225Y-100.0
X225.225Y-100.0
X225.225Y-232.0
X232.225Y-100.0
X232.225Y-232.0
T11
X66.0Y-91.0
X66.0Y-239.0
X319.0Y-91.0
X319.0Y-239.0
T4
X268.65Y-100.23G85X268.65Y-101.73
G05
X268.65Y-103.96G85X268.65Y-104.76
G05
X277.3Y-100.23G85X277.3Y-101.73
G05
X277.3Y-103.96G85X277.3Y-104.76
G05
M30
