%TF.GenerationSoftware,KiCad,Pcbnew,7.0.11+dfsg-1build4*%
%TF.CreationDate,2026-07-23T16:34:21-03:00*%
%TF.ProjectId,MeetingHub-4,4d656574-696e-4674-9875-622d342e6b69,rev?*%
%TF.SameCoordinates,Original*%
%TF.FileFunction,Soldermask,Bot*%
%TF.FilePolarity,Negative*%
%FSLAX46Y46*%
G04 Gerber Fmt 4.6, Leading zero omitted, Abs format (unit mm)*
G04 Created by KiCad (PCBNEW 7.0.11+dfsg-1build4) date 2026-07-23 16:34:21*
%MOMM*%
%LPD*%
G01*
G04 APERTURE LIST*
G04 Aperture macros list*
%AMRoundRect*
0 Rectangle with rounded corners*
0 $1 Rounding radius*
0 $2 $3 $4 $5 $6 $7 $8 $9 X,Y pos of 4 corners*
0 Add a 4 corners polygon primitive as box body*
4,1,4,$2,$3,$4,$5,$6,$7,$8,$9,$2,$3,0*
0 Add four circle primitives for the rounded corners*
1,1,$1+$1,$2,$3*
1,1,$1+$1,$4,$5*
1,1,$1+$1,$6,$7*
1,1,$1+$1,$8,$9*
0 Add four rect primitives between the rounded corners*
20,1,$1+$1,$2,$3,$4,$5,0*
20,1,$1+$1,$4,$5,$6,$7,0*
20,1,$1+$1,$6,$7,$8,$9,0*
20,1,$1+$1,$8,$9,$2,$3,0*%
G04 Aperture macros list end*
%ADD10C,1.500000*%
%ADD11RoundRect,0.450000X0.450000X0.450000X-0.450000X0.450000X-0.450000X-0.450000X0.450000X-0.450000X0*%
%ADD12C,1.800000*%
%ADD13R,1.600000X1.600000*%
%ADD14C,1.600000*%
%ADD15R,2.000000X2.000000*%
%ADD16C,2.000000*%
%ADD17C,3.200000*%
%ADD18O,1.600000X1.600000*%
%ADD19C,0.700000*%
%ADD20O,0.900000X2.400000*%
%ADD21O,0.900000X1.700000*%
%ADD22RoundRect,0.250000X-0.600000X-0.750000X0.600000X-0.750000X0.600000X0.750000X-0.600000X0.750000X0*%
%ADD23O,1.700000X2.000000*%
%ADD24R,2.200000X2.200000*%
%ADD25O,2.200000X2.200000*%
%ADD26C,2.010000*%
G04 APERTURE END LIST*
D10*
%TO.C,J3*%
X145225000Y-100000000D03*
X152225000Y-100000000D03*
%TD*%
D11*
%TO.C,RV4*%
X230000000Y-170000000D03*
D12*
X230000000Y-172500000D03*
X230000000Y-175000000D03*
X232500000Y-170000000D03*
X232500000Y-172500000D03*
X232500000Y-175000000D03*
%TD*%
D11*
%TO.C,RV5*%
X270000000Y-170000000D03*
D12*
X270000000Y-172500000D03*
X270000000Y-175000000D03*
X272500000Y-170000000D03*
X272500000Y-172500000D03*
X272500000Y-175000000D03*
%TD*%
D13*
%TO.C,C17*%
X260000000Y-206000000D03*
D14*
X263500000Y-206000000D03*
%TD*%
%TO.C,C9*%
X135000000Y-151000000D03*
X137500000Y-151000000D03*
%TD*%
D10*
%TO.C,J4*%
X185225000Y-100000000D03*
X192225000Y-100000000D03*
%TD*%
D15*
%TO.C,K2*%
X100000000Y-190000000D03*
D16*
X100000000Y-192540000D03*
X100000000Y-200160000D03*
X105080000Y-200160000D03*
X105080000Y-192540000D03*
X105080000Y-190000000D03*
%TD*%
D17*
%TO.C,MH1*%
X66000000Y-91000000D03*
%TD*%
D14*
%TO.C,R10*%
X75000000Y-140000000D03*
D18*
X85160000Y-140000000D03*
%TD*%
D13*
%TO.C,U2*%
X215000000Y-182000000D03*
D18*
X215000000Y-184540000D03*
X215000000Y-187080000D03*
X215000000Y-189620000D03*
X222620000Y-189620000D03*
X222620000Y-187080000D03*
X222620000Y-184540000D03*
X222620000Y-182000000D03*
%TD*%
D11*
%TO.C,RV2*%
X150000000Y-170000000D03*
D12*
X150000000Y-172500000D03*
X150000000Y-175000000D03*
X152500000Y-170000000D03*
X152500000Y-172500000D03*
X152500000Y-175000000D03*
%TD*%
D13*
%TO.C,C2*%
X290000000Y-135000000D03*
D14*
X292000000Y-135000000D03*
%TD*%
D13*
%TO.C,U1*%
X75000000Y-118000000D03*
D18*
X75000000Y-120540000D03*
X75000000Y-123080000D03*
X75000000Y-125620000D03*
X82620000Y-125620000D03*
X82620000Y-123080000D03*
X82620000Y-120540000D03*
X82620000Y-118000000D03*
%TD*%
D14*
%TO.C,R9*%
X135000000Y-129000000D03*
D18*
X145160000Y-129000000D03*
%TD*%
D14*
%TO.C,C11*%
X90000000Y-162000000D03*
X92500000Y-162000000D03*
%TD*%
%TO.C,C8*%
X120000000Y-151000000D03*
X122500000Y-151000000D03*
%TD*%
%TO.C,R8*%
X120000000Y-129000000D03*
D18*
X130160000Y-129000000D03*
%TD*%
D13*
%TO.C,C20*%
X245000000Y-218000000D03*
D14*
X248500000Y-218000000D03*
%TD*%
D10*
%TO.C,TP2*%
X67000000Y-125620000D03*
%TD*%
%TO.C,J2*%
X105225000Y-100000000D03*
X112225000Y-100000000D03*
%TD*%
D17*
%TO.C,MH4*%
X319000000Y-239000000D03*
%TD*%
D14*
%TO.C,C12*%
X105000000Y-162000000D03*
X107500000Y-162000000D03*
%TD*%
D19*
%TO.C,J1*%
X270000000Y-100000000D03*
X270850000Y-100000000D03*
X271700000Y-100000000D03*
X272550000Y-100000000D03*
X273400000Y-100000000D03*
X274250000Y-100000000D03*
X275100000Y-100000000D03*
X275950000Y-100000000D03*
X275950000Y-101350000D03*
X275100000Y-101350000D03*
X274250000Y-101350000D03*
X273400000Y-101350000D03*
X272550000Y-101350000D03*
X271700000Y-101350000D03*
X270850000Y-101350000D03*
X270000000Y-101350000D03*
D20*
X268650000Y-100980000D03*
D21*
X268650000Y-104360000D03*
D20*
X277300000Y-100980000D03*
D21*
X277300000Y-104360000D03*
%TD*%
D15*
%TO.C,K3*%
X125000000Y-190000000D03*
D16*
X125000000Y-192540000D03*
X125000000Y-200160000D03*
X130080000Y-200160000D03*
X130080000Y-192540000D03*
X130080000Y-190000000D03*
%TD*%
D13*
%TO.C,C16*%
X245000000Y-206000000D03*
D14*
X247000000Y-206000000D03*
%TD*%
D22*
%TO.C,SW4*%
X194000000Y-232000000D03*
D23*
X196500000Y-232000000D03*
%TD*%
D14*
%TO.C,R14*%
X245000000Y-182000000D03*
D18*
X255160000Y-182000000D03*
%TD*%
D14*
%TO.C,R6*%
X90000000Y-129000000D03*
D18*
X100160000Y-129000000D03*
%TD*%
D17*
%TO.C,MH2*%
X319000000Y-91000000D03*
%TD*%
D14*
%TO.C,R12*%
X105000000Y-140000000D03*
D18*
X115160000Y-140000000D03*
%TD*%
D14*
%TO.C,R13*%
X230000000Y-182000000D03*
D18*
X240160000Y-182000000D03*
%TD*%
D24*
%TO.C,D1*%
X290000000Y-120000000D03*
D25*
X300160000Y-120000000D03*
%TD*%
D14*
%TO.C,R11*%
X90000000Y-140000000D03*
D18*
X100160000Y-140000000D03*
%TD*%
D14*
%TO.C,R18*%
X245000000Y-194000000D03*
D18*
X255160000Y-194000000D03*
%TD*%
D10*
%TO.C,J5*%
X225225000Y-100000000D03*
X232225000Y-100000000D03*
%TD*%
D14*
%TO.C,C1*%
X270000000Y-135000000D03*
X272500000Y-135000000D03*
%TD*%
D10*
%TO.C,TP1*%
X250000000Y-120000000D03*
%TD*%
D14*
%TO.C,R2*%
X105000000Y-118000000D03*
D18*
X115160000Y-118000000D03*
%TD*%
D26*
%TO.C,F1*%
X270000000Y-120000000D03*
X275100000Y-121200000D03*
%TD*%
D14*
%TO.C,C6*%
X90000000Y-151000000D03*
X92500000Y-151000000D03*
%TD*%
%TO.C,R19*%
X260000000Y-194000000D03*
D18*
X270160000Y-194000000D03*
%TD*%
D22*
%TO.C,SW1*%
X140000000Y-232000000D03*
D23*
X142500000Y-232000000D03*
%TD*%
D14*
%TO.C,C14*%
X135000000Y-162000000D03*
X137500000Y-162000000D03*
%TD*%
D13*
%TO.C,C3*%
X120000000Y-140000000D03*
D14*
X122000000Y-140000000D03*
%TD*%
D13*
%TO.C,D2*%
X75000000Y-203000000D03*
D18*
X82620000Y-203000000D03*
%TD*%
D22*
%TO.C,SW3*%
X176000000Y-232000000D03*
D23*
X178500000Y-232000000D03*
%TD*%
D14*
%TO.C,C4*%
X135000000Y-140000000D03*
X137500000Y-140000000D03*
%TD*%
D13*
%TO.C,D5*%
X150000000Y-203000000D03*
D18*
X157620000Y-203000000D03*
%TD*%
D14*
%TO.C,C10*%
X75000000Y-162000000D03*
X77500000Y-162000000D03*
%TD*%
D13*
%TO.C,C19*%
X230000000Y-218000000D03*
D14*
X232000000Y-218000000D03*
%TD*%
D11*
%TO.C,RV1*%
X110000000Y-170000000D03*
D12*
X110000000Y-172500000D03*
X110000000Y-175000000D03*
X112500000Y-170000000D03*
X112500000Y-172500000D03*
X112500000Y-175000000D03*
%TD*%
D14*
%TO.C,R4*%
X135000000Y-118000000D03*
D18*
X145160000Y-118000000D03*
%TD*%
D14*
%TO.C,C13*%
X120000000Y-162000000D03*
X122500000Y-162000000D03*
%TD*%
%TO.C,R5*%
X75000000Y-129000000D03*
D18*
X85160000Y-129000000D03*
%TD*%
D14*
%TO.C,R15*%
X260000000Y-182000000D03*
D18*
X270160000Y-182000000D03*
%TD*%
D15*
%TO.C,K1*%
X75000000Y-190000000D03*
D16*
X75000000Y-192540000D03*
X75000000Y-200160000D03*
X80080000Y-200160000D03*
X80080000Y-192540000D03*
X80080000Y-190000000D03*
%TD*%
D10*
%TO.C,J6*%
X225225000Y-232000000D03*
X232225000Y-232000000D03*
%TD*%
D13*
%TO.C,D4*%
X125000000Y-203000000D03*
D18*
X132620000Y-203000000D03*
%TD*%
D22*
%TO.C,SW2*%
X158000000Y-232000000D03*
D23*
X160500000Y-232000000D03*
%TD*%
D11*
%TO.C,RV3*%
X190000000Y-170000000D03*
D12*
X190000000Y-172500000D03*
X190000000Y-175000000D03*
X192500000Y-170000000D03*
X192500000Y-172500000D03*
X192500000Y-175000000D03*
%TD*%
D14*
%TO.C,R17*%
X230000000Y-194000000D03*
D18*
X240160000Y-194000000D03*
%TD*%
D14*
%TO.C,R7*%
X105000000Y-129000000D03*
D18*
X115160000Y-129000000D03*
%TD*%
D14*
%TO.C,R3*%
X120000000Y-118000000D03*
D18*
X130160000Y-118000000D03*
%TD*%
D14*
%TO.C,C18*%
X215000000Y-218000000D03*
X217500000Y-218000000D03*
%TD*%
D22*
%TO.C,SW5*%
X212000000Y-232000000D03*
D23*
X214500000Y-232000000D03*
%TD*%
D15*
%TO.C,K4*%
X150000000Y-190000000D03*
D16*
X150000000Y-192540000D03*
X150000000Y-200160000D03*
X155080000Y-200160000D03*
X155080000Y-192540000D03*
X155080000Y-190000000D03*
%TD*%
D14*
%TO.C,C15*%
X230000000Y-206000000D03*
X232500000Y-206000000D03*
%TD*%
%TO.C,R16*%
X215000000Y-194000000D03*
D18*
X225160000Y-194000000D03*
%TD*%
D14*
%TO.C,R1*%
X90000000Y-118000000D03*
D18*
X100160000Y-118000000D03*
%TD*%
D14*
%TO.C,C21*%
X260000000Y-218000000D03*
X262500000Y-218000000D03*
%TD*%
D13*
%TO.C,D3*%
X100000000Y-203000000D03*
D18*
X107620000Y-203000000D03*
%TD*%
D14*
%TO.C,C7*%
X105000000Y-151000000D03*
X107500000Y-151000000D03*
%TD*%
%TO.C,C5*%
X75000000Y-151000000D03*
X77500000Y-151000000D03*
%TD*%
%TO.C,R20*%
X215000000Y-206000000D03*
D18*
X225160000Y-206000000D03*
%TD*%
D17*
%TO.C,MH3*%
X66000000Y-239000000D03*
%TD*%
M02*
