%TF.GenerationSoftware,KiCad,Pcbnew,7.0.11+dfsg-1build4*%
%TF.CreationDate,2026-07-23T16:34:21-03:00*%
%TF.ProjectId,MeetingHub-4,4d656574-696e-4674-9875-622d342e6b69,rev?*%
%TF.SameCoordinates,Original*%
%TF.FileFunction,Copper,L1,Top*%
%TF.FilePolarity,Positive*%
%FSLAX46Y46*%
G04 Gerber Fmt 4.6, Leading zero omitted, Abs format (unit mm)*
G04 Created by KiCad (PCBNEW 7.0.11+dfsg-1build4) date 2026-07-23 16:34:21*
%MOMM*%
%LPD*%
G01*
G04 APERTURE LIST*
G04 Aperture macros list*
%AMRoundRect*
0 Rectangle with rounded corners*
0 $1 Rounding radius*
0 $2 $3 $4 $5 $6 $7 $8 $9 X,Y pos of 4 corners*
0 Add a 4 corners polygon primitive as box body*
4,1,4,$2,$3,$4,$5,$6,$7,$8,$9,$2,$3,0*
0 Add four circle primitives for the rounded corners*
1,1,$1+$1,$2,$3*
1,1,$1+$1,$4,$5*
1,1,$1+$1,$6,$7*
1,1,$1+$1,$8,$9*
0 Add four rect primitives between the rounded corners*
20,1,$1+$1,$2,$3,$4,$5,0*
20,1,$1+$1,$4,$5,$6,$7,0*
20,1,$1+$1,$6,$7,$8,$9,0*
20,1,$1+$1,$8,$9,$2,$3,0*%
G04 Aperture macros list end*
%TA.AperFunction,SMDPad,CuDef*%
%ADD10R,1.200000X2.500000*%
%TD*%
%TA.AperFunction,ComponentPad*%
%ADD11RoundRect,0.450000X0.450000X0.450000X-0.450000X0.450000X-0.450000X-0.450000X0.450000X-0.450000X0*%
%TD*%
%TA.AperFunction,ComponentPad*%
%ADD12C,1.800000*%
%TD*%
%TA.AperFunction,ComponentPad*%
%ADD13R,1.600000X1.600000*%
%TD*%
%TA.AperFunction,ComponentPad*%
%ADD14C,1.600000*%
%TD*%
%TA.AperFunction,ComponentPad*%
%ADD15R,2.000000X2.000000*%
%TD*%
%TA.AperFunction,ComponentPad*%
%ADD16C,2.000000*%
%TD*%
%TA.AperFunction,ComponentPad*%
%ADD17O,1.600000X1.600000*%
%TD*%
%TA.AperFunction,ComponentPad*%
%ADD18C,1.500000*%
%TD*%
%TA.AperFunction,ComponentPad*%
%ADD19C,0.700000*%
%TD*%
%TA.AperFunction,ComponentPad*%
%ADD20O,0.900000X2.400000*%
%TD*%
%TA.AperFunction,ComponentPad*%
%ADD21O,0.900000X1.700000*%
%TD*%
%TA.AperFunction,ComponentPad*%
%ADD22RoundRect,0.250000X-0.600000X-0.750000X0.600000X-0.750000X0.600000X0.750000X-0.600000X0.750000X0*%
%TD*%
%TA.AperFunction,ComponentPad*%
%ADD23O,1.700000X2.000000*%
%TD*%
%TA.AperFunction,ComponentPad*%
%ADD24R,2.200000X2.200000*%
%TD*%
%TA.AperFunction,ComponentPad*%
%ADD25O,2.200000X2.200000*%
%TD*%
%TA.AperFunction,ComponentPad*%
%ADD26C,2.010000*%
%TD*%
%TA.AperFunction,ViaPad*%
%ADD27C,0.650000*%
%TD*%
%TA.AperFunction,ViaPad*%
%ADD28C,0.600000*%
%TD*%
%TA.AperFunction,Conductor*%
%ADD29C,0.200000*%
%TD*%
%TA.AperFunction,Conductor*%
%ADD30C,0.300000*%
%TD*%
G04 APERTURE END LIST*
D10*
%TO.P,J3,R1*%
%TO.N,NB2_R*%
X149825000Y-96750000D03*
%TO.P,J3,R2*%
%TO.N,GND*%
X146825000Y-96750000D03*
%TO.P,J3,S*%
%TO.N,NB2_MIC*%
X154925000Y-103250000D03*
%TO.P,J3,T*%
%TO.N,NB2_L*%
X153825000Y-96750000D03*
%TD*%
D11*
%TO.P,RV4,1,1*%
%TO.N,Net-(C11-Pad2)*%
X230000000Y-170000000D03*
D12*
%TO.P,RV4,2,2*%
%TO.N,Net-(R11-Pad1)*%
X230000000Y-172500000D03*
%TO.P,RV4,3,3*%
%TO.N,VBIAS*%
X230000000Y-175000000D03*
%TO.P,RV4,4,4*%
%TO.N,Net-(C12-Pad2)*%
X232500000Y-170000000D03*
%TO.P,RV4,5,5*%
%TO.N,Net-(R12-Pad1)*%
X232500000Y-172500000D03*
%TO.P,RV4,6,6*%
%TO.N,VBIAS*%
X232500000Y-175000000D03*
%TD*%
D11*
%TO.P,RV5,1,1*%
%TO.N,Net-(C13-Pad2)*%
X270000000Y-170000000D03*
D12*
%TO.P,RV5,2,2*%
%TO.N,MIX_L*%
X270000000Y-172500000D03*
%TO.P,RV5,3,3*%
%TO.N,VBIAS*%
X270000000Y-175000000D03*
%TO.P,RV5,4,4*%
%TO.N,Net-(C14-Pad2)*%
X272500000Y-170000000D03*
%TO.P,RV5,5,5*%
%TO.N,MIX_R*%
X272500000Y-172500000D03*
%TO.P,RV5,6,6*%
%TO.N,VBIAS*%
X272500000Y-175000000D03*
%TD*%
D13*
%TO.P,C17,1*%
%TO.N,Net-(C17-Pad1)*%
X260000000Y-206000000D03*
D14*
%TO.P,C17,2*%
%TO.N,Net-(C17-Pad2)*%
X263500000Y-206000000D03*
%TD*%
%TO.P,C9,1*%
%TO.N,NB3_L*%
X135000000Y-151000000D03*
%TO.P,C9,2*%
%TO.N,Net-(C9-Pad2)*%
X137500000Y-151000000D03*
%TD*%
D10*
%TO.P,J4,R1*%
%TO.N,NB3_R*%
X189825000Y-96750000D03*
%TO.P,J4,R2*%
%TO.N,GND*%
X186825000Y-96750000D03*
%TO.P,J4,S*%
%TO.N,NB3_MIC*%
X194925000Y-103250000D03*
%TO.P,J4,T*%
%TO.N,NB3_L*%
X193825000Y-96750000D03*
%TD*%
D15*
%TO.P,K2,1*%
%TO.N,Net-(D3-A)*%
X100000000Y-190000000D03*
D16*
%TO.P,K2,2*%
%TO.N,GND*%
X100000000Y-192540000D03*
%TO.P,K2,5*%
%TO.N,Net-(SW1-B)*%
X100000000Y-200160000D03*
%TO.P,K2,6*%
X105080000Y-200160000D03*
%TO.P,K2,9*%
%TO.N,NB2_MIC*%
X105080000Y-192540000D03*
%TO.P,K2,10*%
%TO.N,unconnected-(K2-Pad10)*%
X105080000Y-190000000D03*
%TD*%
D14*
%TO.P,R10,1*%
%TO.N,Net-(R10-Pad1)*%
X75000000Y-140000000D03*
D17*
%TO.P,R10,2*%
%TO.N,Net-(U1B--)*%
X85160000Y-140000000D03*
%TD*%
D13*
%TO.P,U2,1*%
%TO.N,Net-(C17-Pad1)*%
X215000000Y-182000000D03*
D17*
%TO.P,U2,2,-*%
%TO.N,Net-(U2A--)*%
X215000000Y-184540000D03*
%TO.P,U2,3,+*%
%TO.N,Net-(U2A-+)*%
X215000000Y-187080000D03*
%TO.P,U2,4,V-*%
%TO.N,GND*%
X215000000Y-189620000D03*
%TO.P,U2,5,+*%
%TO.N,Net-(U2B-+)*%
X222620000Y-189620000D03*
%TO.P,U2,6,-*%
%TO.N,Net-(U2B--)*%
X222620000Y-187080000D03*
%TO.P,U2,7*%
%TO.N,Net-(C20-Pad1)*%
X222620000Y-184540000D03*
%TO.P,U2,8,V+*%
%TO.N,+5V_AUDIO*%
X222620000Y-182000000D03*
%TD*%
D11*
%TO.P,RV2,1,1*%
%TO.N,Net-(C7-Pad2)*%
X150000000Y-170000000D03*
D12*
%TO.P,RV2,2,2*%
%TO.N,Net-(R7-Pad1)*%
X150000000Y-172500000D03*
%TO.P,RV2,3,3*%
%TO.N,VBIAS*%
X150000000Y-175000000D03*
%TO.P,RV2,4,4*%
%TO.N,Net-(C8-Pad2)*%
X152500000Y-170000000D03*
%TO.P,RV2,5,5*%
%TO.N,Net-(R8-Pad1)*%
X152500000Y-172500000D03*
%TO.P,RV2,6,6*%
%TO.N,VBIAS*%
X152500000Y-175000000D03*
%TD*%
D13*
%TO.P,C2,1*%
%TO.N,+5V_AUDIO*%
X290000000Y-135000000D03*
D14*
%TO.P,C2,2*%
%TO.N,GND*%
X292000000Y-135000000D03*
%TD*%
D13*
%TO.P,U1,1*%
%TO.N,Net-(C13-Pad1)*%
X75000000Y-118000000D03*
D17*
%TO.P,U1,2,-*%
%TO.N,Net-(U1A--)*%
X75000000Y-120540000D03*
%TO.P,U1,3,+*%
%TO.N,VBIAS*%
X75000000Y-123080000D03*
%TO.P,U1,4,V-*%
%TO.N,GND*%
X75000000Y-125620000D03*
%TO.P,U1,5,+*%
%TO.N,VBIAS*%
X82620000Y-125620000D03*
%TO.P,U1,6,-*%
%TO.N,Net-(U1B--)*%
X82620000Y-123080000D03*
%TO.P,U1,7*%
%TO.N,Net-(C14-Pad1)*%
X82620000Y-120540000D03*
%TO.P,U1,8,V+*%
%TO.N,+5V_AUDIO*%
X82620000Y-118000000D03*
%TD*%
D14*
%TO.P,R9,1*%
%TO.N,Net-(R9-Pad1)*%
X135000000Y-129000000D03*
D17*
%TO.P,R9,2*%
%TO.N,Net-(U1A--)*%
X145160000Y-129000000D03*
%TD*%
D14*
%TO.P,C11,1*%
%TO.N,NB4_L*%
X90000000Y-162000000D03*
%TO.P,C11,2*%
%TO.N,Net-(C11-Pad2)*%
X92500000Y-162000000D03*
%TD*%
%TO.P,C8,1*%
%TO.N,NB2_R*%
X120000000Y-151000000D03*
%TO.P,C8,2*%
%TO.N,Net-(C8-Pad2)*%
X122500000Y-151000000D03*
%TD*%
%TO.P,R8,1*%
%TO.N,Net-(R8-Pad1)*%
X120000000Y-129000000D03*
D17*
%TO.P,R8,2*%
%TO.N,Net-(U1B--)*%
X130160000Y-129000000D03*
%TD*%
D13*
%TO.P,C20,1*%
%TO.N,Net-(C20-Pad1)*%
X245000000Y-218000000D03*
D14*
%TO.P,C20,2*%
%TO.N,Net-(C20-Pad2)*%
X248500000Y-218000000D03*
%TD*%
D18*
%TO.P,TP2,1*%
%TO.N,GND*%
X67000000Y-125620000D03*
%TD*%
D10*
%TO.P,J2,R1*%
%TO.N,NB1_R*%
X109825000Y-96750000D03*
%TO.P,J2,R2*%
%TO.N,GND*%
X106825000Y-96750000D03*
%TO.P,J2,S*%
%TO.N,NB1_MIC*%
X114925000Y-103250000D03*
%TO.P,J2,T*%
%TO.N,NB1_L*%
X113825000Y-96750000D03*
%TD*%
D14*
%TO.P,C12,1*%
%TO.N,NB4_R*%
X105000000Y-162000000D03*
%TO.P,C12,2*%
%TO.N,Net-(C12-Pad2)*%
X107500000Y-162000000D03*
%TD*%
D19*
%TO.P,J1,A1,GND*%
%TO.N,GND*%
X270000000Y-100000000D03*
%TO.P,J1,A4,VBUS*%
%TO.N,Net-(D1-K)*%
X270850000Y-100000000D03*
%TO.P,J1,A5,CC1*%
%TO.N,unconnected-(J1-CC1-PadA5)*%
X271700000Y-100000000D03*
%TO.P,J1,A6,D+*%
%TO.N,unconnected-(J1-D+-PadA6)*%
X272550000Y-100000000D03*
%TO.P,J1,A7,D-*%
%TO.N,unconnected-(J1-D--PadA7)*%
X273400000Y-100000000D03*
%TO.P,J1,A8,SBU1*%
%TO.N,unconnected-(J1-SBU1-PadA8)*%
X274250000Y-100000000D03*
%TO.P,J1,A9,VBUS*%
%TO.N,Net-(D1-K)*%
X275100000Y-100000000D03*
%TO.P,J1,A12,GND*%
%TO.N,GND*%
X275950000Y-100000000D03*
%TO.P,J1,B1,GND*%
X275950000Y-101350000D03*
%TO.P,J1,B4,VBUS*%
%TO.N,Net-(D1-K)*%
X275100000Y-101350000D03*
%TO.P,J1,B5,CC2*%
%TO.N,unconnected-(J1-CC2-PadB5)*%
X274250000Y-101350000D03*
%TO.P,J1,B6,D+*%
%TO.N,unconnected-(J1-D+-PadB6)*%
X273400000Y-101350000D03*
%TO.P,J1,B7,D-*%
%TO.N,unconnected-(J1-D--PadB7)*%
X272550000Y-101350000D03*
%TO.P,J1,B8,SBU2*%
%TO.N,unconnected-(J1-SBU2-PadB8)*%
X271700000Y-101350000D03*
%TO.P,J1,B9,VBUS*%
%TO.N,Net-(D1-K)*%
X270850000Y-101350000D03*
%TO.P,J1,B12,GND*%
%TO.N,GND*%
X270000000Y-101350000D03*
D20*
%TO.P,J1,S1,SHIELD*%
%TO.N,unconnected-(J1-SHIELD-PadS1)*%
X268650000Y-100980000D03*
D21*
X268650000Y-104360000D03*
D20*
X277300000Y-100980000D03*
D21*
X277300000Y-104360000D03*
%TD*%
D15*
%TO.P,K3,1*%
%TO.N,Net-(D4-A)*%
X125000000Y-190000000D03*
D16*
%TO.P,K3,2*%
%TO.N,GND*%
X125000000Y-192540000D03*
%TO.P,K3,5*%
%TO.N,Net-(SW1-B)*%
X125000000Y-200160000D03*
%TO.P,K3,6*%
X130080000Y-200160000D03*
%TO.P,K3,9*%
%TO.N,NB3_MIC*%
X130080000Y-192540000D03*
%TO.P,K3,10*%
%TO.N,unconnected-(K3-Pad10)*%
X130080000Y-190000000D03*
%TD*%
D13*
%TO.P,C16,1*%
%TO.N,Net-(C16-Pad1)*%
X245000000Y-206000000D03*
D14*
%TO.P,C16,2*%
%TO.N,GND*%
X247000000Y-206000000D03*
%TD*%
D22*
%TO.P,SW4,1,A*%
%TO.N,+5V_AUDIO*%
X194000000Y-232000000D03*
D23*
%TO.P,SW4,2,B*%
%TO.N,Net-(D4-A)*%
X196500000Y-232000000D03*
%TD*%
D14*
%TO.P,R14,1*%
%TO.N,Net-(U2A--)*%
X245000000Y-182000000D03*
D17*
%TO.P,R14,2*%
%TO.N,Net-(C16-Pad1)*%
X255160000Y-182000000D03*
%TD*%
D14*
%TO.P,R6,1*%
%TO.N,Net-(R6-Pad1)*%
X90000000Y-129000000D03*
D17*
%TO.P,R6,2*%
%TO.N,Net-(U1B--)*%
X100160000Y-129000000D03*
%TD*%
D14*
%TO.P,R12,1*%
%TO.N,Net-(R12-Pad1)*%
X105000000Y-140000000D03*
D17*
%TO.P,R12,2*%
%TO.N,Net-(U1B--)*%
X115160000Y-140000000D03*
%TD*%
D14*
%TO.P,R13,1*%
%TO.N,VBIAS*%
X230000000Y-182000000D03*
D17*
%TO.P,R13,2*%
%TO.N,Net-(U2A-+)*%
X240160000Y-182000000D03*
%TD*%
D24*
%TO.P,D1,1,K*%
%TO.N,Net-(D1-K)*%
X290000000Y-120000000D03*
D25*
%TO.P,D1,2,A*%
%TO.N,GND*%
X300160000Y-120000000D03*
%TD*%
D14*
%TO.P,R11,1*%
%TO.N,Net-(R11-Pad1)*%
X90000000Y-140000000D03*
D17*
%TO.P,R11,2*%
%TO.N,Net-(U1A--)*%
X100160000Y-140000000D03*
%TD*%
D14*
%TO.P,R18,1*%
%TO.N,Net-(U2B--)*%
X245000000Y-194000000D03*
D17*
%TO.P,R18,2*%
%TO.N,Net-(C19-Pad1)*%
X255160000Y-194000000D03*
%TD*%
D10*
%TO.P,J5,R1*%
%TO.N,NB4_R*%
X229825000Y-96750000D03*
%TO.P,J5,R2*%
%TO.N,GND*%
X226825000Y-96750000D03*
%TO.P,J5,S*%
%TO.N,NB4_MIC*%
X234925000Y-103250000D03*
%TO.P,J5,T*%
%TO.N,NB4_L*%
X233825000Y-96750000D03*
%TD*%
D14*
%TO.P,C1,1*%
%TO.N,+5V_AUDIO*%
X270000000Y-135000000D03*
%TO.P,C1,2*%
%TO.N,GND*%
X272500000Y-135000000D03*
%TD*%
D18*
%TO.P,TP1,1,1*%
%TO.N,+5V_AUDIO*%
X250000000Y-120000000D03*
%TD*%
D14*
%TO.P,R2,1*%
%TO.N,VBIAS*%
X105000000Y-118000000D03*
D17*
%TO.P,R2,2*%
%TO.N,GND*%
X115160000Y-118000000D03*
%TD*%
D26*
%TO.P,F1,1*%
%TO.N,Net-(D1-K)*%
X270000000Y-120000000D03*
%TO.P,F1,2*%
%TO.N,+5V_AUDIO*%
X275100000Y-121200000D03*
%TD*%
D14*
%TO.P,C6,1*%
%TO.N,NB1_R*%
X90000000Y-151000000D03*
%TO.P,C6,2*%
%TO.N,Net-(C6-Pad2)*%
X92500000Y-151000000D03*
%TD*%
%TO.P,R19,1*%
%TO.N,Net-(U2B--)*%
X260000000Y-194000000D03*
D17*
%TO.P,R19,2*%
%TO.N,Net-(C20-Pad1)*%
X270160000Y-194000000D03*
%TD*%
D22*
%TO.P,SW1,1,A*%
%TO.N,HEADSET_MIC*%
X140000000Y-232000000D03*
D23*
%TO.P,SW1,2,B*%
%TO.N,Net-(SW1-B)*%
X142500000Y-232000000D03*
%TD*%
D14*
%TO.P,C14,1*%
%TO.N,Net-(C14-Pad1)*%
X135000000Y-162000000D03*
%TO.P,C14,2*%
%TO.N,Net-(C14-Pad2)*%
X137500000Y-162000000D03*
%TD*%
D13*
%TO.P,C3,1*%
%TO.N,VBIAS*%
X120000000Y-140000000D03*
D14*
%TO.P,C3,2*%
%TO.N,GND*%
X122000000Y-140000000D03*
%TD*%
D13*
%TO.P,D2,1,K*%
%TO.N,GND*%
X75000000Y-203000000D03*
D17*
%TO.P,D2,2,A*%
%TO.N,Net-(D2-A)*%
X82620000Y-203000000D03*
%TD*%
D22*
%TO.P,SW3,1,A*%
%TO.N,+5V_AUDIO*%
X176000000Y-232000000D03*
D23*
%TO.P,SW3,2,B*%
%TO.N,Net-(D3-A)*%
X178500000Y-232000000D03*
%TD*%
D14*
%TO.P,C4,1*%
%TO.N,+5V_AUDIO*%
X135000000Y-140000000D03*
%TO.P,C4,2*%
%TO.N,GND*%
X137500000Y-140000000D03*
%TD*%
D13*
%TO.P,D5,1,K*%
%TO.N,GND*%
X150000000Y-203000000D03*
D17*
%TO.P,D5,2,A*%
%TO.N,Net-(D5-A)*%
X157620000Y-203000000D03*
%TD*%
D14*
%TO.P,C10,1*%
%TO.N,NB3_R*%
X75000000Y-162000000D03*
%TO.P,C10,2*%
%TO.N,Net-(C10-Pad2)*%
X77500000Y-162000000D03*
%TD*%
D13*
%TO.P,C19,1*%
%TO.N,Net-(C19-Pad1)*%
X230000000Y-218000000D03*
D14*
%TO.P,C19,2*%
%TO.N,GND*%
X232000000Y-218000000D03*
%TD*%
D11*
%TO.P,RV1,1,1*%
%TO.N,Net-(C5-Pad2)*%
X110000000Y-170000000D03*
D12*
%TO.P,RV1,2,2*%
%TO.N,Net-(R5-Pad1)*%
X110000000Y-172500000D03*
%TO.P,RV1,3,3*%
%TO.N,VBIAS*%
X110000000Y-175000000D03*
%TO.P,RV1,4,4*%
%TO.N,Net-(C6-Pad2)*%
X112500000Y-170000000D03*
%TO.P,RV1,5,5*%
%TO.N,Net-(R6-Pad1)*%
X112500000Y-172500000D03*
%TO.P,RV1,6,6*%
%TO.N,VBIAS*%
X112500000Y-175000000D03*
%TD*%
D14*
%TO.P,R4,1*%
%TO.N,Net-(U1B--)*%
X135000000Y-118000000D03*
D17*
%TO.P,R4,2*%
%TO.N,Net-(C14-Pad1)*%
X145160000Y-118000000D03*
%TD*%
D14*
%TO.P,C13,1*%
%TO.N,Net-(C13-Pad1)*%
X120000000Y-162000000D03*
%TO.P,C13,2*%
%TO.N,Net-(C13-Pad2)*%
X122500000Y-162000000D03*
%TD*%
%TO.P,R5,1*%
%TO.N,Net-(R5-Pad1)*%
X75000000Y-129000000D03*
D17*
%TO.P,R5,2*%
%TO.N,Net-(U1A--)*%
X85160000Y-129000000D03*
%TD*%
D14*
%TO.P,R15,1*%
%TO.N,Net-(U2A--)*%
X260000000Y-182000000D03*
D17*
%TO.P,R15,2*%
%TO.N,Net-(C17-Pad1)*%
X270160000Y-182000000D03*
%TD*%
D15*
%TO.P,K1,1*%
%TO.N,Net-(D2-A)*%
X75000000Y-190000000D03*
D16*
%TO.P,K1,2*%
%TO.N,GND*%
X75000000Y-192540000D03*
%TO.P,K1,5*%
%TO.N,Net-(SW1-B)*%
X75000000Y-200160000D03*
%TO.P,K1,6*%
X80080000Y-200160000D03*
%TO.P,K1,9*%
%TO.N,NB1_MIC*%
X80080000Y-192540000D03*
%TO.P,K1,10*%
%TO.N,unconnected-(K1-Pad10)*%
X80080000Y-190000000D03*
%TD*%
D10*
%TO.P,J6,R1*%
%TO.N,Net-(J6-PadR1)*%
X229825000Y-228750000D03*
%TO.P,J6,R2*%
%TO.N,GND*%
X226825000Y-228750000D03*
%TO.P,J6,S*%
%TO.N,HEADSET_MIC*%
X234925000Y-235250000D03*
%TO.P,J6,T*%
%TO.N,Net-(J6-PadT)*%
X233825000Y-228750000D03*
%TD*%
D13*
%TO.P,D4,1,K*%
%TO.N,GND*%
X125000000Y-203000000D03*
D17*
%TO.P,D4,2,A*%
%TO.N,Net-(D4-A)*%
X132620000Y-203000000D03*
%TD*%
D22*
%TO.P,SW2,1,A*%
%TO.N,+5V_AUDIO*%
X158000000Y-232000000D03*
D23*
%TO.P,SW2,2,B*%
%TO.N,Net-(D2-A)*%
X160500000Y-232000000D03*
%TD*%
D11*
%TO.P,RV3,1,1*%
%TO.N,Net-(C9-Pad2)*%
X190000000Y-170000000D03*
D12*
%TO.P,RV3,2,2*%
%TO.N,Net-(R9-Pad1)*%
X190000000Y-172500000D03*
%TO.P,RV3,3,3*%
%TO.N,VBIAS*%
X190000000Y-175000000D03*
%TO.P,RV3,4,4*%
%TO.N,Net-(C10-Pad2)*%
X192500000Y-170000000D03*
%TO.P,RV3,5,5*%
%TO.N,Net-(R10-Pad1)*%
X192500000Y-172500000D03*
%TO.P,RV3,6,6*%
%TO.N,VBIAS*%
X192500000Y-175000000D03*
%TD*%
D14*
%TO.P,R17,1*%
%TO.N,VBIAS*%
X230000000Y-194000000D03*
D17*
%TO.P,R17,2*%
%TO.N,Net-(U2B-+)*%
X240160000Y-194000000D03*
%TD*%
D14*
%TO.P,R7,1*%
%TO.N,Net-(R7-Pad1)*%
X105000000Y-129000000D03*
D17*
%TO.P,R7,2*%
%TO.N,Net-(U1A--)*%
X115160000Y-129000000D03*
%TD*%
D14*
%TO.P,R3,1*%
%TO.N,Net-(U1A--)*%
X120000000Y-118000000D03*
D17*
%TO.P,R3,2*%
%TO.N,Net-(C13-Pad1)*%
X130160000Y-118000000D03*
%TD*%
D14*
%TO.P,C18,1*%
%TO.N,MIX_R*%
X215000000Y-218000000D03*
%TO.P,C18,2*%
%TO.N,Net-(U2B-+)*%
X217500000Y-218000000D03*
%TD*%
D22*
%TO.P,SW5,1,A*%
%TO.N,+5V_AUDIO*%
X212000000Y-232000000D03*
D23*
%TO.P,SW5,2,B*%
%TO.N,Net-(D5-A)*%
X214500000Y-232000000D03*
%TD*%
D15*
%TO.P,K4,1*%
%TO.N,Net-(D5-A)*%
X150000000Y-190000000D03*
D16*
%TO.P,K4,2*%
%TO.N,GND*%
X150000000Y-192540000D03*
%TO.P,K4,5*%
%TO.N,Net-(SW1-B)*%
X150000000Y-200160000D03*
%TO.P,K4,6*%
X155080000Y-200160000D03*
%TO.P,K4,9*%
%TO.N,NB4_MIC*%
X155080000Y-192540000D03*
%TO.P,K4,10*%
%TO.N,unconnected-(K4-Pad10)*%
X155080000Y-190000000D03*
%TD*%
D14*
%TO.P,C15,1*%
%TO.N,MIX_L*%
X230000000Y-206000000D03*
%TO.P,C15,2*%
%TO.N,Net-(U2A-+)*%
X232500000Y-206000000D03*
%TD*%
%TO.P,R16,1*%
%TO.N,Net-(C17-Pad2)*%
X215000000Y-194000000D03*
D17*
%TO.P,R16,2*%
%TO.N,Net-(J6-PadT)*%
X225160000Y-194000000D03*
%TD*%
D14*
%TO.P,R1,1*%
%TO.N,+5V_AUDIO*%
X90000000Y-118000000D03*
D17*
%TO.P,R1,2*%
%TO.N,VBIAS*%
X100160000Y-118000000D03*
%TD*%
D14*
%TO.P,C21,1*%
%TO.N,+5V_AUDIO*%
X260000000Y-218000000D03*
%TO.P,C21,2*%
%TO.N,GND*%
X262500000Y-218000000D03*
%TD*%
D13*
%TO.P,D3,1,K*%
%TO.N,GND*%
X100000000Y-203000000D03*
D17*
%TO.P,D3,2,A*%
%TO.N,Net-(D3-A)*%
X107620000Y-203000000D03*
%TD*%
D14*
%TO.P,C7,1*%
%TO.N,NB2_L*%
X105000000Y-151000000D03*
%TO.P,C7,2*%
%TO.N,Net-(C7-Pad2)*%
X107500000Y-151000000D03*
%TD*%
%TO.P,C5,1*%
%TO.N,NB1_L*%
X75000000Y-151000000D03*
%TO.P,C5,2*%
%TO.N,Net-(C5-Pad2)*%
X77500000Y-151000000D03*
%TD*%
%TO.P,R20,1*%
%TO.N,Net-(C20-Pad2)*%
X215000000Y-206000000D03*
D17*
%TO.P,R20,2*%
%TO.N,Net-(J6-PadR1)*%
X225160000Y-206000000D03*
%TD*%
D27*
%TO.N,GND*%
X146825000Y-96750000D03*
X226825000Y-96750000D03*
X106825000Y-96750000D03*
X186825000Y-96750000D03*
X227525000Y-227950000D03*
D28*
%TO.N,NB1_L*%
X91187900Y-98248300D03*
%TO.N,NB1_R*%
X108856100Y-98281400D03*
%TO.N,NB2_L*%
X129581300Y-143499800D03*
X151718800Y-98251900D03*
%TO.N,Net-(C7-Pad2)*%
X138896400Y-158896400D03*
%TO.N,NB2_R*%
X126486300Y-98251900D03*
%TO.N,Net-(C8-Pad2)*%
X140714500Y-158207700D03*
%TO.N,NB3_L*%
X157099000Y-98603800D03*
%TO.N,NB3_R*%
X88189200Y-95248100D03*
%TO.N,NB4_R*%
X108807500Y-148293100D03*
%TO.N,Net-(C13-Pad1)*%
X129026600Y-160549000D03*
%TO.N,NB1_MIC*%
X87658500Y-104751900D03*
%TO.N,NB2_MIC*%
X124137500Y-101748100D03*
%TO.N,NB3_MIC*%
X138255200Y-104751900D03*
%TO.N,NB4_MIC*%
X228828800Y-104751900D03*
%TO.N,Net-(J6-PadR1)*%
X228761000Y-230251900D03*
%TO.N,Net-(J6-PadT)*%
X226355000Y-225471300D03*
%TO.N,Net-(R7-Pad1)*%
X116903400Y-170080000D03*
%TO.N,Net-(R8-Pad1)*%
X135997900Y-130710500D03*
%TO.N,Net-(R10-Pad1)*%
X95266600Y-173676700D03*
%TO.N,Net-(R11-Pad1)*%
X105641500Y-167428200D03*
%TO.N,Net-(R12-Pad1)*%
X113008900Y-168136300D03*
%TD*%
D29*
%TO.N,GND*%
X226825000Y-228750000D02*
X227525000Y-227950000D01*
%TO.N,VBIAS*%
X272500000Y-175000000D02*
X270000000Y-175000000D01*
X152500000Y-175000000D02*
X150000000Y-175000000D01*
X232500000Y-175000000D02*
X230000000Y-175000000D01*
X112500000Y-175000000D02*
X110000000Y-175000000D01*
X192500000Y-175000000D02*
X230000000Y-175000000D01*
X79028100Y-123080000D02*
X75000000Y-123080000D01*
X81568100Y-125620000D02*
X79028100Y-123080000D01*
X100160000Y-118000000D02*
X99108100Y-118000000D01*
X112500000Y-175000000D02*
X150000000Y-175000000D01*
X192500000Y-175000000D02*
X190000000Y-175000000D01*
X79028100Y-123080000D02*
X79028100Y-122617600D01*
X100160000Y-118000000D02*
X105000000Y-118000000D01*
X190000000Y-175000000D02*
X152500000Y-175000000D01*
X270000000Y-175000000D02*
X232500000Y-175000000D01*
X97744400Y-119363700D02*
X99108100Y-118000000D01*
X79028100Y-122617600D02*
X82282000Y-119363700D01*
X82620000Y-125620000D02*
X81568100Y-125620000D01*
X82282000Y-119363700D02*
X97744400Y-119363700D01*
%TO.N,NB1_L*%
X113825000Y-98251900D02*
X111554500Y-98251900D01*
X106131600Y-98906500D02*
X105473400Y-98248300D01*
X105473400Y-98248300D02*
X91187900Y-98248300D01*
X113825000Y-96750000D02*
X113825000Y-98251900D01*
X111554500Y-98251900D02*
X110899900Y-98906500D01*
X110899900Y-98906500D02*
X106131600Y-98906500D01*
%TO.N,Net-(C5-Pad2)*%
X77500000Y-151000000D02*
X96500000Y-170000000D01*
X96500000Y-170000000D02*
X110000000Y-170000000D01*
%TO.N,NB1_R*%
X109825000Y-98251900D02*
X108885600Y-98251900D01*
X109825000Y-96750000D02*
X109825000Y-98251900D01*
X108885600Y-98251900D02*
X108856100Y-98281400D01*
%TO.N,NB2_L*%
X105000000Y-151000000D02*
X112500200Y-143499800D01*
X151718800Y-98251900D02*
X153825000Y-98251900D01*
X153825000Y-96750000D02*
X153825000Y-98251900D01*
X112500200Y-143499800D02*
X129581300Y-143499800D01*
%TO.N,Net-(C7-Pad2)*%
X115396400Y-158896400D02*
X138896400Y-158896400D01*
X107500000Y-151000000D02*
X115396400Y-158896400D01*
%TO.N,NB2_R*%
X149825000Y-98251900D02*
X126486300Y-98251900D01*
X149825000Y-96750000D02*
X149825000Y-98251900D01*
%TO.N,Net-(C8-Pad2)*%
X129707699Y-158207700D02*
X140714500Y-158207700D01*
X122500000Y-151000000D02*
X129707699Y-158207700D01*
%TO.N,NB3_L*%
X193825000Y-96750000D02*
X193825000Y-98251900D01*
X193473100Y-98603800D02*
X193825000Y-98251900D01*
X157099000Y-98603800D02*
X193473100Y-98603800D01*
%TO.N,NB3_R*%
X189825000Y-96750000D02*
X189825000Y-95248100D01*
X88189200Y-95248100D02*
X189825000Y-95248100D01*
%TO.N,Net-(C10-Pad2)*%
X77500000Y-162000000D02*
X86653600Y-171153600D01*
X86653600Y-171153600D02*
X110747100Y-171153600D01*
X110747100Y-171153600D02*
X111321600Y-170579100D01*
X151934800Y-168847900D02*
X186952900Y-168847900D01*
X186952900Y-168847900D02*
X189258600Y-171153600D01*
X151153600Y-170741400D02*
X151153600Y-169629100D01*
X149258600Y-171153600D02*
X150741400Y-171153600D01*
X189258600Y-171153600D02*
X191346400Y-171153600D01*
X111321600Y-169534600D02*
X112009800Y-168846400D01*
X150741400Y-171153600D02*
X151153600Y-170741400D01*
X191346400Y-171153600D02*
X192500000Y-170000000D01*
X146951400Y-168846400D02*
X149258600Y-171153600D01*
X151153600Y-169629100D02*
X151934800Y-168847900D01*
X111321600Y-170579100D02*
X111321600Y-169534600D01*
X112009800Y-168846400D02*
X146951400Y-168846400D01*
%TO.N,NB4_L*%
X99599000Y-157949600D02*
X94050400Y-157949600D01*
X106250000Y-150713800D02*
X106250000Y-151298600D01*
X233825000Y-98251900D02*
X230973100Y-98251900D01*
X233825000Y-96750000D02*
X233825000Y-98251900D01*
X94050400Y-157949600D02*
X90000000Y-162000000D01*
X180175400Y-149049600D02*
X107914200Y-149049600D01*
X230973100Y-98251900D02*
X180175400Y-149049600D01*
X107914200Y-149049600D02*
X106250000Y-150713800D01*
X106250000Y-151298600D02*
X99599000Y-157949600D01*
%TO.N,Net-(C11-Pad2)*%
X111206800Y-167025100D02*
X227025100Y-167025100D01*
X93551900Y-163051900D02*
X107233600Y-163051900D01*
X227025100Y-167025100D02*
X230000000Y-170000000D01*
X92500000Y-162000000D02*
X93551900Y-163051900D01*
X107233600Y-163051900D02*
X111206800Y-167025100D01*
%TO.N,NB4_R*%
X229825000Y-96750000D02*
X229825000Y-98251900D01*
X229825000Y-98251900D02*
X179783800Y-148293100D01*
X179783800Y-148293100D02*
X108807500Y-148293100D01*
%TO.N,Net-(C12-Pad2)*%
X232500000Y-170000000D02*
X229099100Y-166599100D01*
X112099100Y-166599100D02*
X107500000Y-162000000D01*
X229099100Y-166599100D02*
X112099100Y-166599100D01*
%TO.N,Net-(C13-Pad1)*%
X77168200Y-116883700D02*
X127991800Y-116883700D01*
X121451000Y-160549000D02*
X129026600Y-160549000D01*
X76051900Y-118000000D02*
X77168200Y-116883700D01*
X75000000Y-118000000D02*
X76051900Y-118000000D01*
X127991800Y-116883700D02*
X129108100Y-118000000D01*
X130160000Y-118000000D02*
X129108100Y-118000000D01*
X120000000Y-162000000D02*
X121451000Y-160549000D01*
%TO.N,Net-(C13-Pad2)*%
X265394700Y-165394700D02*
X125894700Y-165394700D01*
X270000000Y-170000000D02*
X265394700Y-165394700D01*
X125894700Y-165394700D02*
X122500000Y-162000000D01*
%TO.N,Net-(C14-Pad1)*%
X141568100Y-120540000D02*
X144108100Y-118000000D01*
X82620000Y-120540000D02*
X141568100Y-120540000D01*
X145160000Y-118000000D02*
X144108100Y-118000000D01*
%TO.N,Net-(C14-Pad2)*%
X264500000Y-162000000D02*
X272500000Y-170000000D01*
X137500000Y-162000000D02*
X264500000Y-162000000D01*
%TO.N,Net-(U2A-+)*%
X237744400Y-183363700D02*
X239108100Y-182000000D01*
X240160000Y-182000000D02*
X239108100Y-182000000D01*
X219768200Y-183363700D02*
X237744400Y-183363700D01*
X216051900Y-187080000D02*
X219768200Y-183363700D01*
X215000000Y-187080000D02*
X216051900Y-187080000D01*
%TO.N,Net-(C17-Pad1)*%
X217529200Y-180522700D02*
X267630800Y-180522700D01*
X267630800Y-180522700D02*
X269108100Y-182000000D01*
X215000000Y-182000000D02*
X216051900Y-182000000D01*
X216051900Y-182000000D02*
X217529200Y-180522700D01*
X270160000Y-182000000D02*
X269108100Y-182000000D01*
%TO.N,Net-(C17-Pad2)*%
X262201700Y-204701700D02*
X263500000Y-206000000D01*
X225701700Y-204701700D02*
X262201700Y-204701700D01*
X215000000Y-194000000D02*
X225701700Y-204701700D01*
%TO.N,Net-(U2B-+)*%
X240160000Y-194000000D02*
X239108100Y-194000000D01*
X234728100Y-189620000D02*
X239108100Y-194000000D01*
X222620000Y-189620000D02*
X234728100Y-189620000D01*
%TO.N,Net-(C20-Pad1)*%
X270160000Y-194000000D02*
X269108100Y-194000000D01*
X222620000Y-184540000D02*
X259648100Y-184540000D01*
X259648100Y-184540000D02*
X269108100Y-194000000D01*
%TO.N,Net-(C20-Pad2)*%
X215000000Y-206000000D02*
X224299700Y-215299700D01*
X224299700Y-215299700D02*
X245799700Y-215299700D01*
X245799700Y-215299700D02*
X248500000Y-218000000D01*
%TO.N,Net-(D1-K)*%
X290000000Y-120000000D02*
X288648100Y-120000000D01*
X288648100Y-120000000D02*
X288570300Y-119922200D01*
X288570300Y-119922200D02*
X270077800Y-119922200D01*
X270077800Y-119922200D02*
X270000000Y-120000000D01*
D30*
%TO.N,Net-(D2-A)*%
X159348100Y-231210100D02*
X159348100Y-232000000D01*
X82620000Y-203000000D02*
X83721900Y-203000000D01*
X160500000Y-232000000D02*
X159348100Y-232000000D01*
X83721900Y-203000000D02*
X89998600Y-209276700D01*
X137414700Y-209276700D02*
X159348100Y-231210100D01*
X89998600Y-209276700D02*
X137414700Y-209276700D01*
%TO.N,Net-(D3-A)*%
X108721900Y-203000000D02*
X109823800Y-204101900D01*
X156399300Y-227622400D02*
X173860100Y-227622400D01*
X178500000Y-232000000D02*
X177348100Y-232000000D01*
X177348100Y-231110400D02*
X177348100Y-232000000D01*
X109823800Y-204101900D02*
X132878800Y-204101900D01*
X132878800Y-204101900D02*
X156399300Y-227622400D01*
X173860100Y-227622400D02*
X177348100Y-231110400D01*
X107620000Y-203000000D02*
X108721900Y-203000000D01*
%TO.N,Net-(D4-A)*%
X170656700Y-206516700D02*
X137238600Y-206516700D01*
X195348100Y-231208100D02*
X170656700Y-206516700D01*
X196500000Y-232000000D02*
X195348100Y-232000000D01*
X195348100Y-232000000D02*
X195348100Y-231208100D01*
X132620000Y-203000000D02*
X133721900Y-203000000D01*
X137238600Y-206516700D02*
X133721900Y-203000000D01*
D29*
%TO.N,unconnected-(J1-SHIELD-PadS1)*%
X277300000Y-104360000D02*
X277300000Y-103258100D01*
X268650000Y-104360000D02*
X268650000Y-103258100D01*
X277300000Y-103258100D02*
X268650000Y-103258100D01*
%TO.N,NB1_MIC*%
X114925000Y-103250000D02*
X114925000Y-104751900D01*
X87658500Y-104751900D02*
X114925000Y-104751900D01*
%TO.N,NB2_MIC*%
X154925000Y-103250000D02*
X154925000Y-101748100D01*
X154925000Y-101748100D02*
X124137500Y-101748100D01*
%TO.N,NB3_MIC*%
X138255200Y-104751900D02*
X194925000Y-104751900D01*
X194925000Y-103250000D02*
X194925000Y-104751900D01*
%TO.N,NB4_MIC*%
X234925000Y-103250000D02*
X234925000Y-104751900D01*
X234925000Y-104751900D02*
X228828800Y-104751900D01*
%TO.N,Net-(J6-PadR1)*%
X229825000Y-230251900D02*
X228761000Y-230251900D01*
X229825000Y-228750000D02*
X229825000Y-230251900D01*
%TO.N,HEADSET_MIC*%
X234925000Y-235250000D02*
X234925000Y-233748100D01*
X234925000Y-233748100D02*
X141748100Y-233748100D01*
X141748100Y-233748100D02*
X140000000Y-232000000D01*
%TO.N,Net-(J6-PadT)*%
X233825000Y-228750000D02*
X233825000Y-227248100D01*
X232048200Y-225471300D02*
X226355000Y-225471300D01*
X233825000Y-227248100D02*
X232048200Y-225471300D01*
%TO.N,Net-(SW1-B)*%
X105080000Y-200160000D02*
X100000000Y-200160000D01*
X125000000Y-200160000D02*
X105080000Y-200160000D01*
X80080000Y-200160000D02*
X100000000Y-200160000D01*
X150000000Y-200160000D02*
X130080000Y-200160000D01*
X130080000Y-200160000D02*
X125000000Y-200160000D01*
X80080000Y-200160000D02*
X75000000Y-200160000D01*
X155080000Y-200160000D02*
X150000000Y-200160000D01*
%TO.N,Net-(U1A--)*%
X81014900Y-129000000D02*
X85160000Y-129000000D01*
X115160000Y-129000000D02*
X114108100Y-129000000D01*
X144108100Y-129000000D02*
X142666000Y-127557900D01*
X75000000Y-121591900D02*
X73941000Y-122650900D01*
X87288900Y-130077000D02*
X86211900Y-129000000D01*
X74778300Y-124350000D02*
X76364900Y-124350000D01*
X113031100Y-130077000D02*
X87288900Y-130077000D01*
X145160000Y-129000000D02*
X144108100Y-129000000D01*
X115160000Y-129000000D02*
X116211900Y-129000000D01*
X73941000Y-123512700D02*
X74778300Y-124350000D01*
X142666000Y-127557900D02*
X117654000Y-127557900D01*
X85160000Y-129000000D02*
X86211900Y-129000000D01*
X114108100Y-129000000D02*
X113031100Y-130077000D01*
X76364900Y-124350000D02*
X81014900Y-129000000D01*
X73941000Y-122650900D02*
X73941000Y-123512700D01*
X75000000Y-120540000D02*
X75000000Y-121591900D01*
X117654000Y-127557900D02*
X116211900Y-129000000D01*
%TO.N,Net-(U1B--)*%
X100160000Y-129000000D02*
X99108100Y-129000000D01*
X116211900Y-140000000D02*
X127211900Y-129000000D01*
X115160000Y-140000000D02*
X116211900Y-140000000D01*
X99108100Y-129000000D02*
X93188100Y-123080000D01*
X93188100Y-123080000D02*
X82620000Y-123080000D01*
X127211900Y-129000000D02*
X130160000Y-129000000D01*
%TO.N,Net-(R7-Pad1)*%
X150000000Y-172500000D02*
X119323400Y-172500000D01*
X119323400Y-172500000D02*
X116903400Y-170080000D01*
%TO.N,Net-(R8-Pad1)*%
X136051900Y-128561100D02*
X136051900Y-130656500D01*
X121090200Y-127909800D02*
X135400600Y-127909800D01*
X136051900Y-130656500D02*
X135997900Y-130710500D01*
X120000000Y-129000000D02*
X121090200Y-127909800D01*
X135400600Y-127909800D02*
X136051900Y-128561100D01*
%TO.N,Net-(R10-Pad1)*%
X191323300Y-173676700D02*
X95266600Y-173676700D01*
X192500000Y-172500000D02*
X191323300Y-173676700D01*
%TO.N,Net-(R11-Pad1)*%
X224928200Y-167428200D02*
X230000000Y-172500000D01*
X105641500Y-167428200D02*
X224928200Y-167428200D01*
%TO.N,Net-(R12-Pad1)*%
X198125500Y-173671900D02*
X231328100Y-173671900D01*
X192589900Y-168136300D02*
X198125500Y-173671900D01*
X231328100Y-173671900D02*
X232500000Y-172500000D01*
X113008900Y-168136300D02*
X192589900Y-168136300D01*
%TO.N,Net-(U2A--)*%
X260000000Y-182000000D02*
X258948100Y-180948100D01*
X243907700Y-180907700D02*
X245000000Y-182000000D01*
X215000000Y-184540000D02*
X216051900Y-184540000D01*
X258948100Y-180948100D02*
X246051900Y-180948100D01*
X246051900Y-180948100D02*
X245000000Y-182000000D01*
X216051900Y-184540000D02*
X219684200Y-180907700D01*
X219684200Y-180907700D02*
X243907700Y-180907700D01*
%TO.N,Net-(U2B--)*%
X222620000Y-187080000D02*
X238080000Y-187080000D01*
X258910000Y-192910000D02*
X246090000Y-192910000D01*
X260000000Y-194000000D02*
X258910000Y-192910000D01*
X238080000Y-187080000D02*
X245000000Y-194000000D01*
X246090000Y-192910000D02*
X245000000Y-194000000D01*
%TD*%
M02*
