0
SECTION
2
HEADER
9
$ACADVER
1
AC1009
0
ENDSEC
0
SECTION
2
ENTITIES
0
POLYLINE
8
CORTE_EXTERNO
66
1
70
1
0
VERTEX
8
CORTE_EXTERNO
10
6.0000
20
156.0000
42
-0.414214
0
VERTEX
8
CORTE_EXTERNO
10
186.0000
20
156.0000
42
-0.414214
0
VERTEX
8
CORTE_EXTERNO
10
192.0000
20
150.0000
42
-0.414214
0
VERTEX
8
CORTE_EXTERNO
10
192.0000
20
6.0000
42
-0.414214
0
VERTEX
8
CORTE_EXTERNO
10
186.0000
20
0.0000
42
-0.414214
0
VERTEX
8
CORTE_EXTERNO
10
6.0000
20
0.0000
42
-0.414214
0
VERTEX
8
CORTE_EXTERNO
10
0.0000
20
6.0000
42
-0.414214
0
VERTEX
8
CORTE_EXTERNO
10
0.0000
20
150.0000
42
-0.414214
0
SEQEND
0
CIRCLE
8
FUROS
10
8.0000
20
148.0000
40
1.7500
0
CIRCLE
8
FUROS
10
184.0000
20
148.0000
40
1.7500
0
CIRCLE
8
FUROS
10
8.0000
20
30.0000
40
1.7500
0
CIRCLE
8
FUROS
10
184.0000
20
30.0000
40
1.7500
0
CIRCLE
8
FUROS
10
9.0000
20
12.0000
40
1.7500
0
CIRCLE
8
FUROS
10
183.0000
20
12.0000
40
1.7500
0
ENDSEC
0
EOF
