%TF.GenerationSoftware,KiCad,Pcbnew,7.0.11+dfsg-1build4*%
%TF.CreationDate,2026-09-04T07:11:48-03:00*%
%TF.ProjectId,MeetingHub-4-v3,4d656574-696e-4674-9875-622d342d7633,rev?*%
%TF.SameCoordinates,Original*%
%TF.FileFunction,Soldermask,Bot*%
%TF.FilePolarity,Negative*%
%FSLAX46Y46*%
G04 Gerber Fmt 4.6, Leading zero omitted, Abs format (unit mm)*
G04 Created by KiCad (PCBNEW 7.0.11+dfsg-1build4) date 2026-09-04 07:11:48*
%MOMM*%
%LPD*%
G01*
G04 APERTURE LIST*
%ADD10R,1.600000X1.600000*%
%ADD11O,1.600000X1.600000*%
%ADD12C,2.100000*%
%ADD13C,1.750000*%
%ADD14C,1.600000*%
%ADD15R,2.400000X2.400000*%
%ADD16O,2.400000X2.400000*%
%ADD17C,0.700000*%
%ADD18O,0.900000X2.400000*%
%ADD19O,0.900000X1.700000*%
%ADD20R,1.050000X1.500000*%
%ADD21O,1.050000X1.500000*%
%ADD22C,2.010000*%
%ADD23C,3.200000*%
%ADD24C,1.200000*%
%ADD25O,2.000000X1.500000*%
%ADD26R,2.000000X1.500000*%
%ADD27C,1.500000*%
%ADD28R,2.000000X2.000000*%
%ADD29C,2.000000*%
G04 APERTURE END LIST*
D10*
%TO.C,D11*%
X40000000Y-62000000D03*
D11*
X40000000Y-59460000D03*
%TD*%
D12*
%TO.C,SW1*%
X21250000Y-90510000D03*
X14240000Y-90510000D03*
D13*
X20000000Y-93000000D03*
X15500000Y-93000000D03*
%TD*%
D14*
%TO.C,R14*%
X53000000Y-58000000D03*
D11*
X53000000Y-55460000D03*
%TD*%
D15*
%TO.C,D1*%
X99000000Y-30000000D03*
D16*
X99000000Y-26190000D03*
%TD*%
D10*
%TO.C,D17*%
X32799999Y-69000000D03*
D11*
X32799999Y-66460000D03*
%TD*%
D10*
%TO.C,D20*%
X43600000Y-69000000D03*
D11*
X43600000Y-66460000D03*
%TD*%
D10*
%TO.C,D10*%
X36400000Y-62000000D03*
D11*
X36400000Y-59460000D03*
%TD*%
D10*
%TO.C,D13*%
X47200000Y-62000000D03*
D11*
X47200000Y-59460000D03*
%TD*%
D10*
%TO.C,D15*%
X25600000Y-69000000D03*
D11*
X25600000Y-66460000D03*
%TD*%
D12*
%TO.C,SW4*%
X57250000Y-90510000D03*
X50240000Y-90510000D03*
D13*
X56000000Y-93000000D03*
X51500000Y-93000000D03*
%TD*%
D17*
%TO.C,J1*%
X20000000Y-20000000D03*
X19150000Y-20000000D03*
X18300000Y-20000000D03*
X17450000Y-20000000D03*
X16600000Y-20000000D03*
X15750000Y-20000000D03*
X14900000Y-20000000D03*
X14050000Y-20000000D03*
X14050000Y-18650000D03*
X14900000Y-18650000D03*
X15750000Y-18650000D03*
X16600000Y-18650000D03*
X17450000Y-18650000D03*
X18300000Y-18650000D03*
X19150000Y-18650000D03*
X20000000Y-18650000D03*
D18*
X21350000Y-19020000D03*
D19*
X21350000Y-15640000D03*
D18*
X12700000Y-19020000D03*
D19*
X12700000Y-15640000D03*
%TD*%
D14*
%TO.C,R5*%
X7000000Y-38000000D03*
D11*
X4460000Y-38000000D03*
%TD*%
D10*
%TO.C,D24*%
X34200000Y-82000000D03*
D11*
X34200000Y-79460000D03*
%TD*%
D10*
%TO.C,D7*%
X25600000Y-62000000D03*
D11*
X25600000Y-59460000D03*
%TD*%
D12*
%TO.C,SW2*%
X33250000Y-90510000D03*
X26240000Y-90510000D03*
D13*
X32000000Y-93000000D03*
X27500000Y-93000000D03*
%TD*%
D14*
%TO.C,R17*%
X64000000Y-44000000D03*
D11*
X64000000Y-41460000D03*
%TD*%
D20*
%TO.C,Q2*%
X58000000Y-44000000D03*
D21*
X59270000Y-44000000D03*
X60540000Y-44000000D03*
%TD*%
D10*
%TO.C,D14*%
X22000000Y-69000000D03*
D11*
X22000000Y-66460000D03*
%TD*%
D10*
%TO.C,D4*%
X72000000Y-58000000D03*
D11*
X72000000Y-55460000D03*
%TD*%
D10*
%TO.C,C3*%
X94000000Y-23000000D03*
D14*
X94000000Y-21000000D03*
%TD*%
D10*
%TO.C,D2*%
X72000000Y-30000000D03*
D11*
X72000000Y-27460000D03*
%TD*%
D14*
%TO.C,R13*%
X53000000Y-44000000D03*
D11*
X53000000Y-41460000D03*
%TD*%
D20*
%TO.C,Q1*%
X58000000Y-30000000D03*
D21*
X59270000Y-30000000D03*
X60540000Y-30000000D03*
%TD*%
D22*
%TO.C,F1*%
X88000000Y-16000000D03*
X93100000Y-17200000D03*
%TD*%
D23*
%TO.C,MH2*%
X103000000Y-15000000D03*
%TD*%
D24*
%TO.C,J2*%
X38000000Y-13000000D03*
X38000000Y-19000000D03*
D25*
X40400000Y-15500000D03*
D26*
X35600000Y-13500000D03*
D25*
X35600000Y-20500000D03*
%TD*%
D23*
%TO.C,MH4*%
X103000000Y-91000000D03*
%TD*%
%TO.C,MH1*%
X7000000Y-15000000D03*
%TD*%
D10*
%TO.C,D23*%
X30600000Y-82000000D03*
D11*
X30600000Y-79460000D03*
%TD*%
D10*
%TO.C,C5*%
X22000000Y-82000000D03*
D14*
X22000000Y-80000000D03*
%TD*%
%TO.C,C1*%
X82000000Y-23000000D03*
X82000000Y-18000000D03*
%TD*%
%TO.C,R15*%
X53000000Y-72000000D03*
D11*
X53000000Y-69460000D03*
%TD*%
D10*
%TO.C,D9*%
X32799999Y-62000000D03*
D11*
X32799999Y-59460000D03*
%TD*%
D14*
%TO.C,R1*%
X25000000Y-15000000D03*
D11*
X25000000Y-12460000D03*
%TD*%
D24*
%TO.C,J4*%
X61000000Y-13000000D03*
X61000000Y-19000000D03*
D25*
X63400000Y-15500000D03*
D26*
X58600000Y-13500000D03*
D25*
X58600000Y-20500000D03*
%TD*%
D14*
%TO.C,R12*%
X53000000Y-30000000D03*
D11*
X53000000Y-27460000D03*
%TD*%
D10*
%TO.C,D25*%
X37800000Y-82000000D03*
D11*
X37800000Y-79460000D03*
%TD*%
D14*
%TO.C,R6*%
X7000000Y-44000000D03*
D11*
X4460000Y-44000000D03*
%TD*%
D14*
%TO.C,R8*%
X7000000Y-56000000D03*
D11*
X4460000Y-56000000D03*
%TD*%
D14*
%TO.C,R3*%
X7000000Y-26000000D03*
D11*
X4460000Y-26000000D03*
%TD*%
D10*
%TO.C,D21*%
X47200000Y-69000000D03*
D11*
X47200000Y-66460000D03*
%TD*%
D14*
%TO.C,R9*%
X7000000Y-62000000D03*
D11*
X4460000Y-62000000D03*
%TD*%
D27*
%TO.C,TP1*%
X104000000Y-30000000D03*
%TD*%
D14*
%TO.C,R16*%
X64000000Y-30000000D03*
D11*
X64000000Y-27460000D03*
%TD*%
D14*
%TO.C,R22*%
X92000000Y-58000000D03*
D11*
X92000000Y-55460000D03*
%TD*%
D24*
%TO.C,J5*%
X72500000Y-13000000D03*
X72500000Y-19000000D03*
D25*
X74900000Y-15500000D03*
D26*
X70100000Y-13500000D03*
D25*
X70100000Y-20500000D03*
%TD*%
D28*
%TO.C,K2*%
X82000000Y-44000000D03*
D29*
X82000000Y-46540000D03*
X82000000Y-54160000D03*
X87080000Y-54160000D03*
X87080000Y-46540000D03*
X87080000Y-44000000D03*
%TD*%
D23*
%TO.C,MH3*%
X7000000Y-91000000D03*
%TD*%
D10*
%TO.C,U1*%
X30000000Y-34000000D03*
D11*
X30000000Y-36540000D03*
X30000000Y-39080000D03*
X30000000Y-41620000D03*
X30000000Y-44160000D03*
X30000000Y-46700000D03*
X30000000Y-49240000D03*
X30000000Y-51780000D03*
X37620000Y-51780000D03*
X37620000Y-49240000D03*
X37620000Y-46700000D03*
X37620000Y-44160000D03*
X37620000Y-41620000D03*
X37620000Y-39080000D03*
X37620000Y-36540000D03*
X37620000Y-34000000D03*
%TD*%
D14*
%TO.C,R2*%
X29000000Y-15000000D03*
D11*
X29000000Y-12460000D03*
%TD*%
D10*
%TO.C,D5*%
X72000000Y-72000000D03*
D11*
X72000000Y-69460000D03*
%TD*%
D28*
%TO.C,K4*%
X82000000Y-72000000D03*
D29*
X82000000Y-74540000D03*
X82000000Y-82160000D03*
X87080000Y-82160000D03*
X87080000Y-74540000D03*
X87080000Y-72000000D03*
%TD*%
D14*
%TO.C,R18*%
X64000000Y-58000000D03*
D11*
X64000000Y-55460000D03*
%TD*%
D24*
%TO.C,J6*%
X70000000Y-93000000D03*
X70000000Y-87000000D03*
D25*
X67600000Y-90500000D03*
D26*
X72400000Y-92500000D03*
D25*
X72400000Y-85500000D03*
%TD*%
D14*
%TO.C,R21*%
X92000000Y-44000000D03*
D11*
X92000000Y-41460000D03*
%TD*%
D14*
%TO.C,R19*%
X64000000Y-72000000D03*
D11*
X64000000Y-69460000D03*
%TD*%
D27*
%TO.C,TP2*%
X104000000Y-36000000D03*
%TD*%
D10*
%TO.C,D6*%
X22000000Y-62000000D03*
D11*
X22000000Y-59460000D03*
%TD*%
D14*
%TO.C,R10*%
X7000000Y-68000000D03*
D11*
X4460000Y-68000000D03*
%TD*%
D14*
%TO.C,R4*%
X7000000Y-32000000D03*
D11*
X4460000Y-32000000D03*
%TD*%
D10*
%TO.C,D3*%
X72000000Y-44000000D03*
D11*
X72000000Y-41460000D03*
%TD*%
D24*
%TO.C,J3*%
X49500000Y-13000000D03*
X49500000Y-19000000D03*
D25*
X51900000Y-15500000D03*
D26*
X47100000Y-13500000D03*
D25*
X47100000Y-20500000D03*
%TD*%
D14*
%TO.C,C4*%
X15000000Y-82000000D03*
X15000000Y-77000000D03*
%TD*%
%TO.C,R11*%
X7000000Y-74000000D03*
D11*
X4460000Y-74000000D03*
%TD*%
D10*
%TO.C,C2*%
X88000000Y-23000000D03*
D14*
X88000000Y-21000000D03*
%TD*%
D10*
%TO.C,D8*%
X29200000Y-62000000D03*
D11*
X29200000Y-59460000D03*
%TD*%
D10*
%TO.C,D16*%
X29200000Y-69000000D03*
D11*
X29200000Y-66460000D03*
%TD*%
D12*
%TO.C,SW3*%
X45250000Y-90510000D03*
X38240000Y-90510000D03*
D13*
X44000000Y-93000000D03*
X39500000Y-93000000D03*
%TD*%
D28*
%TO.C,K3*%
X82000000Y-58000000D03*
D29*
X82000000Y-60540000D03*
X82000000Y-68160000D03*
X87080000Y-68160000D03*
X87080000Y-60540000D03*
X87080000Y-58000000D03*
%TD*%
D10*
%TO.C,D18*%
X36400000Y-69000000D03*
D11*
X36400000Y-66460000D03*
%TD*%
D20*
%TO.C,Q4*%
X58000000Y-72000000D03*
D21*
X59270000Y-72000000D03*
X60540000Y-72000000D03*
%TD*%
D14*
%TO.C,R20*%
X92000000Y-30000000D03*
D11*
X92000000Y-27460000D03*
%TD*%
D10*
%TO.C,D22*%
X27000000Y-82000000D03*
D11*
X27000000Y-79460000D03*
%TD*%
D10*
%TO.C,D12*%
X43600000Y-62000000D03*
D11*
X43600000Y-59460000D03*
%TD*%
D14*
%TO.C,R23*%
X92000000Y-72000000D03*
D11*
X92000000Y-69460000D03*
%TD*%
D10*
%TO.C,D19*%
X40000000Y-69000000D03*
D11*
X40000000Y-66460000D03*
%TD*%
D28*
%TO.C,K1*%
X82000000Y-30000000D03*
D29*
X82000000Y-32540000D03*
X82000000Y-40160000D03*
X87080000Y-40160000D03*
X87080000Y-32540000D03*
X87080000Y-30000000D03*
%TD*%
D20*
%TO.C,Q3*%
X58000000Y-58000000D03*
D21*
X59270000Y-58000000D03*
X60540000Y-58000000D03*
%TD*%
D14*
%TO.C,R7*%
X7000000Y-50000000D03*
D11*
X4460000Y-50000000D03*
%TD*%
M02*
