M48
; DRILL file {KiCad 7.0.11+dfsg-1build4} date Fri Sep  4 07:11:49 2026
; FORMAT={-:-/ absolute / metric / decimal}
; #@! TF.CreationDate,2026-09-04T07:11:49-03:00
; #@! TF.GenerationSoftware,Kicad,Pcbnew,7.0.11+dfsg-1build4
; #@! TF.FileFunction,MixedPlating,1,4
FMAT,2
METRIC
; #@! TA.AperFunction,Plated,PTH,ViaDrill
T1C0.300
; #@! TA.AperFunction,Plated,PTH,ComponentDrill
T2C0.400
; #@! TA.AperFunction,Plated,PTH,ComponentDrill
T3C0.600
; #@! TA.AperFunction,Plated,PTH,ComponentDrill
T4C0.700
; #@! TA.AperFunction,Plated,PTH,ComponentDrill
T5C0.750
; #@! TA.AperFunction,Plated,PTH,ComponentDrill
T6C0.800
; #@! TA.AperFunction,Plated,PTH,ComponentDrill
T7C0.990
; #@! TA.AperFunction,Plated,PTH,ComponentDrill
T8C1.000
; #@! TA.AperFunction,Plated,PTH,ComponentDrill
T9C1.010
; #@! TA.AperFunction,Plated,PTH,ComponentDrill
T10C1.200
; #@! TA.AperFunction,Plated,PTH,ComponentDrill
T11C1.300
; #@! TA.AperFunction,NonPlated,NPTH,ComponentDrill
T12C1.000
; #@! TA.AperFunction,NonPlated,NPTH,ComponentDrill
T13C3.200
%
G90
G05
T1
X34.576Y-47.808
T2
X14.05Y-18.65
X14.05Y-20.0
X14.9Y-18.65
X14.9Y-20.0
X15.75Y-18.65
X15.75Y-20.0
X16.6Y-18.65
X16.6Y-20.0
X17.45Y-18.65
X17.45Y-20.0
X18.3Y-18.65
X18.3Y-20.0
X19.15Y-18.65
X19.15Y-20.0
X20.0Y-18.65
X20.0Y-20.0
T4
X104.0Y-30.0
X104.0Y-36.0
T5
X58.0Y-30.0
X58.0Y-44.0
X58.0Y-58.0
X58.0Y-72.0
X59.27Y-30.0
X59.27Y-44.0
X59.27Y-58.0
X59.27Y-72.0
X60.54Y-30.0
X60.54Y-44.0
X60.54Y-58.0
X60.54Y-72.0
T6
X4.46Y-26.0
X4.46Y-32.0
X4.46Y-38.0
X4.46Y-44.0
X4.46Y-50.0
X4.46Y-56.0
X4.46Y-62.0
X4.46Y-68.0
X4.46Y-74.0
X7.0Y-26.0
X7.0Y-32.0
X7.0Y-38.0
X7.0Y-44.0
X7.0Y-50.0
X7.0Y-56.0
X7.0Y-62.0
X7.0Y-68.0
X7.0Y-74.0
X15.0Y-77.0
X15.0Y-82.0
X22.0Y-59.46
X22.0Y-62.0
X22.0Y-66.46
X22.0Y-69.0
X22.0Y-80.0
X22.0Y-82.0
X25.0Y-12.46
X25.0Y-15.0
X25.6Y-59.46
X25.6Y-62.0
X25.6Y-66.46
X25.6Y-69.0
X27.0Y-79.46
X27.0Y-82.0
X29.0Y-12.46
X29.0Y-15.0
X29.2Y-59.46
X29.2Y-62.0
X29.2Y-66.46
X29.2Y-69.0
X30.0Y-34.0
X30.0Y-36.54
X30.0Y-39.08
X30.0Y-41.62
X30.0Y-44.16
X30.0Y-46.7
X30.0Y-49.24
X30.0Y-51.78
X30.6Y-79.46
X30.6Y-82.0
X32.8Y-59.46
X32.8Y-62.0
X32.8Y-66.46
X32.8Y-69.0
X34.2Y-79.46
X34.2Y-82.0
X36.4Y-59.46
X36.4Y-62.0
X36.4Y-66.46
X36.4Y-69.0
X37.62Y-34.0
X37.62Y-36.54
X37.62Y-39.08
X37.62Y-41.62
X37.62Y-44.16
X37.62Y-46.7
X37.62Y-49.24
X37.62Y-51.78
X37.8Y-79.46
X37.8Y-82.0
X40.0Y-59.46
X40.0Y-62.0
X40.0Y-66.46
X40.0Y-69.0
X43.6Y-59.46
X43.6Y-62.0
X43.6Y-66.46
X43.6Y-69.0
X47.2Y-59.46
X47.2Y-62.0
X47.2Y-66.46
X47.2Y-69.0
X53.0Y-27.46
X53.0Y-30.0
X53.0Y-41.46
X53.0Y-44.0
X53.0Y-55.46
X53.0Y-58.0
X53.0Y-69.46
X53.0Y-72.0
X64.0Y-27.46
X64.0Y-30.0
X64.0Y-41.46
X64.0Y-44.0
X64.0Y-55.46
X64.0Y-58.0
X64.0Y-69.46
X64.0Y-72.0
X72.0Y-27.46
X72.0Y-30.0
X72.0Y-41.46
X72.0Y-44.0
X72.0Y-55.46
X72.0Y-58.0
X72.0Y-69.46
X72.0Y-72.0
X82.0Y-18.0
X82.0Y-23.0
X88.0Y-21.0
X88.0Y-23.0
X92.0Y-27.46
X92.0Y-30.0
X92.0Y-41.46
X92.0Y-44.0
X92.0Y-55.46
X92.0Y-58.0
X92.0Y-69.46
X92.0Y-72.0
X94.0Y-21.0
X94.0Y-23.0
T7
X15.5Y-93.0
X20.0Y-93.0
X27.5Y-93.0
X32.0Y-93.0
X39.5Y-93.0
X44.0Y-93.0
X51.5Y-93.0
X56.0Y-93.0
T8
X82.0Y-30.0
X82.0Y-32.54
X82.0Y-40.16
X82.0Y-44.0
X82.0Y-46.54
X82.0Y-54.16
X82.0Y-58.0
X82.0Y-60.54
X82.0Y-68.16
X82.0Y-72.0
X82.0Y-74.54
X82.0Y-82.16
X87.08Y-30.0
X87.08Y-32.54
X87.08Y-40.16
X87.08Y-44.0
X87.08Y-46.54
X87.08Y-54.16
X87.08Y-58.0
X87.08Y-60.54
X87.08Y-68.16
X87.08Y-72.0
X87.08Y-74.54
X87.08Y-82.16
T9
X88.0Y-16.0
X93.1Y-17.2
T10
X99.0Y-26.19
X99.0Y-30.0
T11
X14.24Y-90.51
X21.25Y-90.51
X26.24Y-90.51
X33.25Y-90.51
X38.24Y-90.51
X45.25Y-90.51
X50.24Y-90.51
X57.25Y-90.51
T12
X38.0Y-13.0
X38.0Y-19.0
X49.5Y-13.0
X49.5Y-19.0
X61.0Y-13.0
X61.0Y-19.0
X70.0Y-87.0
X70.0Y-93.0
X72.5Y-13.0
X72.5Y-19.0
T13
X7.0Y-15.0
X7.0Y-91.0
X103.0Y-15.0
X103.0Y-91.0
T3
G00X12.7Y-16.04
M15
G01X12.7Y-15.24
M16
G05
G00X12.7Y-19.77
M15
G01X12.7Y-18.27
M16
G05
G00X21.35Y-16.04
M15
G01X21.35Y-15.24
M16
G05
G00X21.35Y-19.77
M15
G01X21.35Y-18.27
M16
G05
G00X35.3Y-13.5
M15
G01X35.9Y-13.5
M16
G05
G00X35.3Y-20.5
M15
G01X35.9Y-20.5
M16
G05
G00X40.1Y-15.5
M15
G01X40.7Y-15.5
M16
G05
G00X46.8Y-13.5
M15
G01X47.4Y-13.5
M16
G05
G00X46.8Y-20.5
M15
G01X47.4Y-20.5
M16
G05
G00X51.6Y-15.5
M15
G01X52.2Y-15.5
M16
G05
G00X58.3Y-13.5
M15
G01X58.9Y-13.5
M16
G05
G00X58.3Y-20.5
M15
G01X58.9Y-20.5
M16
G05
G00X63.1Y-15.5
M15
G01X63.7Y-15.5
M16
G05
G00X67.9Y-90.5
M15
G01X67.3Y-90.5
M16
G05
G00X69.8Y-13.5
M15
G01X70.4Y-13.5
M16
G05
G00X69.8Y-20.5
M15
G01X70.4Y-20.5
M16
G05
G00X72.7Y-85.5
M15
G01X72.1Y-85.5
M16
G05
G00X72.7Y-92.5
M15
G01X72.1Y-92.5
M16
G05
G00X74.6Y-15.5
M15
G01X75.2Y-15.5
M16
G05
M30
