%TF.GenerationSoftware,KiCad,Pcbnew,7.0.11+dfsg-1build4*%
%TF.CreationDate,2026-09-04T07:11:48-03:00*%
%TF.ProjectId,MeetingHub-4-v3,4d656574-696e-4674-9875-622d342d7633,rev?*%
%TF.SameCoordinates,Original*%
%TF.FileFunction,Copper,L4,Bot*%
%TF.FilePolarity,Positive*%
%FSLAX46Y46*%
G04 Gerber Fmt 4.6, Leading zero omitted, Abs format (unit mm)*
G04 Created by KiCad (PCBNEW 7.0.11+dfsg-1build4) date 2026-09-04 07:11:48*
%MOMM*%
%LPD*%
G01*
G04 APERTURE LIST*
%TA.AperFunction,ComponentPad*%
%ADD10R,1.600000X1.600000*%
%TD*%
%TA.AperFunction,ComponentPad*%
%ADD11O,1.600000X1.600000*%
%TD*%
%TA.AperFunction,ComponentPad*%
%ADD12C,2.100000*%
%TD*%
%TA.AperFunction,ComponentPad*%
%ADD13C,1.750000*%
%TD*%
%TA.AperFunction,ComponentPad*%
%ADD14C,1.600000*%
%TD*%
%TA.AperFunction,ComponentPad*%
%ADD15R,2.400000X2.400000*%
%TD*%
%TA.AperFunction,ComponentPad*%
%ADD16O,2.400000X2.400000*%
%TD*%
%TA.AperFunction,ComponentPad*%
%ADD17C,0.700000*%
%TD*%
%TA.AperFunction,ComponentPad*%
%ADD18O,0.900000X2.400000*%
%TD*%
%TA.AperFunction,ComponentPad*%
%ADD19O,0.900000X1.700000*%
%TD*%
%TA.AperFunction,ComponentPad*%
%ADD20R,1.050000X1.500000*%
%TD*%
%TA.AperFunction,ComponentPad*%
%ADD21O,1.050000X1.500000*%
%TD*%
%TA.AperFunction,ComponentPad*%
%ADD22C,2.010000*%
%TD*%
%TA.AperFunction,WasherPad*%
%ADD23C,1.200000*%
%TD*%
%TA.AperFunction,ComponentPad*%
%ADD24O,2.000000X1.500000*%
%TD*%
%TA.AperFunction,ComponentPad*%
%ADD25R,2.000000X1.500000*%
%TD*%
%TA.AperFunction,ComponentPad*%
%ADD26C,1.500000*%
%TD*%
%TA.AperFunction,ComponentPad*%
%ADD27R,2.000000X2.000000*%
%TD*%
%TA.AperFunction,ComponentPad*%
%ADD28C,2.000000*%
%TD*%
%TA.AperFunction,ViaPad*%
%ADD29C,0.600000*%
%TD*%
%TA.AperFunction,Conductor*%
%ADD30C,0.200000*%
%TD*%
G04 APERTURE END LIST*
D10*
%TO.P,D11,1*%
%TO.N,/RST1*%
X40000000Y-62000000D03*
D11*
%TO.P,D11,2*%
%TO.N,/BTN2*%
X40000000Y-59460000D03*
%TD*%
D12*
%TO.P,SW1,*%
%TO.N,*%
X21250000Y-90510000D03*
X14240000Y-90510000D03*
D13*
%TO.P,SW1,1*%
%TO.N,+5V*%
X20000000Y-93000000D03*
%TO.P,SW1,2*%
%TO.N,/BTN1*%
X15500000Y-93000000D03*
%TD*%
D14*
%TO.P,R14,1*%
%TO.N,/QO3*%
X53000000Y-58000000D03*
D11*
%TO.P,R14,2*%
%TO.N,/GATE3*%
X53000000Y-55460000D03*
%TD*%
D15*
%TO.P,D1,1*%
%TO.N,/VBUS*%
X99000000Y-30000000D03*
D16*
%TO.P,D1,2*%
%TO.N,GND*%
X99000000Y-26190000D03*
%TD*%
D10*
%TO.P,D17,1*%
%TO.N,/RST4*%
X32799999Y-69000000D03*
D11*
%TO.P,D17,2*%
%TO.N,/BTN3*%
X32799999Y-66460000D03*
%TD*%
D10*
%TO.P,D20,1*%
%TO.N,/RST2*%
X43600000Y-69000000D03*
D11*
%TO.P,D20,2*%
%TO.N,/BTN4*%
X43600000Y-66460000D03*
%TD*%
D10*
%TO.P,D10,1*%
%TO.N,/SET2*%
X36400000Y-62000000D03*
D11*
%TO.P,D10,2*%
%TO.N,/BTN2*%
X36400000Y-59460000D03*
%TD*%
D10*
%TO.P,D13,1*%
%TO.N,/RST4*%
X47200000Y-62000000D03*
D11*
%TO.P,D13,2*%
%TO.N,/BTN2*%
X47200000Y-59460000D03*
%TD*%
D10*
%TO.P,D15,1*%
%TO.N,/RST1*%
X25600000Y-69000000D03*
D11*
%TO.P,D15,2*%
%TO.N,/BTN3*%
X25600000Y-66460000D03*
%TD*%
D12*
%TO.P,SW4,*%
%TO.N,*%
X57250000Y-90510000D03*
X50240000Y-90510000D03*
D13*
%TO.P,SW4,1*%
%TO.N,+5V*%
X56000000Y-93000000D03*
%TO.P,SW4,2*%
%TO.N,/BTN4*%
X51500000Y-93000000D03*
%TD*%
D17*
%TO.P,J1,A1*%
%TO.N,GND*%
X20000000Y-20000000D03*
%TO.P,J1,A4*%
%TO.N,/VBUS*%
X19150000Y-20000000D03*
%TO.P,J1,A5*%
%TO.N,/CC1*%
X18300000Y-20000000D03*
%TO.P,J1,A6*%
%TO.N,N/C*%
X17450000Y-20000000D03*
%TO.P,J1,A7*%
X16600000Y-20000000D03*
%TO.P,J1,A8*%
X15750000Y-20000000D03*
%TO.P,J1,A9*%
%TO.N,/VBUS*%
X14900000Y-20000000D03*
%TO.P,J1,A12*%
%TO.N,GND*%
X14050000Y-20000000D03*
%TO.P,J1,B1*%
X14050000Y-18650000D03*
%TO.P,J1,B4*%
%TO.N,/VBUS*%
X14900000Y-18650000D03*
%TO.P,J1,B5*%
%TO.N,/CC2*%
X15750000Y-18650000D03*
%TO.P,J1,B6*%
%TO.N,N/C*%
X16600000Y-18650000D03*
%TO.P,J1,B7*%
X17450000Y-18650000D03*
%TO.P,J1,B8*%
X18300000Y-18650000D03*
%TO.P,J1,B9*%
%TO.N,/VBUS*%
X19150000Y-18650000D03*
%TO.P,J1,B12*%
%TO.N,GND*%
X20000000Y-18650000D03*
D18*
%TO.P,J1,S1*%
X21350000Y-19020000D03*
D19*
X21350000Y-15640000D03*
D18*
X12700000Y-19020000D03*
D19*
X12700000Y-15640000D03*
%TD*%
D14*
%TO.P,R5,1*%
%TO.N,/SET3*%
X7000000Y-38000000D03*
D11*
%TO.P,R5,2*%
%TO.N,GND*%
X4460000Y-38000000D03*
%TD*%
D10*
%TO.P,D24,1*%
%TO.N,/RST3*%
X34200000Y-82000000D03*
D11*
%TO.P,D24,2*%
%TO.N,/PORN*%
X34200000Y-79460000D03*
%TD*%
D10*
%TO.P,D7,1*%
%TO.N,/RST2*%
X25600000Y-62000000D03*
D11*
%TO.P,D7,2*%
%TO.N,/BTN1*%
X25600000Y-59460000D03*
%TD*%
D12*
%TO.P,SW2,*%
%TO.N,*%
X33250000Y-90510000D03*
X26240000Y-90510000D03*
D13*
%TO.P,SW2,1*%
%TO.N,+5V*%
X32000000Y-93000000D03*
%TO.P,SW2,2*%
%TO.N,/BTN2*%
X27500000Y-93000000D03*
%TD*%
D14*
%TO.P,R17,1*%
%TO.N,/GATE2*%
X64000000Y-44000000D03*
D11*
%TO.P,R17,2*%
%TO.N,GND*%
X64000000Y-41460000D03*
%TD*%
D20*
%TO.P,Q2,1*%
%TO.N,GND*%
X58000000Y-44000000D03*
D21*
%TO.P,Q2,2*%
%TO.N,/GATE2*%
X59270000Y-44000000D03*
%TO.P,Q2,3*%
%TO.N,/COIL2*%
X60540000Y-44000000D03*
%TD*%
D10*
%TO.P,D14,1*%
%TO.N,/SET3*%
X22000000Y-69000000D03*
D11*
%TO.P,D14,2*%
%TO.N,/BTN3*%
X22000000Y-66460000D03*
%TD*%
D10*
%TO.P,D4,1*%
%TO.N,+5V*%
X72000000Y-58000000D03*
D11*
%TO.P,D4,2*%
%TO.N,/COIL3*%
X72000000Y-55460000D03*
%TD*%
D10*
%TO.P,C3,1*%
%TO.N,+5V*%
X94000000Y-23000000D03*
D14*
%TO.P,C3,2*%
%TO.N,GND*%
X94000000Y-21000000D03*
%TD*%
D10*
%TO.P,D2,1*%
%TO.N,+5V*%
X72000000Y-30000000D03*
D11*
%TO.P,D2,2*%
%TO.N,/COIL1*%
X72000000Y-27460000D03*
%TD*%
D14*
%TO.P,R13,1*%
%TO.N,/QO2*%
X53000000Y-44000000D03*
D11*
%TO.P,R13,2*%
%TO.N,/GATE2*%
X53000000Y-41460000D03*
%TD*%
D20*
%TO.P,Q1,1*%
%TO.N,GND*%
X58000000Y-30000000D03*
D21*
%TO.P,Q1,2*%
%TO.N,/GATE1*%
X59270000Y-30000000D03*
%TO.P,Q1,3*%
%TO.N,/COIL1*%
X60540000Y-30000000D03*
%TD*%
D22*
%TO.P,F1,1*%
%TO.N,/VBUS*%
X88000000Y-16000000D03*
%TO.P,F1,2*%
%TO.N,+5V*%
X93100000Y-17200000D03*
%TD*%
D23*
%TO.P,J2,*%
%TO.N,*%
X38000000Y-13000000D03*
X38000000Y-19000000D03*
D24*
%TO.P,J2,2*%
%TO.N,GND*%
X40400000Y-15500000D03*
D25*
%TO.P,J2,3*%
%TO.N,NB1_MIC*%
X35600000Y-13500000D03*
D24*
%TO.P,J2,4*%
%TO.N,GND*%
X35600000Y-20500000D03*
%TD*%
D10*
%TO.P,D23,1*%
%TO.N,/RST2*%
X30600000Y-82000000D03*
D11*
%TO.P,D23,2*%
%TO.N,/PORN*%
X30600000Y-79460000D03*
%TD*%
D10*
%TO.P,C5,1*%
%TO.N,+5V*%
X22000000Y-82000000D03*
D14*
%TO.P,C5,2*%
%TO.N,/PORN*%
X22000000Y-80000000D03*
%TD*%
%TO.P,C1,1*%
%TO.N,+5V*%
X82000000Y-23000000D03*
%TO.P,C1,2*%
%TO.N,GND*%
X82000000Y-18000000D03*
%TD*%
%TO.P,R15,1*%
%TO.N,/QO4*%
X53000000Y-72000000D03*
D11*
%TO.P,R15,2*%
%TO.N,/GATE4*%
X53000000Y-69460000D03*
%TD*%
D10*
%TO.P,D9,1*%
%TO.N,/RST4*%
X32799999Y-62000000D03*
D11*
%TO.P,D9,2*%
%TO.N,/BTN1*%
X32799999Y-59460000D03*
%TD*%
D14*
%TO.P,R1,1*%
%TO.N,/CC1*%
X25000000Y-15000000D03*
D11*
%TO.P,R1,2*%
%TO.N,GND*%
X25000000Y-12460000D03*
%TD*%
D23*
%TO.P,J4,*%
%TO.N,*%
X61000000Y-13000000D03*
X61000000Y-19000000D03*
D24*
%TO.P,J4,2*%
%TO.N,GND*%
X63400000Y-15500000D03*
D25*
%TO.P,J4,3*%
%TO.N,NB3_MIC*%
X58600000Y-13500000D03*
D24*
%TO.P,J4,4*%
%TO.N,GND*%
X58600000Y-20500000D03*
%TD*%
D14*
%TO.P,R12,1*%
%TO.N,/QO1*%
X53000000Y-30000000D03*
D11*
%TO.P,R12,2*%
%TO.N,/GATE1*%
X53000000Y-27460000D03*
%TD*%
D10*
%TO.P,D25,1*%
%TO.N,/RST4*%
X37800000Y-82000000D03*
D11*
%TO.P,D25,2*%
%TO.N,/PORN*%
X37800000Y-79460000D03*
%TD*%
D14*
%TO.P,R6,1*%
%TO.N,/SET4*%
X7000000Y-44000000D03*
D11*
%TO.P,R6,2*%
%TO.N,GND*%
X4460000Y-44000000D03*
%TD*%
D14*
%TO.P,R8,1*%
%TO.N,/RST2*%
X7000000Y-56000000D03*
D11*
%TO.P,R8,2*%
%TO.N,GND*%
X4460000Y-56000000D03*
%TD*%
D14*
%TO.P,R3,1*%
%TO.N,/SET1*%
X7000000Y-26000000D03*
D11*
%TO.P,R3,2*%
%TO.N,GND*%
X4460000Y-26000000D03*
%TD*%
D10*
%TO.P,D21,1*%
%TO.N,/RST3*%
X47200000Y-69000000D03*
D11*
%TO.P,D21,2*%
%TO.N,/BTN4*%
X47200000Y-66460000D03*
%TD*%
D14*
%TO.P,R9,1*%
%TO.N,/RST3*%
X7000000Y-62000000D03*
D11*
%TO.P,R9,2*%
%TO.N,GND*%
X4460000Y-62000000D03*
%TD*%
D26*
%TO.P,TP1,1*%
%TO.N,+5V*%
X104000000Y-30000000D03*
%TD*%
D14*
%TO.P,R16,1*%
%TO.N,/GATE1*%
X64000000Y-30000000D03*
D11*
%TO.P,R16,2*%
%TO.N,GND*%
X64000000Y-27460000D03*
%TD*%
D14*
%TO.P,R22,1*%
%TO.N,/NCBIAS3*%
X92000000Y-58000000D03*
D11*
%TO.P,R22,2*%
%TO.N,GND*%
X92000000Y-55460000D03*
%TD*%
D23*
%TO.P,J5,*%
%TO.N,*%
X72500000Y-13000000D03*
X72500000Y-19000000D03*
D24*
%TO.P,J5,2*%
%TO.N,GND*%
X74900000Y-15500000D03*
D25*
%TO.P,J5,3*%
%TO.N,NB4_MIC*%
X70100000Y-13500000D03*
D24*
%TO.P,J5,4*%
%TO.N,GND*%
X70100000Y-20500000D03*
%TD*%
D27*
%TO.P,K2,1*%
%TO.N,/NCBIAS2*%
X82000000Y-44000000D03*
D28*
%TO.P,K2,2*%
%TO.N,+5V*%
X82000000Y-46540000D03*
%TO.P,K2,5*%
%TO.N,NB2_MIC*%
X82000000Y-54160000D03*
%TO.P,K2,6*%
X87080000Y-54160000D03*
%TO.P,K2,9*%
%TO.N,/COIL2*%
X87080000Y-46540000D03*
%TO.P,K2,10*%
%TO.N,HS_MIC*%
X87080000Y-44000000D03*
%TD*%
D10*
%TO.P,U1,1*%
%TO.N,/QO4*%
X30000000Y-34000000D03*
D11*
%TO.P,U1,2*%
%TO.N,/QO1*%
X30000000Y-36540000D03*
%TO.P,U1,3*%
%TO.N,/RST1*%
X30000000Y-39080000D03*
%TO.P,U1,4*%
%TO.N,/SET1*%
X30000000Y-41620000D03*
%TO.P,U1,5*%
%TO.N,+5V*%
X30000000Y-44160000D03*
%TO.P,U1,6*%
%TO.N,/SET2*%
X30000000Y-46700000D03*
%TO.P,U1,7*%
%TO.N,/RST2*%
X30000000Y-49240000D03*
%TO.P,U1,8*%
%TO.N,GND*%
X30000000Y-51780000D03*
%TO.P,U1,9*%
%TO.N,/QO2*%
X37620000Y-51780000D03*
%TO.P,U1,10*%
%TO.N,/QO3*%
X37620000Y-49240000D03*
%TO.P,U1,11*%
%TO.N,/RST3*%
X37620000Y-46700000D03*
%TO.P,U1,12*%
%TO.N,/SET3*%
X37620000Y-44160000D03*
%TO.P,U1,13*%
%TO.N,N/C*%
X37620000Y-41620000D03*
%TO.P,U1,14*%
%TO.N,/SET4*%
X37620000Y-39080000D03*
%TO.P,U1,15*%
%TO.N,/RST4*%
X37620000Y-36540000D03*
%TO.P,U1,16*%
%TO.N,+5V*%
X37620000Y-34000000D03*
%TD*%
D14*
%TO.P,R2,1*%
%TO.N,/CC2*%
X29000000Y-15000000D03*
D11*
%TO.P,R2,2*%
%TO.N,GND*%
X29000000Y-12460000D03*
%TD*%
D10*
%TO.P,D5,1*%
%TO.N,+5V*%
X72000000Y-72000000D03*
D11*
%TO.P,D5,2*%
%TO.N,/COIL4*%
X72000000Y-69460000D03*
%TD*%
D27*
%TO.P,K4,1*%
%TO.N,/NCBIAS4*%
X82000000Y-72000000D03*
D28*
%TO.P,K4,2*%
%TO.N,+5V*%
X82000000Y-74540000D03*
%TO.P,K4,5*%
%TO.N,NB4_MIC*%
X82000000Y-82160000D03*
%TO.P,K4,6*%
X87080000Y-82160000D03*
%TO.P,K4,9*%
%TO.N,/COIL4*%
X87080000Y-74540000D03*
%TO.P,K4,10*%
%TO.N,HS_MIC*%
X87080000Y-72000000D03*
%TD*%
D14*
%TO.P,R18,1*%
%TO.N,/GATE3*%
X64000000Y-58000000D03*
D11*
%TO.P,R18,2*%
%TO.N,GND*%
X64000000Y-55460000D03*
%TD*%
D23*
%TO.P,J6,*%
%TO.N,*%
X70000000Y-93000000D03*
X70000000Y-87000000D03*
D24*
%TO.P,J6,2*%
%TO.N,GND*%
X67600000Y-90500000D03*
D25*
%TO.P,J6,3*%
%TO.N,HS_MIC*%
X72400000Y-92500000D03*
D24*
%TO.P,J6,4*%
%TO.N,GND*%
X72400000Y-85500000D03*
%TD*%
D14*
%TO.P,R21,1*%
%TO.N,/NCBIAS2*%
X92000000Y-44000000D03*
D11*
%TO.P,R21,2*%
%TO.N,GND*%
X92000000Y-41460000D03*
%TD*%
D14*
%TO.P,R19,1*%
%TO.N,/GATE4*%
X64000000Y-72000000D03*
D11*
%TO.P,R19,2*%
%TO.N,GND*%
X64000000Y-69460000D03*
%TD*%
D26*
%TO.P,TP2,1*%
%TO.N,GND*%
X104000000Y-36000000D03*
%TD*%
D10*
%TO.P,D6,1*%
%TO.N,/SET1*%
X22000000Y-62000000D03*
D11*
%TO.P,D6,2*%
%TO.N,/BTN1*%
X22000000Y-59460000D03*
%TD*%
D14*
%TO.P,R10,1*%
%TO.N,/RST4*%
X7000000Y-68000000D03*
D11*
%TO.P,R10,2*%
%TO.N,GND*%
X4460000Y-68000000D03*
%TD*%
D14*
%TO.P,R4,1*%
%TO.N,/SET2*%
X7000000Y-32000000D03*
D11*
%TO.P,R4,2*%
%TO.N,GND*%
X4460000Y-32000000D03*
%TD*%
D10*
%TO.P,D3,1*%
%TO.N,+5V*%
X72000000Y-44000000D03*
D11*
%TO.P,D3,2*%
%TO.N,/COIL2*%
X72000000Y-41460000D03*
%TD*%
D23*
%TO.P,J3,*%
%TO.N,*%
X49500000Y-13000000D03*
X49500000Y-19000000D03*
D24*
%TO.P,J3,2*%
%TO.N,GND*%
X51900000Y-15500000D03*
D25*
%TO.P,J3,3*%
%TO.N,NB2_MIC*%
X47100000Y-13500000D03*
D24*
%TO.P,J3,4*%
%TO.N,GND*%
X47100000Y-20500000D03*
%TD*%
D14*
%TO.P,C4,1*%
%TO.N,+5V*%
X15000000Y-82000000D03*
%TO.P,C4,2*%
%TO.N,GND*%
X15000000Y-77000000D03*
%TD*%
%TO.P,R11,1*%
%TO.N,/PORN*%
X7000000Y-74000000D03*
D11*
%TO.P,R11,2*%
%TO.N,GND*%
X4460000Y-74000000D03*
%TD*%
D10*
%TO.P,C2,1*%
%TO.N,+5V*%
X88000000Y-23000000D03*
D14*
%TO.P,C2,2*%
%TO.N,GND*%
X88000000Y-21000000D03*
%TD*%
D10*
%TO.P,D8,1*%
%TO.N,/RST3*%
X29200000Y-62000000D03*
D11*
%TO.P,D8,2*%
%TO.N,/BTN1*%
X29200000Y-59460000D03*
%TD*%
D10*
%TO.P,D16,1*%
%TO.N,/RST2*%
X29200000Y-69000000D03*
D11*
%TO.P,D16,2*%
%TO.N,/BTN3*%
X29200000Y-66460000D03*
%TD*%
D12*
%TO.P,SW3,*%
%TO.N,*%
X45250000Y-90510000D03*
X38240000Y-90510000D03*
D13*
%TO.P,SW3,1*%
%TO.N,+5V*%
X44000000Y-93000000D03*
%TO.P,SW3,2*%
%TO.N,/BTN3*%
X39500000Y-93000000D03*
%TD*%
D27*
%TO.P,K3,1*%
%TO.N,/NCBIAS3*%
X82000000Y-58000000D03*
D28*
%TO.P,K3,2*%
%TO.N,+5V*%
X82000000Y-60540000D03*
%TO.P,K3,5*%
%TO.N,NB3_MIC*%
X82000000Y-68160000D03*
%TO.P,K3,6*%
X87080000Y-68160000D03*
%TO.P,K3,9*%
%TO.N,/COIL3*%
X87080000Y-60540000D03*
%TO.P,K3,10*%
%TO.N,HS_MIC*%
X87080000Y-58000000D03*
%TD*%
D10*
%TO.P,D18,1*%
%TO.N,/SET4*%
X36400000Y-69000000D03*
D11*
%TO.P,D18,2*%
%TO.N,/BTN4*%
X36400000Y-66460000D03*
%TD*%
D20*
%TO.P,Q4,1*%
%TO.N,GND*%
X58000000Y-72000000D03*
D21*
%TO.P,Q4,2*%
%TO.N,/GATE4*%
X59270000Y-72000000D03*
%TO.P,Q4,3*%
%TO.N,/COIL4*%
X60540000Y-72000000D03*
%TD*%
D14*
%TO.P,R20,1*%
%TO.N,/NCBIAS1*%
X92000000Y-30000000D03*
D11*
%TO.P,R20,2*%
%TO.N,GND*%
X92000000Y-27460000D03*
%TD*%
D10*
%TO.P,D22,1*%
%TO.N,/RST1*%
X27000000Y-82000000D03*
D11*
%TO.P,D22,2*%
%TO.N,/PORN*%
X27000000Y-79460000D03*
%TD*%
D10*
%TO.P,D12,1*%
%TO.N,/RST3*%
X43600000Y-62000000D03*
D11*
%TO.P,D12,2*%
%TO.N,/BTN2*%
X43600000Y-59460000D03*
%TD*%
D14*
%TO.P,R23,1*%
%TO.N,/NCBIAS4*%
X92000000Y-72000000D03*
D11*
%TO.P,R23,2*%
%TO.N,GND*%
X92000000Y-69460000D03*
%TD*%
D10*
%TO.P,D19,1*%
%TO.N,/RST1*%
X40000000Y-69000000D03*
D11*
%TO.P,D19,2*%
%TO.N,/BTN4*%
X40000000Y-66460000D03*
%TD*%
D27*
%TO.P,K1,1*%
%TO.N,/NCBIAS1*%
X82000000Y-30000000D03*
D28*
%TO.P,K1,2*%
%TO.N,+5V*%
X82000000Y-32540000D03*
%TO.P,K1,5*%
%TO.N,NB1_MIC*%
X82000000Y-40160000D03*
%TO.P,K1,6*%
X87080000Y-40160000D03*
%TO.P,K1,9*%
%TO.N,/COIL1*%
X87080000Y-32540000D03*
%TO.P,K1,10*%
%TO.N,HS_MIC*%
X87080000Y-30000000D03*
%TD*%
D20*
%TO.P,Q3,1*%
%TO.N,GND*%
X58000000Y-58000000D03*
D21*
%TO.P,Q3,2*%
%TO.N,/GATE3*%
X59270000Y-58000000D03*
%TO.P,Q3,3*%
%TO.N,/COIL3*%
X60540000Y-58000000D03*
%TD*%
D14*
%TO.P,R7,1*%
%TO.N,/RST1*%
X7000000Y-50000000D03*
D11*
%TO.P,R7,2*%
%TO.N,GND*%
X4460000Y-50000000D03*
%TD*%
D29*
%TO.N,/SET4*%
X34576500Y-47808200D03*
%TD*%
D30*
%TO.N,/BTN1*%
X23101900Y-85398100D02*
X15500000Y-93000000D01*
X25600000Y-59460000D02*
X23101900Y-61958100D01*
X23101900Y-61958100D02*
X23101900Y-85398100D01*
%TO.N,/BTN2*%
X32131000Y-60561900D02*
X31248100Y-61444800D01*
X35298100Y-59460000D02*
X34196200Y-60561900D01*
X31248100Y-61444800D02*
X31248100Y-78349900D01*
X34196200Y-60561900D02*
X32131000Y-60561900D01*
X31736700Y-88763300D02*
X27500000Y-93000000D01*
X36400000Y-59460000D02*
X35298100Y-59460000D01*
X31736700Y-78838500D02*
X31736700Y-88763300D01*
X31248100Y-78349900D02*
X31736700Y-78838500D01*
%TO.N,/BTN3*%
X39500000Y-93000000D02*
X39603900Y-92896100D01*
X33418000Y-67561900D02*
X32800000Y-67561900D01*
X39603900Y-74230900D02*
X34239600Y-68866600D01*
X34239600Y-68866600D02*
X34239600Y-68383500D01*
X39603900Y-92896100D02*
X39603900Y-74230900D01*
X34239600Y-68383500D02*
X33418000Y-67561900D01*
X32800000Y-66460000D02*
X32800000Y-67561900D01*
%TO.N,/BTN4*%
X51603900Y-85965200D02*
X51603900Y-92896100D01*
X43600000Y-66460000D02*
X43600000Y-67561900D01*
X43600000Y-67561900D02*
X44218000Y-67561900D01*
X44218000Y-67561900D02*
X45038100Y-68382000D01*
X45038100Y-68382000D02*
X45038100Y-79399400D01*
X51603900Y-92896100D02*
X51500000Y-93000000D01*
X45038100Y-79399400D02*
X51603900Y-85965200D01*
%TO.N,/GATE1*%
X59270000Y-30000000D02*
X59270000Y-28948100D01*
X62948100Y-28948100D02*
X59270000Y-28948100D01*
X64000000Y-30000000D02*
X62948100Y-28948100D01*
%TO.N,/GATE2*%
X62948100Y-42948100D02*
X64000000Y-44000000D01*
X59270000Y-44000000D02*
X59270000Y-42948100D01*
X59270000Y-42948100D02*
X62948100Y-42948100D01*
%TO.N,/GATE3*%
X62948100Y-59051900D02*
X59270000Y-59051900D01*
X64000000Y-58000000D02*
X62948100Y-59051900D01*
X59270000Y-58000000D02*
X59270000Y-59051900D01*
%TO.N,/GATE4*%
X64000000Y-72000000D02*
X62948100Y-70948100D01*
X62948100Y-70948100D02*
X59270000Y-70948100D01*
X59270000Y-72000000D02*
X59270000Y-70948100D01*
%TO.N,/NCBIAS1*%
X82000000Y-30000000D02*
X83301900Y-30000000D01*
X90650400Y-28650400D02*
X92000000Y-30000000D01*
X84651500Y-28650400D02*
X90650400Y-28650400D01*
X83301900Y-30000000D02*
X84651500Y-28650400D01*
%TO.N,/QO4*%
X45440000Y-69356900D02*
X48083100Y-72000000D01*
X30000000Y-34000000D02*
X30000000Y-35101900D01*
X36012100Y-51870300D02*
X39015500Y-54873700D01*
X41101900Y-62220900D02*
X44728300Y-65847300D01*
X45440000Y-67329600D02*
X45440000Y-69356900D01*
X44728300Y-65847300D02*
X44728300Y-66617900D01*
X48083100Y-72000000D02*
X53000000Y-72000000D01*
X30137700Y-35101900D02*
X36012100Y-40976300D01*
X39086200Y-54873800D02*
X41101900Y-56889500D01*
X41101900Y-56889500D02*
X41101900Y-62220900D01*
X44728300Y-66617900D02*
X45440000Y-67329600D01*
X36012100Y-40976300D02*
X36012100Y-51870300D01*
X39015500Y-54873700D02*
X39015500Y-54873800D01*
X30000000Y-35101900D02*
X30137700Y-35101900D01*
X39015500Y-54873800D02*
X39086200Y-54873800D01*
%TO.N,/RST1*%
X38898100Y-66933900D02*
X38898100Y-64203800D01*
X38496200Y-54922700D02*
X38496200Y-54922800D01*
X30228300Y-40181900D02*
X35469000Y-45422600D01*
X27000000Y-80898100D02*
X26862300Y-80898100D01*
X39862300Y-67898100D02*
X38898100Y-66933900D01*
X30000000Y-39080000D02*
X30000000Y-39630900D01*
X38898100Y-55324600D02*
X38898100Y-59934100D01*
X38898000Y-55324600D02*
X38898100Y-55324600D01*
X38898100Y-59934100D02*
X39862100Y-60898100D01*
X26862300Y-80898100D02*
X25600000Y-79635800D01*
X30000000Y-40181900D02*
X30228300Y-40181900D01*
X40000000Y-69000000D02*
X40000000Y-67898100D01*
X40000000Y-62000000D02*
X40000000Y-60898100D01*
X40000000Y-67898100D02*
X39862300Y-67898100D01*
X38496200Y-54922800D02*
X38898000Y-55324600D01*
X35469000Y-51895500D02*
X38496200Y-54922700D01*
X25600000Y-79635800D02*
X25600000Y-69000000D01*
X40000000Y-62000000D02*
X40000000Y-63101900D01*
X39862100Y-60898100D02*
X40000000Y-60898100D01*
X27000000Y-82000000D02*
X27000000Y-80898100D01*
X30000000Y-39630900D02*
X19630900Y-50000000D01*
X38898100Y-64203800D02*
X40000000Y-63101900D01*
X19630900Y-50000000D02*
X7000000Y-50000000D01*
X30000000Y-39630900D02*
X30000000Y-40181900D01*
X35469000Y-45422600D02*
X35469000Y-51895500D01*
%TO.N,/RST2*%
X25600000Y-64436000D02*
X25600000Y-62000000D01*
X30000000Y-50341900D02*
X29862300Y-50341900D01*
X29200000Y-69000000D02*
X29200000Y-67898100D01*
X30000000Y-49240000D02*
X30000000Y-50341900D01*
X30600000Y-80898100D02*
X30462300Y-80898100D01*
X25600000Y-62000000D02*
X25600000Y-60898100D01*
X29862300Y-50341900D02*
X26701900Y-53502300D01*
X29200000Y-67898100D02*
X29062100Y-67898100D01*
X26701900Y-59934100D02*
X25737900Y-60898100D01*
X30462300Y-80898100D02*
X29200000Y-79635800D01*
X25737900Y-60898100D02*
X25600000Y-60898100D01*
X29200000Y-79635800D02*
X29200000Y-69000000D01*
X29062100Y-67898100D02*
X25600000Y-64436000D01*
X26701900Y-53502300D02*
X26701900Y-59934100D01*
X30600000Y-82000000D02*
X30600000Y-80898100D01*
%TO.N,/RST3*%
X45271800Y-64773700D02*
X43600000Y-63101900D01*
X47200000Y-69000000D02*
X47200000Y-67898100D01*
X42498100Y-52542300D02*
X37757700Y-47801900D01*
X42498100Y-59934100D02*
X42498100Y-52542300D01*
X43600000Y-60898100D02*
X43462100Y-60898100D01*
X47200000Y-67898100D02*
X47062100Y-67898100D01*
X47062100Y-67898100D02*
X45271800Y-66107800D01*
X43600000Y-62000000D02*
X43600000Y-60898100D01*
X43462100Y-60898100D02*
X42498100Y-59934100D01*
X45271800Y-66107800D02*
X45271800Y-64773700D01*
X37757700Y-47801900D02*
X37620000Y-47801900D01*
X43600000Y-62000000D02*
X43600000Y-63101900D01*
X37620000Y-46700000D02*
X37620000Y-47801900D01*
%TO.N,/RST4*%
X31650000Y-67850000D02*
X32800000Y-69000000D01*
X37757700Y-37641900D02*
X46098100Y-45982300D01*
X47062100Y-60898100D02*
X47200000Y-60898100D01*
X32800000Y-62000000D02*
X32800000Y-63101900D01*
X47200000Y-62000000D02*
X47200000Y-60898100D01*
X37662100Y-80898100D02*
X32800000Y-76036000D01*
X37800000Y-80898100D02*
X37662100Y-80898100D01*
X37620000Y-36540000D02*
X37620000Y-37641900D01*
X46098100Y-45982300D02*
X46098100Y-59934100D01*
X31650000Y-64251900D02*
X31650000Y-67850000D01*
X46098100Y-59934100D02*
X47062100Y-60898100D01*
X32800000Y-63101900D02*
X31650000Y-64251900D01*
X37620000Y-37641900D02*
X37757700Y-37641900D01*
X32800000Y-76036000D02*
X32800000Y-69000000D01*
X37800000Y-82000000D02*
X37800000Y-80898100D01*
%TO.N,/SET1*%
X23101900Y-49482300D02*
X23101900Y-59934100D01*
X30000000Y-41620000D02*
X30000000Y-42721900D01*
X22000000Y-62000000D02*
X22000000Y-60898100D01*
X22137900Y-60898100D02*
X22000000Y-60898100D01*
X29862300Y-42721900D02*
X23101900Y-49482300D01*
X23101900Y-59934100D02*
X22137900Y-60898100D01*
X30000000Y-42721900D02*
X29862300Y-42721900D01*
%TO.N,/SET2*%
X30000000Y-47801900D02*
X30228300Y-47801900D01*
X36400000Y-62000000D02*
X36400000Y-60898100D01*
X36596000Y-60898100D02*
X36400000Y-60898100D01*
X37517300Y-55090900D02*
X37517300Y-59976800D01*
X30000000Y-46700000D02*
X30000000Y-47801900D01*
X37517300Y-59976800D02*
X36596000Y-60898100D01*
X30228300Y-47801900D02*
X37517300Y-55090900D01*
%TO.N,/SET3*%
X22000000Y-69000000D02*
X22000000Y-67898100D01*
X5891800Y-39108200D02*
X5891800Y-51927600D01*
X5891800Y-51927600D02*
X21862300Y-67898100D01*
X7000000Y-38000000D02*
X5891800Y-39108200D01*
X21862300Y-67898100D02*
X22000000Y-67898100D01*
%TO.N,/SET4*%
X36400000Y-69000000D02*
X36400000Y-67898100D01*
X34576500Y-51571300D02*
X34576500Y-47808200D01*
X37962400Y-66473400D02*
X37962400Y-54957200D01*
X36537700Y-67898100D02*
X37962400Y-66473400D01*
X36400000Y-67898100D02*
X36537700Y-67898100D01*
X37962400Y-54957200D02*
X34576500Y-51571300D01*
%TO.N,/VBUS*%
X97498100Y-28615000D02*
X97498100Y-30000000D01*
X14900000Y-18650000D02*
X14900000Y-20000000D01*
X19150000Y-18650000D02*
X19150000Y-20000000D01*
X88000000Y-19116900D02*
X97498100Y-28615000D01*
X99000000Y-30000000D02*
X97498100Y-30000000D01*
X88000000Y-16000000D02*
X88000000Y-19116900D01*
%TO.N,HS_MIC*%
X72400000Y-92500000D02*
X73701900Y-92500000D01*
X85778100Y-45301900D02*
X87080000Y-44000000D01*
X87080000Y-72000000D02*
X85755000Y-70675000D01*
X85755000Y-59325000D02*
X87080000Y-58000000D01*
X87080000Y-30000000D02*
X85730800Y-31349200D01*
X83912100Y-75167900D02*
X83912100Y-82289800D01*
X87080000Y-72000000D02*
X83912100Y-75167900D01*
X85755000Y-70675000D02*
X85755000Y-59325000D01*
X87080000Y-58000000D02*
X85778100Y-56698100D01*
X83912100Y-82289800D02*
X73701900Y-92500000D01*
X85778100Y-56698100D02*
X85778100Y-45301900D01*
X85730800Y-42650800D02*
X87080000Y-44000000D01*
X85730800Y-31349200D02*
X85730800Y-42650800D01*
%TO.N,NB1_MIC*%
X41350300Y-11649700D02*
X39073700Y-13926300D01*
X73583900Y-31743900D02*
X73583900Y-26593900D01*
X65379900Y-15663800D02*
X61365800Y-11649700D01*
X61365800Y-11649700D02*
X41350300Y-11649700D01*
X82000000Y-40160000D02*
X73583900Y-31743900D01*
X65379900Y-18389900D02*
X65379900Y-15663800D01*
X39073700Y-13926300D02*
X37328200Y-13926300D01*
X73583900Y-26593900D02*
X65379900Y-18389900D01*
X35600000Y-13500000D02*
X36901900Y-13500000D01*
X37328200Y-13926300D02*
X36901900Y-13500000D01*
%TO.N,NB2_MIC*%
X80698100Y-40764400D02*
X80698100Y-52858100D01*
X70414400Y-24464600D02*
X70414400Y-30480700D01*
X47465400Y-12082700D02*
X59433000Y-12082700D01*
X47100000Y-12448100D02*
X47465400Y-12082700D01*
X59433000Y-12082700D02*
X60000000Y-12649700D01*
X80698100Y-52858100D02*
X82000000Y-54160000D01*
X60000000Y-12649700D02*
X60000000Y-14050200D01*
X47100000Y-13500000D02*
X47100000Y-12448100D01*
X60000000Y-14050200D02*
X70414400Y-24464600D01*
X70414400Y-30480700D02*
X80698100Y-40764400D01*
%TO.N,NB3_MIC*%
X69870800Y-30605300D02*
X77449000Y-38183500D01*
X69870800Y-25822700D02*
X69870800Y-30605300D01*
X77449000Y-38183500D02*
X77449000Y-63609000D01*
X77449000Y-63609000D02*
X82000000Y-68160000D01*
X58600000Y-14551900D02*
X69870800Y-25822700D01*
X58600000Y-13500000D02*
X58600000Y-14551900D01*
%TO.N,NB4_MIC*%
X83369400Y-36704700D02*
X74386200Y-27721500D01*
X74386200Y-18838100D02*
X70100000Y-14551900D01*
X83369400Y-80790600D02*
X83369400Y-36704700D01*
X82000000Y-82160000D02*
X83369400Y-80790600D01*
X70100000Y-13500000D02*
X70100000Y-14551900D01*
X74386200Y-27721500D02*
X74386200Y-18838100D01*
%TD*%
M02*
