#VRML V2.0 utf8
# 3D model generated by easyeda2kicad.py (https://github.com/uPesy/easyeda2kicad.py)

Shape{
    appearance Appearance {
        material  Material 	{
            diffuseColor 0.10196078431372549 0.10196078431372549 0.10196078431372549
            specularColor 0.03137254901960784 0.03137254901960784 0.03137254901960784
            ambientIntensity 0.102
            transparency 0.0
            shininess 0.5
        }
    }
    geometry IndexedFaceSet {
        ccw TRUE
        solid FALSE
        coord DEF co Coordinate {
            point [
                0.3028 0.0509 -0.0787, 0.2964 0.0024 -0.0787, -0.0228 0.0024 -0.0787, -1.4362 0.8071 -0.0787, -1.4362 1.2008 -0.0787, -1.3691 1.2008 -0.0787, 0.4929 0.1969 -0.0787, 0.442 0.1901 -0.0787, 0.5613 0.8071 -0.0787, 0.6634 0.0984 -0.0787, 0.6616 0.1008 -0.0787, 1.8709 0.1008 -0.0787, 0.926 0.8071 -0.0787, 1.8709 1.2008 -0.0787, 0.926 1.2008 -0.0787, 0.6321 0.1392 -0.0787, 0.5913 0.1705 -0.0787, 0.5439 0.1901 -0.0787, 0.3945 0.1705 -0.0787, -0.0228 0.1008 -0.0787, 0.5613 1.2008 -0.0787, -0.0228 1.2008 -0.0787, -0.2551 1.2008 -0.0787, -0.2551 0.8071 -0.0787, -0.6488 0.8071 -0.0787, -0.7114 0.1008 -0.0787, -1.7172 0.1008 -0.0787, -2.0009 0.1008 -0.0787, -1.8299 0.8071 -0.0787, -2.0009 1.2008 -0.0787, -1.8299 1.2008 -0.0787, 0.3537 -0.1392 -0.0787, 0.3945 -0.1705 -0.0787, -0.0228 -1.2008 -0.0787, 0.6831 -0.0509 -0.0787, 1.8709 0.0024 -0.0787, 0.6634 -0.0984 -0.0787, 1.8709 -1.2008 -0.0787, 0.6321 -0.1392 -0.0787, 0.5913 -0.1705 -0.0787, 0.2961 -0.0 -0.0787, 0.3028 -0.0509 -0.0787, 0.3224 -0.0984 -0.0787, 0.442 -0.1901 -0.0787, 0.4929 -0.1969 -0.0787, 0.5439 -0.1901 -0.0787, 0.3537 0.1392 -0.0787, 0.3243 0.1008 -0.0787, 0.3224 0.0984 -0.0787, 0.6898 -0.0 -0.0787, 0.6895 0.0024 -0.0787, 0.6831 0.0509 -0.0787, -2.0728 -0.0509 -0.0787, -2.0661 -0.0 -0.0787, -2.0009 0.0024 -0.0787, -2.212 -0.1901 -0.0787, -2.1646 -0.1705 -0.0787, -2.0009 -1.2008 -0.0787, -2.1238 -0.1392 -0.0787, -2.0925 -0.0984 -0.0787, -2.4531 -0.0509 -0.0787, -2.4335 -0.0984 -0.0787, -2.6764 -1.2008 -0.0787, -2.4022 -0.1392 -0.0787, -2.3614 -0.1705 -0.0787, -2.3139 -0.1901 -0.0787, -2.263 -0.1969 -0.0787, -2.4316 0.1008 -0.0787, -2.4335 0.0984 -0.0787, -2.6764 0.1008 -0.0787, -2.4531 0.0509 -0.0787, -2.6764 0.0024 -0.0787, -2.4595 0.0024 -0.0787, -2.4598 0.0 -0.0787, -2.4022 0.1392 -0.0787, -2.6764 1.2008 -0.0787, -2.3614 0.1705 -0.0787, -2.1646 0.1705 -0.0787, -2.212 0.1901 -0.0787, -2.263 0.1969 -0.0787, -2.3139 0.1901 -0.0787, -2.0665 0.0024 -0.0787, -2.0728 0.0509 -0.0787, -2.0925 0.0984 -0.0787, -2.0944 0.1008 -0.0787, -2.1238 0.1392 -0.0787, -1.4075 -0.0636 -0.0787, -1.4075 -0.0204 -0.0787, -1.3691 0.0024 -0.0787, -1.4495 -0.0032 -0.0787, -1.4531 -0.3952 -0.0787, -1.4075 -0.3829 -0.0787, -1.3691 -1.2008 -0.0787, -1.4075 -0.3301 -0.0787, -1.6317 -0.0316 -0.0787, -1.6611 -0.0613 -0.0787, -1.7172 0.0024 -0.0787, -1.6476 -0.1926 -0.0787, -1.6439 -0.1517 -0.0787, -1.4997 -0.3553 -0.0787, -1.5385 -0.3509 -0.0787, -1.6459 -0.2223 -0.0787, -1.5678 -0.3404 -0.0787, -1.4519 -0.3491 -0.0787, -1.5086 -0.0384 -0.0787, -1.4563 -0.0442 -0.0787, -1.4146 -0.0597 -0.0787, -1.5417 0.0024 -0.0787, -1.56 0.0007 -0.0787, -1.5994 -0.0119 -0.0787, -1.6301 -0.3538 -0.0787, -1.5898 -0.3797 -0.0787, -1.7172 -1.2008 -0.0787, -1.5459 -0.3941 -0.0787, -1.5002 -0.3985 -0.0787, -1.5957 -0.3217 -0.0787, -1.6193 -0.2953 -0.0787, -1.6354 -0.2649 -0.0787, -1.6964 -0.2368 -0.0787, -1.6833 -0.282 -0.0787, -1.6613 -0.3208 -0.0787, -1.6333 -0.117 -0.0787, -1.6171 -0.0895 -0.0787, -1.5964 -0.0679 -0.0787, -1.572 -0.0521 -0.0787, -1.543 -0.042 -0.0787, -1.6828 -0.0977 -0.0787, -1.6958 -0.1395 -0.0787, -1.7004 -0.1894 -0.0787, -1.4843 0.0024 -0.0787, -1.4952 0.0042 -0.0787, -1.3691 0.1008 -0.0787, -1.5159 0.0048 -0.0787, -1.7172 0.8071 -0.0787, -0.3993 0.0 -0.0787, -0.4391 -0.1104 -0.0787, -0.6018 -0.1104 -0.0787, -0.6393 0.0 -0.0787, -0.7114 0.0024 -0.0787, -0.3417 0.0 -0.0787, -0.4953 -0.3937 -0.0787, -0.5481 -0.3937 -0.0787, -0.7114 -1.2008 -0.0787, -0.697 0.0 -0.0787, -1.0427 -0.3937 -0.0787, -1.0811 -1.2008 -0.0787, -1.0811 0.0024 -0.0787, -0.8832 -0.3894 -0.0787, -0.8372 -0.3754 -0.0787, -0.9315 -0.3937 -0.0787, -0.7931 -0.349 -0.0787, -0.7652 -0.3216 -0.0787, -0.7443 -0.2892 -0.0787, -0.7435 -0.1121 -0.0787, -0.7648 -0.0768 -0.0787, -0.7963 -0.0449 -0.0787, -0.8358 -0.0203 -0.0787, -0.7311 -0.2514 -0.0787, -0.7258 -0.2018 -0.0787, -0.7299 -0.1557 -0.0787, -0.881 -0.0054 -0.0787, -0.9356 0.0 -0.0787, -1.0427 0.0 -0.0787, -1.3307 -0.3937 -0.0787, -1.3307 0.0 -0.0787, -1.1195 0.0 -0.0787, -1.1195 -0.0432 -0.0787, -1.1291 -0.3505 -0.0787, -1.1291 -0.3937 -0.0787, -1.2779 -0.1776 -0.0787, -1.2779 -0.0432 -0.0787, -1.1387 -0.1776 -0.0787, -1.1387 -0.2209 -0.0787, -1.2779 -0.2209 -0.0787, -1.2779 -0.3505 -0.0787, -1.734 -0.0432 -0.0787, -1.734 0.0 -0.0787, -1.9357 0.0 -0.0787, -1.9357 -0.3937 -0.0787, -1.8829 -0.0432 -0.0787, -1.8829 -0.3937 -0.0787, -2.8929 -1.2008 -0.0787, -2.8929 0.0 -0.0787, -1.0811 0.1008 -0.0787, -1.0811 1.2008 -0.0787, -0.7114 1.2008 -0.0787, -0.6488 1.2008 -0.0787, -2.8929 0.0024 -0.0787, -2.8929 0.1008 -0.0787, -2.8929 1.2008 -0.0787, -2.8929 0.134 -0.0696, -2.8929 0.2655 -0.0422, -2.8929 0.3921 0.0027, -2.8929 0.5114 0.0645, -2.8929 0.6211 0.142, -2.8929 0.7193 0.2337, -2.8929 0.8041 0.3379, -2.8929 0.8739 0.4527, -2.8929 0.9274 0.5759, -2.8929 0.3921 1.8083, -2.8929 0.2655 1.8533, -2.8929 1.2008 1.8898, -2.8929 0.134 1.8806, -2.8929 0.0 1.8898, -2.8929 0.9637 0.7053, -2.8929 0.982 0.8383, -2.8929 0.982 0.9727, -2.8929 0.9637 1.1058, -2.8929 0.9274 1.2351, -2.8929 0.8739 1.3583, -2.8929 0.8041 1.4731, -2.8929 0.7193 1.5773, -2.8929 0.6211 1.669, -2.8929 0.5114 1.7465, 1.8709 0.2244 1.5777, 1.8709 0.3293 1.533, 1.8709 1.2008 1.8898, 1.8709 0.4257 1.472, 1.8709 0.5111 1.3964, 1.8709 0.5832 1.3081, 1.8709 0.6402 1.2093, 1.8709 0.6943 0.7638, 1.8709 0.6626 0.6542, 1.8709 0.6137 0.5512, 1.8709 0.5489 0.4573, 1.8709 0.4699 0.3751, 1.8709 0.3788 0.3066, 1.8709 0.2778 0.2536, 1.8709 -0.1696 0.2174, 1.8709 -0.2778 0.2536, 1.8709 -0.3788 0.3066, 1.8709 0.1696 0.2174, 1.8709 0.057 0.1992, 1.8709 -0.057 0.1992, 1.8709 0.6807 1.1027, 1.8709 0.7035 0.9909, 1.8709 0.7081 0.877, 1.8709 -0.6807 1.1027, 1.8709 -0.6402 1.2093, 1.8709 -1.2008 1.8898, 1.8709 -0.5832 1.3081, 1.8709 -0.5111 1.3964, 1.8709 -0.4257 1.472, 1.8709 -0.3293 1.533, 1.8709 -0.2244 1.5777, 1.8709 -0.4699 0.3751, 1.8709 -0.5489 0.4573, 1.8709 -0.6137 0.5512, 1.8709 -0.7081 0.877, 1.8709 -0.7035 0.9909, 1.8709 -0.6626 0.6542, 1.8709 -0.6943 0.7638, 1.8709 -0.1137 1.605, 1.8709 0.0 1.6142, 1.8709 0.1137 1.605, -1.4362 1.2008 1.0237, -1.8299 1.2008 1.0237, 0.926 1.2008 1.0237, 0.5613 1.2008 1.0237, -0.2551 1.2008 1.0237, -0.6488 1.2008 1.0237, -2.8929 -0.5114 0.0645, -2.8929 -0.3921 0.0027, -2.8929 -1.2008 1.8898, -2.8929 -0.8739 1.3583, -2.8929 -0.9274 1.2351, -2.8929 -0.2655 -0.0422, -2.8929 -0.134 -0.0696, -2.8929 -0.2655 1.8533, -2.8929 -0.134 1.8806, -2.8929 -0.6211 1.669, -2.8929 -0.7193 1.5773, -2.8929 -0.8041 1.4731, -2.8929 -0.3921 1.8083, -2.8929 -0.5114 1.7465, -2.8929 -0.9637 1.1058, -2.8929 -0.982 0.9727, -2.8929 -0.982 0.8383, -2.8929 -0.9637 0.7053, -2.8929 -0.9274 0.5759, -2.8929 -0.8739 0.4527, -2.8929 -0.8041 0.3379, -2.8929 -0.7193 0.2337, -2.8929 -0.6211 0.142, 0.7702 1.0489 1.8898, 1.4755 1.0489 1.8898, 1.4755 0.3684 1.8898, 0.7702 0.3684 1.8898, -1.3137 1.0489 1.8898, -1.9524 1.0489 1.8898, -1.9524 0.3684 1.8898, -1.3137 0.3684 1.8898, -0.795 0.3684 1.8898, -0.1089 0.3684 1.8898, -0.1089 1.0489 1.8898, -0.795 1.0489 1.8898, -3.6803 0.134 -0.0696, -3.6803 0.2655 -0.0422, -3.6803 0.3921 0.0027, -3.6803 0.5114 0.0645, -3.6803 0.6211 0.142, -3.6803 0.7193 0.2337, -3.6803 0.8041 0.3379, -3.6803 0.8739 0.4527, -3.6803 0.9274 0.5759, -3.6803 0.9637 0.7053, -3.6803 0.982 0.8383, -3.6803 0.982 0.9727, -3.6803 0.9637 1.1058, -3.6803 0.9274 1.2351, -3.6803 0.8739 1.3583, -3.6803 0.8041 1.4731, -3.6803 0.7193 1.5773, -3.6803 0.6211 1.669, -3.6803 0.5114 1.7465, -3.6803 0.3921 1.8083, -3.6803 0.2655 1.8533, -3.6803 0.134 1.8806, -3.6803 0.0 1.8898, -3.6803 -0.134 1.8806, -3.6803 -0.2655 1.8533, -3.6803 -0.3921 1.8083, -3.6803 -0.5114 1.7465, -3.6803 -0.6211 1.669, -3.6803 -0.7193 1.5773, -3.6803 -0.8041 1.4731, -3.6803 -0.8739 1.3583, -3.6803 -0.9274 1.2351, -3.6803 -0.9637 1.1058, -3.6803 -0.982 0.9727, -3.6803 -0.982 0.8383, -3.6803 -0.9637 0.7053, -3.6803 -0.9274 0.5759, -3.6803 -0.8739 0.4527, -3.6803 -0.8041 0.3379, -3.6803 -0.7193 0.2337, -3.6803 -0.6211 0.142, -3.6803 -0.5114 0.0645, -3.6803 -0.3921 0.0027, -3.6803 -0.2655 -0.0422, -3.6803 -0.134 -0.0696, -3.6803 0.0 -0.0787, -3.6803 -0.3293 1.533, -3.6803 -0.2244 1.5777, -3.6803 -0.1137 1.605, -3.6803 0.0 1.6142, -3.6803 0.1137 1.605, -3.6803 0.2244 1.5777, -3.6803 0.3293 1.533, -3.6803 0.4257 1.472, -3.6803 0.5111 1.3964, -3.6803 0.5832 1.3081, -3.6803 0.6402 1.2093, -3.6803 0.6807 1.1027, -3.6803 -0.7035 0.9909, -3.6803 -0.6807 1.1027, -3.6803 -0.6402 1.2093, -3.6803 -0.5832 1.3081, -3.6803 -0.5111 1.3964, -3.6803 -0.4257 1.472, -3.6803 -0.5489 0.4573, -3.6803 -0.6137 0.5512, -3.6803 -0.6626 0.6542, -3.6803 -0.6943 0.7638, -3.6803 -0.7081 0.877, -3.6803 0.7035 0.9909, -3.6803 0.7081 0.877, -3.6803 0.6943 0.7638, -3.6803 0.6626 0.6542, -3.6803 0.6137 0.5512, -3.6803 0.057 0.1992, -3.6803 -0.057 0.1992, -3.6803 -0.1696 0.2174, -3.6803 -0.2778 0.2536, -3.6803 -0.3788 0.3066, -3.6803 -0.4699 0.3751, -3.6803 0.5489 0.4573, -3.6803 0.4699 0.3751, -3.6803 0.3788 0.3066, -3.6803 0.2778 0.2536, -3.6803 0.1696 0.2174, -2.0661 -0.0 -0.4724, -2.0728 -0.0509 -0.4724, -2.0925 -0.0984 -0.4724, -2.1238 -0.1392 -0.4724, -2.1646 -0.1705 -0.4724, -2.212 -0.1901 -0.4724, -2.263 -0.1969 -0.4724, -2.3139 -0.1901 -0.4724, -2.3614 -0.1705 -0.4724, -2.4022 -0.1392 -0.4724, -2.4335 -0.0984 -0.4724, -2.4531 -0.0509 -0.4724, -2.4598 0.0 -0.4724, -2.4531 0.0509 -0.4724, -2.4335 0.0984 -0.4724, -2.4022 0.1392 -0.4724, -2.3614 0.1705 -0.4724, -2.3139 0.1901 -0.4724, -2.263 0.1969 -0.4724, -2.212 0.1901 -0.4724, -2.1646 0.1705 -0.4724, -2.1238 0.1392 -0.4724, -2.0925 0.0984 -0.4724, -2.0728 0.0509 -0.4724, -2.263 -0.0 -0.4724, 0.6898 -0.0 -0.4724, 0.6831 -0.0509 -0.4724, 0.6634 -0.0984 -0.4724, 0.6321 -0.1392 -0.4724, 0.5913 -0.1705 -0.4724, 0.5439 -0.1901 -0.4724, 0.4929 -0.1969 -0.4724, 0.442 -0.1901 -0.4724, 0.3945 -0.1705 -0.4724, 0.3537 -0.1392 -0.4724, 0.3224 -0.0984 -0.4724, 0.3028 -0.0509 -0.4724, 0.2961 -0.0 -0.4724, 0.3028 0.0509 -0.4724, 0.3224 0.0984 -0.4724, 0.3537 0.1392 -0.4724, 0.3945 0.1705 -0.4724, 0.442 0.1901 -0.4724, 0.4929 0.1969 -0.4724, 0.5439 0.1901 -0.4724, 0.5913 0.1705 -0.4724, 0.6321 0.1392 -0.4724, 0.6634 0.0984 -0.4724, 0.6831 0.0509 -0.4724, 0.4929 -0.0 -0.4724, 0.926 0.8071 1.0237, 0.5613 0.8071 1.0237, -0.6488 0.8071 1.0237, -0.2551 0.8071 1.0237, -1.8299 0.8071 1.0237, -1.4362 0.8071 1.0237, -1.3137 1.0489 1.6929, -1.3137 0.3684 1.6929, -1.9524 0.3684 1.6929, -1.9524 1.0489 1.6929, -0.1089 1.0489 1.6929, -0.1089 0.3684 1.6929, -0.795 0.3684 1.6929, -0.795 1.0489 1.6929, 1.4755 1.0489 1.6929, 1.4755 0.3684 1.6929, 0.7702 0.3684 1.6929, 0.7702 1.0489 1.6929, -0.4953 -0.3937 -0.0748, -0.3417 0.0 -0.0748, -0.3993 0.0 -0.0748, -0.4391 -0.1104 -0.0748, -0.6018 -0.1104 -0.0748, -0.6393 0.0 -0.0748, -0.697 0.0 -0.0748, -0.5481 -0.3937 -0.0748
            ]
        }
        coordIndex [
            0,1,2,-1,3,4,5,-1,6,7,8,-1,9,10,11,-1,11,10,12,-1,11,12,13,-1,13,12,14,-1,10,15,12,-1,12,15,16,-1,12,16,8,-1,8,16,17,-1,8,17,6,-1,7,18,8,-1,8,18,19,-1,8,19,20,-1,20,19,21,-1,22,21,23,-1,23,21,19,-1,23,19,24,-1,24,19,25,-1,26,27,28,-1,28,27,29,-1,28,29,30,-1,31,32,33,-1,34,35,36,-1,36,35,37,-1,36,37,38,-1,38,37,39,-1,1,40,2,-1,2,40,41,-1,2,41,33,-1,33,41,42,-1,33,42,31,-1,32,43,33,-1,33,43,44,-1,33,44,37,-1,37,44,45,-1,37,45,39,-1,18,46,19,-1,19,46,47,-1,19,47,48,-1,34,49,35,-1,35,49,50,-1,35,50,11,-1,11,50,51,-1,11,51,9,-1,52,53,54,-1,55,56,57,-1,57,56,58,-1,57,58,59,-1,60,61,62,-1,62,61,63,-1,63,64,62,-1,62,64,65,-1,62,65,57,-1,57,65,66,-1,57,66,55,-1,67,68,69,-1,69,68,70,-1,69,70,71,-1,71,70,72,-1,71,72,73,-1,67,69,74,-1,74,69,75,-1,74,75,76,-1,77,78,29,-1,29,78,79,-1,29,79,75,-1,75,79,80,-1,75,80,76,-1,81,82,27,-1,82,83,27,-1,27,83,84,-1,27,84,29,-1,29,84,85,-1,29,85,77,-1,86,87,88,-1,88,87,89,-1,90,91,92,-1,92,91,93,-1,92,93,86,-1,94,95,96,-1,93,97,98,-1,99,100,101,-1,101,100,102,-1,97,93,101,-1,101,93,103,-1,101,103,99,-1,104,105,93,-1,93,105,106,-1,93,106,86,-1,107,108,96,-1,96,108,109,-1,96,109,94,-1,110,111,112,-1,112,111,113,-1,112,113,92,-1,92,113,114,-1,92,114,90,-1,102,115,101,-1,101,115,116,-1,101,116,117,-1,118,119,112,-1,112,119,120,-1,112,120,110,-1,98,121,93,-1,93,121,122,-1,93,122,123,-1,123,124,93,-1,93,124,125,-1,93,125,104,-1,95,126,96,-1,96,126,127,-1,96,127,128,-1,129,130,131,-1,130,132,131,-1,131,132,26,-1,131,26,133,-1,133,26,28,-1,134,135,136,-1,136,137,134,-1,134,137,138,-1,134,138,139,-1,139,138,2,-1,139,2,140,-1,140,2,33,-1,140,33,141,-1,141,33,142,-1,141,142,143,-1,143,142,138,-1,143,138,137,-1,144,145,146,-1,147,148,142,-1,145,144,142,-1,142,144,149,-1,142,149,147,-1,148,150,142,-1,142,150,151,-1,142,151,152,-1,153,154,138,-1,138,154,155,-1,138,155,156,-1,152,157,142,-1,142,157,158,-1,142,158,138,-1,138,158,159,-1,138,159,153,-1,156,160,138,-1,138,160,161,-1,138,161,146,-1,146,161,162,-1,146,162,144,-1,163,88,164,-1,164,88,146,-1,164,146,165,-1,165,146,166,-1,166,146,145,-1,166,145,167,-1,86,88,92,-1,92,88,163,-1,92,163,145,-1,145,163,168,-1,145,168,167,-1,169,170,171,-1,171,170,166,-1,171,166,172,-1,172,166,167,-1,172,167,173,-1,173,167,174,-1,175,96,112,-1,112,96,128,-1,112,128,118,-1,175,176,96,-1,96,176,177,-1,96,177,54,-1,54,177,178,-1,179,175,180,-1,180,175,112,-1,180,112,178,-1,178,112,57,-1,178,57,54,-1,54,57,59,-1,54,59,52,-1,181,182,62,-1,62,182,71,-1,62,71,60,-1,60,71,73,-1,89,129,88,-1,88,129,131,-1,88,131,146,-1,146,131,183,-1,146,183,138,-1,138,183,25,-1,138,25,2,-1,2,25,19,-1,2,19,0,-1,0,19,48,-1,53,81,54,-1,54,81,27,-1,54,27,96,-1,96,27,26,-1,96,26,107,-1,107,26,132,-1,133,3,131,-1,131,3,5,-1,131,5,183,-1,183,5,184,-1,183,184,25,-1,25,184,185,-1,25,185,24,-1,24,185,186,-1,182,187,71,-1,71,187,188,-1,71,188,69,-1,69,188,189,-1,69,189,75,-1,187,182,190,-1,189,191,192,-1,192,193,189,-1,189,193,194,-1,189,194,195,-1,195,196,189,-1,189,196,197,-1,189,197,198,-1,199,200,201,-1,201,200,202,-1,201,202,203,-1,191,189,190,-1,190,189,188,-1,190,188,187,-1,198,204,189,-1,189,204,205,-1,189,205,201,-1,205,206,201,-1,201,206,207,-1,201,207,208,-1,208,209,201,-1,201,209,210,-1,201,210,211,-1,211,212,201,-1,201,212,213,-1,201,213,199,-1,214,215,216,-1,216,215,217,-1,217,218,216,-1,216,218,219,-1,216,219,220,-1,221,222,13,-1,222,223,13,-1,13,223,224,-1,13,224,225,-1,225,226,13,-1,13,226,227,-1,13,227,11,-1,35,228,37,-1,37,228,229,-1,37,229,230,-1,227,231,11,-1,11,231,232,-1,11,232,35,-1,35,232,233,-1,35,233,228,-1,220,234,216,-1,216,234,235,-1,216,235,13,-1,13,235,236,-1,13,236,221,-1,237,238,239,-1,239,238,240,-1,239,240,241,-1,241,242,239,-1,239,242,243,-1,239,243,244,-1,230,245,37,-1,37,245,246,-1,37,246,247,-1,37,248,239,-1,239,248,249,-1,239,249,237,-1,247,250,37,-1,37,250,251,-1,37,251,248,-1,244,252,239,-1,239,252,253,-1,239,253,216,-1,216,253,254,-1,216,254,214,-1,255,256,201,-1,216,13,14,-1,256,30,29,-1,14,257,216,-1,216,257,258,-1,216,258,201,-1,21,22,259,-1,256,29,201,-1,201,29,75,-1,201,75,189,-1,5,4,255,-1,260,186,185,-1,20,21,258,-1,258,21,259,-1,258,259,201,-1,201,259,260,-1,201,260,255,-1,260,185,255,-1,255,185,184,-1,255,184,5,-1,261,262,181,-1,263,264,265,-1,262,266,181,-1,181,266,267,-1,181,267,182,-1,268,263,269,-1,269,263,203,-1,270,271,263,-1,263,271,272,-1,263,272,264,-1,268,273,263,-1,263,273,274,-1,263,274,270,-1,265,275,263,-1,263,275,276,-1,263,276,181,-1,181,276,277,-1,181,277,278,-1,278,279,181,-1,181,279,280,-1,181,280,281,-1,281,282,181,-1,181,282,283,-1,181,283,261,-1,263,181,62,-1,62,57,263,-1,263,57,112,-1,263,112,92,-1,92,145,263,-1,263,145,142,-1,263,142,239,-1,239,142,33,-1,239,33,37,-1,216,201,284,-1,284,285,216,-1,216,285,286,-1,216,286,239,-1,239,286,287,-1,288,201,289,-1,289,201,203,-1,289,203,290,-1,290,203,263,-1,290,263,291,-1,292,239,293,-1,293,239,287,-1,293,287,294,-1,263,239,291,-1,291,239,292,-1,291,292,288,-1,288,292,295,-1,288,295,201,-1,201,295,294,-1,201,294,284,-1,284,294,287,-1,182,296,190,-1,190,296,297,-1,190,297,191,-1,191,297,298,-1,191,298,192,-1,192,298,299,-1,192,299,193,-1,193,299,300,-1,193,300,194,-1,194,300,301,-1,194,301,195,-1,195,301,302,-1,195,302,196,-1,196,302,303,-1,196,303,197,-1,197,303,304,-1,197,304,198,-1,198,304,305,-1,198,305,204,-1,204,305,306,-1,204,306,205,-1,205,306,307,-1,205,307,206,-1,206,307,308,-1,206,308,207,-1,207,308,309,-1,207,309,208,-1,208,309,310,-1,208,310,209,-1,209,310,311,-1,209,311,210,-1,210,311,312,-1,210,312,211,-1,211,312,313,-1,211,313,212,-1,212,313,314,-1,212,314,213,-1,213,314,315,-1,213,315,199,-1,199,315,316,-1,199,316,200,-1,200,316,317,-1,200,317,202,-1,202,317,318,-1,202,318,203,-1,203,318,319,-1,203,319,269,-1,269,319,320,-1,269,320,268,-1,268,320,321,-1,268,321,273,-1,273,321,322,-1,273,322,274,-1,274,322,323,-1,274,323,270,-1,270,323,324,-1,270,324,271,-1,271,324,325,-1,271,325,272,-1,272,325,326,-1,272,326,264,-1,264,326,327,-1,264,327,265,-1,265,327,328,-1,265,328,275,-1,275,328,329,-1,275,329,276,-1,276,329,330,-1,276,330,277,-1,277,330,331,-1,277,331,278,-1,278,331,332,-1,278,332,279,-1,279,332,333,-1,279,333,280,-1,280,333,334,-1,280,334,281,-1,281,334,335,-1,281,335,282,-1,282,335,336,-1,282,336,283,-1,283,336,337,-1,283,337,261,-1,261,337,338,-1,261,338,262,-1,262,338,339,-1,262,339,266,-1,266,339,340,-1,266,340,267,-1,267,340,341,-1,267,341,182,-1,182,341,296,-1,342,321,343,-1,343,321,320,-1,343,320,344,-1,344,320,319,-1,344,319,345,-1,345,319,318,-1,345,318,346,-1,346,318,317,-1,346,317,347,-1,317,316,347,-1,347,316,315,-1,347,315,348,-1,348,315,314,-1,348,314,349,-1,349,314,313,-1,349,313,350,-1,350,313,312,-1,350,312,351,-1,351,312,311,-1,351,311,352,-1,352,311,310,-1,352,310,353,-1,354,328,355,-1,355,328,327,-1,355,327,356,-1,356,327,326,-1,356,326,357,-1,357,326,325,-1,357,325,358,-1,358,325,324,-1,358,324,359,-1,359,324,323,-1,359,323,342,-1,342,323,322,-1,342,322,321,-1,360,334,361,-1,361,334,333,-1,361,333,362,-1,362,333,332,-1,362,332,363,-1,363,332,331,-1,363,331,364,-1,364,331,330,-1,364,330,354,-1,354,330,329,-1,354,329,328,-1,310,309,353,-1,353,309,308,-1,353,308,365,-1,365,308,307,-1,365,307,366,-1,366,307,306,-1,366,306,367,-1,367,306,305,-1,367,305,368,-1,368,305,304,-1,368,304,369,-1,370,341,371,-1,371,341,340,-1,371,340,372,-1,372,340,339,-1,372,339,373,-1,373,339,338,-1,373,338,374,-1,374,338,337,-1,374,337,375,-1,375,337,336,-1,375,336,360,-1,360,336,335,-1,360,335,334,-1,304,303,369,-1,369,303,302,-1,369,302,376,-1,376,302,301,-1,376,301,377,-1,377,301,300,-1,377,300,378,-1,378,300,299,-1,378,299,379,-1,379,299,298,-1,379,298,380,-1,380,298,297,-1,380,297,370,-1,370,297,296,-1,370,296,341,-1,253,345,254,-1,254,345,346,-1,254,346,214,-1,214,346,347,-1,214,347,215,-1,215,347,348,-1,215,348,217,-1,217,348,349,-1,217,349,218,-1,218,349,350,-1,218,350,219,-1,219,350,351,-1,219,351,220,-1,220,351,352,-1,220,352,234,-1,234,352,353,-1,234,353,235,-1,235,353,365,-1,235,365,236,-1,236,365,366,-1,236,366,221,-1,221,366,367,-1,221,367,222,-1,222,367,368,-1,222,368,223,-1,223,368,369,-1,223,369,224,-1,224,369,376,-1,224,376,225,-1,225,376,377,-1,225,377,226,-1,226,377,378,-1,226,378,227,-1,227,378,379,-1,227,379,231,-1,231,379,380,-1,231,380,232,-1,232,380,370,-1,232,370,233,-1,233,370,371,-1,233,371,228,-1,228,371,372,-1,228,372,229,-1,229,372,373,-1,229,373,230,-1,230,373,374,-1,230,374,245,-1,245,374,375,-1,245,375,246,-1,246,375,360,-1,246,360,247,-1,247,360,361,-1,247,361,250,-1,250,361,362,-1,250,362,251,-1,251,362,363,-1,251,363,248,-1,248,363,364,-1,248,364,249,-1,249,364,354,-1,249,354,237,-1,237,354,355,-1,237,355,238,-1,238,355,356,-1,238,356,240,-1,240,356,357,-1,240,357,241,-1,241,357,358,-1,241,358,242,-1,242,358,359,-1,242,359,243,-1,243,359,342,-1,243,342,244,-1,244,342,343,-1,244,343,252,-1,252,343,344,-1,252,344,253,-1,253,344,345,-1,381,52,382,-1,382,52,59,-1,382,59,383,-1,383,59,58,-1,383,58,384,-1,384,58,56,-1,384,56,385,-1,385,56,55,-1,385,55,386,-1,386,55,66,-1,386,66,387,-1,387,66,65,-1,387,65,388,-1,388,65,64,-1,388,64,389,-1,389,64,63,-1,389,63,390,-1,390,63,61,-1,390,61,391,-1,391,61,60,-1,391,60,392,-1,392,60,73,-1,392,73,393,-1,393,73,72,-1,393,72,394,-1,72,70,394,-1,394,70,68,-1,394,68,395,-1,395,68,67,-1,395,67,396,-1,67,74,396,-1,396,74,76,-1,396,76,397,-1,397,76,80,-1,397,80,398,-1,398,80,79,-1,398,79,399,-1,399,79,78,-1,399,78,400,-1,400,78,77,-1,400,77,401,-1,401,77,85,-1,401,85,402,-1,402,85,84,-1,402,84,403,-1,84,83,403,-1,403,83,82,-1,403,82,404,-1,404,82,81,-1,404,81,381,-1,381,81,53,-1,381,53,52,-1,391,392,405,-1,405,392,393,-1,405,393,394,-1,388,389,405,-1,405,389,390,-1,405,390,391,-1,385,386,405,-1,405,386,387,-1,405,387,388,-1,382,383,405,-1,405,383,384,-1,405,384,385,-1,403,404,405,-1,405,404,381,-1,405,381,382,-1,400,401,405,-1,405,401,402,-1,405,402,403,-1,397,398,405,-1,405,398,399,-1,405,399,400,-1,394,395,405,-1,405,395,396,-1,405,396,397,-1,406,34,407,-1,407,34,36,-1,407,36,408,-1,408,36,38,-1,408,38,409,-1,409,38,39,-1,409,39,410,-1,410,39,45,-1,410,45,411,-1,411,45,44,-1,411,44,412,-1,412,44,43,-1,412,43,413,-1,413,43,32,-1,413,32,414,-1,414,32,31,-1,414,31,415,-1,415,31,42,-1,415,42,416,-1,416,42,41,-1,416,41,417,-1,417,41,40,-1,417,40,418,-1,418,40,1,-1,418,1,419,-1,1,0,419,-1,419,0,48,-1,419,48,420,-1,420,48,47,-1,420,47,421,-1,47,46,421,-1,421,46,18,-1,421,18,422,-1,422,18,7,-1,422,7,423,-1,423,7,6,-1,423,6,424,-1,424,6,17,-1,424,17,425,-1,425,17,16,-1,425,16,426,-1,426,16,15,-1,426,15,427,-1,427,15,10,-1,427,10,428,-1,10,9,428,-1,428,9,51,-1,428,51,429,-1,429,51,50,-1,429,50,406,-1,406,50,49,-1,406,49,34,-1,416,417,430,-1,430,417,418,-1,430,418,419,-1,413,414,430,-1,430,414,415,-1,430,415,416,-1,410,411,430,-1,430,411,412,-1,430,412,413,-1,407,408,430,-1,430,408,409,-1,430,409,410,-1,428,429,430,-1,430,429,406,-1,430,406,407,-1,425,426,430,-1,430,426,427,-1,430,427,428,-1,422,423,430,-1,430,423,424,-1,430,424,425,-1,419,420,430,-1,430,420,421,-1,430,421,422,-1,12,431,14,-1,14,431,257,-1,431,432,257,-1,257,432,258,-1,432,8,258,-1,258,8,20,-1,8,432,12,-1,12,432,431,-1,433,24,260,-1,260,24,186,-1,259,22,434,-1,434,22,23,-1,433,434,24,-1,24,434,23,-1,434,433,259,-1,259,433,260,-1,435,28,256,-1,256,28,30,-1,255,4,436,-1,436,4,3,-1,28,435,133,-1,133,435,436,-1,133,436,3,-1,436,435,255,-1,255,435,256,-1,437,438,288,-1,288,438,291,-1,438,439,291,-1,291,439,290,-1,439,440,290,-1,290,440,289,-1,440,437,289,-1,289,437,288,-1,440,439,437,-1,437,439,438,-1,441,442,294,-1,294,442,293,-1,442,443,293,-1,293,443,292,-1,443,444,292,-1,292,444,295,-1,444,441,295,-1,295,441,294,-1,444,443,441,-1,441,443,442,-1,445,446,285,-1,285,446,286,-1,446,447,286,-1,286,447,287,-1,447,448,287,-1,287,448,284,-1,448,445,284,-1,284,445,285,-1,448,447,445,-1,445,447,446,-1,449,450,140,-1,140,450,139,-1,450,451,139,-1,139,451,134,-1,451,452,134,-1,134,452,135,-1,452,453,135,-1,135,453,136,-1,453,454,136,-1,136,454,137,-1,454,455,137,-1,137,455,143,-1,455,456,143,-1,143,456,141,-1,456,449,141,-1,141,449,140,-1,
        ]
    }
}
Shape{
    appearance Appearance {
        material  Material 	{
            diffuseColor 1.0 1.0 1.0
            specularColor 0.8784313725490196 0.8784313725490196 0.8784313725490196
            ambientIntensity 1.0
            transparency 0.0
            shininess 0.5
        }
    }
    geometry IndexedFaceSet {
        ccw TRUE
        solid FALSE
        coord DEF co Coordinate {
            point [
                -0.5885 -0.1536 -0.0748, -0.6018 -0.1104 -0.0748, -0.4568 -0.1536 -0.0748, -0.4391 -0.1104 -0.0748, -0.5297 -0.3181 -0.0748, -0.5481 -0.3937 -0.0748, -0.697 0.0 -0.0748, -0.6393 0.0 -0.0748, -0.526 -0.3318 -0.0748, -0.5234 -0.3457 -0.0748, -0.4953 -0.3937 -0.0748, -0.5222 -0.3457 -0.0748, -0.5196 -0.3318 -0.0748, -0.5161 -0.3181 -0.0748, -0.3417 0.0 -0.0748, -0.3993 0.0 -0.0748
            ]
        }
        coordIndex [
            0,1,2,-1,2,1,3,-1,4,5,0,-1,0,5,6,-1,0,6,1,-1,1,6,7,-1,4,8,5,-1,5,8,9,-1,5,9,10,-1,10,9,11,-1,10,11,12,-1,12,13,10,-1,10,13,2,-1,10,2,14,-1,14,2,3,-1,14,3,15,-1,
        ]
    }
}
Shape{
    appearance Appearance {
        material  Material 	{
            diffuseColor 0.10196078431372549 0.10196078431372549 0.10196078431372549
            specularColor 0.03137254901960784 0.03137254901960784 0.03137254901960784
            ambientIntensity 0.102
            transparency 0.0
            shininess 0.5
        }
    }
    geometry IndexedFaceSet {
        ccw TRUE
        solid FALSE
        coord DEF co Coordinate {
            point [
                -0.5885 -0.1536 -0.0748, -0.4568 -0.1536 -0.0748, -0.5885 -0.1536 -0.0787, -0.4568 -0.1536 -0.0787, -0.5297 -0.3181 -0.0748, -0.5297 -0.3181 -0.0787, -0.526 -0.3318 -0.0787, -0.526 -0.3318 -0.0748, -0.5234 -0.3457 -0.0787, -0.5234 -0.3457 -0.0748, -0.5222 -0.3457 -0.0748, -0.5222 -0.3457 -0.0787, -0.5196 -0.3318 -0.0787, -0.5196 -0.3318 -0.0748, -0.5161 -0.3181 -0.0787, -0.5161 -0.3181 -0.0748, -0.9356 0.0 -0.0748, -1.0427 0.0 -0.0748, -0.9356 0.0 -0.0787, -1.0427 0.0 -0.0787, -1.0427 -0.3937 -0.0748, -1.0427 -0.3937 -0.0787, -0.9315 -0.3937 -0.0748, -0.9315 -0.3937 -0.0787, -0.7258 -0.2018 -0.0748, -0.7258 -0.2018 -0.0787, -0.7311 -0.2514 -0.0787, -0.7311 -0.2514 -0.0748, -0.7443 -0.2892 -0.0787, -0.7443 -0.2892 -0.0748, -0.7652 -0.3216 -0.0787, -0.7652 -0.3216 -0.0748, -0.7931 -0.349 -0.0787, -0.7931 -0.349 -0.0748, -0.8372 -0.3754 -0.0787, -0.8372 -0.3754 -0.0748, -0.8832 -0.3894 -0.0787, -0.8832 -0.3894 -0.0748, -0.881 -0.0054 -0.0787, -0.881 -0.0054 -0.0748, -0.8358 -0.0203 -0.0787, -0.8358 -0.0203 -0.0748, -0.7963 -0.0449 -0.0787, -0.7963 -0.0449 -0.0748, -0.7648 -0.0768 -0.0787, -0.7648 -0.0768 -0.0748, -0.7435 -0.1121 -0.0787, -0.7435 -0.1121 -0.0748, -0.7299 -0.1557 -0.0787, -0.7299 -0.1557 -0.0748
            ]
        }
        coordIndex [
            0,1,2,-1,2,1,3,-1,4,0,5,-1,5,0,2,-1,4,5,6,-1,4,6,7,-1,7,6,8,-1,7,8,9,-1,10,9,11,-1,11,9,8,-1,10,11,12,-1,10,12,13,-1,13,12,14,-1,13,14,15,-1,1,15,3,-1,3,15,14,-1,16,17,18,-1,18,17,19,-1,17,20,19,-1,19,20,21,-1,20,22,21,-1,21,22,23,-1,24,25,26,-1,24,26,27,-1,27,26,28,-1,27,28,29,-1,29,28,30,-1,29,30,31,-1,31,30,32,-1,31,32,33,-1,33,32,34,-1,33,34,35,-1,35,34,36,-1,35,36,37,-1,37,36,23,-1,37,23,22,-1,16,18,38,-1,16,38,39,-1,39,38,40,-1,39,40,41,-1,41,40,42,-1,41,42,43,-1,43,42,44,-1,43,44,45,-1,45,44,46,-1,45,46,47,-1,47,46,48,-1,47,48,49,-1,49,48,25,-1,49,25,24,-1,
        ]
    }
}
Shape{
    appearance Appearance {
        material  Material 	{
            diffuseColor 1.0 1.0 1.0
            specularColor 0.8784313725490196 0.8784313725490196 0.8784313725490196
            ambientIntensity 1.0
            transparency 0.0
            shininess 0.5
        }
    }
    geometry IndexedFaceSet {
        ccw TRUE
        solid FALSE
        coord DEF co Coordinate {
            point [
                -0.7786 -0.2007 -0.0748, -0.7258 -0.2018 -0.0748, -0.7818 -0.2391 -0.0748, -0.7311 -0.2514 -0.0748, -0.7913 -0.2715 -0.0748, -0.7443 -0.2892 -0.0748, -0.8049 -0.2955 -0.0748, -0.7652 -0.3216 -0.0748, -0.8241 -0.3158 -0.0748, -0.7931 -0.349 -0.0748, -0.8529 -0.3342 -0.0748, -0.8372 -0.3754 -0.0748, -0.8855 -0.3456 -0.0748, -0.8832 -0.3894 -0.0748, -0.9318 -0.3505 -0.0748, -0.9315 -0.3937 -0.0748, -0.9898 -0.3505 -0.0748, -1.0427 -0.3937 -0.0748, -0.9898 -0.0432 -0.0748, -1.0427 0.0 -0.0748, -0.934 -0.0432 -0.0748, -0.9356 0.0 -0.0748, -0.8938 -0.0468 -0.0748, -0.881 -0.0054 -0.0748, -0.86 -0.0571 -0.0748, -0.8358 -0.0203 -0.0748, -0.8333 -0.0727 -0.0748, -0.7963 -0.0449 -0.0748, -0.8109 -0.0945 -0.0748, -0.7648 -0.0768 -0.0748, -0.7942 -0.1213 -0.0748, -0.7435 -0.1121 -0.0748, -0.7836 -0.1525 -0.0748, -0.7299 -0.1557 -0.0748
            ]
        }
        coordIndex [
            0,1,2,-1,2,1,3,-1,2,3,4,-1,4,3,5,-1,4,5,6,-1,6,5,7,-1,6,7,8,-1,8,7,9,-1,8,9,10,-1,10,9,11,-1,10,11,12,-1,12,11,13,-1,12,13,14,-1,14,13,15,-1,14,15,16,-1,16,15,17,-1,16,17,18,-1,18,17,19,-1,18,19,20,-1,20,19,21,-1,20,21,22,-1,22,21,23,-1,22,23,24,-1,24,23,25,-1,24,25,26,-1,26,25,27,-1,26,27,28,-1,28,27,29,-1,28,29,30,-1,30,29,31,-1,30,31,32,-1,32,31,33,-1,32,33,0,-1,0,33,1,-1,
        ]
    }
}
Shape{
    appearance Appearance {
        material  Material 	{
            diffuseColor 0.10196078431372549 0.10196078431372549 0.10196078431372549
            specularColor 0.03137254901960784 0.03137254901960784 0.03137254901960784
            ambientIntensity 0.102
            transparency 0.0
            shininess 0.5
        }
    }
    geometry IndexedFaceSet {
        ccw TRUE
        solid FALSE
        coord DEF co Coordinate {
            point [
                -0.9318 -0.3505 -0.0748, -0.9898 -0.3505 -0.0748, -0.9318 -0.3505 -0.0787, -0.9898 -0.3505 -0.0787, -0.8855 -0.3456 -0.0787, -0.8855 -0.3456 -0.0748, -0.8529 -0.3342 -0.0787, -0.8529 -0.3342 -0.0748, -0.8241 -0.3158 -0.0787, -0.8241 -0.3158 -0.0748, -0.8049 -0.2955 -0.0787, -0.8049 -0.2955 -0.0748, -0.7913 -0.2715 -0.0787, -0.7913 -0.2715 -0.0748, -0.7818 -0.2391 -0.0787, -0.7818 -0.2391 -0.0748, -0.7786 -0.2007 -0.0787, -0.7786 -0.2007 -0.0748, -0.7836 -0.1525 -0.0787, -0.7836 -0.1525 -0.0748, -0.7942 -0.1213 -0.0787, -0.7942 -0.1213 -0.0748, -0.8109 -0.0945 -0.0787, -0.8109 -0.0945 -0.0748, -0.8333 -0.0727 -0.0787, -0.8333 -0.0727 -0.0748, -0.86 -0.0571 -0.0787, -0.86 -0.0571 -0.0748, -0.8938 -0.0468 -0.0787, -0.8938 -0.0468 -0.0748, -0.934 -0.0432 -0.0787, -0.934 -0.0432 -0.0748, -0.9898 -0.0432 -0.0748, -0.9898 -0.0432 -0.0787, -1.1195 -0.0432 -0.0748, -1.1195 -0.0 -0.0748, -1.1195 -0.0432 -0.0787, -1.1195 0.0 -0.0787, -1.3307 0.0 -0.0748, -1.3307 0.0 -0.0787, -1.3307 -0.3937 -0.0748, -1.3307 -0.3937 -0.0787, -1.1291 -0.3937 -0.0748, -1.1291 -0.3937 -0.0787, -1.1291 -0.3505 -0.0748, -1.1291 -0.3505 -0.0787, -1.2779 -0.3505 -0.0748, -1.2779 -0.3505 -0.0787, -1.2779 -0.2209 -0.0748, -1.2779 -0.2209 -0.0787, -1.1387 -0.2209 -0.0748, -1.1387 -0.2209 -0.0787, -1.1387 -0.1776 -0.0748, -1.1387 -0.1776 -0.0787, -1.2779 -0.1776 -0.0748, -1.2779 -0.1776 -0.0787, -1.2779 -0.0432 -0.0748, -1.2779 -0.0432 -0.0787
            ]
        }
        coordIndex [
            0,1,2,-1,2,1,3,-1,0,2,4,-1,0,4,5,-1,5,4,6,-1,5,6,7,-1,7,6,8,-1,7,8,9,-1,9,8,10,-1,9,10,11,-1,11,10,12,-1,11,12,13,-1,13,12,14,-1,13,14,15,-1,15,14,16,-1,15,16,17,-1,17,16,18,-1,17,18,19,-1,19,18,20,-1,19,20,21,-1,21,20,22,-1,21,22,23,-1,23,22,24,-1,23,24,25,-1,25,24,26,-1,25,26,27,-1,27,26,28,-1,27,28,29,-1,29,28,30,-1,29,30,31,-1,32,31,33,-1,33,31,30,-1,1,32,3,-1,3,32,33,-1,34,35,36,-1,36,35,37,-1,35,38,37,-1,37,38,39,-1,38,40,39,-1,39,40,41,-1,40,42,41,-1,41,42,43,-1,42,44,43,-1,43,44,45,-1,44,46,45,-1,45,46,47,-1,46,48,47,-1,47,48,49,-1,48,50,49,-1,49,50,51,-1,50,52,51,-1,51,52,53,-1,52,54,53,-1,53,54,55,-1,54,56,55,-1,55,56,57,-1,56,34,57,-1,57,34,36,-1,
        ]
    }
}
Shape{
    appearance Appearance {
        material  Material 	{
            diffuseColor 1.0 1.0 1.0
            specularColor 0.8784313725490196 0.8784313725490196 0.8784313725490196
            ambientIntensity 1.0
            transparency 0.0
            shininess 0.5
        }
    }
    geometry IndexedFaceSet {
        ccw TRUE
        solid FALSE
        coord DEF co Coordinate {
            point [
                -1.3307 0.0 -0.0748, -1.1195 -0.0 -0.0748, -1.1195 -0.0432 -0.0748, -1.2779 -0.0432 -0.0748, -1.2779 -0.1776 -0.0748, -1.3307 -0.3937 -0.0748, -1.1291 -0.3505 -0.0748, -1.1291 -0.3937 -0.0748, -1.2779 -0.3505 -0.0748, -1.2779 -0.2209 -0.0748, -1.1387 -0.2209 -0.0748, -1.1387 -0.1776 -0.0748
            ]
        }
        coordIndex [
            0,1,2,-1,2,3,0,-1,0,3,4,-1,0,4,5,-1,6,7,8,-1,8,7,5,-1,8,5,9,-1,9,5,4,-1,9,4,10,-1,10,4,11,-1,
        ]
    }
}
Shape{
    appearance Appearance {
        material  Material 	{
            diffuseColor 0.10196078431372549 0.10196078431372549 0.10196078431372549
            specularColor 0.03137254901960784 0.03137254901960784 0.03137254901960784
            ambientIntensity 0.102
            transparency 0.0
            shininess 0.5
        }
    }
    geometry IndexedFaceSet {
        ccw TRUE
        solid FALSE
        coord DEF co Coordinate {
            point [
                -1.4075 -0.0636 -0.0748, -1.4075 -0.0204 -0.0748, -1.4075 -0.0636 -0.0787, -1.4075 -0.0204 -0.0787, -1.4495 -0.0032 -0.0748, -1.5159 0.0048 -0.0748, -1.5159 0.0048 -0.0787, -1.4952 0.0042 -0.0787, -1.4952 0.0042 -0.0748, -1.4843 0.0024 -0.0787, -1.4495 -0.0032 -0.0787, -1.5417 0.0024 -0.0787, -1.56 0.0007 -0.0748, -1.56 0.0007 -0.0787, -1.5994 -0.0119 -0.0748, -1.5994 -0.0119 -0.0787, -1.6317 -0.0316 -0.0748, -1.6317 -0.0316 -0.0787, -1.6611 -0.0613 -0.0748, -1.6611 -0.0613 -0.0787, -1.6828 -0.0977 -0.0748, -1.6828 -0.0977 -0.0787, -1.6958 -0.1395 -0.0748, -1.6958 -0.1395 -0.0787, -1.7004 -0.1894 -0.0748, -1.7004 -0.1894 -0.0787, -1.5002 -0.3985 -0.0748, -1.5002 -0.3985 -0.0787, -1.5459 -0.3941 -0.0787, -1.5459 -0.3941 -0.0748, -1.5898 -0.3797 -0.0787, -1.5898 -0.3797 -0.0748, -1.6301 -0.3538 -0.0787, -1.6301 -0.3538 -0.0748, -1.6613 -0.3208 -0.0787, -1.6613 -0.3208 -0.0748, -1.6833 -0.282 -0.0787, -1.6833 -0.282 -0.0748, -1.6964 -0.2368 -0.0787, -1.6964 -0.2368 -0.0748, -1.4075 -0.3829 -0.0748, -1.4075 -0.3829 -0.0787, -1.4531 -0.3952 -0.0787, -1.4531 -0.3952 -0.0748, -1.4075 -0.3301 -0.0748, -1.4075 -0.3301 -0.0787, -1.4997 -0.3553 -0.0748, -1.4997 -0.3553 -0.0787, -1.4519 -0.3491 -0.0787, -1.4519 -0.3491 -0.0748, -1.6476 -0.1926 -0.0748, -1.6476 -0.1926 -0.0787, -1.6459 -0.2223 -0.0787, -1.6459 -0.2223 -0.0748, -1.6354 -0.2649 -0.0787, -1.6354 -0.2649 -0.0748, -1.6193 -0.2953 -0.0787, -1.6193 -0.2953 -0.0748, -1.5957 -0.3217 -0.0787, -1.5957 -0.3217 -0.0748, -1.5678 -0.3404 -0.0787, -1.5678 -0.3404 -0.0748, -1.5385 -0.3509 -0.0787, -1.5385 -0.3509 -0.0748, -1.5086 -0.0384 -0.0748, -1.5086 -0.0384 -0.0787, -1.543 -0.042 -0.0787, -1.543 -0.042 -0.0748, -1.572 -0.0521 -0.0787, -1.572 -0.0521 -0.0748, -1.5964 -0.0679 -0.0787, -1.5964 -0.0679 -0.0748, -1.6171 -0.0895 -0.0787, -1.6171 -0.0895 -0.0748, -1.6333 -0.117 -0.0787, -1.6333 -0.117 -0.0748, -1.6439 -0.1517 -0.0787, -1.6439 -0.1517 -0.0748, -1.4146 -0.0597 -0.0787, -1.4146 -0.0597 -0.0748, -1.4563 -0.0442 -0.0787, -1.4563 -0.0442 -0.0748
            ]
        }
        coordIndex [
            0,1,2,-1,2,1,3,-1,3,1,4,-1,5,6,7,-1,5,7,8,-1,8,7,9,-1,8,9,4,-1,4,9,10,-1,4,10,3,-1,6,5,11,-1,11,5,12,-1,11,12,13,-1,13,12,14,-1,13,14,15,-1,15,14,16,-1,15,16,17,-1,17,16,18,-1,17,18,19,-1,19,18,20,-1,19,20,21,-1,21,20,22,-1,21,22,23,-1,23,22,24,-1,23,24,25,-1,26,27,28,-1,26,28,29,-1,29,28,30,-1,29,30,31,-1,31,30,32,-1,31,32,33,-1,33,32,34,-1,33,34,35,-1,35,34,36,-1,35,36,37,-1,37,36,38,-1,37,38,39,-1,39,38,25,-1,39,25,24,-1,40,41,42,-1,40,42,43,-1,43,42,27,-1,43,27,26,-1,40,44,41,-1,41,44,45,-1,46,47,48,-1,46,48,49,-1,49,48,45,-1,49,45,44,-1,50,51,52,-1,50,52,53,-1,53,52,54,-1,53,54,55,-1,55,54,56,-1,55,56,57,-1,57,56,58,-1,57,58,59,-1,59,58,60,-1,59,60,61,-1,61,60,62,-1,61,62,63,-1,63,62,47,-1,63,47,46,-1,64,65,66,-1,64,66,67,-1,67,66,68,-1,67,68,69,-1,69,68,70,-1,69,70,71,-1,71,70,72,-1,71,72,73,-1,73,72,74,-1,73,74,75,-1,75,74,76,-1,75,76,77,-1,77,76,51,-1,77,51,50,-1,0,2,78,-1,0,78,79,-1,79,78,80,-1,79,80,81,-1,81,80,65,-1,81,65,64,-1,
        ]
    }
}
Shape{
    appearance Appearance {
        material  Material 	{
            diffuseColor 1.0 1.0 1.0
            specularColor 0.8784313725490196 0.8784313725490196 0.8784313725490196
            ambientIntensity 1.0
            transparency 0.0
            shininess 0.5
        }
    }
    geometry IndexedFaceSet {
        ccw TRUE
        solid FALSE
        coord DEF co Coordinate {
            point [
                -1.5086 -0.0384 -0.0748, -1.4952 0.0042 -0.0748, -1.4563 -0.0442 -0.0748, -1.4495 -0.0032 -0.0748, -1.4146 -0.0597 -0.0748, -1.4075 -0.0204 -0.0748, -1.4075 -0.0636 -0.0748, -1.4075 -0.3301 -0.0748, -1.4075 -0.3829 -0.0748, -1.4519 -0.3491 -0.0748, -1.4531 -0.3952 -0.0748, -1.4997 -0.3553 -0.0748, -1.5002 -0.3985 -0.0748, -1.5385 -0.3509 -0.0748, -1.5459 -0.3941 -0.0748, -1.5678 -0.3404 -0.0748, -1.5898 -0.3797 -0.0748, -1.5957 -0.3217 -0.0748, -1.6301 -0.3538 -0.0748, -1.6193 -0.2953 -0.0748, -1.6613 -0.3208 -0.0748, -1.6354 -0.2649 -0.0748, -1.6833 -0.282 -0.0748, -1.6459 -0.2223 -0.0748, -1.6964 -0.2368 -0.0748, -1.6476 -0.1926 -0.0748, -1.7004 -0.1894 -0.0748, -1.6439 -0.1517 -0.0748, -1.6958 -0.1395 -0.0748, -1.6333 -0.117 -0.0748, -1.6828 -0.0977 -0.0748, -1.6171 -0.0895 -0.0748, -1.6611 -0.0613 -0.0748, -1.5964 -0.0679 -0.0748, -1.6317 -0.0316 -0.0748, -1.572 -0.0521 -0.0748, -1.5994 -0.0119 -0.0748, -1.543 -0.042 -0.0748, -1.56 0.0007 -0.0748, -1.5159 0.0048 -0.0748
            ]
        }
        coordIndex [
            0,1,2,-1,2,1,3,-1,2,3,4,-1,4,3,5,-1,4,5,6,-1,7,8,9,-1,9,8,10,-1,9,10,11,-1,11,10,12,-1,11,12,13,-1,13,12,14,-1,13,14,15,-1,15,14,16,-1,15,16,17,-1,17,16,18,-1,17,18,19,-1,19,18,20,-1,19,20,21,-1,21,20,22,-1,21,22,23,-1,23,22,24,-1,23,24,25,-1,25,24,26,-1,25,26,27,-1,27,26,28,-1,27,28,29,-1,29,28,30,-1,29,30,31,-1,31,30,32,-1,31,32,33,-1,33,32,34,-1,33,34,35,-1,35,34,36,-1,35,36,37,-1,37,36,38,-1,37,38,0,-1,0,38,39,-1,0,39,1,-1,
        ]
    }
}
Shape{
    appearance Appearance {
        material  Material 	{
            diffuseColor 0.10196078431372549 0.10196078431372549 0.10196078431372549
            specularColor 0.03137254901960784 0.03137254901960784 0.03137254901960784
            ambientIntensity 0.102
            transparency 0.0
            shininess 0.5
        }
    }
    geometry IndexedFaceSet {
        ccw TRUE
        solid FALSE
        coord DEF co Coordinate {
            point [
                -1.734 -0.0432 -0.0748, -1.734 -0.0 -0.0748, -1.734 -0.0432 -0.0787, -1.734 0.0 -0.0787, -1.9357 0.0 -0.0748, -1.9357 0.0 -0.0787, -1.9357 -0.3937 -0.0748, -1.9357 -0.3937 -0.0787, -1.8829 -0.3937 -0.0748, -1.8829 -0.3937 -0.0787, -1.8829 -0.0432 -0.0748, -1.8829 -0.0432 -0.0787
            ]
        }
        coordIndex [
            0,1,2,-1,2,1,3,-1,1,4,3,-1,3,4,5,-1,4,6,5,-1,5,6,7,-1,6,8,7,-1,7,8,9,-1,8,10,9,-1,9,10,11,-1,10,0,11,-1,11,0,2,-1,
        ]
    }
}
Shape{
    appearance Appearance {
        material  Material 	{
            diffuseColor 1.0 1.0 1.0
            specularColor 0.8784313725490196 0.8784313725490196 0.8784313725490196
            ambientIntensity 1.0
            transparency 0.0
            shininess 0.5
        }
    }
    geometry IndexedFaceSet {
        ccw TRUE
        solid FALSE
        coord DEF co Coordinate {
            point [
                -1.8829 -0.3937 -0.0748, -1.9357 -0.3937 -0.0748, -1.8829 -0.0432 -0.0748, -1.9357 0.0 -0.0748, -1.734 -0.0432 -0.0748, -1.734 -0.0 -0.0748
            ]
        }
        coordIndex [
            0,1,2,-1,2,1,3,-1,2,3,4,-1,4,3,5,-1,
        ]
    }
}
Shape{
    appearance Appearance {
        material  Material 	{
            diffuseColor 0.10196078431372549 0.10196078431372549 0.10196078431372549
            specularColor 0.03137254901960784 0.03137254901960784 0.03137254901960784
            ambientIntensity 0.102
            transparency 0.0
            shininess 0.5
        }
    }
    geometry IndexedFaceSet {
        ccw TRUE
        solid FALSE
        coord DEF co Coordinate {
            point [
                -0.5885 -0.1536 -0.0787, -0.4568 -0.1536 -0.0787, -0.5297 -0.3181 -0.0787, -0.5161 -0.3181 -0.0787, -0.526 -0.3318 -0.0787, -0.5196 -0.3318 -0.0787, -0.5234 -0.3457 -0.0787, -0.5222 -0.3457 -0.0787, -0.9898 -0.3505 -0.0787, -0.9898 -0.0432 -0.0787, -0.9318 -0.3505 -0.0787, -0.934 -0.0432 -0.0787, -0.7836 -0.1525 -0.0787, -0.7786 -0.2007 -0.0787, -0.7818 -0.2391 -0.0787, -0.7913 -0.2715 -0.0787, -0.8855 -0.3456 -0.0787, -0.8938 -0.0468 -0.0787, -0.86 -0.0571 -0.0787, -0.8333 -0.0727 -0.0787, -0.8049 -0.2955 -0.0787, -0.8241 -0.3158 -0.0787, -0.8529 -0.3342 -0.0787, -0.8109 -0.0945 -0.0787, -0.7942 -0.1213 -0.0787
            ]
        }
        coordIndex [
            0,1,2,-1,2,1,3,-1,2,3,4,-1,4,3,5,-1,4,5,6,-1,6,5,7,-1,8,9,10,-1,10,9,11,-1,12,13,10,-1,13,14,10,-1,10,14,15,-1,10,15,16,-1,11,17,10,-1,10,17,18,-1,10,18,19,-1,20,21,15,-1,15,21,22,-1,15,22,16,-1,19,23,10,-1,10,23,24,-1,10,24,12,-1,
        ]
    }
}
Shape{
    appearance Appearance {
        material  Material 	{
            diffuseColor 1.0 1.0 1.0
            specularColor 0.8784313725490196 0.8784313725490196 0.8784313725490196
            ambientIntensity 1.0
            transparency 0.0
            shininess 0.5
        }
    }
    geometry IndexedFaceSet {
        ccw TRUE
        solid FALSE
        coord DEF co Coordinate {
            point [
                1.3591 -0.8661 1.6929, 1.7528 -0.8661 1.6929, 1.3591 -0.8661 -0.7874, 1.7528 -0.8661 -0.7874, 1.7528 -0.9449 -0.7874, 1.3591 -0.9449 -0.7874, 1.7528 -0.9449 1.6929, 1.3591 -0.9449 1.6929, 1.7528 -0.9419 1.7192, 1.3591 -0.9419 1.7192, 1.7528 -0.9332 1.7442, 1.3591 -0.9332 1.7442, 1.7528 -0.9191 1.7666, 1.3591 -0.9191 1.7666, 1.7528 -0.9004 1.7853, 1.3591 -0.9004 1.7853, 1.7528 -0.878 1.7993, 1.3591 -0.878 1.7993, 1.7528 -0.8531 1.8081, 1.3591 -0.8531 1.8081, 1.7528 -0.8268 1.811, 1.3591 -0.8268 1.811, 1.3591 -0.4414 1.811, 1.7528 -0.4414 1.811, 1.7528 -0.4414 1.7323, 1.7528 -0.8268 1.7323, 1.3591 -0.4414 1.7323, 1.3591 -0.8268 1.7323, 1.3591 -0.837 1.7309, 1.7528 -0.837 1.7309, 1.3591 -0.8465 1.727, 1.7528 -0.8465 1.727, 1.3591 -0.8546 1.7208, 1.7528 -0.8546 1.7208, 1.3591 -0.8609 1.7126, 1.7528 -0.8609 1.7126, 1.3591 -0.8648 1.7031, 1.7528 -0.8648 1.7031, -1.8299 0.8661 1.6929, -1.4362 0.8661 1.6929, -1.8299 0.8648 1.7031, -1.4362 0.8648 1.7031, -1.8299 0.8609 1.7126, -1.4362 0.8609 1.7126, -1.8299 0.8546 1.7208, -1.4362 0.8546 1.7208, -1.8299 0.8465 1.727, -1.4362 0.8465 1.727, -1.8299 0.837 1.7309, -1.4362 0.837 1.7309, -1.8299 0.8268 1.7323, -1.4362 0.8268 1.7323, -1.8299 0.8661 -0.7874, -1.4362 0.8661 -0.7874, -1.4362 0.9449 -0.7874, -1.8299 0.9449 -0.7874, -1.4362 0.9449 1.6929, -1.8299 0.9449 1.6929, -1.8299 0.8268 1.811, -1.4362 0.8268 1.811, -1.4362 0.8531 1.8081, -1.8299 0.8531 1.8081, -1.4362 0.878 1.7993, -1.8299 0.878 1.7993, -1.4362 0.9004 1.7853, -1.8299 0.9004 1.7853, -1.4362 0.9191 1.7666, -1.8299 0.9191 1.7666, -1.4362 0.9332 1.7442, -1.8299 0.9332 1.7442, -1.4362 0.9419 1.7192, -1.8299 0.9419 1.7192, -1.8299 0.4528 1.7323, -1.8299 0.4528 1.811, -1.4362 0.4528 1.811, -1.4362 0.4528 1.7323, -0.6488 0.8661 1.6929, -0.2551 0.8661 1.6929, -0.6488 0.8648 1.7031, -0.2551 0.8648 1.7031, -0.6488 0.8609 1.7126, -0.2551 0.8609 1.7126, -0.6488 0.8546 1.7208, -0.2551 0.8546 1.7208, -0.6488 0.8465 1.727, -0.2551 0.8465 1.727, -0.6488 0.837 1.7309, -0.2551 0.837 1.7309, -0.6488 0.8268 1.7323, -0.2551 0.8268 1.7323, -0.6488 0.8661 -0.7874, -0.2551 0.8661 -0.7874, -0.2551 0.9449 -0.7874, -0.6488 0.9449 -0.7874, -0.2551 0.9449 1.6929, -0.6488 0.9449 1.6929, -0.6488 0.8268 1.811, -0.2551 0.8268 1.811, -0.2551 0.8531 1.8081, -0.6488 0.8531 1.8081, -0.2551 0.878 1.7993, -0.6488 0.878 1.7993, -0.2551 0.9004 1.7853, -0.6488 0.9004 1.7853, -0.2551 0.9191 1.7666, -0.6488 0.9191 1.7666, -0.2551 0.9332 1.7442, -0.6488 0.9332 1.7442, -0.2551 0.9419 1.7192, -0.6488 0.9419 1.7192, -0.6488 0.4528 1.7323, -0.6488 0.4528 1.811, -0.2551 0.4528 1.811, -0.2551 0.4528 1.7323, 0.926 0.8661 1.6929, 1.3197 0.8661 1.6929, 0.926 0.8648 1.7031, 1.3197 0.8648 1.7031, 0.926 0.8609 1.7126, 1.3197 0.8609 1.7126, 0.926 0.8546 1.7208, 1.3197 0.8546 1.7208, 0.926 0.8465 1.727, 1.3197 0.8465 1.727, 0.926 0.837 1.7309, 1.3197 0.837 1.7309, 0.926 0.8268 1.7323, 1.3197 0.8268 1.7323, 0.926 0.8661 -0.7874, 1.3197 0.8661 -0.7874, 1.3197 0.9449 -0.7874, 0.926 0.9449 -0.7874, 1.3197 0.9449 1.6929, 0.926 0.9449 1.6929, 0.926 0.8268 1.811, 1.3197 0.8268 1.811, 1.3197 0.8531 1.8081, 0.926 0.8531 1.8081, 1.3197 0.878 1.7993, 0.926 0.878 1.7993, 1.3197 0.9004 1.7853, 0.926 0.9004 1.7853, 1.3197 0.9191 1.7666, 0.926 0.9191 1.7666, 1.3197 0.9332 1.7442, 0.926 0.9332 1.7442, 1.3197 0.9419 1.7192, 0.926 0.9419 1.7192, 0.926 0.4528 1.7323, 0.926 0.4528 1.811, 1.3197 0.4528 1.811, 1.3197 0.4528 1.7323
            ]
        }
        coordIndex [
            0,1,2,-1,2,1,3,-1,3,4,2,-1,2,4,5,-1,4,6,5,-1,5,6,7,-1,7,6,8,-1,7,8,9,-1,9,8,10,-1,9,10,11,-1,11,10,12,-1,11,12,13,-1,13,12,14,-1,13,14,15,-1,15,14,16,-1,15,16,17,-1,17,16,18,-1,17,18,19,-1,19,18,20,-1,19,20,21,-1,21,20,22,-1,22,20,23,-1,24,25,26,-1,26,25,27,-1,27,25,28,-1,28,25,29,-1,28,29,30,-1,30,29,31,-1,30,31,32,-1,32,31,33,-1,32,33,34,-1,34,33,35,-1,34,35,36,-1,36,35,37,-1,36,37,0,-1,0,37,1,-1,24,23,25,-1,25,23,20,-1,25,20,29,-1,29,20,18,-1,29,18,31,-1,4,3,6,-1,6,3,1,-1,6,1,8,-1,8,1,37,-1,8,37,10,-1,10,37,35,-1,10,35,12,-1,12,35,33,-1,12,33,14,-1,14,33,31,-1,14,31,16,-1,16,31,18,-1,2,5,0,-1,0,5,7,-1,0,7,36,-1,36,7,9,-1,36,9,34,-1,34,9,11,-1,34,11,32,-1,22,26,21,-1,21,26,27,-1,21,27,19,-1,19,27,28,-1,19,28,17,-1,17,28,30,-1,17,30,15,-1,15,30,32,-1,15,32,13,-1,13,32,11,-1,22,23,26,-1,26,23,24,-1,38,39,40,-1,40,39,41,-1,40,41,42,-1,42,41,43,-1,42,43,44,-1,44,43,45,-1,44,45,46,-1,46,45,47,-1,46,47,48,-1,48,47,49,-1,48,49,50,-1,50,49,51,-1,52,53,38,-1,38,53,39,-1,54,53,55,-1,55,53,52,-1,56,54,57,-1,57,54,55,-1,58,59,60,-1,58,60,61,-1,61,60,62,-1,61,62,63,-1,63,62,64,-1,63,64,65,-1,65,64,66,-1,65,66,67,-1,67,66,68,-1,67,68,69,-1,69,68,70,-1,69,70,71,-1,71,70,56,-1,71,56,57,-1,72,73,50,-1,50,73,58,-1,50,58,48,-1,48,58,61,-1,48,61,46,-1,46,61,63,-1,46,63,44,-1,55,52,57,-1,57,52,38,-1,57,38,71,-1,71,38,40,-1,71,40,69,-1,69,40,42,-1,69,42,67,-1,67,42,44,-1,67,44,65,-1,65,44,63,-1,53,54,39,-1,39,54,56,-1,39,56,41,-1,41,56,70,-1,41,70,43,-1,74,75,59,-1,59,75,51,-1,59,51,60,-1,60,51,49,-1,60,49,62,-1,62,49,47,-1,62,47,64,-1,64,47,45,-1,64,45,66,-1,66,45,43,-1,66,43,68,-1,68,43,70,-1,72,50,75,-1,75,50,51,-1,59,58,74,-1,74,58,73,-1,72,75,73,-1,73,75,74,-1,76,77,78,-1,78,77,79,-1,78,79,80,-1,80,79,81,-1,80,81,82,-1,82,81,83,-1,82,83,84,-1,84,83,85,-1,84,85,86,-1,86,85,87,-1,86,87,88,-1,88,87,89,-1,90,91,76,-1,76,91,77,-1,92,91,93,-1,93,91,90,-1,94,92,95,-1,95,92,93,-1,96,97,98,-1,96,98,99,-1,99,98,100,-1,99,100,101,-1,101,100,102,-1,101,102,103,-1,103,102,104,-1,103,104,105,-1,105,104,106,-1,105,106,107,-1,107,106,108,-1,107,108,109,-1,109,108,94,-1,109,94,95,-1,110,111,88,-1,88,111,96,-1,88,96,86,-1,86,96,99,-1,86,99,84,-1,99,101,84,-1,84,101,103,-1,84,103,82,-1,82,103,105,-1,82,105,80,-1,80,105,107,-1,80,107,78,-1,78,107,109,-1,78,109,76,-1,76,109,95,-1,76,95,90,-1,90,95,93,-1,112,113,97,-1,97,113,89,-1,97,89,98,-1,98,89,87,-1,98,87,100,-1,100,87,85,-1,100,85,102,-1,102,85,83,-1,91,92,77,-1,77,92,94,-1,77,94,79,-1,79,94,108,-1,79,108,81,-1,81,108,106,-1,81,106,83,-1,83,106,104,-1,83,104,102,-1,110,88,113,-1,113,88,89,-1,97,96,112,-1,112,96,111,-1,110,113,111,-1,111,113,112,-1,114,115,116,-1,116,115,117,-1,116,117,118,-1,118,117,119,-1,118,119,120,-1,120,119,121,-1,120,121,122,-1,122,121,123,-1,122,123,124,-1,124,123,125,-1,124,125,126,-1,126,125,127,-1,128,129,114,-1,114,129,115,-1,130,129,131,-1,131,129,128,-1,132,130,133,-1,133,130,131,-1,134,135,136,-1,134,136,137,-1,137,136,138,-1,137,138,139,-1,139,138,140,-1,139,140,141,-1,141,140,142,-1,141,142,143,-1,143,142,144,-1,143,144,145,-1,145,144,146,-1,145,146,147,-1,147,146,132,-1,147,132,133,-1,148,149,126,-1,126,149,134,-1,126,134,124,-1,124,134,137,-1,124,137,122,-1,137,139,122,-1,122,139,141,-1,122,141,120,-1,120,141,143,-1,120,143,118,-1,118,143,145,-1,118,145,116,-1,116,145,147,-1,116,147,114,-1,114,147,133,-1,114,133,128,-1,128,133,131,-1,150,151,135,-1,135,151,127,-1,135,127,136,-1,136,127,125,-1,136,125,138,-1,138,125,123,-1,138,123,140,-1,140,123,121,-1,129,130,115,-1,115,130,132,-1,115,132,117,-1,117,132,146,-1,117,146,119,-1,119,146,144,-1,119,144,121,-1,121,144,142,-1,121,142,140,-1,148,126,151,-1,151,126,127,-1,135,134,150,-1,150,134,149,-1,148,151,149,-1,149,151,150,-1,
        ]
    }
}