M48
; DRILL file {KiCad 7.0.11+dfsg-1build4} date Sat Sep  5 21:49:53 2026
; FORMAT={-:-/ absolute / metric / decimal}
; #@! TF.CreationDate,2026-09-05T21:49:53-03:00
; #@! TF.GenerationSoftware,Kicad,Pcbnew,7.0.11+dfsg-1build4
; #@! TF.FileFunction,MixedPlating,1,2
FMAT,2
METRIC
; #@! TA.AperFunction,Plated,PTH,ViaDrill
T1C0.300
; #@! TA.AperFunction,Plated,PTH,ComponentDrill
T2C0.400
; #@! TA.AperFunction,Plated,PTH,ComponentDrill
T3C0.600
; #@! TA.AperFunction,Plated,PTH,ComponentDrill
T4C0.700
; #@! TA.AperFunction,Plated,PTH,ComponentDrill
T5C0.750
; #@! TA.AperFunction,Plated,PTH,ComponentDrill
T6C0.800
; #@! TA.AperFunction,Plated,PTH,ComponentDrill
T7C0.900
; #@! TA.AperFunction,Plated,PTH,ComponentDrill
T8C0.990
; #@! TA.AperFunction,Plated,PTH,ComponentDrill
T9C1.000
; #@! TA.AperFunction,Plated,PTH,ComponentDrill
T10C1.010
; #@! TA.AperFunction,Plated,PTH,ComponentDrill
T11C1.200
; #@! TA.AperFunction,Plated,PTH,ComponentDrill
T12C1.300
; #@! TA.AperFunction,NonPlated,NPTH,ComponentDrill
T13C1.500
; #@! TA.AperFunction,NonPlated,NPTH,ComponentDrill
T14C3.200
%
G90
G05
T1
X17.094Y-75.263
X18.64Y-72.315
X20.249Y-42.844
X28.849Y-134.708
X29.636Y-63.709
X33.896Y-70.379
X54.657Y-72.316
X55.733Y-45.791
X61.405Y-111.538
X65.084Y-115.557
X76.432Y-103.575
X84.925Y-62.696
X105.882Y-149.063
X106.87Y-55.862
X108.058Y-57.58
X111.908Y-92.938
X119.924Y-160.732
X120.789Y-113.576
X126.701Y-101.788
X129.366Y-122.517
X132.456Y-42.844
X135.572Y-72.316
X135.927Y-110.984
X144.444Y-137.154
X144.471Y-102.445
X149.839Y-140.287
X150.533Y-104.834
X151.394Y-122.072
X152.212Y-69.958
X153.889Y-96.463
X157.354Y-74.536
X159.353Y-104.735
X163.318Y-49.473
X165.469Y-101.387
X168.189Y-152.181
X170.281Y-73.086
X174.505Y-61.031
X178.142Y-65.255
X180.695Y-73.079
X182.885Y-95.894
X185.009Y-67.299
X188.798Y-89.999
T2
X34.05Y-19.65
X34.05Y-21.0
X34.9Y-19.65
X34.9Y-21.0
X35.75Y-19.65
X35.75Y-21.0
X36.6Y-19.65
X36.6Y-21.0
X37.45Y-19.65
X37.45Y-21.0
X38.3Y-19.65
X38.3Y-21.0
X39.15Y-19.65
X39.15Y-21.0
X40.0Y-19.65
X40.0Y-21.0
T4
X84.0Y-19.0
X118.0Y-44.0
T5
X190.0Y-40.0
X190.0Y-53.0
X190.0Y-66.0
X190.0Y-79.0
X191.27Y-40.0
X191.27Y-53.0
X191.27Y-66.0
X191.27Y-79.0
X192.54Y-40.0
X192.54Y-53.0
X192.54Y-66.0
X192.54Y-79.0
T6
X20.0Y-49.84
X20.0Y-60.0
X20.0Y-63.84
X20.0Y-74.0
X20.0Y-77.84
X20.0Y-88.0
X20.0Y-91.84
X20.0Y-102.0
X20.0Y-105.5
X20.0Y-108.0
X20.0Y-119.5
X20.0Y-122.0
X27.0Y-49.84
X27.0Y-60.0
X27.0Y-63.84
X27.0Y-74.0
X27.0Y-77.84
X27.0Y-88.0
X27.0Y-91.84
X27.0Y-102.0
X27.0Y-105.5
X27.0Y-108.0
X27.0Y-119.5
X27.0Y-122.0
X34.0Y-49.84
X34.0Y-60.0
X34.0Y-63.84
X34.0Y-74.0
X34.0Y-77.84
X34.0Y-88.0
X34.0Y-91.84
X34.0Y-102.0
X34.0Y-105.5
X34.0Y-108.0
X34.0Y-119.5
X34.0Y-122.0
X40.0Y-81.84
X40.0Y-92.0
X41.0Y-105.5
X41.0Y-108.0
X41.0Y-119.5
X41.0Y-122.0
X44.0Y-38.0
X44.0Y-40.54
X44.0Y-43.08
X44.0Y-45.62
X44.0Y-64.0
X44.0Y-66.54
X44.0Y-69.08
X44.0Y-71.62
X47.0Y-90.0
X47.0Y-92.0
X48.0Y-105.5
X48.0Y-108.0
X48.0Y-119.5
X48.0Y-122.0
X51.62Y-38.0
X51.62Y-40.54
X51.62Y-43.08
X51.62Y-45.62
X51.62Y-64.0
X51.62Y-66.54
X51.62Y-69.08
X51.62Y-71.62
X54.0Y-87.0
X54.0Y-92.0
X55.0Y-105.5
X55.0Y-108.0
X55.0Y-120.0
X55.0Y-122.0
X61.0Y-87.0
X61.0Y-92.0
X68.0Y-87.0
X68.0Y-92.0
X70.0Y-34.0
X75.0Y-34.0
X84.0Y-54.5
X84.0Y-58.0
X84.0Y-63.84
X84.0Y-74.0
X84.0Y-79.84
X84.0Y-90.0
X91.0Y-55.5
X91.0Y-58.0
X91.0Y-63.84
X91.0Y-74.0
X91.0Y-79.84
X91.0Y-90.0
X96.0Y-34.0
X98.0Y-34.0
X98.0Y-42.0
X98.0Y-44.54
X98.0Y-47.08
X98.0Y-49.62
X98.0Y-56.0
X98.0Y-58.0
X98.0Y-63.84
X98.0Y-74.0
X98.0Y-79.84
X98.0Y-90.0
X105.0Y-54.5
X105.0Y-58.0
X105.0Y-63.84
X105.0Y-74.0
X105.0Y-79.84
X105.0Y-90.0
X105.62Y-42.0
X105.62Y-44.54
X105.62Y-47.08
X105.62Y-49.62
X112.0Y-53.0
X112.0Y-58.0
X116.0Y-66.0
X116.0Y-75.0
X116.0Y-84.0
X118.0Y-84.0
X118.5Y-75.0
X121.0Y-66.0
X124.0Y-85.84
X124.0Y-96.0
X124.0Y-99.84
X124.0Y-110.0
X124.0Y-113.84
X124.0Y-124.0
X124.0Y-132.38
X124.0Y-140.0
X124.0Y-144.38
X124.0Y-152.0
X131.0Y-85.84
X131.0Y-96.0
X131.0Y-99.84
X131.0Y-110.0
X131.0Y-113.84
X131.0Y-124.0
X131.0Y-132.38
X131.0Y-140.0
X131.0Y-144.38
X131.0Y-152.0
X138.0Y-85.84
X138.0Y-96.0
X138.0Y-99.84
X138.0Y-110.0
X138.0Y-113.84
X138.0Y-124.0
X138.0Y-132.38
X138.0Y-140.0
X138.0Y-144.38
X138.0Y-152.0
X145.0Y-85.84
X145.0Y-96.0
X145.0Y-99.84
X145.0Y-110.0
X145.0Y-113.84
X145.0Y-124.0
X145.0Y-132.38
X145.0Y-140.0
X145.0Y-144.38
X145.0Y-152.0
X148.0Y-68.38
X148.0Y-76.0
X150.0Y-30.38
X150.0Y-38.0
X150.0Y-48.38
X150.0Y-56.0
X150.54Y-68.38
X150.54Y-76.0
X152.0Y-85.84
X152.0Y-96.0
X152.0Y-99.84
X152.0Y-110.0
X152.0Y-113.84
X152.0Y-124.0
X152.0Y-132.38
X152.0Y-140.0
X152.0Y-144.38
X152.0Y-152.0
X153.08Y-68.38
X153.08Y-76.0
X155.62Y-68.38
X155.62Y-76.0
X158.16Y-68.38
X158.16Y-76.0
X159.0Y-85.84
X159.0Y-96.0
X159.0Y-99.84
X159.0Y-110.0
X159.0Y-132.38
X159.0Y-140.0
X159.0Y-144.38
X159.0Y-152.0
X160.7Y-68.38
X160.7Y-76.0
X163.24Y-68.38
X163.24Y-76.0
X165.78Y-68.38
X165.78Y-76.0
X166.0Y-132.38
X166.0Y-140.0
X166.0Y-144.38
X166.0Y-152.0
X168.0Y-102.0
X168.0Y-108.0
X168.0Y-114.0
X168.0Y-120.0
X173.0Y-132.38
X173.0Y-140.0
X173.0Y-144.38
X173.0Y-152.0
X176.0Y-30.38
X176.0Y-38.0
X176.0Y-48.38
X176.0Y-56.0
X178.16Y-102.0
X178.16Y-108.0
X178.16Y-114.0
X178.16Y-120.0
X180.0Y-132.38
X180.0Y-140.0
X180.0Y-144.38
X180.0Y-152.0
X187.0Y-132.38
X187.0Y-140.0
X187.0Y-144.38
X187.0Y-152.0
T8
X119.5Y-165.0
X124.0Y-165.0
X133.5Y-165.0
X138.0Y-165.0
X147.5Y-165.0
X152.0Y-165.0
X161.5Y-165.0
X166.0Y-165.0
T9
X30.0Y-160.0
X30.0Y-162.5
X32.5Y-160.0
X32.5Y-162.5
X35.0Y-160.0
X35.0Y-162.5
X45.0Y-160.0
X45.0Y-162.5
X47.5Y-160.0
X47.5Y-162.5
X50.0Y-160.0
X50.0Y-162.5
X60.0Y-160.0
X60.0Y-162.5
X62.5Y-160.0
X62.5Y-162.5
X65.0Y-160.0
X65.0Y-162.5
X75.0Y-160.0
X75.0Y-162.5
X77.5Y-160.0
X77.5Y-162.5
X80.0Y-160.0
X80.0Y-162.5
X90.0Y-160.0
X90.0Y-162.5
X92.5Y-160.0
X92.5Y-162.5
X95.0Y-160.0
X95.0Y-162.5
X138.0Y-36.0
X138.0Y-38.54
X138.0Y-46.16
X138.0Y-54.0
X138.0Y-56.54
X138.0Y-64.16
X143.08Y-36.0
X143.08Y-38.54
X143.08Y-46.16
X143.08Y-54.0
X143.08Y-56.54
X143.08Y-64.16
X164.0Y-36.0
X164.0Y-38.54
X164.0Y-46.16
X164.0Y-54.0
X164.0Y-56.54
X164.0Y-64.16
X169.08Y-36.0
X169.08Y-38.54
X169.08Y-46.16
X169.08Y-54.0
X169.08Y-56.54
X169.08Y-64.16
T10
X56.0Y-34.0
X61.1Y-35.2
T11
X40.0Y-34.0
X50.16Y-34.0
T12
X118.24Y-162.51
X125.25Y-162.51
X132.24Y-162.51
X139.25Y-162.51
X146.24Y-162.51
X153.25Y-162.51
X160.24Y-162.51
X167.25Y-162.51
T13
X112.02Y-14.3
X112.08Y-21.32
X135.02Y-14.3
X135.08Y-21.32
X158.02Y-14.3
X158.08Y-21.32
X181.02Y-14.3
X181.08Y-21.32
X181.92Y-158.68
X181.98Y-165.7
T14
X18.0Y-20.0
X18.0Y-138.0
X19.0Y-156.0
X193.0Y-156.0
X194.0Y-20.0
X194.0Y-138.0
T3
X32.7Y-17.04G85X32.7Y-16.24
G05
X32.7Y-20.77G85X32.7Y-19.27
G05
X41.35Y-17.04G85X41.35Y-16.24
G05
X41.35Y-20.77G85X41.35Y-19.27
G05
T7
X109.8Y-23.72G85X109.8Y-24.62
G05
X114.2Y-15.38G85X114.2Y-16.28
G05
X114.2Y-18.72G85X114.2Y-19.62
G05
X114.2Y-22.72G85X114.2Y-23.62
G05
X132.8Y-23.72G85X132.8Y-24.62
G05
X137.2Y-15.38G85X137.2Y-16.28
G05
X137.2Y-18.72G85X137.2Y-19.62
G05
X137.2Y-22.72G85X137.2Y-23.62
G05
X155.8Y-23.72G85X155.8Y-24.62
G05
X160.2Y-15.38G85X160.2Y-16.28
G05
X160.2Y-18.72G85X160.2Y-19.62
G05
X160.2Y-22.72G85X160.2Y-23.62
G05
X178.8Y-23.72G85X178.8Y-24.62
G05
X179.8Y-157.28G85X179.8Y-156.38
G05
X179.8Y-161.28G85X179.8Y-160.38
G05
X179.8Y-164.62G85X179.8Y-163.72
G05
X183.2Y-15.38G85X183.2Y-16.28
G05
X183.2Y-18.72G85X183.2Y-19.62
G05
X183.2Y-22.72G85X183.2Y-23.62
G05
X184.2Y-156.28G85X184.2Y-155.38
G05
M30
