M48
; DRILL file {KiCad 7.0.11+dfsg-1build4} date Tue Sep  1 10:52:36 2026
; FORMAT={-:-/ absolute / metric / decimal}
; #@! TF.CreationDate,2026-09-01T10:52:36-03:00
; #@! TF.GenerationSoftware,Kicad,Pcbnew,7.0.11+dfsg-1build4
; #@! TF.FileFunction,MixedPlating,1,2
FMAT,2
METRIC
; #@! TA.AperFunction,Plated,PTH,ViaDrill
T1C0.300
; #@! TA.AperFunction,Plated,PTH,ComponentDrill
T2C0.400
; #@! TA.AperFunction,Plated,PTH,ComponentDrill
T3C0.600
; #@! TA.AperFunction,Plated,PTH,ComponentDrill
T4C0.700
; #@! TA.AperFunction,Plated,PTH,ComponentDrill
T5C0.750
; #@! TA.AperFunction,Plated,PTH,ComponentDrill
T6C0.800
; #@! TA.AperFunction,Plated,PTH,ComponentDrill
T7C1.000
; #@! TA.AperFunction,Plated,PTH,ComponentDrill
T8C1.010
; #@! TA.AperFunction,Plated,PTH,ComponentDrill
T9C1.100
; #@! TA.AperFunction,Plated,PTH,ComponentDrill
T10C1.200
; #@! TA.AperFunction,NonPlated,NPTH,ComponentDrill
T11C1.200
; #@! TA.AperFunction,NonPlated,NPTH,ComponentDrill
T12C3.200
%
G90
G05
T1
X27.048Y-84.047
X27.371Y-79.162
X29.12Y-22.214
X29.12Y-25.161
X29.917Y-75.263
X29.917Y-87.052
X31.899Y-48.738
X35.035Y-31.055
X42.618Y-65.532
X44.003Y-119.471
X54.127Y-123.346
X56.832Y-120.565
X61.986Y-139.768
X89.3Y-58.563
X117.14Y-108.163
X117.724Y-107.25
X118.909Y-99.075
X120.787Y-160.732
X123.734Y-87.572
X123.923Y-101.861
X128.987Y-116.524
X130.553Y-107.682
X143.582Y-140.838
X144.206Y-103.912
X144.444Y-137.154
X147.996Y-79.971
X149.266Y-110.63
X149.617Y-81.158
X149.812Y-104.735
X157.057Y-108.608
X157.379Y-80.253
X174.037Y-34.935
X176.446Y-140.102
X176.446Y-148.943
X179.341Y-71.734
X183.564Y-68.248
X191.755Y-95.894
T2
X34.05Y-19.65
X34.05Y-21.0
X34.9Y-19.65
X34.9Y-21.0
X35.75Y-19.65
X35.75Y-21.0
X36.6Y-19.65
X36.6Y-21.0
X37.45Y-19.65
X37.45Y-21.0
X38.3Y-19.65
X38.3Y-21.0
X39.15Y-19.65
X39.15Y-21.0
X40.0Y-19.65
X40.0Y-21.0
T4
X84.0Y-19.0
X118.0Y-44.0
T5
X190.0Y-40.0
X190.0Y-53.0
X190.0Y-66.0
X190.0Y-79.0
X191.27Y-40.0
X191.27Y-53.0
X191.27Y-66.0
X191.27Y-79.0
X192.54Y-40.0
X192.54Y-53.0
X192.54Y-66.0
X192.54Y-79.0
T6
X20.0Y-49.84
X20.0Y-60.0
X20.0Y-63.84
X20.0Y-74.0
X20.0Y-77.84
X20.0Y-88.0
X20.0Y-91.84
X20.0Y-102.0
X20.0Y-105.5
X20.0Y-108.0
X20.0Y-119.5
X20.0Y-122.0
X27.0Y-49.84
X27.0Y-60.0
X27.0Y-63.84
X27.0Y-74.0
X27.0Y-77.84
X27.0Y-88.0
X27.0Y-91.84
X27.0Y-102.0
X27.0Y-105.5
X27.0Y-108.0
X27.0Y-119.5
X27.0Y-122.0
X34.0Y-49.84
X34.0Y-60.0
X34.0Y-63.84
X34.0Y-74.0
X34.0Y-77.84
X34.0Y-88.0
X34.0Y-91.84
X34.0Y-102.0
X34.0Y-105.5
X34.0Y-108.0
X34.0Y-119.5
X34.0Y-122.0
X40.0Y-81.84
X40.0Y-92.0
X41.0Y-105.5
X41.0Y-108.0
X41.0Y-119.5
X41.0Y-122.0
X44.0Y-38.0
X44.0Y-40.54
X44.0Y-43.08
X44.0Y-45.62
X44.0Y-64.0
X44.0Y-66.54
X44.0Y-69.08
X44.0Y-71.62
X47.0Y-90.0
X47.0Y-92.0
X48.0Y-105.5
X48.0Y-108.0
X48.0Y-119.5
X48.0Y-122.0
X51.62Y-38.0
X51.62Y-40.54
X51.62Y-43.08
X51.62Y-45.62
X51.62Y-64.0
X51.62Y-66.54
X51.62Y-69.08
X51.62Y-71.62
X54.0Y-87.0
X54.0Y-92.0
X55.0Y-105.5
X55.0Y-108.0
X55.0Y-120.0
X55.0Y-122.0
X61.0Y-87.0
X61.0Y-92.0
X68.0Y-87.0
X68.0Y-92.0
X70.0Y-34.0
X75.0Y-34.0
X84.0Y-54.5
X84.0Y-58.0
X84.0Y-63.84
X84.0Y-74.0
X84.0Y-79.84
X84.0Y-90.0
X91.0Y-55.5
X91.0Y-58.0
X91.0Y-63.84
X91.0Y-74.0
X91.0Y-79.84
X91.0Y-90.0
X96.0Y-34.0
X98.0Y-34.0
X98.0Y-42.0
X98.0Y-44.54
X98.0Y-47.08
X98.0Y-49.62
X98.0Y-56.0
X98.0Y-58.0
X98.0Y-63.84
X98.0Y-74.0
X98.0Y-79.84
X98.0Y-90.0
X105.0Y-54.5
X105.0Y-58.0
X105.0Y-63.84
X105.0Y-74.0
X105.0Y-79.84
X105.0Y-90.0
X105.62Y-42.0
X105.62Y-44.54
X105.62Y-47.08
X105.62Y-49.62
X112.0Y-53.0
X112.0Y-58.0
X116.0Y-66.0
X116.0Y-75.0
X116.0Y-84.0
X118.0Y-84.0
X118.5Y-75.0
X121.0Y-66.0
X124.0Y-85.84
X124.0Y-96.0
X124.0Y-99.84
X124.0Y-110.0
X124.0Y-113.84
X124.0Y-124.0
X124.0Y-132.38
X124.0Y-140.0
X124.0Y-144.38
X124.0Y-152.0
X131.0Y-85.84
X131.0Y-96.0
X131.0Y-99.84
X131.0Y-110.0
X131.0Y-113.84
X131.0Y-124.0
X131.0Y-132.38
X131.0Y-140.0
X131.0Y-144.38
X131.0Y-152.0
X138.0Y-85.84
X138.0Y-96.0
X138.0Y-99.84
X138.0Y-110.0
X138.0Y-113.84
X138.0Y-124.0
X138.0Y-132.38
X138.0Y-140.0
X138.0Y-144.38
X138.0Y-152.0
X145.0Y-85.84
X145.0Y-96.0
X145.0Y-99.84
X145.0Y-110.0
X145.0Y-113.84
X145.0Y-124.0
X145.0Y-132.38
X145.0Y-140.0
X145.0Y-144.38
X145.0Y-152.0
X148.0Y-68.38
X148.0Y-76.0
X150.0Y-30.38
X150.0Y-38.0
X150.0Y-48.38
X150.0Y-56.0
X150.54Y-68.38
X150.54Y-76.0
X152.0Y-85.84
X152.0Y-96.0
X152.0Y-99.84
X152.0Y-110.0
X152.0Y-113.84
X152.0Y-124.0
X152.0Y-132.38
X152.0Y-140.0
X152.0Y-144.38
X152.0Y-152.0
X153.08Y-68.38
X153.08Y-76.0
X155.62Y-68.38
X155.62Y-76.0
X158.16Y-68.38
X158.16Y-76.0
X159.0Y-85.84
X159.0Y-96.0
X159.0Y-99.84
X159.0Y-110.0
X159.0Y-132.38
X159.0Y-140.0
X159.0Y-144.38
X159.0Y-152.0
X160.7Y-68.38
X160.7Y-76.0
X163.24Y-68.38
X163.24Y-76.0
X165.78Y-68.38
X165.78Y-76.0
X166.0Y-132.38
X166.0Y-140.0
X166.0Y-144.38
X166.0Y-152.0
X173.0Y-132.38
X173.0Y-140.0
X173.0Y-144.38
X173.0Y-152.0
X176.0Y-30.38
X176.0Y-38.0
X176.0Y-48.38
X176.0Y-56.0
X180.0Y-132.38
X180.0Y-140.0
X180.0Y-144.38
X180.0Y-152.0
X187.0Y-132.38
X187.0Y-140.0
X187.0Y-144.38
X187.0Y-152.0
T7
X30.0Y-162.5
X30.0Y-165.0
X32.5Y-162.5
X32.5Y-165.0
X35.0Y-162.5
X35.0Y-165.0
X45.0Y-162.5
X45.0Y-165.0
X47.5Y-162.5
X47.5Y-165.0
X50.0Y-162.5
X50.0Y-165.0
X60.0Y-162.5
X60.0Y-165.0
X62.5Y-162.5
X62.5Y-165.0
X65.0Y-162.5
X65.0Y-165.0
X75.0Y-162.5
X75.0Y-165.0
X77.5Y-162.5
X77.5Y-165.0
X80.0Y-162.5
X80.0Y-165.0
X90.0Y-162.5
X90.0Y-165.0
X92.5Y-162.5
X92.5Y-165.0
X95.0Y-162.5
X95.0Y-165.0
X138.0Y-36.0
X138.0Y-38.54
X138.0Y-46.16
X138.0Y-54.0
X138.0Y-56.54
X138.0Y-64.16
X143.08Y-36.0
X143.08Y-38.54
X143.08Y-46.16
X143.08Y-54.0
X143.08Y-56.54
X143.08Y-64.16
X164.0Y-36.0
X164.0Y-38.54
X164.0Y-46.16
X164.0Y-54.0
X164.0Y-56.54
X164.0Y-64.16
X169.08Y-36.0
X169.08Y-38.54
X169.08Y-46.16
X169.08Y-54.0
X169.08Y-56.54
X169.08Y-64.16
T8
X56.0Y-34.0
X61.1Y-35.2
T9
X124.0Y-160.0
X124.0Y-164.5
X130.5Y-160.0
X130.5Y-164.5
X138.0Y-160.0
X138.0Y-164.5
X144.5Y-160.0
X144.5Y-164.5
X152.0Y-160.0
X152.0Y-164.5
X158.5Y-160.0
X158.5Y-164.5
X166.0Y-160.0
X166.0Y-164.5
X172.5Y-160.0
X172.5Y-164.5
T10
X40.0Y-34.0
X50.16Y-34.0
T11
X114.3Y-15.3
X114.3Y-22.3
X137.3Y-15.3
X137.3Y-22.3
X160.3Y-15.3
X160.3Y-22.3
X179.7Y-155.7
X179.7Y-162.7
X183.3Y-15.3
X183.3Y-22.3
T12
X18.0Y-20.0
X18.0Y-138.0
X19.0Y-156.0
X193.0Y-156.0
X194.0Y-20.0
X194.0Y-138.0
T3
X32.7Y-17.04G85X32.7Y-16.24
G05
X32.7Y-20.77G85X32.7Y-19.27
G05
X41.35Y-17.04G85X41.35Y-16.24
G05
X41.35Y-20.77G85X41.35Y-19.27
G05
X112.0Y-13.7G85X112.0Y-14.3
G05
X112.0Y-16.7G85X112.0Y-17.3
G05
X112.0Y-20.7G85X112.0Y-21.3
G05
X116.5Y-22.2G85X116.5Y-22.8
G05
X117.5Y-13.7G85X117.5Y-14.3
G05
X135.0Y-13.7G85X135.0Y-14.3
G05
X135.0Y-16.7G85X135.0Y-17.3
G05
X135.0Y-20.7G85X135.0Y-21.3
G05
X139.5Y-22.2G85X139.5Y-22.8
G05
X140.5Y-13.7G85X140.5Y-14.3
G05
X158.0Y-13.7G85X158.0Y-14.3
G05
X158.0Y-16.7G85X158.0Y-17.3
G05
X158.0Y-20.7G85X158.0Y-21.3
G05
X162.5Y-22.2G85X162.5Y-22.8
G05
X163.5Y-13.7G85X163.5Y-14.3
G05
X176.5Y-164.3G85X176.5Y-163.7
G05
X177.5Y-155.8G85X177.5Y-155.2
G05
X181.0Y-13.7G85X181.0Y-14.3
G05
X181.0Y-16.7G85X181.0Y-17.3
G05
X181.0Y-20.7G85X181.0Y-21.3
G05
X182.0Y-157.3G85X182.0Y-156.7
G05
X182.0Y-161.3G85X182.0Y-160.7
G05
X182.0Y-164.3G85X182.0Y-163.7
G05
X185.5Y-22.2G85X185.5Y-22.8
G05
X186.5Y-13.7G85X186.5Y-14.3
G05
M30
